<svg xmlns="http://www.w3.org/2000/svg" width="720" height="1640" id="pieces_container" viewBox="0 0 720 1640">
    <symbol id="_0x0" viewBox="-50 -60 178.5 186.66666666666669">
        <path
            d="M 0 0 L 78.5 0  C 75.65 13.33 68.17 29.66 83.87 25.52 C 99.57 21.39 99.57 48.06 83.87 38.86 C 68.17 29.66 79.6 53.33 78.5 66.67 C 62.8 66.49 39.05 61.2 46.48 74.54 C 53.92 87.87 22.52 87.87 30.78 74.54 C 39.05 61.2 15.7 68.02 0 66.67 L 0 0">
        </path>
    </symbol>
    <use id="bonhomme0" href="#_0x0" x="0" y="0" width="178.5" height="186.66666666666669"></use>
    <view id="bonhomme0-view" viewBox="0 0 178.5 186.66666666666669"></view>
    <symbol id="_1x0" viewBox="28.5 -60 178.5 186.66666666666669">
        <path
            d="M 78.5 0 L 157 0  C 157.27 13.33 148.94 34.21 164.64 27.48 C 180.34 20.75 180.34 47.41 164.64 40.81 C 148.94 34.21 158.89 53.33 157 66.67 C 141.3 64.93 118.24 71.48 128.43 58.15 C 138.62 44.82 107.22 44.82 112.73 58.15 C 118.24 71.48 94.2 66.85 78.5 66.67 C 79.6 53.33 68.17 29.66 83.87 38.86 C 99.57 48.06 99.57 21.39 83.87 25.52 C 68.17 29.66 75.65 13.33 78.5 0">
        </path>
    </symbol>
    <use id="bonhomme1" href="#_1x0" x="178.5" y="0" width="178.5" height="186.66666666666669"></use>
    <view id="bonhomme1-view" viewBox="178.5 0 178.5 186.66666666666669"></view>
    <symbol id="_2x0" viewBox="107 -60 178.5 186.66666666666669">
        <path
            d="M 157 0 L 235.5 0  C 234.93 13.33 246.11 37.64 230.41 29.1 C 214.71 20.55 214.71 47.22 230.41 42.43 C 246.11 37.64 237.06 53.33 235.5 66.67 C 219.8 64.96 195.55 72.72 204.97 59.38 C 214.39 46.05 182.99 46.05 189.27 59.38 C 195.55 72.72 172.7 68.4 157 66.67 C 158.89 53.33 148.94 34.21 164.64 40.81 C 180.34 47.41 180.34 20.75 164.64 27.48 C 148.94 34.21 157.27 13.33 157 0">
        </path>
    </symbol>
    <use id="bonhomme2" href="#_2x0" x="357" y="0" width="178.5" height="186.66666666666669"></use>
    <view id="bonhomme2-view" viewBox="357 0 178.5 186.66666666666669"></view>
    <symbol id="_3x0" viewBox="185.5 -60 178.5 186.66666666666669">
        <path
            d="M 235.5 0 L 314 0  L 314 66.66666666666667 C 298.3 68.82 277.35 75.02 283.38 61.68 C 289.4 48.35 258 48.35 267.68 61.68 C 277.35 75.02 251.2 68.37 235.5 66.67 C 237.06 53.33 246.11 37.64 230.41 42.43 C 214.71 47.22 214.71 20.55 230.41 29.1 C 246.11 37.64 234.93 13.33 235.5 0">
        </path>
    </symbol>
    <use id="bonhomme3" href="#_3x0" x="535.5" y="0" width="178.5" height="186.66666666666669"></use>
    <view id="bonhomme3-view" viewBox="535.5 0 178.5 186.66666666666669"></view>
    <symbol id="_0x1" viewBox="-50 6.666666666666671 178.5 186.66666666666669">
        <path
            d="M 0,66.67 C 15.7 68.02 39.05 61.2 30.78 74.54 C 22.52 87.87 53.92 87.87 46.48 74.54 C 39.05 61.2 62.8 66.49 78.5 66.67  C 77.4 80 73.65 98.9 89.35 94.66 C 105.05 90.42 105.05 117.08 89.35 107.99 C 73.65 98.9 80.48 120 78.5 133.33 C 62.8 135.35 38.73 141.76 46.63 128.43 C 54.52 115.09 23.12 115.09 30.93 128.43 C 38.73 141.76 15.7 132.38 0 133.33 L 0 66.66666666666667">
        </path>
    </symbol>
    <use id="bonhomme4" href="#_0x1" x="0" y="186.66666666666669" width="178.5" height="186.66666666666669"></use>
    <view id="bonhomme4-view" viewBox="0 186.66666666666669 178.5 186.66666666666669"></view>
    <symbol id="_1x1" viewBox="28.5 6.666666666666671 178.5 186.66666666666669">
        <path
            d="M 78.5,66.67 C 94.2 66.85 118.24 71.48 112.73 58.15 C 107.22 44.82 138.62 44.82 128.43 58.15 C 118.24 71.48 141.3 64.93 157 66.67  C 155.11 80 162.94 98.96 147.24 94.9 C 131.54 90.84 131.54 117.51 147.24 108.24 C 162.94 98.96 159.04 120 157 133.33 C 141.3 132.21 119.27 127.87 125.31 141.2 C 131.34 154.53 99.94 154.53 109.61 141.2 C 119.27 127.87 94.2 131.31 78.5 133.33 C 80.48 120 73.65 98.9 89.35 107.99 C 105.05 117.08 105.05 90.42 89.35 94.66 C 73.65 98.9 77.4 80 78.5 66.67">
        </path>
    </symbol>
    <use id="bonhomme5" href="#_1x1" x="178.5" y="186.66666666666669" width="178.5" height="186.66666666666669"></use>
    <view id="bonhomme5-view" viewBox="178.5 186.66666666666669 178.5 186.66666666666669"></view>
    <symbol id="_2x1" viewBox="107 6.666666666666671 178.5 186.66666666666669">
        <path
            d="M 157,66.67 C 172.7 68.4 195.55 72.72 189.27 59.38 C 182.99 46.05 214.39 46.05 204.97 59.38 C 195.55 72.72 219.8 64.96 235.5 66.67  C 233.94 80 228.26 101.61 243.96 94.56 C 259.66 87.51 259.66 114.18 243.96 107.89 C 228.26 101.61 235.68 120 235.5 133.33 C 219.8 133.65 191.84 140.61 202.2 127.27 C 212.56 113.94 181.16 113.94 186.5 127.27 C 191.84 140.61 172.7 134.46 157 133.33 C 159.04 120 162.94 98.96 147.24 108.24 C 131.54 117.51 131.54 90.84 147.24 94.9 C 162.94 98.96 155.11 80 157 66.67">
        </path>
    </symbol>
    <use id="bonhomme6" href="#_2x1" x="357" y="186.66666666666669" width="178.5" height="186.66666666666669"></use>
    <view id="bonhomme6-view" viewBox="357 186.66666666666669 178.5 186.66666666666669"></view>
    <symbol id="_3x1" viewBox="185.5 6.666666666666671 178.5 186.66666666666669">
        <path
            d="M 235.5,66.67 C 251.2 68.37 277.35 75.02 267.68 61.68 C 258 48.35 289.4 48.35 283.38 61.68 C 277.35 75.02 298.3 68.82 314 66.67  L 314 133.33333333333334 C 298.3 132.36 272.15 139.38 279.81 126.04 C 287.47 112.71 256.07 112.71 264.11 126.04 C 272.15 139.38 251.2 133.01 235.5 133.33 C 235.68 120 228.26 101.61 243.96 107.89 C 259.66 114.18 259.66 87.51 243.96 94.56 C 228.26 101.61 233.94 80 235.5 66.67">
        </path>
    </symbol>
    <use id="bonhomme7" href="#_3x1" x="535.5" y="186.66666666666669" width="178.5" height="186.66666666666669"></use>
    <view id="bonhomme7-view" viewBox="535.5 186.66666666666669 178.5 186.66666666666669"></view>
    <symbol id="_0x2" viewBox="-50 73.33333333333334 178.5 186.66666666666669">
        <path
            d="M 0,133.33 C 15.7 132.38 38.73 141.76 30.93 128.43 C 23.12 115.09 54.52 115.09 46.63 128.43 C 38.73 141.76 62.8 135.35 78.5 133.33  C 76.52 146.67 89.48 164.6 73.78 158.24 C 58.08 151.87 58.08 178.54 73.78 171.57 C 89.48 164.6 79.5 186.67 78.5 200 C 62.8 199.96 40.64 195.11 45.6 208.45 C 50.55 221.78 19.15 221.78 29.9 208.45 C 40.64 195.11 15.7 198.79 0 200 L 0 133.33333333333334">
        </path>
    </symbol>
    <use id="bonhomme8" href="#_0x2" x="0" y="373.33333333333337" width="178.5" height="186.66666666666669"></use>
    <view id="bonhomme8-view" viewBox="0 373.33333333333337 178.5 186.66666666666669"></view>
    <symbol id="_1x2" viewBox="28.5 73.33333333333334 178.5 186.66666666666669">
        <path
            d="M 78.5,133.33 C 94.2 131.31 119.27 127.87 109.61 141.2 C 99.94 154.53 131.34 154.53 125.31 141.2 C 119.27 127.87 141.3 132.21 157 133.33  C 154.96 146.67 149.9 163.37 165.6 158.46 C 181.3 153.55 181.3 180.22 165.6 171.8 C 149.9 163.37 154.12 186.67 157 200 C 141.3 200.3 118.78 209.15 124.32 195.82 C 129.86 182.48 98.46 182.48 108.62 195.82 C 118.78 209.15 94.2 200.04 78.5 200 C 79.5 186.67 89.48 164.6 73.78 171.57 C 58.08 178.54 58.08 151.87 73.78 158.24 C 89.48 164.6 76.52 146.67 78.5 133.33">
        </path>
    </symbol>
    <use id="bonhomme9" href="#_1x2" x="178.5" y="373.33333333333337" width="178.5" height="186.66666666666669"></use>
    <view id="bonhomme9-view" viewBox="178.5 373.33333333333337 178.5 186.66666666666669"></view>
    <symbol id="_2x2" viewBox="107 73.33333333333334 178.5 186.66666666666669">
        <path
            d="M 157,133.33 C 172.7 134.46 191.84 140.61 186.5 127.27 C 181.16 113.94 212.56 113.94 202.2 127.27 C 191.84 140.61 219.8 133.65 235.5 133.33  C 235.32 146.67 229.63 166.56 245.33 158.88 C 261.03 151.2 261.03 177.86 245.33 172.21 C 229.63 166.56 235.2 186.67 235.5 200 C 219.8 201.91 196.47 204.76 205.86 191.42 C 215.25 178.09 183.85 178.09 190.16 191.42 C 196.47 204.76 172.7 199.7 157 200 C 154.12 186.67 149.9 163.37 165.6 171.8 C 181.3 180.22 181.3 153.55 165.6 158.46 C 149.9 163.37 154.96 146.67 157 133.33">
        </path>
    </symbol>
    <use id="bonhomme10" href="#_2x2" x="357" y="373.33333333333337" width="178.5" height="186.66666666666669"></use>
    <view id="bonhomme10-view" viewBox="357 373.33333333333337 178.5 186.66666666666669"></view>
    <symbol id="_3x2" viewBox="185.5 73.33333333333334 178.5 186.66666666666669">
        <path
            d="M 235.5,133.33 C 251.2 133.01 272.15 139.38 264.11 126.04 C 256.07 112.71 287.47 112.71 279.81 126.04 C 272.15 139.38 298.3 132.36 314 133.33  L 314 200 C 298.3 200.38 275.99 206.61 280.87 193.28 C 285.74 179.94 254.34 179.94 265.17 193.28 C 275.99 206.61 251.2 198.09 235.5 200 C 235.2 186.67 229.63 166.56 245.33 172.21 C 261.03 177.86 261.03 151.2 245.33 158.88 C 229.63 166.56 235.32 146.67 235.5 133.33">
        </path>
    </symbol>
    <use id="bonhomme11" href="#_3x2" x="535.5" y="373.33333333333337" width="178.5" height="186.66666666666669"></use>
    <view id="bonhomme11-view" viewBox="535.5 373.33333333333337 178.5 186.66666666666669"></view>
    <symbol id="_0x3" viewBox="-50 140 178.5 186.66666666666669">
        <path
            d="M 0,200 C 15.7 198.79 40.64 195.11 29.9 208.45 C 19.15 221.78 50.55 221.78 45.6 208.45 C 40.64 195.11 62.8 199.96 78.5 200  C 77.5 213.33 85.25 232.87 69.55 227.38 C 53.85 221.88 53.85 248.55 69.55 240.71 C 85.25 232.87 81.36 253.33 78.5 266.67 C 62.8 266.07 37.12 273.97 45.84 260.64 C 54.56 247.3 23.16 247.3 30.14 260.64 C 37.12 273.97 15.7 267.74 0 266.67 L 0 200">
        </path>
    </symbol>
    <use id="bonhomme12" href="#_0x3" x="0" y="560" width="178.5" height="186.66666666666669"></use>
    <view id="bonhomme12-view" viewBox="0 560 178.5 186.66666666666669"></view>
    <symbol id="_1x3" viewBox="28.5 140 178.5 186.66666666666669">
        <path
            d="M 78.5,200 C 94.2 200.04 118.78 209.15 108.62 195.82 C 98.46 182.48 129.86 182.48 124.32 195.82 C 118.78 209.15 141.3 200.3 157 200  C 159.88 213.33 163.89 231.42 148.19 224.19 C 132.49 216.96 132.49 243.62 148.19 237.52 C 163.89 231.42 154.77 253.33 157 266.67 C 141.3 265.84 119.01 261.23 123.98 274.56 C 128.96 287.89 97.56 287.89 108.28 274.56 C 119.01 261.23 94.2 267.26 78.5 266.67 C 81.36 253.33 85.25 232.87 69.55 240.71 C 53.85 248.55 53.85 221.88 69.55 227.38 C 85.25 232.87 77.5 213.33 78.5 200">
        </path>
    </symbol>
    <use id="bonhomme13" href="#_1x3" x="178.5" y="560" width="178.5" height="186.66666666666669"></use>
    <view id="bonhomme13-view" viewBox="178.5 560 178.5 186.66666666666669"></view>
    <symbol id="_2x3" viewBox="107 140 178.5 186.66666666666669">
        <path
            d="M 157,200 C 172.7 199.7 196.47 204.76 190.16 191.42 C 183.85 178.09 215.25 178.09 205.86 191.42 C 196.47 204.76 219.8 201.91 235.5 200  C 235.8 213.33 228.71 230.73 244.41 226.3 C 260.11 221.88 260.11 248.55 244.41 239.64 C 228.71 230.73 234.48 253.33 235.5 266.67 C 219.8 266.09 198.63 275.78 203.96 262.44 C 209.29 249.11 177.89 249.11 188.26 262.44 C 198.63 275.78 172.7 267.49 157 266.67 C 154.77 253.33 163.89 231.42 148.19 237.52 C 132.49 243.62 132.49 216.96 148.19 224.19 C 163.89 231.42 159.88 213.33 157 200">
        </path>
    </symbol>
    <use id="bonhomme14" href="#_2x3" x="357" y="560" width="178.5" height="186.66666666666669"></use>
    <view id="bonhomme14-view" viewBox="357 560 178.5 186.66666666666669"></view>
    <symbol id="_3x3" viewBox="185.5 140 178.5 186.66666666666669">
        <path
            d="M 235.5,200 C 251.2 198.09 275.99 206.61 265.17 193.28 C 254.34 179.94 285.74 179.94 280.87 193.28 C 275.99 206.61 298.3 200.38 314 200  L 314 266.6666666666667 C 298.3 265.28 269.78 271.58 279.81 258.25 C 289.84 244.92 258.44 244.92 264.11 258.25 C 269.78 271.58 251.2 267.24 235.5 266.67 C 234.48 253.33 228.71 230.73 244.41 239.64 C 260.11 248.55 260.11 221.88 244.41 226.3 C 228.71 230.73 235.8 213.33 235.5 200">
        </path>
    </symbol>
    <use id="bonhomme15" href="#_3x3" x="535.5" y="560" width="178.5" height="186.66666666666669"></use>
    <view id="bonhomme15-view" viewBox="535.5 560 178.5 186.66666666666669"></view>
    <symbol id="_0x4" viewBox="-50 206.66666666666669 178.5 186.66666666666669">
        <path
            d="M 0,266.67 C 15.7 267.74 37.12 273.97 30.14 260.64 C 23.16 247.3 54.56 247.3 45.84 260.64 C 37.12 273.97 62.8 266.07 78.5 266.67  C 75.64 280 83.84 297.36 68.14 293.14 C 52.44 288.92 52.44 315.58 68.14 306.47 C 83.84 297.36 76.82 320 78.5 333.33 C 62.8 333.29 36.53 325.04 44.24 338.37 C 51.94 351.7 20.54 351.7 28.54 338.37 C 36.53 325.04 15.7 333.92 0 333.33 L 0 266.6666666666667">
        </path>
    </symbol>
    <use id="bonhomme16" href="#_0x4" x="0" y="746.6666666666667" width="178.5" height="186.66666666666669"></use>
    <view id="bonhomme16-view" viewBox="0 746.6666666666667 178.5 186.66666666666669"></view>
    <symbol id="_1x4" viewBox="28.5 206.66666666666669 178.5 186.66666666666669">
        <path
            d="M 78.5,266.67 C 94.2 267.26 119.01 261.23 108.28 274.56 C 97.56 287.89 128.96 287.89 123.98 274.56 C 119.01 261.23 141.3 265.84 157 266.67  C 159.23 280 152 299.64 167.7 293.3 C 183.4 286.96 183.4 313.63 167.7 306.63 C 152 299.64 159.09 320 157 333.33 C 141.3 333.5 112.83 342.27 123.34 328.94 C 133.85 315.61 102.45 315.61 107.64 328.94 C 112.83 342.27 94.2 333.38 78.5 333.33 C 76.82 320 83.84 297.36 68.14 306.47 C 52.44 315.58 52.44 288.92 68.14 293.14 C 83.84 297.36 75.64 280 78.5 266.67">
        </path>
    </symbol>
    <use id="bonhomme17" href="#_1x4" x="178.5" y="746.6666666666667" width="178.5" height="186.66666666666669"></use>
    <view id="bonhomme17-view" viewBox="178.5 746.6666666666667 178.5 186.66666666666669"></view>
    <symbol id="_2x4" viewBox="107 206.66666666666669 178.5 186.66666666666669">
        <path
            d="M 157,266.67 C 172.7 267.49 198.63 275.78 188.26 262.44 C 177.89 249.11 209.29 249.11 203.96 262.44 C 198.63 275.78 219.8 266.09 235.5 266.67  C 236.52 280 229.29 300.38 244.99 295.07 C 260.69 289.75 260.69 316.42 244.99 308.4 C 229.29 300.38 233.01 320 235.5 333.33 C 219.8 334.78 193.86 324.01 202.95 337.34 C 212.04 350.67 180.64 350.67 187.25 337.34 C 193.86 324.01 172.7 333.17 157 333.33 C 159.09 320 152 299.64 167.7 306.63 C 183.4 313.63 183.4 286.96 167.7 293.3 C 152 299.64 159.23 280 157 266.67">
        </path>
    </symbol>
    <use id="bonhomme18" href="#_2x4" x="357" y="746.6666666666667" width="178.5" height="186.66666666666669"></use>
    <view id="bonhomme18-view" viewBox="357 746.6666666666667 178.5 186.66666666666669"></view>
    <symbol id="_3x4" viewBox="185.5 206.66666666666669 178.5 186.66666666666669">
        <path
            d="M 235.5,266.67 C 251.2 267.24 269.78 271.58 264.11 258.25 C 258.44 244.92 289.84 244.92 279.81 258.25 C 269.78 271.58 298.3 265.28 314 266.67  L 314 333.33333333333337 C 298.3 333.72 272.12 327.3 279.8 340.64 C 287.48 353.97 256.08 353.97 264.1 340.64 C 272.12 327.3 251.2 331.88 235.5 333.33 C 233.01 320 229.29 300.38 244.99 308.4 C 260.69 316.42 260.69 289.75 244.99 295.07 C 229.29 300.38 236.52 280 235.5 266.67">
        </path>
    </symbol>
    <use id="bonhomme19" href="#_3x4" x="535.5" y="746.6666666666667" width="178.5" height="186.66666666666669"></use>
    <view id="bonhomme19-view" viewBox="535.5 746.6666666666667 178.5 186.66666666666669"></view>
    <symbol id="_0x5" viewBox="-50 273.3333333333333 178.5 186.66666666666669">
        <path
            d="M 0,333.33 C 15.7 333.92 36.53 325.04 28.54 338.37 C 20.54 351.7 51.94 351.7 44.24 338.37 C 36.53 325.04 62.8 333.29 78.5 333.33  C 80.18 346.67 83.57 369.59 67.87 361.8 C 52.17 354.01 52.17 380.68 67.87 375.13 C 83.57 369.59 78.87 386.67 78.5 400 C 62.8 400.46 43.77 406.5 50.14 393.17 C 56.52 379.83 25.12 379.83 34.44 393.17 C 43.77 406.5 15.7 399.79 0 400 L 0 333.3333333333333">
        </path>
    </symbol>
    <use id="bonhomme20" href="#_0x5" x="0" y="933.3333333333335" width="178.5" height="186.66666666666669"></use>
    <view id="bonhomme20-view" viewBox="0 933.3333333333335 178.5 186.66666666666669"></view>
    <symbol id="_1x5" viewBox="28.5 273.3333333333333 178.5 186.66666666666669">
        <path
            d="M 78.5,333.33 C 94.2 333.38 112.83 342.27 107.64 328.94 C 102.45 315.61 133.85 315.61 123.34 328.94 C 112.83 342.27 141.3 333.5 157 333.33  C 154.91 346.67 161.74 362.18 146.04 357.9 C 130.34 353.62 130.34 380.28 146.04 371.23 C 161.74 362.18 156.3 386.67 157 400 C 141.3 397.91 118.42 394.26 124.95 407.59 C 131.47 420.92 100.07 420.92 109.25 407.59 C 118.42 394.26 94.2 399.54 78.5 400 C 78.87 386.67 83.57 369.59 67.87 375.13 C 52.17 380.68 52.17 354.01 67.87 361.8 C 83.57 369.59 80.18 346.67 78.5 333.33">
        </path>
    </symbol>
    <use id="bonhomme21" href="#_1x5" x="178.5" y="933.3333333333335" width="178.5" height="186.66666666666669"></use>
    <view id="bonhomme21-view" viewBox="178.5 933.3333333333335 178.5 186.66666666666669"></view>
    <symbol id="_2x5" viewBox="107 273.3333333333333 178.5 186.66666666666669">
        <path
            d="M 157,333.33 C 172.7 333.17 193.86 324.01 187.25 337.34 C 180.64 350.67 212.04 350.67 202.95 337.34 C 193.86 324.01 219.8 334.78 235.5 333.33  C 237.99 346.67 229.24 363.56 244.94 357.66 C 260.64 351.76 260.64 378.43 244.94 370.99 C 229.24 363.56 237.14 386.67 235.5 400 C 219.8 400.13 193.98 394.66 202.88 407.99 C 211.79 421.33 180.39 421.33 187.18 407.99 C 193.98 394.66 172.7 402.09 157 400 C 156.3 386.67 161.74 362.18 146.04 371.23 C 130.34 380.28 130.34 353.62 146.04 357.9 C 161.74 362.18 154.91 346.67 157 333.33">
        </path>
    </symbol>
    <use id="bonhomme22" href="#_2x5" x="357" y="933.3333333333335" width="178.5" height="186.66666666666669"></use>
    <view id="bonhomme22-view" viewBox="357 933.3333333333335 178.5 186.66666666666669"></view>
    <symbol id="_3x5" viewBox="185.5 273.3333333333333 178.5 186.66666666666669">
        <path
            d="M 235.5,333.33 C 251.2 331.88 272.12 327.3 264.1 340.64 C 256.08 353.97 287.48 353.97 279.8 340.64 C 272.12 327.3 298.3 333.72 314 333.33  L 314 400 C 298.3 397.55 277.41 394.09 284.8 407.42 C 292.18 420.75 260.78 420.75 269.1 407.42 C 277.41 394.09 251.2 399.87 235.5 400 C 237.14 386.67 229.24 363.56 244.94 370.99 C 260.64 378.43 260.64 351.76 244.94 357.66 C 229.24 363.56 237.99 346.67 235.5 333.33">
        </path>
    </symbol>
    <use id="bonhomme23" href="#_3x5" x="535.5" y="933.3333333333335" width="178.5" height="186.66666666666669"></use>
    <view id="bonhomme23-view" viewBox="535.5 933.3333333333335 178.5 186.66666666666669"></view>
    <symbol id="_0x6" viewBox="-50 340 178.5 186.66666666666669">
        <path
            d="M 0,400 C 15.7 399.79 43.77 406.5 34.44 393.17 C 25.12 379.83 56.52 379.83 50.14 393.17 C 43.77 406.5 62.8 400.46 78.5 400  C 78.13 413.33 87.16 437.37 71.46 429.24 C 55.76 421.12 55.76 447.79 71.46 442.58 C 87.16 437.37 78.88 453.33 78.5 466.67 C 62.8 468.3 36.73 459.39 47.47 472.73 C 58.21 486.06 26.81 486.06 31.77 472.73 C 36.73 459.39 15.7 464.55 0 466.67 L 0 400">
        </path>
    </symbol>
    <use id="bonhomme24" href="#_0x6" x="0" y="1120" width="178.5" height="186.66666666666669"></use>
    <view id="bonhomme24-view" viewBox="0 1120 178.5 186.66666666666669"></view>
    <symbol id="_1x6" viewBox="28.5 340 178.5 186.66666666666669">
        <path
            d="M 78.5,400 C 94.2 399.54 118.42 394.26 109.25 407.59 C 100.07 420.92 131.47 420.92 124.95 407.59 C 118.42 394.26 141.3 397.91 157 400  C 157.7 413.33 163.6 432.46 147.9 424.95 C 132.2 417.45 132.2 444.11 147.9 438.29 C 163.6 432.46 158.04 453.33 157 466.67 C 141.3 465.95 113.01 475.82 123.63 462.48 C 134.25 449.15 102.85 449.15 107.93 462.48 C 113.01 475.82 94.2 465.04 78.5 466.67 C 78.88 453.33 87.16 437.37 71.46 442.58 C 55.76 447.79 55.76 421.12 71.46 429.24 C 87.16 437.37 78.13 413.33 78.5 400">
        </path>
    </symbol>
    <use id="bonhomme25" href="#_1x6" x="178.5" y="1120" width="178.5" height="186.66666666666669"></use>
    <view id="bonhomme25-view" viewBox="178.5 1120 178.5 186.66666666666669"></view>
    <symbol id="_2x6" viewBox="107 340 178.5 186.66666666666669">
        <path
            d="M 157,400 C 172.7 402.09 193.98 394.66 187.18 407.99 C 180.39 421.33 211.79 421.33 202.88 407.99 C 193.98 394.66 219.8 400.13 235.5 400  C 233.86 413.33 245.7 435.58 230 426.77 C 214.3 417.96 214.3 444.63 230 440.1 C 245.7 435.58 233.97 453.33 235.5 466.67 C 219.8 464.99 192.77 472.39 201.83 459.06 C 210.89 445.72 179.49 445.72 186.13 459.06 C 192.77 472.39 172.7 467.38 157 466.67 C 158.04 453.33 163.6 432.46 147.9 438.29 C 132.2 444.11 132.2 417.45 147.9 424.95 C 163.6 432.46 157.7 413.33 157 400">
        </path>
    </symbol>
    <use id="bonhomme26" href="#_2x6" x="357" y="1120" width="178.5" height="186.66666666666669"></use>
    <view id="bonhomme26-view" viewBox="357 1120 178.5 186.66666666666669"></view>
    <symbol id="_3x6" viewBox="185.5 340 178.5 186.66666666666669">
        <path
            d="M 235.5,400 C 251.2 399.87 277.41 394.09 269.1 407.42 C 260.78 420.75 292.18 420.75 284.8 407.42 C 277.41 394.09 298.3 397.55 314 400  L 314 466.6666666666667 C 298.3 467.09 273.02 458.14 279.98 471.48 C 286.95 484.81 255.55 484.81 264.28 471.48 C 273.02 458.14 251.2 468.34 235.5 466.67 C 233.97 453.33 245.7 435.58 230 440.1 C 214.3 444.63 214.3 417.96 230 426.77 C 245.7 435.58 233.86 413.33 235.5 400">
        </path>
    </symbol>
    <use id="bonhomme27" href="#_3x6" x="535.5" y="1120" width="178.5" height="186.66666666666669"></use>
    <view id="bonhomme27-view" viewBox="535.5 1120 178.5 186.66666666666669"></view>
    <symbol id="_0x7" viewBox="-50 406.6666666666667 178.5 186.66666666666669">
        <path
            d="M 0,466.67 C 15.7 464.55 36.73 459.39 31.77 472.73 C 26.81 486.06 58.21 486.06 47.47 472.73 C 36.73 459.39 62.8 468.3 78.5 466.67  C 78.12 480 68.36 500.54 84.06 491.81 C 99.76 483.08 99.76 509.75 84.06 505.14 C 68.36 500.54 80.27 520 78.5 533.33 C 62.8 533.48 41.8 525.66 47.27 538.99 C 52.74 552.32 21.34 552.32 31.57 538.99 C 41.8 525.66 15.7 533.05 0 533.33 L 0 466.6666666666667">
        </path>
    </symbol>
    <use id="bonhomme28" href="#_0x7" x="0" y="1306.6666666666667" width="178.5" height="186.66666666666669"></use>
    <view id="bonhomme28-view" viewBox="0 1306.6666666666667 178.5 186.66666666666669"></view>
    <symbol id="_1x7" viewBox="28.5 406.6666666666667 178.5 186.66666666666669">
        <path
            d="M 78.5,466.67 C 94.2 465.04 113.01 475.82 107.93 462.48 C 102.85 449.15 134.25 449.15 123.63 462.48 C 113.01 475.82 141.3 465.95 157 466.67  C 155.96 480 148.99 500.46 164.69 494.95 C 180.39 489.43 180.39 516.1 164.69 508.28 C 148.99 500.46 155.92 520 157 533.33 C 141.3 531.18 121.2 524.45 127.06 537.78 C 132.92 551.12 101.52 551.12 111.36 537.78 C 121.2 524.45 94.2 533.19 78.5 533.33 C 80.27 520 68.36 500.54 84.06 505.14 C 99.76 509.75 99.76 483.08 84.06 491.81 C 68.36 500.54 78.12 480 78.5 466.67">
        </path>
    </symbol>
    <use id="bonhomme29" href="#_1x7" x="178.5" y="1306.6666666666667" width="178.5" height="186.66666666666669"></use>
    <view id="bonhomme29-view" viewBox="178.5 1306.6666666666667 178.5 186.66666666666669"></view>
    <symbol id="_2x7" viewBox="107 406.6666666666667 178.5 186.66666666666669">
        <path
            d="M 157,466.67 C 172.7 467.38 192.77 472.39 186.13 459.06 C 179.49 445.72 210.89 445.72 201.83 459.06 C 192.77 472.39 219.8 464.99 235.5 466.67  C 237.03 480 240.33 501.48 224.63 493.98 C 208.93 486.47 208.93 513.14 224.63 507.31 C 240.33 501.48 233.64 520 235.5 533.33 C 219.8 534.94 193.91 527.43 204.02 540.77 C 214.14 554.1 182.74 554.1 188.32 540.77 C 193.91 527.43 172.7 535.49 157 533.33 C 155.92 520 148.99 500.46 164.69 508.28 C 180.39 516.1 180.39 489.43 164.69 494.95 C 148.99 500.46 155.96 480 157 466.67">
        </path>
    </symbol>
    <use id="bonhomme30" href="#_2x7" x="357" y="1306.6666666666667" width="178.5" height="186.66666666666669"></use>
    <view id="bonhomme30-view" viewBox="357 1306.6666666666667 178.5 186.66666666666669"></view>
    <symbol id="_3x7" viewBox="185.5 406.6666666666667 178.5 186.66666666666669">
        <path
            d="M 235.5,466.67 C 251.2 468.34 273.02 458.14 264.28 471.48 C 255.55 484.81 286.95 484.81 279.98 471.48 C 273.02 458.14 298.3 467.09 314 466.67  L 314 533.3333333333334 C 298.3 534.83 276.68 527.96 284.37 541.29 C 292.07 554.63 260.67 554.63 268.67 541.29 C 276.68 527.96 251.2 531.73 235.5 533.33 C 233.64 520 240.33 501.48 224.63 507.31 C 208.93 513.14 208.93 486.47 224.63 493.98 C 240.33 501.48 237.03 480 235.5 466.67">
        </path>
    </symbol>
    <use id="bonhomme31" href="#_3x7" x="535.5" y="1306.6666666666667" width="178.5" height="186.66666666666669"></use>
    <view id="bonhomme31-view" viewBox="535.5 1306.6666666666667 178.5 186.66666666666669"></view>
    <symbol id="_0x8" viewBox="-50 473.33333333333337 178.5 186.66666666666669">
        <path
            d="M 0,533.33 C 15.7 533.05 41.8 525.66 31.57 538.99 C 21.34 552.32 52.74 552.32 47.27 538.99 C 41.8 525.66 62.8 533.48 78.5 533.33  C 76.73 546.67 70.41 570.9 86.11 562.25 C 101.81 553.6 101.81 580.27 86.11 575.59 C 70.41 570.9 77.28 586.67 78.5 600 L 0 600 L 0 533.3333333333334">
        </path>
    </symbol>
    <use id="bonhomme32" href="#_0x8" x="0" y="1493.3333333333335" width="178.5" height="186.66666666666669"></use>
    <view id="bonhomme32-view" viewBox="0 1493.3333333333335 178.5 186.66666666666669"></view>
    <symbol id="_1x8" viewBox="28.5 473.33333333333337 178.5 186.66666666666669">
        <path
            d="M 78.5,533.33 C 94.2 533.19 121.2 524.45 111.36 537.78 C 101.52 551.12 132.92 551.12 127.06 537.78 C 121.2 524.45 141.3 531.18 157 533.33  C 158.08 546.67 163.31 565.76 147.61 560.82 C 131.91 555.88 131.91 582.55 147.61 574.15 C 163.31 565.76 154.25 586.67 157 600 L 78.5 600 C 77.28 586.67 70.41 570.9 86.11 575.59 C 101.81 580.27 101.81 553.6 86.11 562.25 C 70.41 570.9 76.73 546.67 78.5 533.33">
        </path>
    </symbol>
    <use id="bonhomme33" href="#_1x8" x="178.5" y="1493.3333333333335" width="178.5" height="186.66666666666669"></use>
    <view id="bonhomme33-view" viewBox="178.5 1493.3333333333335 178.5 186.66666666666669"></view>
    <symbol id="_2x8" viewBox="107 473.33333333333337 178.5 186.66666666666669">
        <path
            d="M 157,533.33 C 172.7 535.49 193.91 527.43 188.32 540.77 C 182.74 554.1 214.14 554.1 204.02 540.77 C 193.91 527.43 219.8 534.94 235.5 533.33  C 237.36 546.67 240.44 564.45 224.74 559.19 C 209.04 553.92 209.04 580.59 224.74 572.52 C 240.44 564.45 235.56 586.67 235.5 600 L 157 600 C 154.25 586.67 163.31 565.76 147.61 574.15 C 131.91 582.55 131.91 555.88 147.61 560.82 C 163.31 565.76 158.08 546.67 157 533.33">
        </path>
    </symbol>
    <use id="bonhomme34" href="#_2x8" x="357" y="1493.3333333333335" width="178.5" height="186.66666666666669"></use>
    <view id="bonhomme34-view" viewBox="357 1493.3333333333335 178.5 186.66666666666669"></view>
    <symbol id="_3x8" viewBox="185.5 473.33333333333337 178.5 186.66666666666669">
        <path
            d="M 235.5,533.33 C 251.2 531.73 276.68 527.96 268.67 541.29 C 260.67 554.63 292.07 554.63 284.37 541.29 C 276.68 527.96 298.3 534.83 314 533.33  L 314 600 L 235.5 600 C 235.56 586.67 240.44 564.45 224.74 572.52 C 209.04 580.59 209.04 553.92 224.74 559.19 C 240.44 564.45 237.36 546.67 235.5 533.33">
        </path>
    </symbol>
    <use id="bonhomme35" href="#_3x8" x="535.5" y="1493.3333333333335" width="178.5" height="186.66666666666669"></use>
    <view id="bonhomme35-view" viewBox="535.5 1493.3333333333335 178.5 186.66666666666669"></view>
</svg>