<svg xmlns="http://www.w3.org/2000/svg" xml:space="preserve" viewBox="0 0 880 880">
  <path fill="#231f20" fill-rule="evenodd" d="M364.01 592.881c0 5.291-.494 10.708 5.738 12.976a8.716 8.716 0 0 0 10.528-12.552c-3.032-5.254-8.668-9.074-14.708-8.493-45.716 4.383-7.677 86.956-50.872 102.81.999-8.298-8.23-15.98-15.736-11.238a7.63 7.63 0 0 0-3.496 7.363 13.353 13.353 0 0 0 6.584 9.969 13.352 13.352 0 0 0 11.927.716c54.306-23.192 15.453-92.708 50.034-101.55m110.636 0c34.578 8.842-4.273 78.358 50.035 101.55a13.352 13.352 0 0 0 11.927-.716 13.354 13.354 0 0 0 6.585-9.97 7.636 7.636 0 0 0-3.497-7.362c-7.503-4.743-16.736 2.94-15.736 11.239-43.195-15.855-5.156-98.428-50.872-102.811-6.042-.581-11.675 3.239-14.71 8.493a8.72 8.72 0 0 0 10.532 12.552c6.23-2.268 5.736-7.685 5.736-12.976m-77.53 231.146c-20.72-55.951-69.591-99.376-125.483-53.008 63.133-9.046 87.64 8.418 125.483 53.008m17.378-695.224v465.126h-6.138V128.803h-1.767v465.126h-6.392v7.174h6.392v87.08h1.767v-87.08h6.138v87.08h1.764v-87.08h6.14v87.08h1.766v-87.08h6.14v87.08h1.764v-87.08h6.39v-7.174h-6.39V128.803h-1.764v465.126h-6.14V128.803h-1.766v465.126h-6.14V128.803Zm-15.489 566.15 11.556 154.63h17.535l11.558-154.63zM412.999 858v2.889c0 3.179 2.602 5.779 5.78 5.779h1.096c3.178 0 5.777-2.6 5.777-5.779v-2.89zM663.176 37.227h-8.823V754.91h8.823zm-24.703-26.518h32.48v26.518h-3.28V754.91h3.871v111.756h-33.07zM436.581 127.777l2.187 180.65c.343 28.306 24.683 45.785 52.107 61.87 34.537 20.26 51.421 58.711 42.968 97.847-1.136 5.272-1.243 5.768-2.382 11.039 10.892 5.222 5.79 17.172-6.613 18.944-39.783 5.685-15.583 109.233 17.936 101.422 19.015-4.428 22.455 14.444 8.367 21.323 81.198 125.667 41.241 248.147-131.824 233.533C246.265 869.02 206.309 746.54 287.505 620.872c-14.085-6.879-10.646-25.75 8.368-21.323 33.519 7.811 57.715-95.737 17.934-101.422-12.4-1.772-17.506-13.722-6.611-18.944-1.139-5.271-1.25-5.767-2.385-11.039-8.452-39.136 8.433-77.587 42.968-97.847 27.425-16.085 51.768-33.564 52.108-61.87l2.238-184.936h-8.902l2.032-24.287h-13.26v.35c0 3.834-3.138 6.973-6.975 6.973-3.835 0-6.973-3.139-6.973-6.974v-5.98c0-3.836 3.138-6.973 6.973-6.973 3.837 0 6.975 3.137 6.975 6.973v.35h12.596l.773 3.964 4.153-49.694h-13.334v.348c0 3.835-3.14 6.974-6.976 6.974h-.003c-3.836 0-6.973-3.139-6.973-6.974v-5.978c0-3.836 3.137-6.975 6.973-6.975h.003c3.836 0 6.976 3.139 6.976 6.975v.348h12.593l.825 4.244 3.046-36.446h33.361l2.168 25.983.644-3.295h12.597v-.348c0-3.836 3.136-6.974 6.971-6.974h.004c3.833 0 6.972 3.138 6.972 6.974v5.979c0 3.835-3.139 6.973-6.972 6.973h-.004c-3.835 0-6.97-3.138-6.97-6.973v-.35h-13.075l4.073 48.743.59-3.013h12.593v-.348c0-3.836 3.14-6.973 6.976-6.973s6.972 3.137 6.972 6.973v5.979c0 3.836-3.136 6.974-6.972 6.974-3.836 0-6.976-3.138-6.976-6.974v-.35h-12.994l2.826 33.802h-41.155z"/>
</svg>
