<svg xmlns="http://www.w3.org/2000/svg" xmlns:xlink="http://www.w3.org/1999/xlink" version="1.2" viewBox="0 0 40.583 9.885">
  <defs>
    <path id="a" stroke="currentColor" stroke-linecap="round" stroke-linejoin="round" stroke-width="0.0944" d="M.047 0h40.489"/>
    <path id="b" fill="currentColor" d="M208 139c61 0 117-33 117-99 0-71-52-119-99-147-34-20-71-32-110-32C55-139 0-106 0-40 0 31 51 79 98 107c34 20 71 32 110 32z"/>
    <path id="c" fill="currentColor" d="M0 0c0-196 207-334 207-530 0-71-15-140-41-206-5-10-14-13-23-13-14 0-28 10-28 26 0 2 1 3 1 5 26 59 42 123 42 188 0 101-90 205-158 280h-21V0Z"/>
    <path id="d" fill="currentColor" d="M308 62c0 23-20 39-40 39-4 0-7 0-11-1-29-8-74-38-109-61S69-13 49-36c-6-8-10-16-10-26 0-23 20-39 40-39 4 0 7 0 11 1 29 8 74 38 109 61s79 52 99 75c6 8 10 16 10 26zM0-59C0 83 114 139 251 139c53 0 96-22 96-80 0-142-115-198-252-198-53 0-95 22-95 80z"/>
    <path id="e" fill="currentColor" d="M0 0c0 30 25 55 55 55s54-25 54-55-24-55-54-55S0-30 0 0Z"/>
  </defs>
  
  <use xlink:href="#a" stroke-linecap="round" stroke-linejoin="round" stroke-width="0.0944" transform="translate(0 6.201)"/>
  <use xlink:href="#a" stroke-linecap="round" stroke-linejoin="round" stroke-width="0.0944" transform="translate(0 5.464)"/>
  <use xlink:href="#a" stroke-linecap="round" stroke-linejoin="round" stroke-width="0.0944" transform="translate(0 4.727)"/>
  <use xlink:href="#a" stroke-linecap="round" stroke-linejoin="round" stroke-width="0.0944" transform="translate(0 3.99)"/>
  <use xlink:href="#a" stroke-linecap="round" stroke-linejoin="round" stroke-width="0.0944" transform="translate(0 3.254)"/>
  
  <rect width="0.1794" height="2.9474001" y="-1.474" fill="currentColor" ry="0.0000" transform="translate(17.989 4.727)"/>
  <rect width="0.1794" height="2.9474001" y="-1.474" fill="currentColor" ry="0.0000" transform="translate(32.6 4.727)"/>
  <rect width="1.4524" height="0.1681" x="23.811" y="-.084" fill="currentColor" ry="0.084100001" transform="translate(0 6.938)"/>
  <rect width="0.1228" height="1.6677999" x="-.061" y="2.385" fill="currentColor" ry="0.042100001" transform="translate(24.047 4.727)"/>
  <path fill="currentColor" d="M22.825 6.596c0-.036.021-.066.054-.078l.111-.045V6.02c0-.036.03-.066.066-.066s.066.03.066.066v.402l.231-.087v-.456c0-.036.03-.066.066-.066s.066.03.066.066v.402l.048-.018a.128.128 0 0 1 .033-.006c.045 0 .084.036.084.084v.15a.085.085 0 0 1-.054.081l-.111.042v.456l.048-.021a.128.128 0 0 1 .033-.006c.045 0 .084.039.084.087v.15a.081.081 0 0 1-.054.078l-.111.045v.453c0 .036-.03.066-.066.066s-.066-.03-.066-.066v-.402l-.231.087v.456c0 .036-.03.066-.066.066s-.066-.03-.066-.066v-.402l-.048.018a.128.128 0 0 1-.033.006.084.084 0 0 1-.084-.084v-.15c0-.036.021-.069.054-.081l.111-.042v-.456l-.048.021a.128.128 0 0 1-.033.006.086.086 0 0 1-.084-.087Zm.528.069-.231.09v.456l.231-.09z"/>
  <use xlink:href="#b" transform="matrix(.003 0 0 -.003 29.244 3.622)"/>
  <rect width="0.1228" height="2.0913" x="-.061" y="-3.316" fill="currentColor" ry="0.042100001" transform="translate(30.14 4.727)"/>
  <use xlink:href="#c" transform="matrix(.003 0 0 -.003 30.2 1.454)"/>
  <use xlink:href="#b" transform="matrix(.003 0 0 -.003 33.682 3.254)"/>
  <use xlink:href="#b" transform="matrix(.003 0 0 -.003 23.986 3.622)"/>
  <use xlink:href="#d" transform="matrix(.003 0 0 -.003 24.497 5.096)"/>
  <use xlink:href="#d" transform="matrix(.003 0 0 -.003 25.518 5.464)"/>
  <use xlink:href="#d" transform="matrix(.003 0 0 -.003 23.986 6.938)"/>
  <use xlink:href="#e" transform="matrix(.003 0 0 -.003 26.862 3.622)"/>
  <rect width="0.1228" height="1.9685" x="-.061" y="-3.193" fill="currentColor" ry="0.042100001" transform="translate(24.88 4.727)"/>
  <use xlink:href="#b" transform="matrix(.003 0 0 -.003 34.16 5.096)"/>
  <rect width="0.1228" height="2.4047" x="-.061" y="-2.211" fill="currentColor" ry="0.042100001" transform="translate(25.457 4.727)"/>
  <rect width="0.1228" height="2.4047" x="-.061" y="-1.842" fill="currentColor" ry="0.042100001" transform="translate(26.479 4.727)"/>
  <rect width="0.1228" height="1.7229" x="-.061" y="1.961" fill="currentColor" ry="0.042100001" transform="translate(33.744 4.727)"/>
  <rect width="0.1228" height="2.4597001" x="-.061" y="-1.474" fill="currentColor" ry="0.042100001" transform="translate(35.534 4.727)"/>
  <rect width="0.1228" height="2.4597001" x="-.061" y="-2.211" fill="currentColor" ry="0.042100001" transform="translate(35.056 4.727)"/>
  <rect width="0.1228" height="1.8457" x="-.061" y="-3.439" fill="currentColor" ry="0.042100001" transform="translate(34.577 4.727)"/>
  <use xlink:href="#b" transform="matrix(.003 0 0 -.003 33.682 6.57)"/>
  <use xlink:href="#b" transform="matrix(.003 0 0 -.003 34.639 5.833)"/>
  <rect width="0.1228" height="1.6677999" x="-.061" y="2.016" fill="currentColor" ry="0.042100001" transform="translate(9.435 4.727)"/>
  <use xlink:href="#b" transform="matrix(.003 0 0 -.003 14.632 5.096)"/>
  <path fill="currentColor" d="m4.511 4.622-.006.18v.033c0 .063.006.129.015.192.126-.114.261-.243.261-.414 0-.096-.039-.189-.123-.189-.093 0-.144.096-.147.198Zm-.003-1.233L4.481 4.4a.392.392 0 0 1 .285-.12c.15 0 .246.153.246.315 0 .231-.24.351-.411.507-.054.051-.078.144-.156.144-.048 0-.084-.045-.084-.096l-.045-1.761c.03-.018.063-.024.096-.024s.066.006.096.024z"/>
  <use xlink:href="#b" transform="matrix(.003 0 0 -.003 9.374 5.096)"/>
  <use xlink:href="#d" transform="matrix(.003 0 0 -.003 9.885 5.833)"/>
  <use xlink:href="#d" transform="matrix(.003 0 0 -.003 9.374 6.57)"/>
  <path fill="currentColor" d="M1.943 4.666h.027c.471 0 .774.39.774.792a.783.783 0 0 1-.537.744 4.712 4.712 0 0 1 .003.483c-.021.366-.273.69-.633.69a.592.592 0 0 1-.591-.591c0-.174.162-.312.339-.312.162 0 .285.144.285.312a.287.287 0 0 1-.285.285.301.301 0 0 1-.072-.012.41.41 0 0 0 .333.177c.285 0 .465-.276.483-.57.003-.06.006-.117.006-.177 0-.084-.003-.165-.009-.249a1.507 1.507 0 0 1-.261.021c-.567 0-.999-.522-.999-1.131 0-.528.384-.921.726-1.329a3.097 3.097 0 0 1-.15-.567 3.603 3.603 0 0 1-.024-.477c0-.339.162-.657.438-.858.024-.018.063-.021.087 0 .216.246.408.732.408 1.071 0 .423-.249.759-.522 1.086a8.4 8.4 0 0 1 .174.612zm.249 1.398a.529.529 0 0 0 .324-.477.565.565 0 0 0-.489-.561c.072.339.129.675.165 1.038zm-.378.054c.081 0 .162-.006.24-.018a10.084 10.084 0 0 0-.174-1.077c-.237.021-.369.177-.369.348 0 .129.072.267.234.36a.074.074 0 0 1 .024.051.073.073 0 0 1-.072.072c-.009 0-.021 0-.03-.006-.243-.132-.357-.348-.357-.561 0-.27.18-.534.492-.603a9.53 9.53 0 0 0-.141-.501c-.312.366-.624.735-.624 1.212 0 .396.381.723.777.723Zm-.297-3c0 .207.066.381.123.549.231-.291.42-.597.42-.969a.8.8 0 0 0-.057-.339.835.835 0 0 0-.486.759Z"/>
  <rect width="0.1228" height="2.4597001" x="-.061" y="-2.211" fill="currentColor" ry="0.042100001" transform="translate(15.527 4.727)"/>
  <path fill="currentColor" d="M6.722 3.308c-.093 0-.195.024-.195.105 0 .063.102.072.102.135 0 .09-.072.165-.162.165s-.165-.075-.165-.165c0-.198.204-.321.42-.321.276 0 .516.093.516.339 0 .126-.018.237-.129.288-.033.015-.048.045-.048.075s.015.063.048.078c.123.057.174.162.174.297 0 .279-.243.423-.549.423-.243 0-.474-.132-.474-.351 0-.105.084-.189.189-.189s.186.084.186.189c0 .072-.117.084-.117.156 0 .09.111.114.216.114.141 0 .174-.177.174-.342v-.093c0-.132-.009-.231-.135-.231h-.228c-.033 0-.051-.027-.051-.051s.018-.048.051-.048h.228c.129 0 .135-.105.135-.243v-.072c0-.156-.045-.258-.186-.258z"/>
  <path fill="currentColor" d="M6.752 5.337c.069-.045.138-.09.189-.156.036-.048.057-.102.084-.156a.033.033 0 0 1 .03-.018c.021 0 .045.018.045.048v.678h.231c.033 0 .051.027.051.051s-.018.051-.051.051H7.1c0 .153.093.294.234.294.027 0 .042.021.042.042s-.015.039-.042.039c-.141 0-.282-.039-.423-.039s-.282.039-.423.039c-.027 0-.039-.018-.039-.039s.012-.042.039-.042c.141 0 .237-.141.237-.294h-.471c-.081 0-.108-.051-.108-.081 0-.009.003-.018.006-.021.237-.27.384-.609.384-.966 0-.036.027-.066.057-.057.075.021.15.039.225.039s.15-.018.225-.039c.006-.003.012-.003.018-.003.027 0 .045.021.045.042 0 .006 0 .012-.006.018l-.846.966h.471v-.321c0-.03.003-.06.027-.075z"/>
  <use xlink:href="#e" transform="matrix(.003 0 0 -.003 11.228 5.096)"/>
  <rect width="0.1228" height="2.4597001" x="-.061" y="-2.211" fill="currentColor" ry="0.042100001" transform="translate(10.269 4.727)"/>
  <rect width="0.1228" height="2.4047" x="-.061" y="-1.474" fill="currentColor" ry="0.042100001" transform="translate(10.845 4.727)"/>
  <rect width="0.1228" height="2.4597001" x="-.061" y="-1.842" fill="currentColor" ry="0.042100001" transform="translate(20.922 4.727)"/>
  <rect width="0.1228" height="1.7229" x="-.061" y="1.961" fill="currentColor" ry="0.042100001" transform="translate(19.132 4.727)"/>
  <rect width="0.1228" height="2.3369" x="-.061" y="-2.456" fill="currentColor" ry="0.042100001" transform="translate(20.444 4.727)"/>
  <rect width="0.1228" height="1.9685" x="-.061" y="-3.193" fill="currentColor" ry="0.042100001" transform="translate(19.966 4.727)"/>
  <use xlink:href="#b" transform="matrix(.003 0 0 -.003 19.07 6.57)"/>
  <use xlink:href="#b" transform="matrix(.003 0 0 -.003 20.027 5.464)"/>
  <use xlink:href="#b" transform="matrix(.003 0 0 -.003 19.549 4.727)"/>
  <use xlink:href="#b" transform="matrix(.003 0 0 -.003 19.07 3.622)"/>
  <use xlink:href="#c" transform="matrix(.003 0 0 -.003 15.589 2.559)"/>
  <!--
  -->
</svg>
