<svg xmlns="http://www.w3.org/2000/svg" xmlns:xlink="http://www.w3.org/1999/xlink" version="1.2" viewBox="0 0 132.583 9.885">
  <defs>
    <path id="a" stroke="currentColor" stroke-linecap="round" stroke-linejoin="round" stroke-width="0.0944" d="M.047 0h132.489"/>
    <path id="b" fill="currentColor" d="M0 0c0 30 25 55 55 55s54-25 54-55-24-55-54-55S0-30 0 0Z"/>
    <path id="c" fill="currentColor" d="M308 62c0 23-20 39-40 39-4 0-7 0-11-1-29-8-74-38-109-61S69-13 49-36c-6-8-10-16-10-26 0-23 20-39 40-39 4 0 7 0 11 1 29 8 74 38 109 61s79 52 99 75c6 8 10 16 10 26zM0-59C0 83 114 139 251 139c53 0 96-22 96-80 0-142-115-198-252-198-53 0-95 22-95 80z"/>
    <path id="d" fill="currentColor" d="M208 139c61 0 117-33 117-99 0-71-52-119-99-147-34-20-71-32-110-32C55-139 0-106 0-40 0 31 51 79 98 107c34 20 71 32 110 32z"/>
    <path id="e" fill="currentColor" d="M0 114c0 12 7 22 18 26l37 15v151c0 12 10 22 22 22s22-10 22-22V172l77 29v152c0 12 10 22 22 22s22-10 22-22V219l16 6c3 1 8 2 11 2 15 0 28-12 28-28v-50c0-12-7-23-18-27l-37-14V-44l16 7c3 1 8 2 11 2 15 0 28-13 28-29v-50c0-12-7-22-18-26l-37-15v-151c0-12-10-22-22-22s-22 10-22 22v134l-77-29v-152c0-12-10-22-22-22s-22 10-22 22v134l-16-6c-3-1-8-2-11-2-15 0-28 12-28 28v50c0 12 7 23 18 27l37 14V44l-16-7c-3-1-8-2-11-2C13 35 0 48 0 64Zm176-23L99 61V-91l77 30z"/>
    <path id="f" fill="currentColor" d="M0 0c0-196 207-334 207-530 0-71-15-140-41-206-5-10-14-13-23-13-14 0-28 10-28 26 0 2 1 3 1 5 26 59 42 123 42 188 0 101-90 205-158 280h-21V0Z"/>
    <path id="g" fill="currentColor" d="M0 250c94 60 217 150 217 259 0 56-15 110-41 160v6c0 16 14 26 28 26 9 0 17-4 22-14 25-56 40-116 40-178C266 306 0 203 0 0h-21v250z"/>
    <path id="h" fill="currentColor" stroke="currentColor" stroke-linecap="round" stroke-linejoin="round" stroke-width="0.0842" d="M.042.135v-.27l6.508.13v.269z"/>
    <path id="i" fill="currentColor" stroke="currentColor" stroke-linecap="round" stroke-linejoin="round" stroke-width="0.0842" d="M.042.135v-.27L6.05.472v.27z"/>
    <path id="j" fill="currentColor" stroke="currentColor" stroke-linecap="round" stroke-linejoin="round" stroke-width="0.0842" d="M.042.135v-.27l1.595.146v.27z"/>
  </defs>
  <use xlink:href="#a" stroke-linecap="round" stroke-linejoin="round" stroke-width="0.0944" transform="translate(0 6.201)"/>
  <use xlink:href="#a" stroke-linecap="round" stroke-linejoin="round" stroke-width="0.0944" transform="translate(0 5.464)"/>
  <use xlink:href="#a" stroke-linecap="round" stroke-linejoin="round" stroke-width="0.0944" transform="translate(0 4.727)"/>
  <use xlink:href="#a" stroke-linecap="round" stroke-linejoin="round" stroke-width="0.0944" transform="translate(0 3.99)"/>
  <use xlink:href="#a" stroke-linecap="round" stroke-linejoin="round" stroke-width="0.0944" transform="translate(0 3.254)"/>
  <rect width="0.1794" height="2.9474001" y="-1.474" fill="currentColor" ry="0.0000" transform="translate(47.006 4.727)"/>
  <rect width="0.1794" height="2.9474001" y="-1.474" fill="currentColor" ry="0.0000" transform="translate(113.311 4.727)"/>
  <rect width="0.1794" height="2.9474001" y="-1.474" fill="currentColor" ry="0.0000" transform="translate(17.989 4.727)"/>
  <rect width="0.1794" height="2.9474001" y="-1.474" fill="currentColor" ry="0.0000" transform="translate(32.6 4.727)"/>
  <rect width="0.1794" height="2.9474001" y="-1.474" fill="currentColor" ry="0.0000" transform="translate(98.906 4.727)"/>
  <rect width="0.1794" height="2.9474001" y="-1.474" fill="currentColor" ry="0.0000" transform="translate(84.294 4.727)"/>
  <rect width="0.1794" height="2.9474001" y="-1.474" fill="currentColor" ry="0.0000" transform="translate(66.222 4.727)"/>
  <rect width="0.1794" height="2.9474001" y="-1.474" fill="currentColor" ry="0.0000" transform="translate(132.404 4.727)"/>
  <rect width="1.4347" height="0.1681" x="119.004" y="-.084" fill="currentColor" ry="0.084100001" transform="translate(0 2.517)"/>
  <rect width="1.4347" height="0.1681" x="119.004" y="-.084" fill="currentColor" ry="0.084100001" transform="translate(0 6.938)"/>
  <rect width="1.4347" height="0.1681" x="119.004" y="-.084" fill="currentColor" ry="0.084100001" transform="translate(0 7.675)"/>
  <rect width="1.4347" height="0.1681" x="114.152" y="-.084" fill="currentColor" ry="0.084100001" transform="translate(0 2.517)"/>
  <rect width="1.4347" height="0.1681" x="114.152" y="-.084" fill="currentColor" ry="0.084100001" transform="translate(0 6.938)"/>
  <rect width="1.4347" height="0.1681" x="114.152" y="-.084" fill="currentColor" ry="0.084100001" transform="translate(0 7.675)"/>
  <rect width="1.5329" height="0.1681" x="104.441" y="-.084" fill="currentColor" ry="0.084100001" transform="translate(0 6.938)"/>
  <rect width="1.4524" height="0.1681" x="90.116" y="-.084" fill="currentColor" ry="0.084100001" transform="translate(0 6.938)"/>
  <rect width="1.3706" height="0.1681" x="57.183" y="-.084" fill="currentColor" ry="0.084100001" transform="translate(0 6.938)"/>
  <rect width="1.4347" height="0.1681" x="52.562" y="-.084" fill="currentColor" ry="0.084100001" transform="translate(0 6.938)"/>
  <rect width="1.4347" height="0.1681" x="52.562" y="-.084" fill="currentColor" ry="0.084100001" transform="translate(0 7.675)"/>
  <rect width="1.4347" height="0.1681" x="47.846" y="-.084" fill="currentColor" ry="0.084100001" transform="translate(0 6.938)"/>
  <rect width="1.4347" height="0.1681" x="47.846" y="-.084" fill="currentColor" ry="0.084100001" transform="translate(0 7.675)"/>
  <rect width="1.5329" height="0.1681" x="38.135" y="-.084" fill="currentColor" ry="0.084100001" transform="translate(0 6.938)"/>
  <rect width="1.4524" height="0.1681" x="23.811" y="-.084" fill="currentColor" ry="0.084100001" transform="translate(0 6.938)"/>
  <rect width="0.1228" height="1.6677999" x="-.061" y="2.385" fill="currentColor" ry="0.042100001" transform="translate(90.353 4.727)"/>
  <rect width="0.1228" height="2.4047" x="-.061" y="-1.842" fill="currentColor" ry="0.042100001" transform="translate(92.785 4.727)"/>
  <rect width="0.1228" height="2.4047" x="-.061" y="-2.211" fill="currentColor" ry="0.042100001" transform="translate(91.763 4.727)"/>
  <rect width="0.1228" height="1.9685" x="-.061" y="-3.193" fill="currentColor" ry="0.042100001" transform="translate(91.186 4.727)"/>
  <use xlink:href="#b" transform="matrix(.003 0 0 -.003 93.168 3.622)"/>
  <use xlink:href="#c" transform="matrix(.003 0 0 -.003 90.291 6.938)"/>
  <use xlink:href="#c" transform="matrix(.003 0 0 -.003 91.824 5.464)"/>
  <use xlink:href="#c" transform="matrix(.003 0 0 -.003 90.802 5.096)"/>
  <use xlink:href="#d" transform="matrix(.003 0 0 -.003 90.291 3.622)"/>
  <rect width="0.1228" height="1.7229" x="-.061" y="1.961" fill="currentColor" ry="0.042100001" transform="translate(100.05 4.727)"/>
  <rect width="0.1228" height="2.4597001" x="-.061" y="-1.474" fill="currentColor" ry="0.042100001" transform="translate(101.84 4.727)"/>
  <rect width="0.1228" height="2.4597001" x="-.061" y="-2.211" fill="currentColor" ry="0.042100001" transform="translate(101.361 4.727)"/>
  <use xlink:href="#e" transform="matrix(.003 0 0 -.003 89.13 6.938)"/>
  <rect width="0.1228" height="1.8457" x="-.061" y="-3.439" fill="currentColor" ry="0.042100001" transform="translate(100.883 4.727)"/>
  <use xlink:href="#d" transform="matrix(.003 0 0 -.003 99.988 6.57)"/>
  <use xlink:href="#d" transform="matrix(.003 0 0 -.003 100.944 5.833)"/>
  <use xlink:href="#d" transform="matrix(.003 0 0 -.003 100.466 5.096)"/>
  <use xlink:href="#d" transform="matrix(.003 0 0 -.003 99.988 3.254)"/>
  <use xlink:href="#f" transform="matrix(.003 0 0 -.003 96.506 1.454)"/>
  <rect width="0.1228" height="2.0913" x="-.061" y="-3.316" fill="currentColor" ry="0.042100001" transform="translate(96.445 4.727)"/>
  <use xlink:href="#d" transform="matrix(.003 0 0 -.003 95.55 3.622)"/>
  <use xlink:href="#d" transform="matrix(.003 0 0 -.003 75.68 5.096)"/>
  <use xlink:href="#c" transform="matrix(.003 0 0 -.003 76.19 5.833)"/>
  <use xlink:href="#c" transform="matrix(.003 0 0 -.003 75.68 6.57)"/>
  <use xlink:href="#b" transform="matrix(.003 0 0 -.003 77.534 5.096)"/>
  <rect width="0.1228" height="2.4597001" x="-.061" y="-2.211" fill="currentColor" ry="0.042100001" transform="translate(76.575 4.727)"/>
  <rect width="0.1228" height="2.4047" x="-.061" y="-1.474" fill="currentColor" ry="0.042100001" transform="translate(77.151 4.727)"/>
  <rect width="0.1228" height="1.6677999" x="-.061" y="2.016" fill="currentColor" ry="0.042100001" transform="translate(75.741 4.727)"/>
  <rect width="0.1228" height="2.4658" x="-.061" y="-.743" fill="currentColor" ry="0.042100001" transform="translate(74.168 4.727)"/>
  <use xlink:href="#d" transform="matrix(.003 0 0 -.003 73.273 6.57)"/>
  <rect width="0.1228" height="1.919" x="-.061" y="-.933" fill="currentColor" ry="0.042100001" transform="translate(72.262 4.727)"/>
  <use xlink:href="#d" transform="matrix(.003 0 0 -.003 71.367 5.833)"/>
  <rect width="0.1228" height="2.5023999" x="-.061" y="-1.148" fill="currentColor" ry="0.042100001" transform="translate(70.105 4.727)"/>
  <use xlink:href="#d" transform="matrix(.003 0 0 -.003 69.21 6.201)"/>
  <path fill="currentColor" stroke="currentColor" stroke-linecap="round" stroke-linejoin="round" stroke-width="0.0842" d="M127.291 1.049v-.27l3.847.498v.27zm2.77.958v-.27l1.077.147v.27z"/>
  <rect width="0.1228" height="2.4597001" x="-.061" y="-1.842" fill="currentColor" ry="0.042100001" transform="translate(87.228 4.727)"/>
  <rect width="0.1228" height="1.9685" x="-.061" y="-3.193" fill="currentColor" ry="0.042100001" transform="translate(86.271 4.727)"/>
  <rect width="0.1228" height="2.3369" x="-.061" y="-2.456" fill="currentColor" ry="0.042100001" transform="translate(86.75 4.727)"/>
  <rect width="0.1228" height="1.7229" x="-.061" y="1.961" fill="currentColor" ry="0.042100001" transform="translate(85.438 4.727)"/>
  <use xlink:href="#d" transform="matrix(.003 0 0 -.003 85.376 6.57)"/>
  <use xlink:href="#d" transform="matrix(.003 0 0 -.003 86.333 5.464)"/>
  <use xlink:href="#d" transform="matrix(.003 0 0 -.003 85.854 4.727)"/>
  <use xlink:href="#d" transform="matrix(.003 0 0 -.003 85.376 3.622)"/>
  <use xlink:href="#f" transform="matrix(.003 0 0 -.003 81.894 2.559)"/>
  <rect width="0.1228" height="2.4597001" x="-.061" y="-2.211" fill="currentColor" ry="0.042100001" transform="translate(81.833 4.727)"/>
  <use xlink:href="#d" transform="matrix(.003 0 0 -.003 80.938 5.096)"/>
  <use xlink:href="#d" transform="matrix(.003 0 0 -.003 123.302 2.885)"/>
  <use xlink:href="#g" transform="matrix(.003 0 0 -.003 119.366 9.843)"/>
  <use xlink:href="#e" transform="matrix(.003 0 0 -.003 118.561 4.359)"/>
  <rect width="0.1228" height="2.0913" x="-.061" y="3.067" fill="currentColor" ry="0.042100001" transform="translate(119.305 4.727)"/>
  <rect width="0.1228" height="2.2316999" x="-.061" y="-4.193" fill="currentColor" ry="0.042100001" transform="translate(124.197 4.727)"/>
  <use xlink:href="#d" transform="matrix(.003 0 0 -.003 124.859 3.254)"/>
  <rect width="0.1228" height="2.4649999" x="-.061" y="-4.058" fill="currentColor" ry="0.042100001" transform="translate(125.754 4.727)"/>
  <use xlink:href="#b" transform="matrix(.003 0 0 -.003 122.027 4.359)"/>
  <rect width="0.1228" height="2.2755001" x="-.061" y="-2.763" fill="currentColor" ry="0.042100001" transform="translate(120.617 4.727)"/>
  <use xlink:href="#f" transform="matrix(.003 0 0 -.003 120.678 2.006)"/>
  <use xlink:href="#b" transform="matrix(.003 0 0 -.003 122.027 5.833)"/>
  <rect width="0.1228" height="2.4597001" x="-.061" y="-1.105" fill="currentColor" ry="0.042100001" transform="translate(121.095 4.727)"/>
  <use xlink:href="#f" transform="matrix(.003 0 0 -.003 121.157 3.664)"/>
  <use xlink:href="#b" transform="matrix(.003 0 0 -.003 122.027 8.043)"/>
  <use xlink:href="#h" stroke-linecap="round" stroke-linejoin="round" stroke-width="0.0842" transform="translate(58.191 3.254)"/>
  <use xlink:href="#h" stroke-linecap="round" stroke-linejoin="round" stroke-width="0.0842" transform="translate(58.191 3.861)"/>
  <path fill="currentColor" stroke="currentColor" stroke-linecap="round" stroke-linejoin="round" stroke-width="0.0755" d="M58.259 2.709c1.242-1.013 5.268-.934 6.47.127h0c-1.204-.946-5.231-1.026-6.471-.127Z"/>
  <use xlink:href="#i" stroke-linecap="round" stroke-linejoin="round" stroke-width="0.0842" transform="translate(68.137 3.383)"/>
  <use xlink:href="#i" stroke-linecap="round" stroke-linejoin="round" stroke-width="0.0842" transform="translate(68.137 3.99)"/>
  <path fill="currentColor" stroke="currentColor" stroke-linecap="round" stroke-linejoin="round" stroke-width="0.0755" d="M68.231 2.844c.558-.447 1.447-.358 1.906.19h0c-.47-.435-1.36-.524-1.906-.19zm4.081.289c.586-.435 1.477-.295 1.906.3h0c-.447-.483-1.338-.623-1.906-.3Z"/>
  <path fill="currentColor" stroke="currentColor" stroke-linecap="round" stroke-linejoin="round" stroke-width="0.0842" d="M120.119.312v-.27l5.654.498v.27z"/>
  <use xlink:href="#j" stroke-linecap="round" stroke-linejoin="round" stroke-width="0.0842" transform="translate(124.136 1.136)"/>
  <use xlink:href="#j" stroke-linecap="round" stroke-linejoin="round" stroke-width="0.0842" transform="translate(124.136 1.743)"/>
  <rect width="0.1228" height="2.0991001" x="-.061" y="-3.324" fill="currentColor" ry="0.042100001" transform="translate(131.119 4.727)"/>
  <use xlink:href="#d" transform="matrix(.003 0 0 -.003 130.223 3.622)"/>
  <rect width="0.1228" height="1.8447" x="-.061" y="-3.806" fill="currentColor" ry="0.042100001" transform="translate(127.31 4.727)"/>
  <use xlink:href="#b" transform="matrix(.003 0 0 -.003 127.693 2.885)"/>
  <use xlink:href="#d" transform="matrix(.003 0 0 -.003 126.415 2.885)"/>
  <rect width="0.1228" height="2.1833999" x="-.061" y="-3.039" fill="currentColor" ry="0.042100001" transform="translate(110.85 4.727)"/>
  <rect width="0.1228" height="1.6677999" x="-.061" y="2.753" fill="currentColor" ry="0.042100001" transform="translate(104.758 4.727)"/>
  <use xlink:href="#d" transform="matrix(.003 0 0 -.003 109.955 3.99)"/>
  <use xlink:href="#f" transform="matrix(.003 0 0 -.003 110.912 1.73)"/>
  <use xlink:href="#d" transform="matrix(.003 0 0 -.003 114.39 2.148)"/>
  <use xlink:href="#d" transform="matrix(.003 0 0 -.003 114.87 3.99)"/>
  <use xlink:href="#d" transform="matrix(.003 0 0 -.003 115.347 6.201)"/>
  <use xlink:href="#d" transform="matrix(.003 0 0 -.003 114.39 8.043)"/>
  <rect width="0.1228" height="2.4047" x="-.061" y="-1.474" fill="currentColor" ry="0.042100001" transform="translate(106.168 4.727)"/>
  <rect width="0.1228" height="2.0913" x="-.061" y="-2.947" fill="currentColor" ry="0.042100001" transform="translate(105.592 4.727)"/>
  <use xlink:href="#b" transform="matrix(.003 0 0 -.003 106.551 3.622)"/>
  <use xlink:href="#c" transform="matrix(.003 0 0 -.003 104.697 7.306)"/>
  <use xlink:href="#c" transform="matrix(.003 0 0 -.003 105.207 5.833)"/>
  <use xlink:href="#d" transform="matrix(.003 0 0 -.003 104.697 3.99)"/>
  <use xlink:href="#d" transform="matrix(.003 0 0 -.003 119.244 2.517)"/>
  <use xlink:href="#d" transform="matrix(.003 0 0 -.003 119.722 4.359)"/>
  <use xlink:href="#d" transform="matrix(.003 0 0 -.003 120.2 6.201)"/>
  <use xlink:href="#d" transform="matrix(.003 0 0 -.003 119.244 7.675)"/>
  <use xlink:href="#b" transform="matrix(.003 0 0 -.003 122.027 2.148)"/>
  <rect width="0.1228" height="2.2156" x="-.061" y="-4.545" fill="currentColor" ry="0.042100001" transform="translate(120.139 4.727)"/>
  <rect width="0.1228" height="1.7229" x="-.061" y="3.435" fill="currentColor" ry="0.042100001" transform="translate(114.452 4.727)"/>
  <rect width="0.1228" height="2.4597001" x="-.061" y="-1.105" fill="currentColor" ry="0.042100001" transform="translate(116.243 4.727)"/>
  <rect width="0.1228" height="2.0913" x="-.061" y="-2.947" fill="currentColor" ry="0.042100001" transform="translate(115.764 4.727)"/>
  <rect width="0.1228" height="1.7229" x="-.061" y="-4.421" fill="currentColor" ry="0.042100001" transform="translate(115.286 4.727)"/>
  <rect width="0.1228" height="1.6677999" x="-.061" y="2.385" fill="currentColor" ry="0.042100001" transform="translate(24.047 4.727)"/>
  <use xlink:href="#e" transform="matrix(.003 0 0 -.003 22.825 6.938)"/>
  <use xlink:href="#d" transform="matrix(.003 0 0 -.003 29.244 3.622)"/>
  <rect width="0.1228" height="2.0913" x="-.061" y="-3.316" fill="currentColor" ry="0.042100001" transform="translate(30.14 4.727)"/>
  <use xlink:href="#f" transform="matrix(.003 0 0 -.003 30.2 1.454)"/>
  <use xlink:href="#d" transform="matrix(.003 0 0 -.003 33.682 3.254)"/>
  <use xlink:href="#d" transform="matrix(.003 0 0 -.003 23.986 3.622)"/>
  <use xlink:href="#c" transform="matrix(.003 0 0 -.003 24.497 5.096)"/>
  <use xlink:href="#c" transform="matrix(.003 0 0 -.003 25.518 5.464)"/>
  <use xlink:href="#c" transform="matrix(.003 0 0 -.003 23.986 6.938)"/>
  <use xlink:href="#b" transform="matrix(.003 0 0 -.003 26.862 3.622)"/>
  <rect width="0.1228" height="1.9685" x="-.061" y="-3.193" fill="currentColor" ry="0.042100001" transform="translate(24.88 4.727)"/>
  <use xlink:href="#d" transform="matrix(.003 0 0 -.003 34.16 5.096)"/>
  <rect width="0.1228" height="2.4047" x="-.061" y="-2.211" fill="currentColor" ry="0.042100001" transform="translate(25.457 4.727)"/>
  <rect width="0.1228" height="2.4047" x="-.061" y="-1.842" fill="currentColor" ry="0.042100001" transform="translate(26.479 4.727)"/>
  <rect width="0.1228" height="1.7229" x="-.061" y="1.961" fill="currentColor" ry="0.042100001" transform="translate(33.744 4.727)"/>
  <use xlink:href="#d" transform="matrix(.003 0 0 -.003 38.39 3.99)"/>
  <use xlink:href="#c" transform="matrix(.003 0 0 -.003 38.902 5.833)"/>
  <use xlink:href="#c" transform="matrix(.003 0 0 -.003 38.39 7.306)"/>
  <use xlink:href="#b" transform="matrix(.003 0 0 -.003 40.245 3.622)"/>
  <rect width="0.1228" height="2.4597001" x="-.061" y="-1.474" fill="currentColor" ry="0.042100001" transform="translate(35.534 4.727)"/>
  <rect width="0.1228" height="2.4597001" x="-.061" y="-2.211" fill="currentColor" ry="0.042100001" transform="translate(35.056 4.727)"/>
  <rect width="0.1228" height="1.8457" x="-.061" y="-3.439" fill="currentColor" ry="0.042100001" transform="translate(34.577 4.727)"/>
  <use xlink:href="#d" transform="matrix(.003 0 0 -.003 33.682 6.57)"/>
  <use xlink:href="#d" transform="matrix(.003 0 0 -.003 34.639 5.833)"/>
  <rect width="0.1228" height="1.6677999" x="-.061" y="2.016" fill="currentColor" ry="0.042100001" transform="translate(9.435 4.727)"/>
  <use xlink:href="#d" transform="matrix(.003 0 0 -.003 14.632 5.096)"/>
  <path fill="currentColor" d="m4.511 4.622-.006.18v.033c0 .063.006.129.015.192.126-.114.261-.243.261-.414 0-.096-.039-.189-.123-.189-.093 0-.144.096-.147.198Zm-.003-1.233L4.481 4.4a.392.392 0 0 1 .285-.12c.15 0 .246.153.246.315 0 .231-.24.351-.411.507-.054.051-.078.144-.156.144-.048 0-.084-.045-.084-.096l-.045-1.761c.03-.018.063-.024.096-.024s.066.006.096.024z"/>
  <use xlink:href="#d" transform="matrix(.003 0 0 -.003 9.374 5.096)"/>
  <use xlink:href="#c" transform="matrix(.003 0 0 -.003 9.885 5.833)"/>
  <use xlink:href="#c" transform="matrix(.003 0 0 -.003 9.374 6.57)"/>
  <path fill="currentColor" d="M1.943 4.666h.027c.471 0 .774.39.774.792a.783.783 0 0 1-.537.744 4.712 4.712 0 0 1 .003.483c-.021.366-.273.69-.633.69a.592.592 0 0 1-.591-.591c0-.174.162-.312.339-.312.162 0 .285.144.285.312a.287.287 0 0 1-.285.285.301.301 0 0 1-.072-.012.41.41 0 0 0 .333.177c.285 0 .465-.276.483-.57.003-.06.006-.117.006-.177 0-.084-.003-.165-.009-.249a1.507 1.507 0 0 1-.261.021c-.567 0-.999-.522-.999-1.131 0-.528.384-.921.726-1.329a3.097 3.097 0 0 1-.15-.567 3.603 3.603 0 0 1-.024-.477c0-.339.162-.657.438-.858.024-.018.063-.021.087 0 .216.246.408.732.408 1.071 0 .423-.249.759-.522 1.086a8.4 8.4 0 0 1 .174.612zm.249 1.398a.529.529 0 0 0 .324-.477.565.565 0 0 0-.489-.561c.072.339.129.675.165 1.038zm-.378.054c.081 0 .162-.006.24-.018a10.084 10.084 0 0 0-.174-1.077c-.237.021-.369.177-.369.348 0 .129.072.267.234.36a.074.074 0 0 1 .024.051.073.073 0 0 1-.072.072c-.009 0-.021 0-.03-.006-.243-.132-.357-.348-.357-.561 0-.27.18-.534.492-.603a9.53 9.53 0 0 0-.141-.501c-.312.366-.624.735-.624 1.212 0 .396.381.723.777.723Zm-.297-3c0 .207.066.381.123.549.231-.291.42-.597.42-.969a.8.8 0 0 0-.057-.339.835.835 0 0 0-.486.759Z"/>
  <rect width="0.1228" height="2.4597001" x="-.061" y="-2.211" fill="currentColor" ry="0.042100001" transform="translate(15.527 4.727)"/>
  <path fill="currentColor" d="M6.722 3.308c-.093 0-.195.024-.195.105 0 .063.102.072.102.135 0 .09-.072.165-.162.165s-.165-.075-.165-.165c0-.198.204-.321.42-.321.276 0 .516.093.516.339 0 .126-.018.237-.129.288-.033.015-.048.045-.048.075s.015.063.048.078c.123.057.174.162.174.297 0 .279-.243.423-.549.423-.243 0-.474-.132-.474-.351 0-.105.084-.189.189-.189s.186.084.186.189c0 .072-.117.084-.117.156 0 .09.111.114.216.114.141 0 .174-.177.174-.342v-.093c0-.132-.009-.231-.135-.231h-.228c-.033 0-.051-.027-.051-.051s.018-.048.051-.048h.228c.129 0 .135-.105.135-.243v-.072c0-.156-.045-.258-.186-.258z"/>
  <path fill="currentColor" d="M6.752 5.337c.069-.045.138-.09.189-.156.036-.048.057-.102.084-.156a.033.033 0 0 1 .03-.018c.021 0 .045.018.045.048v.678h.231c.033 0 .051.027.051.051s-.018.051-.051.051H7.1c0 .153.093.294.234.294.027 0 .042.021.042.042s-.015.039-.042.039c-.141 0-.282-.039-.423-.039s-.282.039-.423.039c-.027 0-.039-.018-.039-.039s.012-.042.039-.042c.141 0 .237-.141.237-.294h-.471c-.081 0-.108-.051-.108-.081 0-.009.003-.018.006-.021.237-.27.384-.609.384-.966 0-.036.027-.066.057-.057.075.021.15.039.225.039s.15-.018.225-.039c.006-.003.012-.003.018-.003.027 0 .045.021.045.042 0 .006 0 .012-.006.018l-.846.966h.471v-.321c0-.03.003-.06.027-.075z"/>
  <use xlink:href="#b" transform="matrix(.003 0 0 -.003 11.228 5.096)"/>
  <rect width="0.1228" height="2.4597001" x="-.061" y="-2.211" fill="currentColor" ry="0.042100001" transform="translate(10.269 4.727)"/>
  <rect width="0.1228" height="2.4047" x="-.061" y="-1.474" fill="currentColor" ry="0.042100001" transform="translate(10.845 4.727)"/>
  <rect width="0.1228" height="2.4597001" x="-.061" y="-1.842" fill="currentColor" ry="0.042100001" transform="translate(20.922 4.727)"/>
  <rect width="0.1228" height="1.7229" x="-.061" y="1.961" fill="currentColor" ry="0.042100001" transform="translate(19.132 4.727)"/>
  <rect width="0.1228" height="2.3369" x="-.061" y="-2.456" fill="currentColor" ry="0.042100001" transform="translate(20.444 4.727)"/>
  <rect width="0.1228" height="1.9685" x="-.061" y="-3.193" fill="currentColor" ry="0.042100001" transform="translate(19.966 4.727)"/>
  <use xlink:href="#d" transform="matrix(.003 0 0 -.003 19.07 6.57)"/>
  <use xlink:href="#d" transform="matrix(.003 0 0 -.003 20.027 5.464)"/>
  <use xlink:href="#d" transform="matrix(.003 0 0 -.003 19.549 4.727)"/>
  <use xlink:href="#d" transform="matrix(.003 0 0 -.003 19.07 3.622)"/>
  <use xlink:href="#f" transform="matrix(.003 0 0 -.003 15.589 2.559)"/>
  <use xlink:href="#e" transform="matrix(.003 0 0 -.003 56.197 6.938)"/>
  <rect width="0.1228" height="1.7229" x="-.061" y="2.33" fill="currentColor" ry="0.042100001" transform="translate(57.419 4.727)"/>
  <use xlink:href="#d" transform="matrix(.003 0 0 -.003 59.514 5.833)"/>
  <rect width="0.1228" height="2.4161" x="-.061" y="-1.43" fill="currentColor" ry="0.042100001" transform="translate(60.41 4.727)"/>
  <use xlink:href="#d" transform="matrix(.003 0 0 -.003 61.67 6.201)"/>
  <rect width="0.1228" height="2.0901" x="-.061" y="-1.472" fill="currentColor" ry="0.042100001" transform="translate(58.253 4.727)"/>
  <use xlink:href="#d" transform="matrix(.003 0 0 -.003 57.358 6.938)"/>
  <use xlink:href="#d" transform="matrix(.003 0 0 -.003 57.358 5.464)"/>
  <rect width="0.1228" height="2.0913" x="-.061" y="-2.947" fill="currentColor" ry="0.042100001" transform="translate(39.286 4.727)"/>
  <rect width="0.1228" height="1.7229" x="-.061" y="3.067" fill="currentColor" ry="0.042100001" transform="translate(52.862 4.727)"/>
  <rect width="0.1228" height="2.4597001" x="-.061" y="-1.474" fill="currentColor" ry="0.042100001" transform="translate(54.175 4.727)"/>
  <rect width="0.1228" height="1.9556" x="-.061" y="-1.338" fill="currentColor" ry="0.042100001" transform="translate(68.199 4.727)"/>
  <use xlink:href="#g" transform="matrix(.003 0 0 -.003 67.426 8.738)"/>
  <rect width="0.1228" height="2.0913" x="-.061" y="1.961" fill="currentColor" ry="0.042100001" transform="translate(67.365 4.727)"/>
  <use xlink:href="#d" transform="matrix(.003 0 0 -.003 67.304 6.57)"/>
  <use xlink:href="#d" transform="matrix(.003 0 0 -.003 67.304 5.464)"/>
  <rect width="0.1228" height="2.3313" x="-.061" y="-1.345" fill="currentColor" ry="0.042100001" transform="translate(64.722 4.727)"/>
  <use xlink:href="#d" transform="matrix(.003 0 0 -.003 63.827 5.833)"/>
  <rect width="0.1228" height="2.7421" x="-.061" y="-1.388" fill="currentColor" ry="0.042100001" transform="translate(62.566 4.727)"/>
  <use xlink:href="#d" transform="matrix(.003 0 0 -.003 43.65 4.359)"/>
  <rect width="0.1228" height="2.3369" x="-.061" y="-2.456" fill="currentColor" ry="0.042100001" transform="translate(48.98 4.727)"/>
  <rect width="0.1228" height="2.4597001" x="-.061" y="-2.211" fill="currentColor" ry="0.042100001" transform="translate(53.696 4.727)"/>
  <use xlink:href="#d" transform="matrix(.003 0 0 -.003 48.085 8.043)"/>
  <use xlink:href="#d" transform="matrix(.003 0 0 -.003 48.563 5.464)"/>
  <use xlink:href="#d" transform="matrix(.003 0 0 -.003 48.085 4.727)"/>
  <use xlink:href="#f" transform="matrix(.003 0 0 -.003 44.606 2.006)"/>
  <rect width="0.1228" height="2.2755001" x="-.061" y="-2.763" fill="currentColor" ry="0.042100001" transform="translate(44.544 4.727)"/>
  <rect width="0.1228" height="1.6677999" x="-.061" y="2.753" fill="currentColor" ry="0.042100001" transform="translate(38.452 4.727)"/>
  <rect width="0.1228" height="2.4047" x="-.061" y="-1.474" fill="currentColor" ry="0.042100001" transform="translate(39.862 4.727)"/>
  <rect width="0.1228" height="1.7229" x="-.061" y="3.435" fill="currentColor" ry="0.042100001" transform="translate(48.147 4.727)"/>
  <use xlink:href="#d" transform="matrix(.003 0 0 -.003 52.801 7.675)"/>
  <use xlink:href="#d" transform="matrix(.003 0 0 -.003 53.28 5.833)"/>
  <use xlink:href="#d" transform="matrix(.003 0 0 -.003 52.801 5.096)"/>
  <rect width="0.1228" height="2.4597001" x="-.061" y="-1.842" fill="currentColor" ry="0.042100001" transform="translate(49.459 4.727)"/>
</svg>
