<svg xmlns="http://www.w3.org/2000/svg" xml:space="preserve" viewBox="0 0 472.944 472.944" fill="#c8b273">
  <circle cx="31.751" cy="183.711" r="6.291"/>
  <circle cx="39.824" cy="204.661" r="6.291"/>
  <circle cx="47.896" cy="225.612" r="6.291"/>
  <circle cx="55.969" cy="246.562" r="6.291"/>
  <circle cx="64.041" cy="267.513" r="6.291"/>
  <circle cx="72.114" cy="288.463" r="6.291"/>
  <circle cx="80.186" cy="309.414" r="6.291"/>
  <circle cx="88.259" cy="330.364" r="6.291"/>
  <circle cx="96.331" cy="351.315" r="6.291"/>
  <circle cx="104.404" cy="372.265" r="6.291"/>
  <circle cx="39.992" cy="168.348" r="6.291"/>
  <circle cx="48.064" cy="189.298" r="6.291"/>
  <circle cx="56.137" cy="210.249" r="6.291"/>
  <circle cx="64.209" cy="231.199" r="6.291"/>
  <circle cx="72.282" cy="252.15" r="6.291"/>
  <circle cx="80.354" cy="273.1" r="6.291"/>
  <circle cx="88.427" cy="294.051" r="6.291"/>
  <circle cx="96.499" cy="315.001" r="6.291"/>
  <circle cx="104.572" cy="335.952" r="6.291"/>
  <circle cx="112.644" cy="356.902" r="6.291"/>
  <circle cx="64.65" cy="158.846" r="6.291"/>
  <circle cx="72.723" cy="179.797" r="6.291"/>
  <circle cx="80.795" cy="200.747" r="6.291"/>
  <circle cx="88.868" cy="221.698" r="6.291"/>
  <circle cx="96.94" cy="242.648" r="6.291"/>
  <circle cx="105.013" cy="263.599" r="6.291"/>
  <circle cx="113.085" cy="284.549" r="6.291"/>
  <circle cx="121.158" cy="305.5" r="6.291"/>
  <circle cx="129.23" cy="326.451" r="6.291"/>
  <circle cx="137.303" cy="347.401" r="6.291"/>
  <circle cx="56.41" cy="174.209" r="6.291"/>
  <circle cx="64.482" cy="195.16" r="6.291"/>
  <circle cx="72.555" cy="216.11" r="6.291"/>
  <circle cx="80.627" cy="237.061" r="6.291"/>
  <circle cx="88.7" cy="258.011" r="6.291"/>
  <circle cx="96.772" cy="278.962" r="6.291"/>
  <circle cx="104.845" cy="299.912" r="6.291"/>
  <circle cx="112.917" cy="320.863" r="6.291"/>
  <circle cx="120.99" cy="341.813" r="6.291"/>
  <circle cx="129.062" cy="362.764" r="6.291"/>
  <circle cx="345.241" cy="346.491" r="4.3"/>
  <circle cx="352.474" cy="332.956" r="4.3"/>
  <circle cx="359.706" cy="319.421" r="4.3"/>
  <circle cx="366.938" cy="305.886" r="4.3"/>
  <circle cx="374.171" cy="292.35" r="4.3"/>
  <circle cx="381.403" cy="278.815" r="4.3"/>
  <circle cx="388.636" cy="265.28" r="4.3"/>
  <circle cx="395.868" cy="251.745" r="4.3"/>
  <circle cx="403.1" cy="238.21" r="4.3"/>
  <circle cx="340.702" cy="335.252" r="4.3"/>
  <circle cx="347.934" cy="321.716" r="4.3"/>
  <circle cx="355.167" cy="308.181" r="4.3"/>
  <circle cx="362.399" cy="294.646" r="4.3"/>
  <circle cx="369.632" cy="281.111" r="4.3"/>
  <circle cx="376.864" cy="267.576" r="4.3"/>
  <circle cx="384.096" cy="254.04" r="4.3"/>
  <circle cx="391.329" cy="240.505" r="4.3"/>
  <circle cx="398.561" cy="226.97" r="4.3"/>
  <circle cx="336.064" cy="324.172" r="4.3"/>
  <circle cx="343.297" cy="310.637" r="4.3"/>
  <circle cx="350.529" cy="297.102" r="4.3"/>
  <circle cx="357.761" cy="283.566" r="4.3"/>
  <circle cx="364.994" cy="270.031" r="4.3"/>
  <circle cx="372.226" cy="256.496" r="4.3"/>
  <circle cx="379.459" cy="242.961" r="4.3"/>
  <circle cx="386.691" cy="229.425" r="4.3"/>
  <circle cx="331.525" cy="312.932" r="4.3"/>
  <circle cx="338.757" cy="299.397" r="4.3"/>
  <circle cx="345.99" cy="285.862" r="4.3"/>
  <circle cx="353.222" cy="272.327" r="4.3"/>
  <circle cx="360.455" cy="258.792" r="4.3"/>
  <circle cx="367.687" cy="245.256" r="4.3"/>
  <circle cx="374.919" cy="231.721" r="4.3"/>
  <circle cx="382.152" cy="218.186" r="4.3"/>
  <circle cx="410.448" cy="224.68" r="4.3"/>
  <circle cx="417.681" cy="211.144" r="4.3"/>
  <circle cx="424.913" cy="197.609" r="4.3"/>
  <circle cx="432.146" cy="184.074" r="4.3"/>
  <circle cx="439.378" cy="170.539" r="4.3"/>
  <circle cx="446.61" cy="157.004" r="4.3"/>
  <circle cx="405.909" cy="213.44" r="4.3"/>
  <circle cx="413.142" cy="199.905" r="4.3"/>
  <circle cx="420.374" cy="186.37" r="4.3"/>
  <circle cx="427.606" cy="172.834" r="4.3"/>
  <circle cx="434.839" cy="159.299" r="4.3"/>
  <circle cx="394.039" cy="215.895" r="4.3"/>
  <circle cx="401.271" cy="202.36" r="4.3"/>
  <circle cx="408.504" cy="188.825" r="4.3"/>
  <circle cx="415.736" cy="175.29" r="4.3"/>
  <circle cx="422.968" cy="161.755" r="4.3"/>
  <circle cx="389.5" cy="204.656" r="4.3"/>
  <circle cx="396.732" cy="191.121" r="4.3"/>
  <circle cx="403.964" cy="177.586" r="4.3"/>
  <circle cx="411.197" cy="164.05" r="4.3"/>
  <path d="M471.57 130.517c-1.889-5.104-5.751-9.238-10.551-11.803l-31.376-16.766a4 4 0 0 0-3.047-.299c-.18.055-19.225 6.96-20.852 7.583a317.532 317.532 0 0 0-8.057-20.449 4 4 0 0 0-5.095-2.143 300.243 300.243 0 0 0-20.247 8.589 313.888 313.888 0 0 0-10.225-19.396 4 4 0 0 0-5.328-1.556 303.159 303.159 0 0 0-18.997 10.843 311.24 311.24 0 0 0-12.258-18.068 4 4 0 0 0-5.482-.945 306.82 306.82 0 0 0-17.574 12.915 308.993 308.993 0 0 0-14.176-16.556 4 4 0 0 0-5.558-.321 309.2 309.2 0 0 0-15.99 14.812 306.117 306.117 0 0 0-15.967-14.854 3.999 3.999 0 0 0-5.554.307 311.406 311.406 0 0 0-14.259 16.533 302.91 302.91 0 0 0-17.62-12.959 4 4 0 0 0-5.471.931 313.908 313.908 0 0 0-12.394 18.088 298.804 298.804 0 0 0-19.122-10.865 4 4 0 0 0-5.308 1.541 316.91 316.91 0 0 0-10.405 19.475 296.182 296.182 0 0 0-20.459-8.564s-1.891-.354-2.844.013L13.902 134.169c-11.168 4.304-16.753 16.892-12.45 28.06l90.812 235.684c3.205 8.317 11.346 13.906 20.258 13.906a21.6 21.6 0 0 0 7.8-1.456l123.486-47.568c13.578-5.231 27.836-5.857 40.755-1.889 2.922.897 5.722 2.142 8.417 3.585 8.015 4.293 28.984 15.514 28.984 15.514a21.752 21.752 0 0 0 10.214 2.564 21.683 21.683 0 0 0 19.159-11.479l119.034-222.768c2.944-5.507 3.387-11.892 1.199-17.805zm-52.052-18.107L318.245 301.94l87.954-184.343c2.52-.915 11.359-4.448 13.319-5.187zm-20.539 1.74L292.3 337.74l81.381-234.278a290.363 290.363 0 0 1 18.182-7.952 308.429 308.429 0 0 1 7.116 18.64zm-41.895-30.963a304.397 304.397 0 0 1 9.05 17.618l-78.023 224.612 51.944-232.261a294.468 294.468 0 0 1 17.029-9.969zm-35.725-8.254a302.244 302.244 0 0 1 10.897 16.444l-55.46 247.983 28.826-252.593a295.874 295.874 0 0 1 15.737-11.834zm-36.32-4.163a299.836 299.836 0 0 1 12.635 15.087l-28.099 246.224 1.454-248.062a299.006 299.006 0 0 1 14.01-13.249zm-36.556-.051a296.535 296.535 0 0 1 14.543 13.847l-1.466 250.136-25.797-248.908a301.95 301.95 0 0 1 12.72-15.075zm-36.44 4.079a293.455 293.455 0 0 1 15.768 11.869l27.082 261.322-54.346-255.977a304.49 304.49 0 0 1 11.496-17.214zm-35.966 8.232a290.685 290.685 0 0 1 16.41 9.537l54.053 254.596-79.699-246.401a308.775 308.775 0 0 1 9.236-17.732zm-16.803 20.331 58.42 180.614-71.887-186.567a287.062 287.062 0 0 1 13.467 5.953zm-87.277 16.997 29.51-11.37 100.668 261.264-29.51 11.37L71.997 120.358zm-55.218 21.276 47.753-18.4 3.577 9.284-60.042 23.135c-.533-5.94 2.876-11.77 8.712-14.019zm-6.336 21.677 60.542-23.328 87.761 227.766-60.542 23.328-87.761-227.766zm107.004 239.587a13.65 13.65 0 0 1-4.924.921c-4.339 0-8.382-2.103-10.937-5.472l60.037-23.133 3.577 9.284-47.753 18.4zm92.192-35.523L108.971 106.111 136.5 95.504l100.668 261.264-27.529 10.607zm253.678-222.823L344.283 367.319a13.696 13.696 0 0 1-12.104 7.249c-2.263 0-4.431-.545-6.444-1.621l-28.286-15.114L429.401 110.89l28.286 15.115a13.613 13.613 0 0 1 6.656 8.107 13.62 13.62 0 0 1-1.026 10.44z"/>
</svg>
