<svg xmlns="http://www.w3.org/2000/svg" viewBox="0 0 1070 480">
  <defs>
    <clipPath id="a">
      <path d="M0 0h1070v480H0z"/>
    </clipPath>
  </defs>
  <g clip-path="url(#a)">
    <path fill="none" stroke="#fff" stroke-miterlimit="10" stroke-width=".1" d="M0 0h1070v480H0V0Zm0 0"/>
    <path fill="#fff" d="M0 0h1070v480H0V0Zm0 0"/>
    <path fill="none" stroke="#000" stroke-miterlimit="10" stroke-width=".1" d="M526.966 26.934c4.72-4.85 12.199-5.75 18.55-4.353 4.382.875 8.121 4.175 9.597 8.384 1.572 4.514 1.293 9.392.526 14.035 2.75-.392 5.579-.763 8.325-.069 7.23 1.412 12.744 8.81 11.972 16.142-1.578 6.24-5.824 12.262-12.062 14.487-3.166 1.253-6.624.958-9.941.853 5.722-2.108 9.928-7.307 11.063-13.26.92-4.039-.843-8.634-4.43-10.794-3.328-2.216-7.426-2.493-11.273-2.957.32-3.88.037-8.13-2.268-11.411-3.594-5.252-12.372-5.049-16.065-.019-2.713 3.607-3.26 8.244-3.501 12.614-4.984-.892-10.428 1.598-12.187 6.509-2.836 7.573 1.576 15.551 7.532 20.183-4.84.374-10.09-.927-13.319-4.764-3.759-4.613-5.083-10.834-4.708-16.674.233-3.546 2-7.1 5.104-8.97 3.575-2.308 7.962-2.532 12.096-2.382-.335-6.154.634-12.868 4.99-17.554Zm0 0"/>
    <path d="M526.966 26.934c4.72-4.85 12.199-5.75 18.55-4.353 4.382.875 8.121 4.175 9.597 8.384 1.572 4.514 1.293 9.392.526 14.035 2.75-.392 5.579-.763 8.325-.069 7.23 1.412 12.744 8.81 11.972 16.142-1.578 6.24-5.824 12.262-12.062 14.487-3.166 1.253-6.624.958-9.941.853 5.722-2.108 9.928-7.307 11.063-13.26.92-4.039-.843-8.634-4.43-10.794-3.328-2.216-7.426-2.493-11.273-2.957.32-3.88.037-8.13-2.268-11.411-3.594-5.252-12.372-5.049-16.065-.019-2.713 3.607-3.26 8.244-3.501 12.614-4.984-.892-10.428 1.598-12.187 6.509-2.836 7.573 1.576 15.551 7.532 20.183-4.84.374-10.09-.927-13.319-4.764-3.759-4.613-5.083-10.834-4.708-16.674.233-3.546 2-7.1 5.104-8.97 3.575-2.308 7.962-2.532 12.096-2.382-.335-6.154.634-12.868 4.99-17.554Zm0 0"/>
    <path fill="none" stroke="#000" stroke-miterlimit="10" stroke-width=".1" d="M528.28 64.13c-1.355-7.716 7.114-15.28 14.561-12.406 5.079 2.586 8.165 9.43 5.661 14.802-1.46 2.81-4.193 4.652-6.981 5.975-.415 6.843-1.443 14.9 3.552 20.432 4.922 4.877 12.382 5.015 18.871 5.07 4.98-.302 10.25 1.04 15.003-.966 4.792-3.087 5.903-9.202 7.9-14.142-2.682-3.036-5.223-6.754-4.833-11.013.65-5.525 5.33-10.54 10.97-11.04 7.01-.87 14.59 5.89 12.728 13.156-1.942 6.322-8.81 9.395-14.913 10.093.15 5.057-2.675 12.34 2.457 15.678 4.996 1.223 10.451 2.545 15.524.992 5.677-2.089 8.544-7.891 10.744-13.111-2.403-3.375-4.86-7.235-4.263-11.58.74-6.87 9.373-10.768 15.259-7.46 5.7 2.523 8.64 10.471 4.842 15.724-2.835 4.19-8.13 5.638-12.95 5.176-1.229 4.11-2.843 8.179-3.184 12.49.222 3.298 3.763 5.047 6.757 4.785 7.448-.177 13.66-5.772 16.966-12.099-.229-2.859-1.237-5.744-.437-8.606 1.726-7.482 12.27-10.59 18.092-5.865 4.339 3.915 3.979 11.463-.37 15.235-2.947 3.03-7.459 3.117-11.36 2.556-4.132 4.689-9.43 8.621-12.369 14.19.929 2.689 2.917 4.886 3.72 7.628.429 4.434-1.233 8.7-2.919 12.707-2.287 5.025-5.059 9.968-9.038 13.857-1.654 1.578-3.833 3.193-6.252 2.759-25.475-4.207-51.15-7.576-76.98-8.397-27.562-1.102-55.216 1.351-82.275 6.633-5.259 1.123-10.138-2.32-12.992-6.452-4.476-6.372-7.08-14.125-7.313-21.905-.296-3.584 2.008-7.577-.62-10.717-3.991-4.578-9.954-6.64-15.045-9.704-5.22 1.712-11.941 3.07-16.288-1.242-3.587-4.531-4.437-11.804-.54-16.41 4.226-4.955 12.88-5.072 17.168-.15 3.127 3.698 2.13 8.81 2.644 13.25 6.593 3.53 12.392 9.847 20.379 9.687 2.183-.135 2.464-2.915 2.702-4.606.146-4.564-.608-9.28-2.51-13.452-3.325-1.169-7.48-1.393-9.663-4.552-3.652-5.062-1.888-12.81 3.424-15.996 4.16-2.752 10.443-3.31 14.228.384 3.719 3.667 4.469 9.667 2.541 14.396-.957 2.295-3.462 3.22-5.339 4.601 1.217 5.013 2.653 10.67 7.148 13.78 4.608 3.037 10.362 1.74 15.488 1.307 2.944-.178 6.399-1.391 7.303-4.527 1.303-4.821.116-9.861-.807-14.648-3.246-1.195-7.402-1.724-9.034-5.226-3.619-7.05 1.383-16.755 9.366-17.47 5.824-.853 11.044 4.563 10.789 10.263.355 4.99-3.224 8.926-6.387 12.313 1.502 5.54 2.587 12.165 7.709 15.61 4.866 2.57 10.635 1.704 15.936 1.787 6.279-.318 13.725-.164 18.322-5.218 4.425-5.59 4.152-13.13 4.686-19.863-3.069-2.266-7.568-4.088-7.778-8.493Zm0 0"/>
    <path d="M528.28 64.13c-1.355-7.716 7.114-15.28 14.561-12.406 5.079 2.586 8.165 9.43 5.661 14.802-1.46 2.81-4.193 4.652-6.981 5.975-.415 6.843-1.443 14.9 3.552 20.432 4.922 4.877 12.382 5.015 18.871 5.07 4.98-.302 10.25 1.04 15.003-.966 4.792-3.087 5.903-9.202 7.9-14.142-2.682-3.036-5.223-6.754-4.833-11.013.65-5.525 5.33-10.54 10.97-11.04 7.01-.87 14.59 5.89 12.728 13.156-1.942 6.322-8.81 9.395-14.913 10.093.15 5.057-2.675 12.34 2.457 15.678 4.996 1.223 10.451 2.545 15.524.992 5.677-2.089 8.544-7.891 10.744-13.111-2.403-3.375-4.86-7.235-4.263-11.58.74-6.87 9.373-10.768 15.259-7.46 5.7 2.523 8.64 10.471 4.842 15.724-2.835 4.19-8.13 5.638-12.95 5.176-1.229 4.11-2.843 8.179-3.184 12.49.222 3.298 3.763 5.047 6.757 4.785 7.448-.177 13.66-5.772 16.966-12.099-.229-2.859-1.237-5.744-.437-8.606 1.726-7.482 12.27-10.59 18.092-5.865 4.339 3.915 3.979 11.463-.37 15.235-2.947 3.03-7.459 3.117-11.36 2.556-4.132 4.689-9.43 8.621-12.369 14.19.929 2.689 2.917 4.886 3.72 7.628.429 4.434-1.233 8.7-2.919 12.707-2.287 5.025-5.059 9.968-9.038 13.857-1.654 1.578-3.833 3.193-6.252 2.759-25.475-4.207-51.15-7.576-76.98-8.397-27.562-1.102-55.216 1.351-82.275 6.633-5.259 1.123-10.138-2.32-12.992-6.452-4.476-6.372-7.08-14.125-7.313-21.905-.296-3.584 2.008-7.577-.62-10.717-3.991-4.578-9.954-6.64-15.045-9.704-5.22 1.712-11.941 3.07-16.288-1.242-3.587-4.531-4.437-11.804-.54-16.41 4.226-4.955 12.88-5.072 17.168-.15 3.127 3.698 2.13 8.81 2.644 13.25 6.593 3.53 12.392 9.847 20.379 9.687 2.183-.135 2.464-2.915 2.702-4.606.146-4.564-.608-9.28-2.51-13.452-3.325-1.169-7.48-1.393-9.663-4.552-3.652-5.062-1.888-12.81 3.424-15.996 4.16-2.752 10.443-3.31 14.228.384 3.719 3.667 4.469 9.667 2.541 14.396-.957 2.295-3.462 3.22-5.339 4.601 1.217 5.013 2.653 10.67 7.148 13.78 4.608 3.037 10.362 1.74 15.488 1.307 2.944-.178 6.399-1.391 7.303-4.527 1.303-4.821.116-9.861-.807-14.648-3.246-1.195-7.402-1.724-9.034-5.226-3.619-7.05 1.383-16.755 9.366-17.47 5.824-.853 11.044 4.563 10.789 10.263.355 4.99-3.224 8.926-6.387 12.313 1.502 5.54 2.587 12.165 7.709 15.61 4.866 2.57 10.635 1.704 15.936 1.787 6.279-.318 13.725-.164 18.322-5.218 4.425-5.59 4.152-13.13 4.686-19.863-3.069-2.266-7.568-4.088-7.778-8.493Zm0 0"/>
    <path fill="none" stroke="#000" stroke-miterlimit="10" stroke-width=".1" d="M397.115 67.133c1.126-4.317 4.99-7.978 9.624-7.826 7.925.446 14.28 6.019 19.69 11.307-6.034-1.59-12.953-3.22-18.642.283-6.13 3.836-7.468 11.805-7.17 18.487-3.349-6.787-5.534-14.749-3.502-22.25Zm0 0"/>
    <path d="M397.115 67.133c1.126-4.317 4.99-7.978 9.624-7.826 7.925.446 14.28 6.019 19.69 11.307-6.034-1.59-12.953-3.22-18.642.283-6.13 3.836-7.468 11.805-7.17 18.487-3.349-6.787-5.534-14.749-3.502-22.25Zm0 0"/>
    <path fill="none" stroke="#000" stroke-miterlimit="10" stroke-width=".1" d="M652.61 61.554c6.15-3.675 15.033-2.201 19.14 3.835 3.992 5.79 2.834 13.413.589 19.646-2.683-5.93-6.567-12.065-13.047-14.269-5.012-1.899-10.385-.17-15.013 1.946 1.463-4.483 4.067-8.85 8.331-11.158Zm0 0"/>
    <path d="M652.61 61.554c6.15-3.675 15.033-2.201 19.14 3.835 3.992 5.79 2.834 13.413.589 19.646-2.683-5.93-6.567-12.065-13.047-14.269-5.012-1.899-10.385-.17-15.013 1.946 1.463-4.483 4.067-8.85 8.331-11.158Zm0 0"/>
    <path fill="none" stroke="#fff" stroke-miterlimit="10" stroke-width=".1" d="M496.613 103.834c24.498-1.248 49.075-1.231 73.551.485 13.725 1.043 27.478 2.515 40.882 5.753 6.226 1.623 12.548 3.463 17.99 7.01 1.696 1.141 3.729 2.53 3.706 4.83-.036 6.504-3.295 12.6-7.285 17.568-1.627 1.808-3.72 4-6.362 3.73-21.07-2.996-42.027-6.904-63.217-9.006-23.171-2.398-46.374.87-69.435 2.978-8.791.82-17.568 1.86-26.367 2.526-3.609-.69-5.683-4.247-7.35-7.21-2.99-6.084-4.836-13.815-1.281-20.048 1.813-3.59 6.247-3.988 9.706-4.867 11.685-2.27 23.604-2.97 35.462-3.75Zm0 0"/>
    <path fill="#fff" d="M496.613 103.834c24.498-1.248 49.075-1.231 73.551.485 13.725 1.043 27.478 2.515 40.882 5.753 6.226 1.623 12.548 3.463 17.99 7.01 1.696 1.141 3.729 2.53 3.706 4.83-.036 6.504-3.295 12.6-7.285 17.568-1.627 1.808-3.72 4-6.362 3.73-21.07-2.996-42.027-6.904-63.217-9.006-23.171-2.398-46.374.87-69.435 2.978-8.791.82-17.568 1.86-26.367 2.526-3.609-.69-5.683-4.247-7.35-7.21-2.99-6.084-4.836-13.815-1.281-20.048 1.813-3.59 6.247-3.988 9.706-4.867 11.685-2.27 23.604-2.97 35.462-3.75Zm0 0"/>
    <path fill="none" stroke="#000" stroke-miterlimit="10" stroke-width=".1" d="M529.265 112.086c7.976-2.743 16.668-1.412 24.814-.198 3.53.193 3.914 4.354 3.955 7.085.13 2.786-.706 6.474-3.86 7.192-6.454 1.613-13.24 1.17-19.759.194-2.365-.427-5.273-1.196-6.097-3.773-1.409-3.456-.041-7.133.947-10.5Zm0 0"/>
    <path d="M529.265 112.086c7.976-2.743 16.668-1.412 24.814-.198 3.53.193 3.914 4.354 3.955 7.085.13 2.786-.706 6.474-3.86 7.192-6.454 1.613-13.24 1.17-19.759.194-2.365-.427-5.273-1.196-6.097-3.773-1.409-3.456-.041-7.133.947-10.5Zm0 0"/>
    <path fill="none" stroke="#000" stroke-miterlimit="10" stroke-width=".1" d="M502.074 112.112c4.807-.521 9.859-1.136 14.561.31 3.136 1.726 2.25 5.864 1.336 8.66-.938 3.367-4.91 3.97-7.836 4.566-5.332.671-10.825 1.383-16.157.421-2.1-1.683-1.956-4.8-1.884-7.23-.181-5.146 6.12-6.049 9.98-6.727Zm0 0"/>
    <path d="M502.074 112.112c4.807-.521 9.859-1.136 14.561.31 3.136 1.726 2.25 5.864 1.336 8.66-.938 3.367-4.91 3.97-7.836 4.566-5.332.671-10.825 1.383-16.157.421-2.1-1.683-1.956-4.8-1.884-7.23-.181-5.146 6.12-6.049 9.98-6.727Zm0 0"/>
    <path fill="none" stroke="#000" stroke-miterlimit="10" stroke-width=".1" d="M569.362 114.5c6.744-1.84 14.004-.964 20.638.955 3.343.743 3.44 4.84 3.068 7.567-.292 2.008-.587 5-3.122 5.327-6.722 1.12-13.8 1.027-20.397-.768-6.438-.895-5.369-11.32-.187-13.081Zm0 0"/>
    <path d="M569.362 114.5c6.744-1.84 14.004-.964 20.638.955 3.343.743 3.44 4.84 3.068 7.567-.292 2.008-.587 5-3.122 5.327-6.722 1.12-13.8 1.027-20.397-.768-6.438-.895-5.369-11.32-.187-13.081Zm0 0"/>
    <path fill="none" stroke="#000" stroke-miterlimit="10" stroke-width=".1" d="M465.514 116.673c5.652-.942 11.621-1.934 17.27-.56 2.922 2.448 3.319 8.204-.266 10.311-3.8 2.195-8.107 3.4-12.412 4.113-3.29.42-7.131.652-9.743-1.783-2.832-2.256-2.897-6.564-1.075-9.468 1.68-1.597 4.038-2.098 6.226-2.613Zm0 0"/>
    <path d="M465.514 116.673c5.652-.942 11.621-1.934 17.27-.56 2.922 2.448 3.319 8.204-.266 10.311-3.8 2.195-8.107 3.4-12.412 4.113-3.29.42-7.131.652-9.743-1.783-2.832-2.256-2.897-6.564-1.075-9.468 1.68-1.597 4.038-2.098 6.226-2.613Zm0 0"/>
    <path fill="none" stroke="#000" stroke-miterlimit="10" stroke-width=".1" d="M602.591 119.742c5.25-1.668 11.093-.387 16.133 1.528 5.077 1.683 5.192 10.17 1.17 12.898-6.2.275-12.739-.162-18.463-2.7-3.517-2.991-1.612-8.868 1.16-11.726Zm0 0"/>
    <path d="M602.591 119.742c5.25-1.668 11.093-.387 16.133 1.528 5.077 1.683 5.192 10.17 1.17 12.898-6.2.275-12.739-.162-18.463-2.7-3.517-2.991-1.612-8.868 1.16-11.726Zm0 0"/>
    <path fill="none" stroke="#000" stroke-miterlimit="10" stroke-width=".1" d="M171.342 155.905c.748-3.832 3.71-7.695 7.77-8.225 2.367.154 1.85 2.814 1.478 4.412-1.683 6.543.43 13.539 4.324 18.886 4.289 5.774 10.021 10.321 16.137 14.033 10.217 6.254 21.519 10.42 32.9 13.998-10.022 4.666-18.564 11.88-26.396 19.569-25.588 26.257-44.521 58.756-73.499 81.725-16.345 13.178-36.83 21.97-58.058 21.717-12.65.418-26.218-3.146-35.05-12.684-7.734-8.068-10.878-19.774-9.41-30.735-5.648-4.336-10.45-10.434-11.63-17.6-.665-3.583 1.622-8.984 6.057-7.64 4.235 4.205 2.321 11.71 7.395 15.589.887-2.383 1.846-4.74 3.108-6.95a166.473 166.473 0 0 1 3.2 4.037c-1.038 11.495-1.937 24.075 3.897 34.527 4.57 7.893 13.95 10.898 22.396 12.468 15.287 2.755 30.742-3.207 42.945-12.166 12.576-9.042 22.542-21.072 32.015-33.188 21.634-26.37 46.99-50.05 76.224-67.792-18.624-5.321-35.302-15.379-52.257-24.437-11.887-6.11-25.099-12.248-38.809-9.887-12.004 2.316-23.853 8.263-31.1 18.383-7.348 10.135-9.403 23.322-7.654 35.53 2.89-.021 6.003-.07 8.508 1.606 4.672 2.779 5.494 9.902 2.132 14.003-4.876 5.188-15.472 3.015-17.169-4.152-.986-3.071.623-6.109 1.951-8.793-3.86-19.249 1.236-41.104 16.581-54.145-5.527-2.188-11.426 2.33-16.854-.476-2.139-.866-2.329-3.682-1.103-5.391 1.708-2.4 4.71-3.475 7.538-3.79 4.87-.736 9.293 2.27 14.153 1.93 5.671-.23 11.547-.346 16.838-2.656 8.302-3.103 17.473-2.853 26.04-1.058 10.088 2.077 19.705 6.148 28.547 11.387-.785-4.097-4.015-7.683-3.145-12.035Zm0 0"/>
    <path d="M171.342 155.905c.748-3.832 3.71-7.695 7.77-8.225 2.367.154 1.85 2.814 1.478 4.412-1.683 6.543.43 13.539 4.324 18.886 4.289 5.774 10.021 10.321 16.137 14.033 10.217 6.254 21.519 10.42 32.9 13.998-10.022 4.666-18.564 11.88-26.396 19.569-25.588 26.257-44.521 58.756-73.499 81.725-16.345 13.178-36.83 21.97-58.058 21.717-12.65.418-26.218-3.146-35.05-12.684-7.734-8.068-10.878-19.774-9.41-30.735-5.648-4.336-10.45-10.434-11.63-17.6-.665-3.583 1.622-8.984 6.057-7.64 4.235 4.205 2.321 11.71 7.395 15.589.887-2.383 1.846-4.74 3.108-6.95a166.473 166.473 0 0 1 3.2 4.037c-1.038 11.495-1.937 24.075 3.897 34.527 4.57 7.893 13.95 10.898 22.396 12.468 15.287 2.755 30.742-3.207 42.945-12.166 12.576-9.042 22.542-21.072 32.015-33.188 21.634-26.37 46.99-50.05 76.224-67.792-18.624-5.321-35.302-15.379-52.257-24.437-11.887-6.11-25.099-12.248-38.809-9.887-12.004 2.316-23.853 8.263-31.1 18.383-7.348 10.135-9.403 23.322-7.654 35.53 2.89-.021 6.003-.07 8.508 1.606 4.672 2.779 5.494 9.902 2.132 14.003-4.876 5.188-15.472 3.015-17.169-4.152-.986-3.071.623-6.109 1.951-8.793-3.86-19.249 1.236-41.104 16.581-54.145-5.527-2.188-11.426 2.33-16.854-.476-2.139-.866-2.329-3.682-1.103-5.391 1.708-2.4 4.71-3.475 7.538-3.79 4.87-.736 9.293 2.27 14.153 1.93 5.671-.23 11.547-.346 16.838-2.656 8.302-3.103 17.473-2.853 26.04-1.058 10.088 2.077 19.705 6.148 28.547 11.387-.785-4.097-4.015-7.683-3.145-12.035Zm0 0"/>
    <path fill="none" stroke="#000" stroke-miterlimit="10" stroke-width=".1" d="M909.119 154.118c1.135-2.65 2.677-5.863 5.866-6.36 2.031-.54 3.37 1.58 3.713 3.282.484 3.845-.823 7.587-1.719 11.272 12.348-3.39 25.673-4.296 38.098-.792 9.417 3.3 18.828 7.595 28.985 7.727 3.869.16 7.05-3.186 10.932-2.377 2.723 2.303.872 6.94-1.976 8.344-5.203 2.517-11.159 2.12-16.748 2.856 7.883 14.193 9.995 32.48 1.861 47.042 3.656 7.089-1.805 17.39-10.154 16.911-5.199.255-10.154-4.86-8.505-10.123 1.092-6.629 8.501-9.667 14.575-8.939 9.898-17.243 1.781-41.253-15.456-50.395-9.995-5.195-21.929-4.947-32.51-1.785-19.363 5.633-37.28 15.102-55.534 23.484-5.98 2.66-11.898 5.604-18.286 7.154 15.077 8.762 28.418 20.17 41.372 31.763 19.713 18.014 37.945 37.595 55.176 57.983 4.346 4.978 8.202 10.478 13.476 14.56 9.037 7.54 20.782 12.134 32.64 11.477 11.092-.617 21.714-6.165 28.808-14.673 7.474-8.889 10.388-21.357 7.811-32.662 1-1.274 2.022-2.532 3.082-3.77 1.719 2.829 2.886 5.957 3.064 9.292 2.415-1.47 4.423-3.465 5.868-5.905 1.432-2.42 4.267-4.858 7.227-3.386 2.24 2.25 1.857 6.231.177 8.713-3.434 3.857-8.348 5.94-13.13 7.583-.235 14.726-10.042 27.883-22.744 34.643-19.994 10.425-45.373 8.224-64.249-3.672-13.69-9.022-25.393-20.699-36.017-33.105-25.072-29.154-51.822-57.065-82.191-80.77 16.774.5 32.842-6.21 46.655-15.257 11.943-7.543 24.822-16.231 29.833-30.115Zm0 0"/>
    <path d="M909.119 154.118c1.135-2.65 2.677-5.863 5.866-6.36 2.031-.54 3.37 1.58 3.713 3.282.484 3.845-.823 7.587-1.719 11.272 12.348-3.39 25.673-4.296 38.098-.792 9.417 3.3 18.828 7.595 28.985 7.727 3.869.16 7.05-3.186 10.932-2.377 2.723 2.303.872 6.94-1.976 8.344-5.203 2.517-11.159 2.12-16.748 2.856 7.883 14.193 9.995 32.48 1.861 47.042 3.656 7.089-1.805 17.39-10.154 16.911-5.199.255-10.154-4.86-8.505-10.123 1.092-6.629 8.501-9.667 14.575-8.939 9.898-17.243 1.781-41.253-15.456-50.395-9.995-5.195-21.929-4.947-32.51-1.785-19.363 5.633-37.28 15.102-55.534 23.484-5.98 2.66-11.898 5.604-18.286 7.154 15.077 8.762 28.418 20.17 41.372 31.763 19.713 18.014 37.945 37.595 55.176 57.983 4.346 4.978 8.202 10.478 13.476 14.56 9.037 7.54 20.782 12.134 32.64 11.477 11.092-.617 21.714-6.165 28.808-14.673 7.474-8.889 10.388-21.357 7.811-32.662 1-1.274 2.022-2.532 3.082-3.77 1.719 2.829 2.886 5.957 3.064 9.292 2.415-1.47 4.423-3.465 5.868-5.905 1.432-2.42 4.267-4.858 7.227-3.386 2.24 2.25 1.857 6.231.177 8.713-3.434 3.857-8.348 5.94-13.13 7.583-.235 14.726-10.042 27.883-22.744 34.643-19.994 10.425-45.373 8.224-64.249-3.672-13.69-9.022-25.393-20.699-36.017-33.105-25.072-29.154-51.822-57.065-82.191-80.77 16.774.5 32.842-6.21 46.655-15.257 11.943-7.543 24.822-16.231 29.833-30.115Zm0 0"/>
    <path fill="none" stroke="#000" stroke-miterlimit="10" stroke-width=".1" d="M517.947 158.007c.741-3.862 3.855-7.699 7.958-8.022 2.446.45 1.333 3.371 1.133 4.989-2.242 9.772 3.766 19.037 10.793 25.254-3.36 2.114-6.759 4.16-10.12 6.265-15.496-7.952-30.757-18.59-48.759-19.224-13.5.56-27.065 6.574-35.875 16.958-3.572 4.237-5.909 9.342-7.773 14.518-1.967-.16-3.936-.25-5.896-.328 2.435-10.899 8.279-20.917 16.61-28.355-5.625-1.742-11.458 2.375-16.919-.233-2.27-.912-2.433-4.012-.979-5.703 1.896-2.401 5.044-3.395 8-3.596 4.43-.389 8.475 2.138 12.891 1.99 5.722-.172 11.677-.21 17.036-2.486 10.956-4.202 23.17-2.616 34.12.777 7.298 2.248 14.209 5.558 20.865 9.272-.78-4.09-4.181-7.724-3.085-12.076Zm0 0"/>
    <path d="M517.947 158.007c.741-3.862 3.855-7.699 7.958-8.022 2.446.45 1.333 3.371 1.133 4.989-2.242 9.772 3.766 19.037 10.793 25.254-3.36 2.114-6.759 4.16-10.12 6.265-15.496-7.952-30.757-18.59-48.759-19.224-13.5.56-27.065 6.574-35.875 16.958-3.572 4.237-5.909 9.342-7.773 14.518-1.967-.16-3.936-.25-5.896-.328 2.435-10.899 8.279-20.917 16.61-28.355-5.625-1.742-11.458 2.375-16.919-.233-2.27-.912-2.433-4.012-.979-5.703 1.896-2.401 5.044-3.395 8-3.596 4.43-.389 8.475 2.138 12.891 1.99 5.722-.172 11.677-.21 17.036-2.486 10.956-4.202 23.17-2.616 34.12.777 7.298 2.248 14.209 5.558 20.865 9.272-.78-4.09-4.181-7.724-3.085-12.076Zm0 0"/>
    <path fill="none" stroke="#000" stroke-miterlimit="10" stroke-width=".1" d="M563.417 157.473c1.1-2.573 2.641-5.595 5.664-6.189 1.84-.593 3.303 1.139 3.75 2.724.739 3.997-.648 7.951-1.63 11.776 11.247-3.1 23.194-4 34.677-1.683 6.986 1.516 13.296 5.131 20.271 6.703 5.626 1.367 11.822 3.198 17.396.64 1.922-.708 4.717-2.308 6.373-.347 1.747 2.843-.303 6.675-3.172 7.851-5.098 2.24-10.822 1.893-16.233 2.62 7.856 14.192 10.024 32.507 1.82 47.038 3.76 7.078-1.873 17.525-10.248 16.92-5.369.2-10.11-5.219-8.329-10.51 1.397-6.47 8.575-9.183 14.565-8.7 10.882-18.982-.275-46.32-21.157-52.568-9.904-3.183-20.581-1.654-30.275 1.524-18.5 5.957-35.777 14.994-53.392 23.077-5.536 2.48-11.064 5.104-16.986 6.53 11.213 6.51 21.424 14.6 31.3 22.964-1.282 1.164-2.562 2.324-3.831 3.495-10.16-8.377-20.417-16.825-31.969-23.235 7.428 6.311 14.787 12.71 21.908 19.369a479.948 479.948 0 0 0-4.532 3.497c-10.478-9.75-21.293-19.142-32.55-27.984 16.604.477 32.543-6.064 46.248-14.994 12.14-7.634 25.277-16.388 30.332-30.518Zm0 0"/>
    <path d="M563.417 157.473c1.1-2.573 2.641-5.595 5.664-6.189 1.84-.593 3.303 1.139 3.75 2.724.739 3.997-.648 7.951-1.63 11.776 11.247-3.1 23.194-4 34.677-1.683 6.986 1.516 13.296 5.131 20.271 6.703 5.626 1.367 11.822 3.198 17.396.64 1.922-.708 4.717-2.308 6.373-.347 1.747 2.843-.303 6.675-3.172 7.851-5.098 2.24-10.822 1.893-16.233 2.62 7.856 14.192 10.024 32.507 1.82 47.038 3.76 7.078-1.873 17.525-10.248 16.92-5.369.2-10.11-5.219-8.329-10.51 1.397-6.47 8.575-9.183 14.565-8.7 10.882-18.982-.275-46.32-21.157-52.568-9.904-3.183-20.581-1.654-30.275 1.524-18.5 5.957-35.777 14.994-53.392 23.077-5.536 2.48-11.064 5.104-16.986 6.53 11.213 6.51 21.424 14.6 31.3 22.964-1.282 1.164-2.562 2.324-3.831 3.495-10.16-8.377-20.417-16.825-31.969-23.235 7.428 6.311 14.787 12.71 21.908 19.369a479.948 479.948 0 0 0-4.532 3.497c-10.478-9.75-21.293-19.142-32.55-27.984 16.604.477 32.543-6.064 46.248-14.994 12.14-7.634 25.277-16.388 30.332-30.518Zm0 0"/>
    <path fill="none" stroke="#000" stroke-miterlimit="10" stroke-width=".1" d="M736.921 188.985c2.727-2.14 6.682-1.84 9.717-.528a32.125 32.125 0 0 1 12.573 10.218c16.528-2.187 33.472 2.794 47.03 12.268 12.532 8.67 22.228 20.803 29.959 33.81 20.086 31.396 42.943 61.3 70.137 86.9 12.574 11.683 26.158 22.442 41.306 30.612 10.428 5.462 21.58 10.175 33.384 11.42 14.824.038 29.386-10.034 34.371-24.04 2.557-9.484 2.166-19.515 1.082-29.191a383.731 383.731 0 0 1 5.418-2.911c1.467 9.33 1.326 18.807.214 28.167 5.043-3.492 9.32-8.09 14.793-10.94 2.556-1.29 6.76-2.346 8.358.868 1.701 4.384-1.917 8.98-5.81 10.722-6.561 2.572-13.294 4.705-19.802 7.417-5.922 12.32-17.325 22.044-30.699 25.224-13.662 3.395-28.024.738-40.991-4.107-29.329-11.257-55.416-30.183-76.421-53.426-8.112-8.888-15.524-18.378-22.943-27.838-9.588-13.727-17.423-28.573-26.624-42.552-8.94-13.722-18.589-27.373-31.467-37.704-7.923-6.272-18.372-10.932-28.597-8.286-9.457 2.473-17.425 9.074-22.998 16.949-5.605 7.983-8.72 18.358-5.898 27.967 2.239 8.467 9.342 15.705 18.089 17.233 5.141 1.034 11.177-.649 14.137-5.208 2.027-2.864 2.325-6.48 2.35-9.878-2.61 2.932-6.406 5.284-10.477 4.194-6.382-1.441-7.86-10.47-3.718-14.904 3.638-4.29 11.329-3.97 14.395.857 4.925 7.322 4.177 18.165-1.844 24.657-5.328 5.516-13.965 5.709-20.823 3.366-7.365-2.412-13.08-8.451-16.153-15.438-4.002-8.951-4.866-19.61-.946-28.742 4.333-10.359 13.242-18.192 23.071-23.245-4.704-1.558-9.76-3.03-13.373-6.606-1.853-1.815-3.118-5.382-.8-7.305Zm0 0"/>
    <path d="M736.921 188.985c2.727-2.14 6.682-1.84 9.717-.528a32.125 32.125 0 0 1 12.573 10.218c16.528-2.187 33.472 2.794 47.03 12.268 12.532 8.67 22.228 20.803 29.959 33.81 20.086 31.396 42.943 61.3 70.137 86.9 12.574 11.683 26.158 22.442 41.306 30.612 10.428 5.462 21.58 10.175 33.384 11.42 14.824.038 29.386-10.034 34.371-24.04 2.557-9.484 2.166-19.515 1.082-29.191a383.731 383.731 0 0 1 5.418-2.911c1.467 9.33 1.326 18.807.214 28.167 5.043-3.492 9.32-8.09 14.793-10.94 2.556-1.29 6.76-2.346 8.358.868 1.701 4.384-1.917 8.98-5.81 10.722-6.561 2.572-13.294 4.705-19.802 7.417-5.922 12.32-17.325 22.044-30.699 25.224-13.662 3.395-28.024.738-40.991-4.107-29.329-11.257-55.416-30.183-76.421-53.426-8.112-8.888-15.524-18.378-22.943-27.838-9.588-13.727-17.423-28.573-26.624-42.552-8.94-13.722-18.589-27.373-31.467-37.704-7.923-6.272-18.372-10.932-28.597-8.286-9.457 2.473-17.425 9.074-22.998 16.949-5.605 7.983-8.72 18.358-5.898 27.967 2.239 8.467 9.342 15.705 18.089 17.233 5.141 1.034 11.177-.649 14.137-5.208 2.027-2.864 2.325-6.48 2.35-9.878-2.61 2.932-6.406 5.284-10.477 4.194-6.382-1.441-7.86-10.47-3.718-14.904 3.638-4.29 11.329-3.97 14.395.857 4.925 7.322 4.177 18.165-1.844 24.657-5.328 5.516-13.965 5.709-20.823 3.366-7.365-2.412-13.08-8.451-16.153-15.438-4.002-8.951-4.866-19.61-.946-28.742 4.333-10.359 13.242-18.192 23.071-23.245-4.704-1.558-9.76-3.03-13.373-6.606-1.853-1.815-3.118-5.382-.8-7.305Zm0 0"/>
    <path fill="none" stroke="#000" stroke-miterlimit="10" stroke-width=".1" d="M543.254 194.437c2.353-2 4.918-3.732 7.588-5.286 9.397 5.366 19.675 8.879 29.902 12.275a4.797 4.797 0 0 1-1.563.545c-15.82 7.84-27.98 21.144-39.196 34.45a358.497 358.497 0 0 0-4.157-3.645c2.565-3.338 5.247-6.583 7.864-9.881-1.718 1.124-3.334 2.395-4.883 3.734-1.398-1.358-2.783-2.726-4.167-4.084 9.192-7.446 18.83-14.373 29.031-20.379-6.986-2.08-13.778-4.74-20.419-7.729Zm0 0"/>
    <path d="M543.254 194.437c2.353-2 4.918-3.732 7.588-5.286 9.397 5.366 19.675 8.879 29.902 12.275a4.797 4.797 0 0 1-1.563.545c-15.82 7.84-27.98 21.144-39.196 34.45a358.497 358.497 0 0 0-4.157-3.645c2.565-3.338 5.247-6.583 7.864-9.881-1.718 1.124-3.334 2.395-4.883 3.734-1.398-1.358-2.783-2.726-4.167-4.084 9.192-7.446 18.83-14.373 29.031-20.379-6.986-2.08-13.778-4.74-20.419-7.729Zm0 0"/>
    <path fill="none" stroke="#000" stroke-miterlimit="10" stroke-width=".1" d="M391.371 192.313c2.59-1.88 6.22-1.627 9.088-.53 5.159 2.178 9.682 5.824 12.955 10.368 14.13-1.812 28.652 1.457 40.986 8.476 13.09 7.344 23.659 18.558 31.865 31.005 4.952 7.776 9.845 15.594 15.105 23.17a222.476 222.476 0 0 1-3.95 3.72c-12.38-19.473-24.94-40.139-44.739-52.947 14.139 13.74 25.889 29.856 35.383 47.103a361.196 361.196 0 0 0-3.623 4.926c-10.575-16.962-21.253-34.29-36.177-47.84-7.281-6.452-16.263-11.938-26.285-11.985-9.341.251-17.74 5.524-24.127 12.012-6.456 6.816-11.333 15.668-11.619 25.219-.345 8.772 3.733 17.92 11.319 22.628 5.695 3.728 13.89 4.93 19.552.509 3.795-2.898 4.843-7.924 4.772-12.45-2.61 2.52-5.877 5.098-9.772 4.246-6.982-.793-8.906-10.715-4.26-15.22 3.728-4.154 11.286-3.631 14.27 1.166 5.874 8.758 3.52 23.17-6.548 27.8-9.312 3.74-20.566.274-27.077-7.132-9.153-10.62-11.604-26.966-5.019-39.505 4.669-9.124 12.89-15.945 21.811-20.71-4.83-1.568-10.088-3.065-13.62-6.94-1.842-1.811-2.627-5.358-.29-7.089Zm0 0"/>
    <path d="M391.371 192.313c2.59-1.88 6.22-1.627 9.088-.53 5.159 2.178 9.682 5.824 12.955 10.368 14.13-1.812 28.652 1.457 40.986 8.476 13.09 7.344 23.659 18.558 31.865 31.005 4.952 7.776 9.845 15.594 15.105 23.17a222.476 222.476 0 0 1-3.95 3.72c-12.38-19.473-24.94-40.139-44.739-52.947 14.139 13.74 25.889 29.856 35.383 47.103a361.196 361.196 0 0 0-3.623 4.926c-10.575-16.962-21.253-34.29-36.177-47.84-7.281-6.452-16.263-11.938-26.285-11.985-9.341.251-17.74 5.524-24.127 12.012-6.456 6.816-11.333 15.668-11.619 25.219-.345 8.772 3.733 17.92 11.319 22.628 5.695 3.728 13.89 4.93 19.552.509 3.795-2.898 4.843-7.924 4.772-12.45-2.61 2.52-5.877 5.098-9.772 4.246-6.982-.793-8.906-10.715-4.26-15.22 3.728-4.154 11.286-3.631 14.27 1.166 5.874 8.758 3.52 23.17-6.548 27.8-9.312 3.74-20.566.274-27.077-7.132-9.153-10.62-11.604-26.966-5.019-39.505 4.669-9.124 12.89-15.945 21.811-20.71-4.83-1.568-10.088-3.065-13.62-6.94-1.842-1.811-2.627-5.358-.29-7.089Zm0 0"/>
    <path fill="none" stroke="#000" stroke-miterlimit="10" stroke-width=".1" d="M318.946 200c5.069-4.56 12.339-6.354 18.993-5.13 2.344.56 5.4 1.418 5.994 4.143-.375 2.462-2.934 3.313-4.972 3.986-4.454 1.274-9.125 1.25-13.71 1.508 10.527 8.087 18.458 20.147 19.849 33.525 1.125 9.183-.947 19.048-6.746 26.39-4.82 6.127-13.375 9.692-20.983 7.095-10.395-3.738-14.702-18.396-7.812-27.092 3.94-5.297 12.719-8.19 17.84-2.923 5.362 5.118-.353 14.846-7.304 14.035-4.121.178-7.149-2.944-8.813-6.371-.758 3.043-1.826 6.256-.767 9.37 1.669 6.098 8.066 10.676 14.423 9.642 5.42-.962 9.61-5.317 12.115-9.998 3.836-8.14 3.574-17.62 1.443-26.19-3.262-10.821-11.15-20.275-21.475-24.998-14.412-7.012-32.81-5.42-45.397 4.669-5.168 3.901-8.807 9.343-12.694 14.427-11.444 15.152-21.453 31.312-31.207 47.584-11.47 19.198-22.757 38.686-37.252 55.815-10.828 12.885-23.58 24.178-37.783 33.218-16.926 10.312-37.657 13.38-57.105 10.52-11.686-1.799-23.405-5.651-32.766-13.076-4.623-3.677-8.404-8.506-10.294-14.144-.63-2.463-3.54-2.837-5.6-3.49-4.916-.95-10.143-2.966-13.128-7.185-1.947-2.966.847-6.844 4.18-6.616 5-.075 7.406 5.38 11.914 6.792-.805-5.145-.724-10.357-.549-15.541 1.757.708 3.51 1.444 5.265 2.17-1.222 11.656 2.305 24.215 11.35 32.07 12.695 11.135 31.125 13.34 47.144 9.689 9.91-2.045 18.855-7.045 27.17-12.638 13.426-8.89 25.412-19.85 35.932-32.015 14.471-16.674 26.169-35.48 37.668-54.257 9.383-15.062 18.616-30.412 30.715-43.502 10.652-11.78 24.584-21.013 40.304-24.199 11.308-2.88 23.226-1.247 34.058 2.718Zm0 0"/>
    <path d="M318.946 200c5.069-4.56 12.339-6.354 18.993-5.13 2.344.56 5.4 1.418 5.994 4.143-.375 2.462-2.934 3.313-4.972 3.986-4.454 1.274-9.125 1.25-13.71 1.508 10.527 8.087 18.458 20.147 19.849 33.525 1.125 9.183-.947 19.048-6.746 26.39-4.82 6.127-13.375 9.692-20.983 7.095-10.395-3.738-14.702-18.396-7.812-27.092 3.94-5.297 12.719-8.19 17.84-2.923 5.362 5.118-.353 14.846-7.304 14.035-4.121.178-7.149-2.944-8.813-6.371-.758 3.043-1.826 6.256-.767 9.37 1.669 6.098 8.066 10.676 14.423 9.642 5.42-.962 9.61-5.317 12.115-9.998 3.836-8.14 3.574-17.62 1.443-26.19-3.262-10.821-11.15-20.275-21.475-24.998-14.412-7.012-32.81-5.42-45.397 4.669-5.168 3.901-8.807 9.343-12.694 14.427-11.444 15.152-21.453 31.312-31.207 47.584-11.47 19.198-22.757 38.686-37.252 55.815-10.828 12.885-23.58 24.178-37.783 33.218-16.926 10.312-37.657 13.38-57.105 10.52-11.686-1.799-23.405-5.651-32.766-13.076-4.623-3.677-8.404-8.506-10.294-14.144-.63-2.463-3.54-2.837-5.6-3.49-4.916-.95-10.143-2.966-13.128-7.185-1.947-2.966.847-6.844 4.18-6.616 5-.075 7.406 5.38 11.914 6.792-.805-5.145-.724-10.357-.549-15.541 1.757.708 3.51 1.444 5.265 2.17-1.222 11.656 2.305 24.215 11.35 32.07 12.695 11.135 31.125 13.34 47.144 9.689 9.91-2.045 18.855-7.045 27.17-12.638 13.426-8.89 25.412-19.85 35.932-32.015 14.471-16.674 26.169-35.48 37.668-54.257 9.383-15.062 18.616-30.412 30.715-43.502 10.652-11.78 24.584-21.013 40.304-24.199 11.308-2.88 23.226-1.247 34.058 2.718Zm0 0"/>
    <path fill="none" stroke="#000" stroke-miterlimit="10" stroke-width=".1" d="M665.47 202.26c5.396-4.686 13.092-6.577 20.04-4.894 2.136.674 4.998 1.725 4.989 4.439-.62 1.93-2.628 2.677-4.348 3.289-4.597 1.463-9.479 1.434-14.243 1.693 9.263 7.35 16.655 17.511 19.076 29.232 2.35 10.439.622 22.154-6.042 30.722-5.852 7.636-17.755 10.702-26 5.205-7.764-6.231-7.871-18.57-2.557-26.41 3.01-4.442 9.43-6.612 14.394-4.353 5.288 2.939 4.92 11.727-.57 14.25-4.303 2.292-8.92-.182-12.456-2.711-.625 2.703-1.48 5.522-.674 8.292 1.3 6.479 8.405 11.167 14.868 9.457 4.829-1.4 8.27-5.506 10.484-9.835 4.024-8.206 4.623-17.92 2.21-26.684-2.873-10.587-10.594-19.681-20.477-24.392-6.67-3.382-14.216-4.78-21.657-4.609-.411-2.247-.822-4.494-1.24-6.733 8.26-.576 16.447 1.352 24.203 4.041Zm0 0"/>
    <path d="M665.47 202.26c5.396-4.686 13.092-6.577 20.04-4.894 2.136.674 4.998 1.725 4.989 4.439-.62 1.93-2.628 2.677-4.348 3.289-4.597 1.463-9.479 1.434-14.243 1.693 9.263 7.35 16.655 17.511 19.076 29.232 2.35 10.439.622 22.154-6.042 30.722-5.852 7.636-17.755 10.702-26 5.205-7.764-6.231-7.871-18.57-2.557-26.41 3.01-4.442 9.43-6.612 14.394-4.353 5.288 2.939 4.92 11.727-.57 14.25-4.303 2.292-8.92-.182-12.456-2.711-.625 2.703-1.48 5.522-.674 8.292 1.3 6.479 8.405 11.167 14.868 9.457 4.829-1.4 8.27-5.506 10.484-9.835 4.024-8.206 4.623-17.92 2.21-26.684-2.873-10.587-10.594-19.681-20.477-24.392-6.67-3.382-14.216-4.78-21.657-4.609-.411-2.247-.822-4.494-1.24-6.733 8.26-.576 16.447 1.352 24.203 4.041Zm0 0"/>
    <path fill="none" stroke="#000" stroke-miterlimit="10" stroke-width=".1" d="M601.855 214.008c7.458-6.125 16.13-10.765 25.421-13.41.59 2.391 1.19 4.782 1.805 7.172-6.63 2.569-12.624 6.756-17.136 12.268-13.467 16.635-24.81 34.837-35.856 53.13a208.051 208.051 0 0 0-3.65-3.916c10.52-16.535 21.233-32.954 31.563-49.607-6.25 5.32-11.181 11.948-16.167 18.413-4.582 6.228-9.117 12.502-13.241 19.045a98.43 98.43 0 0 1-4.84-4.796c9.242-13.866 19.006-27.765 32.101-38.3Zm0 0"/>
    <path d="M601.855 214.008c7.458-6.125 16.13-10.765 25.421-13.41.59 2.391 1.19 4.782 1.805 7.172-6.63 2.569-12.624 6.756-17.136 12.268-13.467 16.635-24.81 34.837-35.856 53.13a208.051 208.051 0 0 0-3.65-3.916c10.52-16.535 21.233-32.954 31.563-49.607-6.25 5.32-11.181 11.948-16.167 18.413-4.582 6.228-9.117 12.502-13.241 19.045a98.43 98.43 0 0 1-4.84-4.796c9.242-13.866 19.006-27.765 32.101-38.3Zm0 0"/>
    <path fill="none" stroke="#fff" stroke-miterlimit="10" stroke-width=".1" d="M848.303 204.957c16.23 9.393 30.526 21.782 44.334 34.38 13.474 13.237 26.265 27.157 38.942 41.159 6.92 7.386 12.67 15.878 20.527 22.365 7.397 6.542 15.808 11.928 24.99 15.6-17.681-2.13-32.12-14.27-43.267-27.377-26.033-31.042-54.705-59.84-85.526-86.127Zm0 0"/>
    <path fill="#fff" d="M848.303 204.957c16.23 9.393 30.526 21.782 44.334 34.38 13.474 13.237 26.265 27.157 38.942 41.159 6.92 7.386 12.67 15.878 20.527 22.365 7.397 6.542 15.808 11.928 24.99 15.6-17.681-2.13-32.12-14.27-43.267-27.377-26.033-31.042-54.705-59.84-85.526-86.127Zm0 0"/>
    <path fill="none" stroke="#000" stroke-miterlimit="10" stroke-width=".1" d="M428.237 210.724c1.654.4 3.303.81 4.957 1.245.073 3.287.3 6.574.782 9.83 2.959-.136 6.154-.057 8.676 1.726 5.426 3.401 5.268 13.14-.797 15.782-5.307 2.445-13.183-.09-14.548-6.18-.927-3.195.955-6.072 1.88-8.984-.51-4.459-1.161-8.917-.95-13.42Zm0 0"/>
    <path d="M428.237 210.724c1.654.4 3.303.81 4.957 1.245.073 3.287.3 6.574.782 9.83 2.959-.136 6.154-.057 8.676 1.726 5.426 3.401 5.268 13.14-.797 15.782-5.307 2.445-13.183-.09-14.548-6.18-.927-3.195.955-6.072 1.88-8.984-.51-4.459-1.161-8.917-.95-13.42Zm0 0"/>
    <path fill="none" stroke="#fff" stroke-miterlimit="10" stroke-width=".1" d="M797.882 211.681c12.384 7.823 22.09 19.145 30.565 30.94 13.813 19.354 24.687 40.711 39.624 59.28 9.395 11.195 18.61 22.682 29.781 32.194 13.94 11.991 29.399 22.031 44.814 31.992-11.849-4.65-22.701-11.513-33.115-18.753-30.984-21.585-54.45-52.166-73.463-84.41-10.434-18.62-22.552-36.59-38.206-51.243Zm0 0"/>
    <path fill="#fff" d="M797.882 211.681c12.384 7.823 22.09 19.145 30.565 30.94 13.813 19.354 24.687 40.711 39.624 59.28 9.395 11.195 18.61 22.682 29.781 32.194 13.94 11.991 29.399 22.031 44.814 31.992-11.849-4.65-22.701-11.513-33.115-18.753-30.984-21.585-54.45-52.166-73.463-84.41-10.434-18.62-22.552-36.59-38.206-51.243Zm0 0"/>
    <path fill="none" stroke="#fff" stroke-miterlimit="10" stroke-width=".1" d="M244.877 230.96c3.788-4.779 7.725-9.508 12.43-13.42-17.78 28.375-35.921 56.533-54.102 84.656-10.436 15.489-22.615 29.916-36.827 42.078-12.446 10.426-26.653 19.561-42.721 23.015 23.642-10.006 43.152-27.62 59.752-46.852 6.181-7.241 12.01-14.797 17.286-22.724 14.183-22.595 27.828-45.625 44.182-66.753Zm0 0"/>
    <path fill="#fff" d="M244.877 230.96c3.788-4.779 7.725-9.508 12.43-13.42-17.78 28.375-35.921 56.533-54.102 84.656-10.436 15.489-22.615 29.916-36.827 42.078-12.446 10.426-26.653 19.561-42.721 23.015 23.642-10.006 43.152-27.62 59.752-46.852 6.181-7.241 12.01-14.797 17.286-22.724 14.183-22.595 27.828-45.625 44.182-66.753Zm0 0"/>
    <path fill="none" stroke="#fff" stroke-miterlimit="10" stroke-width=".1" d="M178.174 238.195c6.188-5.962 11.858-12.53 18.805-17.65-8.576 11.425-17.978 22.209-27.262 33.061-11.556 13.461-24.436 25.689-37.582 37.574-6.211 5.486-12.479 10.954-19.336 15.63-2.777 1.832-5.696 3.747-9.091 4.093 9.674-6.511 18.207-14.52 26.474-22.7 16.451-16.229 31.92-33.41 47.992-50.008Zm0 0"/>
    <path fill="#fff" d="M178.174 238.195c6.188-5.962 11.858-12.53 18.805-17.65-8.576 11.425-17.978 22.209-27.262 33.061-11.556 13.461-24.436 25.689-37.582 37.574-6.211 5.486-12.479 10.954-19.336 15.63-2.777 1.832-5.696 3.747-9.091 4.093 9.674-6.511 18.207-14.52 26.474-22.7 16.451-16.229 31.92-33.41 47.992-50.008Zm0 0"/>
    <path fill="none" stroke="#000" stroke-miterlimit="10" stroke-width=".1" d="M526.229 230.11c2.026.201 3.262 2.398 4.911 3.47-8.746 9.295-17.773 18.328-26.294 27.831-1.627-1.958-3.7-3.672-4.765-6.01 8.25-8.89 16.925-17.413 26.148-25.292Zm0 0"/>
    <path d="M526.229 230.11c2.026.201 3.262 2.398 4.911 3.47-8.746 9.295-17.773 18.328-26.294 27.831-1.627-1.958-3.7-3.672-4.765-6.01 8.25-8.89 16.925-17.413 26.148-25.292Zm0 0"/>
    <path fill="none" stroke="#000" stroke-miterlimit="10" stroke-width=".1" d="M545.516 234.509c9.324 8.303 18.084 17.198 26.904 26.029a239.288 239.288 0 0 1-3.57 4.91c-8.658-9.117-17.193-18.373-26.482-26.858a178.051 178.051 0 0 1 3.148-4.081Zm0 0"/>
    <path d="M545.516 234.509c9.324 8.303 18.084 17.198 26.904 26.029a239.288 239.288 0 0 1-3.57 4.91c-8.658-9.117-17.193-18.373-26.482-26.858a178.051 178.051 0 0 1 3.148-4.081Zm0 0"/>
    <path fill="none" stroke="#000" stroke-miterlimit="10" stroke-width=".1" d="M529.148 240.569a224.236 224.236 0 0 1 3.986-4.478c8.84 8.175 17.197 16.863 25.557 25.525a402.105 402.105 0 0 1-4.035 5.711c-8.37-9.043-16.62-18.213-25.508-26.758Zm0 0"/>
    <path d="M529.148 240.569a224.236 224.236 0 0 1 3.986-4.478c8.84 8.175 17.197 16.863 25.557 25.525a402.105 402.105 0 0 1-4.035 5.711c-8.37-9.043-16.62-18.213-25.508-26.758Zm0 0"/>
    <path fill="none" stroke="#000" stroke-miterlimit="10" stroke-width=".1" d="M527.42 242.841c1.373 1.341 2.739 2.697 4.114 4.05-8.884 11.114-17.737 22.26-27.108 32.97-1.39-2.124-2.601-4.352-3.782-6.59 9.438-9.68 18.03-20.131 26.776-30.43Zm0 0"/>
    <path d="M527.42 242.841c1.373 1.341 2.739 2.697 4.114 4.05-8.884 11.114-17.737 22.26-27.108 32.97-1.39-2.124-2.601-4.352-3.782-6.59 9.438-9.68 18.03-20.131 26.776-30.43Zm0 0"/>
    <path fill="none" stroke="#000" stroke-miterlimit="10" stroke-width=".1" d="M226.396 327.409c17.444-24.499 32.59-50.526 47.411-76.665 12.168 5.07 23.771 11.95 33.138 21.312 7.61 7.708 13.604 17.876 13.588 28.984.408 10.343-4.042 20.192-9.837 28.517-7.701 11-21.22 17.579-34.626 16.87-5.663-.404-11.562-1.918-15.84-5.85-2.875-2.797-4.89-7.092-3.605-11.11 1.421-3.676 5.802-4.966 9.41-4.704 8.316.655 15.598 5.425 21.749 10.742-1.48.486-2.942.99-4.422 1.46-5.028-3.263-10.372-6.513-16.382-7.452-2.345-.482-5.743.667-5.532 3.544 1.213 3.714 4.831 5.867 8.274 7.213 8.337 3.028 17.872.448 24.585-5.044 5.943-5.296 10.048-12.375 13.049-19.674 4.404-10.925 4.898-23.865-.797-34.423-5.746-10.88-16.408-17.985-27.274-23.074-12.436 35.046-29.05 69.296-53.984 97.237-15.29 17.367-33.513 31.755-51.51 46.168a1046.32 1046.32 0 0 0-2.491-2.566c24.927-19.058 46.826-42.05 64.71-67.829 11.427-16.707 21.708-34.377 29.01-53.29-8.954 17.781-20.032 34.41-31.767 50.46-18.791 25.174-39.507 49.362-64.542 68.549a271.07 271.07 0 0 0-2.557-2.835c22.348-19.978 42.953-42.006 60.242-66.54Zm0 0"/>
    <path d="M226.396 327.409c17.444-24.499 32.59-50.526 47.411-76.665 12.168 5.07 23.771 11.95 33.138 21.312 7.61 7.708 13.604 17.876 13.588 28.984.408 10.343-4.042 20.192-9.837 28.517-7.701 11-21.22 17.579-34.626 16.87-5.663-.404-11.562-1.918-15.84-5.85-2.875-2.797-4.89-7.092-3.605-11.11 1.421-3.676 5.802-4.966 9.41-4.704 8.316.655 15.598 5.425 21.749 10.742-1.48.486-2.942.99-4.422 1.46-5.028-3.263-10.372-6.513-16.382-7.452-2.345-.482-5.743.667-5.532 3.544 1.213 3.714 4.831 5.867 8.274 7.213 8.337 3.028 17.872.448 24.585-5.044 5.943-5.296 10.048-12.375 13.049-19.674 4.404-10.925 4.898-23.865-.797-34.423-5.746-10.88-16.408-17.985-27.274-23.074-12.436 35.046-29.05 69.296-53.984 97.237-15.29 17.367-33.513 31.755-51.51 46.168a1046.32 1046.32 0 0 0-2.491-2.566c24.927-19.058 46.826-42.05 64.71-67.829 11.427-16.707 21.708-34.377 29.01-53.29-8.954 17.781-20.032 34.41-31.767 50.46-18.791 25.174-39.507 49.362-64.542 68.549a271.07 271.07 0 0 0-2.557-2.835c22.348-19.978 42.953-42.006 60.242-66.54Zm0 0"/>
    <path fill="none" stroke="#000" stroke-miterlimit="10" stroke-width=".1" d="M620.378 253.02c14.526 6.145 28.597 14.73 38.344 27.373 7.305 9.388 10.551 22.122 7.138 33.69-3.49 12.04-10.801 23.645-22.057 29.742-8.695 4.62-19.217 6.4-28.766 3.572-4.305-1.353-8.604-3.788-10.797-7.887-1.38-2.588-2.184-5.93-.59-8.607 1.539-3 5.282-3.848 8.377-3.89 8.52.44 15.997 5.347 22.287 10.748-1.461.479-2.9.967-4.346 1.452-5.24-3.242-10.688-6.642-16.906-7.483-2.068-.288-5.036.766-4.982 3.229.59 3.713 4.233 5.85 7.379 7.267 9.99 4.035 21.98.06 28.72-8.06 8.46-9.952 13.809-23.032 13.042-36.22-.53-8.777-4.498-17.199-10.601-23.479-5.794-6.14-13.13-10.58-20.773-14.031a378.846 378.846 0 0 1-19.8 45.604 196.993 196.993 0 0 1-4.357-4.19c3.717-7.496 7.673-14.949 10.266-22.927-2.124 4.363-4.615 8.53-7.113 12.685-1.397-1.565-2.713-3.187-3.902-4.905 6.753-11.066 13.034-22.412 19.437-33.682Zm0 0"/>
    <path d="M620.378 253.02c14.526 6.145 28.597 14.73 38.344 27.373 7.305 9.388 10.551 22.122 7.138 33.69-3.49 12.04-10.801 23.645-22.057 29.742-8.695 4.62-19.217 6.4-28.766 3.572-4.305-1.353-8.604-3.788-10.797-7.887-1.38-2.588-2.184-5.93-.59-8.607 1.539-3 5.282-3.848 8.377-3.89 8.52.44 15.997 5.347 22.287 10.748-1.461.479-2.9.967-4.346 1.452-5.24-3.242-10.688-6.642-16.906-7.483-2.068-.288-5.036.766-4.982 3.229.59 3.713 4.233 5.85 7.379 7.267 9.99 4.035 21.98.06 28.72-8.06 8.46-9.952 13.809-23.032 13.042-36.22-.53-8.777-4.498-17.199-10.601-23.479-5.794-6.14-13.13-10.58-20.773-14.031a378.846 378.846 0 0 1-19.8 45.604 196.993 196.993 0 0 1-4.357-4.19c3.717-7.496 7.673-14.949 10.266-22.927-2.124 4.363-4.615 8.53-7.113 12.685-1.397-1.565-2.713-3.187-3.902-4.905 6.753-11.066 13.034-22.412 19.437-33.682Zm0 0"/>
    <path fill="none" stroke="#000" stroke-miterlimit="10" stroke-width=".1" d="M366.45 261.966c-.395-3.32 2.631-8.168 6.385-6.01 3.858 4.279 1.98 11.747 7.328 15.195.69-2.388 1.537-4.737 2.827-6.871a181.79 181.79 0 0 1 3.216 4.028c-1.032 10.897-1.811 22.516 2.704 32.79 3.044 6.868 10.013 10.833 16.996 12.697.349 2.967.718 5.937.936 8.923-7.945-2.031-15.547-6.026-20.83-12.418-6.87-8.056-9.28-19.159-7.958-29.515-5.961-4.468-11.186-11.154-11.603-18.819Zm0 0"/>
    <path d="M366.45 261.966c-.395-3.32 2.631-8.168 6.385-6.01 3.858 4.279 1.98 11.747 7.328 15.195.69-2.388 1.537-4.737 2.827-6.871a181.79 181.79 0 0 1 3.216 4.028c-1.032 10.897-1.811 22.516 2.704 32.79 3.044 6.868 10.013 10.833 16.996 12.697.349 2.967.718 5.937.936 8.923-7.945-2.031-15.547-6.026-20.83-12.418-6.87-8.056-9.28-19.159-7.958-29.515-5.961-4.468-11.186-11.154-11.603-18.819Zm0 0"/>
    <path fill="none" stroke="#000" stroke-miterlimit="10" stroke-width=".1" d="M768.563 275.634c8.957-8.498 20.187-14.231 31.772-18.252 15.482 34.724 34.365 67.943 56.193 99.07 10.39 14.705 21.588 28.853 33.738 42.147 8.21 9.137 20.477 14.483 32.744 14.4 3.523-.289 7.883-.78 9.926-4.1 1.279-2.738-1.212-5.255-3.356-6.579-5.209-3.047-11.771-4.025-17.54-2.11-2.832 1.05-5.217 2.961-7.775 4.505a211.412 211.412 0 0 1-5.29-3.7c5.709-5.747 14.298-7.457 22.117-6.594 5.192.538 10.802 2.004 14.292 6.173 2.793 3.207 3.01 8.49.146 11.723-3.54 4.177-9.266 5.517-14.519 5.575-9.859.066-19.317-3.43-28.075-7.664-17.064-8.29-31.639-20.914-44.174-35.01-12.104-13.754-22.238-29.161-30.797-45.336-10.375-19.917-18.66-41.09-22.87-63.204-11.343 4.266-21.665 12.665-26.025 24.23-3.96 9.935-2.756 20.987-.078 31.084 1.601 5.94 4.1 12.047 9.107 15.933-1.115 2.482-2.2 4.978-3.314 7.46-9.176-6.398-16.977-15.488-19.657-26.554-3.895-15.49 2.206-32.237 13.435-43.197Zm0 0"/>
    <path d="M768.563 275.634c8.957-8.498 20.187-14.231 31.772-18.252 15.482 34.724 34.365 67.943 56.193 99.07 10.39 14.705 21.588 28.853 33.738 42.147 8.21 9.137 20.477 14.483 32.744 14.4 3.523-.289 7.883-.78 9.926-4.1 1.279-2.738-1.212-5.255-3.356-6.579-5.209-3.047-11.771-4.025-17.54-2.11-2.832 1.05-5.217 2.961-7.775 4.505a211.412 211.412 0 0 1-5.29-3.7c5.709-5.747 14.298-7.457 22.117-6.594 5.192.538 10.802 2.004 14.292 6.173 2.793 3.207 3.01 8.49.146 11.723-3.54 4.177-9.266 5.517-14.519 5.575-9.859.066-19.317-3.43-28.075-7.664-17.064-8.29-31.639-20.914-44.174-35.01-12.104-13.754-22.238-29.161-30.797-45.336-10.375-19.917-18.66-41.09-22.87-63.204-11.343 4.266-21.665 12.665-26.025 24.23-3.96 9.935-2.756 20.987-.078 31.084 1.601 5.94 4.1 12.047 9.107 15.933-1.115 2.482-2.2 4.978-3.314 7.46-9.176-6.398-16.977-15.488-19.657-26.554-3.895-15.49 2.206-32.237 13.435-43.197Zm0 0"/>
    <path fill="none" stroke="#000" stroke-miterlimit="10" stroke-width=".1" d="M421.489 280.46c9.12-9.248 20.95-15.44 33.166-19.548 5.008 11.8 10.89 23.202 16.702 34.62-1.83 1.347-3.582 2.79-5.331 4.235-2.799-5.209-5.086-10.663-7.812-15.902-.125 3.596 2.503 6.365 3.66 9.591-1.792 1.148-3.595 2.272-5.44 3.325-2.955-8.71-5.436-17.595-7.074-26.65-11.277 4.248-21.504 12.56-25.948 24.005-3.985 9.796-2.924 20.738-.328 30.743 1.599 6.137 4.126 12.453 9.227 16.523-1.083 2.49-2.183 4.975-3.242 7.478-8.896-6.147-16.404-14.825-19.367-25.388-4.337-15.138 1.117-31.836 11.787-43.033Zm0 0"/>
    <path d="M421.489 280.46c9.12-9.248 20.95-15.44 33.166-19.548 5.008 11.8 10.89 23.202 16.702 34.62-1.83 1.347-3.582 2.79-5.331 4.235-2.799-5.209-5.086-10.663-7.812-15.902-.125 3.596 2.503 6.365 3.66 9.591-1.792 1.148-3.595 2.272-5.44 3.325-2.955-8.71-5.436-17.595-7.074-26.65-11.277 4.248-21.504 12.56-25.948 24.005-3.985 9.796-2.924 20.738-.328 30.743 1.599 6.137 4.126 12.453 9.227 16.523-1.083 2.49-2.183 4.975-3.242 7.478-8.896-6.147-16.404-14.825-19.367-25.388-4.337-15.138 1.117-31.836 11.787-43.033Zm0 0"/>
    <path fill="none" stroke="#000" stroke-miterlimit="10" stroke-width=".1" d="M536.514 304.107c9.137-12.609 17.13-25.986 25.397-39.166 1.338 1.592 2.67 3.196 4.013 4.796-8.627 12.853-15.63 26.763-24.954 39.146a155.58 155.58 0 0 1-4.456-4.776Zm0 0"/>
    <path d="M536.514 304.107c9.137-12.609 17.13-25.986 25.397-39.166 1.338 1.592 2.67 3.196 4.013 4.796-8.627 12.853-15.63 26.763-24.954 39.146a155.58 155.58 0 0 1-4.456-4.776Zm0 0"/>
    <path fill="none" stroke="#000" stroke-miterlimit="10" stroke-width=".1" d="M472.263 288.177c6.514-6.906 12.061-14.627 18.28-21.783a464.926 464.926 0 0 1 3.566 6.313c-6.455 6.821-12.947 13.612-19.669 20.174a263.614 263.614 0 0 1-2.177-4.704Zm0 0"/>
    <path d="M472.263 288.177c6.514-6.906 12.061-14.627 18.28-21.783a464.926 464.926 0 0 1 3.566 6.313c-6.455 6.821-12.947 13.612-19.669 20.174a263.614 263.614 0 0 1-2.177-4.704Zm0 0"/>
    <path fill="none" stroke="#000" stroke-miterlimit="10" stroke-width=".1" d="M685.792 273.42c.972-1.29 1.955-2.573 2.96-3.841 1.82 2.78 3.012 5.931 3.19 9.277 4.532-1.983 5.577-7.735 10.06-9.583 4.762-1.271 5.523 5.336 3.627 8.265-3.144 4.492-8.587 6.553-13.56 8.335-.264 15.343-10.83 28.787-24.208 35.444.64-2.653 1.299-5.296 2.032-7.922 12.73-8.524 19.409-25.02 15.9-39.976Zm0 0"/>
    <path d="M685.792 273.42c.972-1.29 1.955-2.573 2.96-3.841 1.82 2.78 3.012 5.931 3.19 9.277 4.532-1.983 5.577-7.735 10.06-9.583 4.762-1.271 5.523 5.336 3.627 8.265-3.144 4.492-8.587 6.553-13.56 8.335-.264 15.343-10.83 28.787-24.208 35.444.64-2.653 1.299-5.296 2.032-7.922 12.73-8.524 19.409-25.02 15.9-39.976Zm0 0"/>
    <path fill="none" stroke="#000" stroke-miterlimit="10" stroke-width=".1" d="M581.625 270.477c7.442 7.738 14.31 16.001 21.41 24.05-1.05 1.805-2.174 3.566-3.293 5.329-7.263-7.929-14.011-16.332-21.39-24.169a212.009 212.009 0 0 1 3.273-5.21Zm0 0"/>
    <path d="M581.625 270.477c7.442 7.738 14.31 16.001 21.41 24.05-1.05 1.805-2.174 3.566-3.293 5.329-7.263-7.929-14.011-16.332-21.39-24.169a212.009 212.009 0 0 1 3.273-5.21Zm0 0"/>
    <path fill="none" stroke="#000" stroke-miterlimit="10" stroke-width=".1" d="M565.693 279.996a168.1 168.1 0 0 1 4-6.512c6.996 7.48 13.561 15.347 20.191 23.152a145.841 145.841 0 0 0-3.726 5.087c-7.489-6.585-13.74-14.4-20.465-21.727Zm0 0"/>
    <path d="M565.693 279.996a168.1 168.1 0 0 1 4-6.512c6.996 7.48 13.561 15.347 20.191 23.152a145.841 145.841 0 0 0-3.726 5.087c-7.489-6.585-13.74-14.4-20.465-21.727Zm0 0"/>
    <path fill="none" stroke="#000" stroke-miterlimit="10" stroke-width=".1" d="M492.481 281.064a139.975 139.975 0 0 1 4.361-3.925c8.123 12.767 16.961 25.092 26.754 36.637-1.357 1.357-2.718 2.71-4.072 4.066-9.784-11.673-19.51-23.481-27.043-36.778Zm0 0"/>
    <path d="M492.481 281.064a139.975 139.975 0 0 1 4.361-3.925c8.123 12.767 16.961 25.092 26.754 36.637-1.357 1.357-2.718 2.71-4.072 4.066-9.784-11.673-19.51-23.481-27.043-36.778Zm0 0"/>
    <path fill="none" stroke="#000" stroke-miterlimit="10" stroke-width=".1" d="M506.863 283.473c1.52-1.492 3.03-2.993 4.555-4.482 8.546 11.402 17.444 22.54 26.858 33.243-1.744 2.007-3.345 4.13-4.86 6.312-9.68-11.035-18.89-22.526-26.553-35.073Zm0 0"/>
    <path d="M506.863 283.473c1.52-1.492 3.03-2.993 4.555-4.482 8.546 11.402 17.444 22.54 26.858 33.243-1.744 2.007-3.345 4.13-4.86 6.312-9.68-11.035-18.89-22.526-26.553-35.073Zm0 0"/>
    <path fill="none" stroke="#fff" stroke-miterlimit="10" stroke-width=".1" d="m803.13 279.958 1.414 1.469c9.36 20.274 20.57 39.69 32.626 58.487 13.276 20.346 27.614 40.215 45.028 57.254-14.646-9.844-26.486-23.284-36.96-37.35-16.697-22.45-28.79-47.893-39.226-73.735-.315-2.384-2.334-3.887-2.881-6.125Zm0 0"/>
    <path fill="#fff" d="m803.13 279.958 1.414 1.469c9.36 20.274 20.57 39.69 32.626 58.487 13.276 20.346 27.614 40.215 45.028 57.254-14.646-9.844-26.486-23.284-36.96-37.35-16.697-22.45-28.79-47.893-39.226-73.735-.315-2.384-2.334-3.887-2.881-6.125Zm0 0"/>
    <path fill="none" stroke="#000" stroke-miterlimit="10" stroke-width=".1" d="M467.66 303.205c7.601-6.168 14.802-12.8 21.982-19.447 1.315 2.312 2.82 4.51 4.382 6.668-7.001 6.984-14.655 13.345-22.974 18.703a357.101 357.101 0 0 1-3.39-5.924Zm0 0"/>
    <path d="M467.66 303.205c7.601-6.168 14.802-12.8 21.982-19.447 1.315 2.312 2.82 4.51 4.382 6.668-7.001 6.984-14.655 13.345-22.974 18.703a357.101 357.101 0 0 1-3.39-5.924Zm0 0"/>
    <path fill="none" stroke="#000" stroke-miterlimit="10" stroke-width=".1" d="M536.474 322.323c10.191-12.249 18.623-25.804 27.294-39.134a149.73 149.73 0 0 0 4.041 4.028c-8.228 13.679-16.676 27.278-26.62 39.794-1.52-1.622-3.118-3.156-4.715-4.688Zm0 0"/>
    <path d="M536.474 322.323c10.191-12.249 18.623-25.804 27.294-39.134a149.73 149.73 0 0 0 4.041 4.028c-8.228 13.679-16.676 27.278-26.62 39.794-1.52-1.622-3.118-3.156-4.715-4.688Zm0 0"/>
    <path fill="none" stroke="#000" stroke-miterlimit="10" stroke-width=".1" d="M425.301 315.735c14.342-1.589 27.1-9.357 37.792-18.654.692 1.497 1.397 2.999 2.068 4.516-4.85 4.059-9.623 8.268-15.109 11.469 2.845.08 5.349-1.303 7.736-2.677a293.298 293.298 0 0 0 1.962 5.114 83.855 83.855 0 0 1-31.742 8.59c-1.148-2.703-2.081-5.492-2.707-8.358Zm0 0"/>
    <path d="M425.301 315.735c14.342-1.589 27.1-9.357 37.792-18.654.692 1.497 1.397 2.999 2.068 4.516-4.85 4.059-9.623 8.268-15.109 11.469 2.845.08 5.349-1.303 7.736-2.677a293.298 293.298 0 0 0 1.962 5.114 83.855 83.855 0 0 1-31.742 8.59c-1.148-2.703-2.081-5.492-2.707-8.358Zm0 0"/>
    <path fill="none" stroke="#000" stroke-miterlimit="10" stroke-width=".1" d="M592.64 299.83c1.504 1.447 2.993 2.916 4.539 4.335-7.69 12.55-16.342 24.483-25.213 36.219a106.802 106.802 0 0 1-4.39-3.38c8.903-12.01 17.191-24.469 25.064-37.175Zm0 0"/>
    <path d="M592.64 299.83c1.504 1.447 2.993 2.916 4.539 4.335-7.69 12.55-16.342 24.483-25.213 36.219a106.802 106.802 0 0 1-4.39-3.38c8.903-12.01 17.191-24.469 25.064-37.175Zm0 0"/>
    <path fill="none" stroke="#000" stroke-miterlimit="10" stroke-width=".1" d="M460.672 308.14a96.947 96.947 0 0 0 5.799-3.75c6.41 14.492 13.383 28.76 21.688 42.272a417.149 417.149 0 0 0-5.707 4.254c-8.65-13.49-15.912-27.868-21.78-42.775Zm0 0"/>
    <path d="M460.672 308.14a96.947 96.947 0 0 0 5.799-3.75c6.41 14.492 13.383 28.76 21.688 42.272a417.149 417.149 0 0 0-5.707 4.254c-8.65-13.49-15.912-27.868-21.78-42.775Zm0 0"/>
    <path fill="none" stroke="#000" stroke-miterlimit="10" stroke-width=".1" d="M608.415 308.095c.804-1.384 1.605-2.77 2.414-4.151 9.535 10.19 22.956 16.957 37.075 16.909a165.004 165.004 0 0 1-3.121 6.154c-17.403 1.04-34.92-4.958-48.149-16.28a580.847 580.847 0 0 0 2.73-4.61c8.974 7.94 19.867 14.763 32.091 15.678-8.48-3.037-16.112-8.013-23.04-13.7Zm0 0"/>
    <path d="M608.415 308.095c.804-1.384 1.605-2.77 2.414-4.151 9.535 10.19 22.956 16.957 37.075 16.909a165.004 165.004 0 0 1-3.121 6.154c-17.403 1.04-34.92-4.958-48.149-16.28a580.847 580.847 0 0 0 2.73-4.61c8.974 7.94 19.867 14.763 32.091 15.678-8.48-3.037-16.112-8.013-23.04-13.7Zm0 0"/>
    <path fill="none" stroke="#000" stroke-miterlimit="10" stroke-width=".1" d="M472.989 311.811a254.24 254.24 0 0 1 5.102-3.312c7.874 13.929 16.22 27.594 25.163 40.865a1480.005 1480.005 0 0 1-5.058 3.792 547.51 547.51 0 0 1-25.207-41.345Zm0 0"/>
    <path d="M472.989 311.811a254.24 254.24 0 0 1 5.102-3.312c7.874 13.929 16.22 27.594 25.163 40.865a1480.005 1480.005 0 0 1-5.058 3.792 547.51 547.51 0 0 1-25.207-41.345Zm0 0"/>
    <path fill="none" stroke="#000" stroke-miterlimit="10" stroke-width=".1" d="M595.066 313.66a158.423 158.423 0 0 0 5.301 3.779 229.56 229.56 0 0 1-26.055 37.37 433.697 433.697 0 0 1-4.967-3.866c9.431-11.803 18.14-24.207 25.721-37.282Zm0 0"/>
    <path d="M595.066 313.66a158.423 158.423 0 0 0 5.301 3.779 229.56 229.56 0 0 1-26.055 37.37 433.697 433.697 0 0 1-4.967-3.866c9.431-11.803 18.14-24.207 25.721-37.282Zm0 0"/>
    <path fill="none" stroke="#000" stroke-miterlimit="10" stroke-width=".1" d="M502.657 341.628c8.75-7.26 16.548-15.592 23.813-24.319a56.11 56.11 0 0 1 4.226 4.783c-7.392 8.924-15.613 17.123-24.299 24.784-1.396-1.643-2.63-3.411-3.74-5.248Zm0 0"/>
    <path d="M502.657 341.628c8.75-7.26 16.548-15.592 23.813-24.319a56.11 56.11 0 0 1 4.226 4.783c-7.392 8.924-15.613 17.123-24.299 24.784-1.396-1.643-2.63-3.411-3.74-5.248Zm0 0"/>
    <path fill="none" stroke="#000" stroke-miterlimit="10" stroke-width=".1" d="M670.706 323.8a443.43 443.43 0 0 1 5.434-2.743c1.429 9.311 1.37 18.762.173 28.098 5.395-3.625 9.832-8.708 15.844-11.365 2.417-1.075 6.25-1.452 7.425 1.559 1.438 4.542-2.376 9.061-6.418 10.696-6.407 2.454-12.951 4.55-19.271 7.228-5.371 11.048-15.038 19.999-26.695 24.027.05-2.104.183-4.189.327-6.278 10.565-4.372 20.227-13.01 22.782-24.524 1.711-8.789 1.441-17.845.4-26.697Zm0 0"/>
    <path d="M670.706 323.8a443.43 443.43 0 0 1 5.434-2.743c1.429 9.311 1.37 18.762.173 28.098 5.395-3.625 9.832-8.708 15.844-11.365 2.417-1.075 6.25-1.452 7.425 1.559 1.438 4.542-2.376 9.061-6.418 10.696-6.407 2.454-12.951 4.55-19.271 7.228-5.371 11.048-15.038 19.999-26.695 24.027.05-2.104.183-4.189.327-6.278 10.565-4.372 20.227-13.01 22.782-24.524 1.711-8.789 1.441-17.845.4-26.697Zm0 0"/>
    <path fill="none" stroke="#000" stroke-miterlimit="10" stroke-width=".1" d="M395.912 322.264a681.27 681.27 0 0 1 5.247 2.205c-.842 9.056.778 18.634 6.16 26.143 6.087 8.837 16.255 14.049 26.59 16.093 9.927 1.917 20.326 1.258 29.999-1.65 9.837-2.806 18.527-8.44 26.972-14.04a98.514 98.514 0 0 0 3.544 5.074c-7.68 5.55-16.067 10.005-24.741 13.774a69.122 69.122 0 0 0 18.356-6.203 203.135 203.135 0 0 0 3.826 5.207c-17.819 8.557-38.7 9.785-57.792 5.218-11.677-2.99-23.522-8.284-31.013-18.1-2.262-2.725-3.184-6.21-4.806-9.255-3.548-2.415-8.159-2.02-11.827-4.168-2.963-1.621-6.58-3.746-6.732-7.54.31-3.954 5.499-5.08 8.39-3.12 2.754 1.993 5.117 4.545 8.28 5.96-.635-5.176-.83-10.398-.453-15.598Zm0 0"/>
    <path d="M395.912 322.264a681.27 681.27 0 0 1 5.247 2.205c-.842 9.056.778 18.634 6.16 26.143 6.087 8.837 16.255 14.049 26.59 16.093 9.927 1.917 20.326 1.258 29.999-1.65 9.837-2.806 18.527-8.44 26.972-14.04a98.514 98.514 0 0 0 3.544 5.074c-7.68 5.55-16.067 10.005-24.741 13.774a69.122 69.122 0 0 0 18.356-6.203 203.135 203.135 0 0 0 3.826 5.207c-17.819 8.557-38.7 9.785-57.792 5.218-11.677-2.99-23.522-8.284-31.013-18.1-2.262-2.725-3.184-6.21-4.806-9.255-3.548-2.415-8.159-2.02-11.827-4.168-2.963-1.621-6.58-3.746-6.732-7.54.31-3.954 5.499-5.08 8.39-3.12 2.754 1.993 5.117 4.545 8.28 5.96-.635-5.176-.83-10.398-.453-15.598Zm0 0"/>
    <path fill="none" stroke="#000" stroke-miterlimit="10" stroke-width=".1" d="M793.074 326.097c4.671-2.497 10.632-4.471 15.676-1.878 5.804 2.983 6.556 11.916 1.75 16.15-5.512 5.147-13.438 6.538-20.725 6.7.309-1.88.543-3.773.996-5.62 4.914-.43 10.313-.198 14.572-3.119 2.732-1.714 3.95-5.842 1.861-8.502-1.906-2.25-5.26-2.182-7.814-1.265-5.536 1.952-9.452 6.858-11.816 12.053-2.65 6.092-3.704 12.8-3.598 19.419-.048 16.233 4.112 32.855 13.966 45.984 9.956 13.76 25.581 24.268 42.91 24.935 17.038.62 32.72-8.396 44.787-19.742 2.454 1.19 4.936 2.336 7.383 3.57-9.237 10.213-20.62 18.718-33.63 23.445.564 3.251 1.109 6.703.171 9.934-1.592 3.853-4.046 7.602-7.69 9.784-2.21 1.422-5.396 1.55-7.377-.318-1.834-2.14-1.18-5.518.732-7.383 2.765-3.128 6.704-5.939 6.892-10.508-13.309 2.803-28.01 2.088-39.576-5.744-5.17 5.895-12.659 9.968-20.56 10.297-1.682.117-3.927-.345-4.316-2.279.265-3.657 3.595-6.136 6.73-7.432 4.367-1.869 10.237.547 13.652-3.547-12.222-8.003-21.79-19.796-27.413-33.254-6.932.426-14.664-1.823-18.538-7.98-1.675-2.908-3.336-6.669-1.589-9.902.992-1.463 2.938-1.254 4.467-1.087 6.13 1.569 7.398 10.228 14.105 10.62-2.909-13.59-4.215-27.876-1.138-41.552 2.02-8.784 6.927-17.463 15.13-21.779Zm0 0"/>
    <path d="M793.074 326.097c4.671-2.497 10.632-4.471 15.676-1.878 5.804 2.983 6.556 11.916 1.75 16.15-5.512 5.147-13.438 6.538-20.725 6.7.309-1.88.543-3.773.996-5.62 4.914-.43 10.313-.198 14.572-3.119 2.732-1.714 3.95-5.842 1.861-8.502-1.906-2.25-5.26-2.182-7.814-1.265-5.536 1.952-9.452 6.858-11.816 12.053-2.65 6.092-3.704 12.8-3.598 19.419-.048 16.233 4.112 32.855 13.966 45.984 9.956 13.76 25.581 24.268 42.91 24.935 17.038.62 32.72-8.396 44.787-19.742 2.454 1.19 4.936 2.336 7.383 3.57-9.237 10.213-20.62 18.718-33.63 23.445.564 3.251 1.109 6.703.171 9.934-1.592 3.853-4.046 7.602-7.69 9.784-2.21 1.422-5.396 1.55-7.377-.318-1.834-2.14-1.18-5.518.732-7.383 2.765-3.128 6.704-5.939 6.892-10.508-13.309 2.803-28.01 2.088-39.576-5.744-5.17 5.895-12.659 9.968-20.56 10.297-1.682.117-3.927-.345-4.316-2.279.265-3.657 3.595-6.136 6.73-7.432 4.367-1.869 10.237.547 13.652-3.547-12.222-8.003-21.79-19.796-27.413-33.254-6.932.426-14.664-1.823-18.538-7.98-1.675-2.908-3.336-6.669-1.589-9.902.992-1.463 2.938-1.254 4.467-1.087 6.13 1.569 7.398 10.228 14.105 10.62-2.909-13.59-4.215-27.876-1.138-41.552 2.02-8.784 6.927-17.463 15.13-21.779Zm0 0"/>
    <path fill="none" stroke="#000" stroke-miterlimit="10" stroke-width=".1" d="M533.85 325.495c6.752 7.024 14.142 13.395 21.862 19.331a202.989 202.989 0 0 1-3.701 4.667c-7.609-6.1-14.94-12.585-21.583-19.728 1.144-1.419 2.292-2.837 3.422-4.27Zm0 0"/>
    <path d="M533.85 325.495c6.752 7.024 14.142 13.395 21.862 19.331a202.989 202.989 0 0 1-3.701 4.667c-7.609-6.1-14.94-12.585-21.583-19.728 1.144-1.419 2.292-2.837 3.422-4.27Zm0 0"/>
    <path fill="none" stroke="#000" stroke-miterlimit="10" stroke-width=".1" d="M544.16 330.335c1.767-2.07 3.493-4.175 5.05-6.408 6.447 6.84 13.31 13.296 20.464 19.395a645.615 645.615 0 0 1-4.118 4.898c-7.573-5.414-14.613-11.524-21.396-17.885Zm0 0"/>
    <path d="M544.16 330.335c1.767-2.07 3.493-4.175 5.05-6.408 6.447 6.84 13.31 13.296 20.464 19.395a645.615 645.615 0 0 1-4.118 4.898c-7.573-5.414-14.613-11.524-21.396-17.885Zm0 0"/>
    <path fill="none" stroke="#000" stroke-miterlimit="10" stroke-width=".1" d="M444.428 331.385c4.987-3.363 11.41-6.286 17.449-4.19 6.404 2.192 7.935 11.342 3.456 16.072-5.446 5.676-13.753 6.954-21.244 7.376.264-1.957.556-3.904.846-5.85 5.005-.068 10.452-.196 14.775-3.054 2.856-1.786 3.885-6.41 1.33-8.86-1.512-1.576-3.952-1.562-5.946-1.233-5.114 1.163-9.115 5.077-11.71 9.475-3.837 6.532-5.044 14.253-5.218 21.726-2.513-.553-5.018-1.1-7.52-1.661.914-11.033 4.367-23.035 13.782-29.8Zm0 0"/>
    <path d="M444.428 331.385c4.987-3.363 11.41-6.286 17.449-4.19 6.404 2.192 7.935 11.342 3.456 16.072-5.446 5.676-13.753 6.954-21.244 7.376.264-1.957.556-3.904.846-5.85 5.005-.068 10.452-.196 14.775-3.054 2.856-1.786 3.885-6.41 1.33-8.86-1.512-1.576-3.952-1.562-5.946-1.233-5.114 1.163-9.115 5.077-11.71 9.475-3.837 6.532-5.044 14.253-5.218 21.726-2.513-.553-5.018-1.1-7.52-1.661.914-11.033 4.367-23.035 13.782-29.8Zm0 0"/>
    <path fill="none" stroke="#000" stroke-miterlimit="10" stroke-width=".1" d="M504.287 354.185c8.744-6.537 16.7-14.088 24.011-22.183a88.428 88.428 0 0 1 4.554 4.721c-8.593 9.395-18.135 17.945-28.637 25.16-1.297-1.824-2.61-3.632-3.844-5.489 1.36-.627 2.714-1.295 3.916-2.21Zm0 0"/>
    <path d="M504.287 354.185c8.744-6.537 16.7-14.088 24.011-22.183a88.428 88.428 0 0 1 4.554 4.721c-8.593 9.395-18.135 17.945-28.637 25.16-1.297-1.824-2.61-3.632-3.844-5.489 1.36-.627 2.714-1.295 3.916-2.21Zm0 0"/>
    <path fill="none" stroke="#000" stroke-miterlimit="10" stroke-width=".1" d="M529.317 380.586c10.695-10.493 20.605-21.746 30.143-33.29a366.3 366.3 0 0 1 4.333 3.393c-9.698 11.809-20.018 23.1-31.07 33.656-1.13-1.268-2.27-2.515-3.406-3.759Zm0 0"/>
    <path d="M529.317 380.586c10.695-10.493 20.605-21.746 30.143-33.29a366.3 366.3 0 0 1 4.333 3.393c-9.698 11.809-20.018 23.1-31.07 33.656-1.13-1.268-2.27-2.515-3.406-3.759Zm0 0"/>
    <path fill="none" stroke="#000" stroke-miterlimit="10" stroke-width=".1" d="M287.783 350.399c2.357-.68 4.71-1.377 7.08-2.021 4.14 15.994 2.49 33.817-5.43 48.419 5.506.513 10.083-3.106 14.037-6.438 3.066-2.75 7.766-4.534 11.681-2.52 1.721.805 2.484 3.124 1.451 4.753-1.77 3.076-5.329 4.391-8.468 5.608-6.522 2.249-13.697 4.247-20.523 2.129-5.49 10.048-12.615 19.08-20.329 27.502 5.21 1.696 11.817-.6 15.874 3.955 2.14 1.926 1.907 6.18-1.192 6.956-7.459 2.016-16.849.368-21.456-6.376-11.353 7.418-25.61 9.354-38.844 7.323 1.836 4.342 5.481 7.785 6.846 12.298.809 3.168-3.03 4.443-5.314 3.003-6.314-2.94-9.765-9.82-10.452-16.503-8.684-1.096-16.35-5.804-23.148-11.05-9.537-7.43-18.1-15.992-27.056-24.087-5.422-5.024-13.301-6.755-20.484-5.643-2.5.445-5.33 1.148-6.839 3.393-.304 2.12 2.097 3.051 3.656 3.81 5.972 2.334 12.498.026 17.902-2.74 1.892 1.857 3.784 3.72 5.623 5.637-6.925 4.237-15.57 4.193-23.363 3.132-3.784-.811-8.49-1.97-10.054-5.975-1.455-4.34 1.606-8.859 5.464-10.702 6.422-3.172 14.054-2.527 20.71-.44 6.767 2.152 12.845 6.118 17.904 11.064 12.762 12.16 29.107 21.314 46.893 22.887 18.129 1.803 36.779-5.285 49.348-18.422 15.166-15.224 21.514-37.888 18.483-58.952Zm0 0"/>
    <path d="M287.783 350.399c2.357-.68 4.71-1.377 7.08-2.021 4.14 15.994 2.49 33.817-5.43 48.419 5.506.513 10.083-3.106 14.037-6.438 3.066-2.75 7.766-4.534 11.681-2.52 1.721.805 2.484 3.124 1.451 4.753-1.77 3.076-5.329 4.391-8.468 5.608-6.522 2.249-13.697 4.247-20.523 2.129-5.49 10.048-12.615 19.08-20.329 27.502 5.21 1.696 11.817-.6 15.874 3.955 2.14 1.926 1.907 6.18-1.192 6.956-7.459 2.016-16.849.368-21.456-6.376-11.353 7.418-25.61 9.354-38.844 7.323 1.836 4.342 5.481 7.785 6.846 12.298.809 3.168-3.03 4.443-5.314 3.003-6.314-2.94-9.765-9.82-10.452-16.503-8.684-1.096-16.35-5.804-23.148-11.05-9.537-7.43-18.1-15.992-27.056-24.087-5.422-5.024-13.301-6.755-20.484-5.643-2.5.445-5.33 1.148-6.839 3.393-.304 2.12 2.097 3.051 3.656 3.81 5.972 2.334 12.498.026 17.902-2.74 1.892 1.857 3.784 3.72 5.623 5.637-6.925 4.237-15.57 4.193-23.363 3.132-3.784-.811-8.49-1.97-10.054-5.975-1.455-4.34 1.606-8.859 5.464-10.702 6.422-3.172 14.054-2.527 20.71-.44 6.767 2.152 12.845 6.118 17.904 11.064 12.762 12.16 29.107 21.314 46.893 22.887 18.129 1.803 36.779-5.285 49.348-18.422 15.166-15.224 21.514-37.888 18.483-58.952Zm0 0"/>
    <path fill="none" stroke="#000" stroke-miterlimit="10" stroke-width=".1" d="M634.366 352.71c2.324-.69 4.642-1.396 6.974-2.087 2.325 6.898 2.322 14.277 2.104 21.471-.604 9.286-2.655 18.673-7.407 26.768 5.95 1.058 10.691-3.569 14.962-6.972 3.246-2.557 8.747-4.048 11.956-.712 2.208 3.618-2.02 6.585-4.91 7.938-7.41 3.043-15.793 5.876-23.785 3.491-5.676 9.915-12.469 19.222-20.518 27.346 4.855 1.848 10.73-.123 15.028 3.24 1.818 1.43 3.464 4.323 1.726 6.434-2.44 2.606-6.407 2.142-9.637 2.097-5.373-.184-10.632-2.59-13.832-6.986-11.426 7.33-25.607 9.25-38.869 7.292 1.923 4.145 5.288 7.526 6.813 11.851.88 2.487-1.479 4.752-3.933 3.828-7.045-2.311-11.046-9.805-11.674-16.85-6.436-.871-12.35-3.748-17.77-7.198 2.302-2.6 4.682-5.132 6.972-7.745 12.846 4.803 27.208 5.926 40.432 1.97 18.573-5.292 33.86-19.91 40.917-37.77 4.858-11.778 6.04-24.826 4.451-37.406Zm0 0"/>
    <path d="M634.366 352.71c2.324-.69 4.642-1.396 6.974-2.087 2.325 6.898 2.322 14.277 2.104 21.471-.604 9.286-2.655 18.673-7.407 26.768 5.95 1.058 10.691-3.569 14.962-6.972 3.246-2.557 8.747-4.048 11.956-.712 2.208 3.618-2.02 6.585-4.91 7.938-7.41 3.043-15.793 5.876-23.785 3.491-5.676 9.915-12.469 19.222-20.518 27.346 4.855 1.848 10.73-.123 15.028 3.24 1.818 1.43 3.464 4.323 1.726 6.434-2.44 2.606-6.407 2.142-9.637 2.097-5.373-.184-10.632-2.59-13.832-6.986-11.426 7.33-25.607 9.25-38.869 7.292 1.923 4.145 5.288 7.526 6.813 11.851.88 2.487-1.479 4.752-3.933 3.828-7.045-2.311-11.046-9.805-11.674-16.85-6.436-.871-12.35-3.748-17.77-7.198 2.302-2.6 4.682-5.132 6.972-7.745 12.846 4.803 27.208 5.926 40.432 1.97 18.573-5.292 33.86-19.91 40.917-37.77 4.858-11.778 6.04-24.826 4.451-37.406Zm0 0"/>
    <path fill="none" stroke="#000" stroke-miterlimit="10" stroke-width=".1" d="M576.96 356.49a351.846 351.846 0 0 0 3.959-4.277c14.466 10.692 30.447 19.968 48.145 23.98-1.116 2.512-2.136 5.066-3.137 7.628-15.146-1.043-29.325-7.167-42.657-14.037-6.858-3.509-13.403-7.585-19.836-11.809 1.256-1.484 2.547-2.94 3.8-4.429 9.605 6.193 19.405 12.291 30.158 16.306-6.823-4.436-13.759-8.704-20.432-13.363Zm0 0"/>
    <path d="M576.96 356.49a351.846 351.846 0 0 0 3.959-4.277c14.466 10.692 30.447 19.968 48.145 23.98-1.116 2.512-2.136 5.066-3.137 7.628-15.146-1.043-29.325-7.167-42.657-14.037-6.858-3.509-13.403-7.585-19.836-11.809 1.256-1.484 2.547-2.94 3.8-4.429 9.605 6.193 19.405 12.291 30.158 16.306-6.823-4.436-13.759-8.704-20.432-13.363Zm0 0"/>
    <path fill="none" stroke="#000" stroke-miterlimit="10" stroke-width=".1" d="M490.125 362.43a168.002 168.002 0 0 1 5.906-3.96c6.778 9.708 14.237 18.971 22.62 27.347-1.706 1.28-3.417 2.554-5.113 3.845-8.646-8.311-16.382-17.528-23.413-27.232Zm0 0"/>
    <path d="M490.125 362.43a168.002 168.002 0 0 1 5.906-3.96c6.778 9.708 14.237 18.971 22.62 27.347-1.706 1.28-3.417 2.554-5.113 3.845-8.646-8.311-16.382-17.528-23.413-27.232Zm0 0"/>
    <path fill="none" stroke="#000" stroke-miterlimit="10" stroke-width=".1" d="M528.548 392.634c11.853-10.047 23.025-20.888 33.285-32.56a244.66 244.66 0 0 0 4.504 3.381c-10.75 11.642-23.063 21.71-35.305 31.73a646.239 646.239 0 0 1-2.484-2.55Zm0 0"/>
    <path d="M528.548 392.634c11.853-10.047 23.025-20.888 33.285-32.56a244.66 244.66 0 0 0 4.504 3.381c-10.75 11.642-23.063 21.71-35.305 31.73a646.239 646.239 0 0 1-2.484-2.55Zm0 0"/>
    <path fill="none" stroke="#000" stroke-miterlimit="10" stroke-width=".1" d="M506.155 364.572a893.062 893.062 0 0 0 5.443-3.106c6.321 8.439 12.617 16.903 19.36 25.017-1.501 1.253-3 2.506-4.53 3.718-7.248-8.143-13.91-16.786-20.273-25.63Zm0 0"/>
    <path d="M506.155 364.572a893.062 893.062 0 0 0 5.443-3.106c6.321 8.439 12.617 16.903 19.36 25.017-1.501 1.253-3 2.506-4.53 3.718-7.248-8.143-13.91-16.786-20.273-25.63Zm0 0"/>
    <path fill="none" stroke="#000" stroke-miterlimit="10" stroke-width=".1" d="M430.902 376.922c2.903.696 5.802 1.423 8.68 2.235 2.72 18.058 13.021 34.841 27.867 45.465 10.46 7.515 23.815 11.373 36.637 9.214 13.662-2.116 25.83-9.767 35.715-19.158 2.495 1.156 4.99 2.32 7.44 3.588-9.215 10.226-20.612 18.627-33.572 23.437.495 3.304 1.093 6.789.087 10.063-1.494 3.542-3.716 6.9-6.842 9.205-2.312 1.628-5.802 2.316-8.04.194-2.21-2.396-1.08-6.167 1.195-8.09 2.524-2.856 6.584-5.702 5.96-10-13.175 3.214-27.784 1.97-39.297-5.594-4.963 5.694-12.06 9.608-19.625 10.263-1.846.11-4.09.079-5.122-1.743-.223-4.277 3.997-6.985 7.544-8.269 4.082-1.332 9.72.723 12.587-3.328-12.026-8.067-21.684-19.673-27.145-33.106-6.022.2-12.57-1.145-16.818-5.738-3.029-3.303-5.275-8.252-3.364-12.65 1.31-.392 2.666-1.246 4.083-.725 6.381 1.44 7.682 10.042 14.419 10.868-.997-5.345-2.05-10.695-2.39-16.13Zm0 0"/>
    <path d="M430.902 376.922c2.903.696 5.802 1.423 8.68 2.235 2.72 18.058 13.021 34.841 27.867 45.465 10.46 7.515 23.815 11.373 36.637 9.214 13.662-2.116 25.83-9.767 35.715-19.158 2.495 1.156 4.99 2.32 7.44 3.588-9.215 10.226-20.612 18.627-33.572 23.437.495 3.304 1.093 6.789.087 10.063-1.494 3.542-3.716 6.9-6.842 9.205-2.312 1.628-5.802 2.316-8.04.194-2.21-2.396-1.08-6.167 1.195-8.09 2.524-2.856 6.584-5.702 5.96-10-13.175 3.214-27.784 1.97-39.297-5.594-4.963 5.694-12.06 9.608-19.625 10.263-1.846.11-4.09.079-5.122-1.743-.223-4.277 3.997-6.985 7.544-8.269 4.082-1.332 9.72.723 12.587-3.328-12.026-8.067-21.684-19.673-27.145-33.106-6.022.2-12.57-1.145-16.818-5.738-3.029-3.303-5.275-8.252-3.364-12.65 1.31-.392 2.666-1.246 4.083-.725 6.381 1.44 7.682 10.042 14.419 10.868-.997-5.345-2.05-10.695-2.39-16.13Zm0 0"/>
    <path fill="none" stroke="#000" stroke-miterlimit="10" stroke-width=".1" d="M512.646 396.445a262.096 262.096 0 0 1 8.608-8.026 276.55 276.55 0 0 0 3.378 3.17c-3.028 2.516-6.051 5.04-9.23 7.363l-2.756-2.507Zm0 0"/>
    <path d="M512.646 396.445a262.096 262.096 0 0 1 8.608-8.026 276.55 276.55 0 0 0 3.378 3.17c-3.028 2.516-6.051 5.04-9.23 7.363l-2.756-2.507Zm0 0"/>
    <path fill="none" stroke="#000" stroke-miterlimit="10" stroke-width=".1" d="M522.623 397.726c1.473-1.365 2.95-2.73 4.362-4.163 3.205 2.685 6.542 5.224 10.102 7.433a186.362 186.362 0 0 1-4.557-4.285 101.426 101.426 0 0 1 4.265-3.344c4.852 5.311 9.182 11.287 15.26 15.304 7.519 5.128 16.66 8.056 25.786 7.767 3.658-.361 8.713-1.177 9.766-5.41-.217-2.972-2.902-4.872-5.331-6.092-5.712-2.647-12.842-3.312-18.456-.074-1.864 1.039-3.632 2.232-5.466 3.313-1.714-1.237-3.434-2.453-5.113-3.72 5.156-5.151 12.686-7.113 19.812-6.714 5.782.272 12.14 1.507 16.245 5.946 2.937 3.022 3.408 8.133.88 11.552-2.755 3.877-7.658 5.495-12.207 5.934-11.769.97-23.105-3.526-33.39-8.77a127.901 127.901 0 0 1-21.958-14.677Zm0 0"/>
    <path d="M522.623 397.726c1.473-1.365 2.95-2.73 4.362-4.163 3.205 2.685 6.542 5.224 10.102 7.433a186.362 186.362 0 0 1-4.557-4.285 101.426 101.426 0 0 1 4.265-3.344c4.852 5.311 9.182 11.287 15.26 15.304 7.519 5.128 16.66 8.056 25.786 7.767 3.658-.361 8.713-1.177 9.766-5.41-.217-2.972-2.902-4.872-5.331-6.092-5.712-2.647-12.842-3.312-18.456-.074-1.864 1.039-3.632 2.232-5.466 3.313-1.714-1.237-3.434-2.453-5.113-3.72 5.156-5.151 12.686-7.113 19.812-6.714 5.782.272 12.14 1.507 16.245 5.946 2.937 3.022 3.408 8.133.88 11.552-2.755 3.877-7.658 5.495-12.207 5.934-11.769.97-23.105-3.526-33.39-8.77a127.901 127.901 0 0 1-21.958-14.677Zm0 0"/>
    <path fill="none" stroke="#000" stroke-miterlimit="10" stroke-width=".1" d="M477.313 399.387c3.18-3.468 8.06-4.865 12.648-4.917 10.444-.458 20.504 4.374 28.105 11.286 4.03 3.826 8.248 7.47 12.836 10.624-2.014 1.251-4.034 2.489-6.05 3.73-5.468-4.872-10.744-9.952-16.195-14.84-5.546-4.952-13.54-6.4-20.715-5.151-2.595.415-5.087 1.6-6.66 3.768 5.35 7.018 15.49 4.12 22.1.618 1.828 1.865 3.683 3.706 5.63 5.459-5.21 3.681-11.892 3.87-18.028 3.796-4.773-.172-9.914-.88-13.747-3.966-3.052-2.658-2.407-7.6.076-10.407Zm0 0"/>
    <path d="M477.313 399.387c3.18-3.468 8.06-4.865 12.648-4.917 10.444-.458 20.504 4.374 28.105 11.286 4.03 3.826 8.248 7.47 12.836 10.624-2.014 1.251-4.034 2.489-6.05 3.73-5.468-4.872-10.744-9.952-16.195-14.84-5.546-4.952-13.54-6.4-20.715-5.151-2.595.415-5.087 1.6-6.66 3.768 5.35 7.018 15.49 4.12 22.1.618 1.828 1.865 3.683 3.706 5.63 5.459-5.21 3.681-11.892 3.87-18.028 3.796-4.773-.172-9.914-.88-13.747-3.966-3.052-2.658-2.407-7.6.076-10.407Zm0 0"/>
    <path fill="none" stroke="#000" stroke-miterlimit="10" stroke-width=".1" d="M517.845 401.215a260.257 260.257 0 0 1 3.136-2.487c.89.734 1.786 1.472 2.69 2.214-1.098.947-2.201 1.887-3.296 2.835a831.03 831.03 0 0 1-2.53-2.562Zm0 0"/>
    <path d="M517.845 401.215a260.257 260.257 0 0 1 3.136-2.487c.89.734 1.786 1.472 2.69 2.214-1.098.947-2.201 1.887-3.296 2.835a831.03 831.03 0 0 1-2.53-2.562Zm0 0"/>
  </g>
</svg>
