<svg xmlns="http://www.w3.org/2000/svg" viewBox="0 0 120 120">
  <path fill="none" stroke="#36454F" stroke-miterlimit="10" stroke-width=".035" d="M67.127 7.355c.4-.934.945-2.068 2.07-2.243.716-.19 1.188.557 1.31 1.157.17 1.357-.29 2.677-.607 3.977 4.356-1.196 9.057-1.515 13.44-.28 3.323 1.165 6.642 2.68 10.225 2.726 1.365.057 2.487-1.124 3.857-.838.96.812.308 2.449-.697 2.943-1.835.889-3.936.749-5.908 1.008 2.78 5.007 3.526 11.458.656 16.595 1.29 2.501-.637 6.135-3.582 5.966-1.834.09-3.582-1.714-3-3.57.385-2.34 2.999-3.411 5.141-3.154 3.492-6.083.629-14.554-5.452-17.779-3.526-1.832-7.736-1.745-11.469-.63-6.83 1.988-13.151 5.328-19.591 8.285-2.11.939-4.197 1.977-6.451 2.524 5.319 3.09 10.025 7.116 14.595 11.205C68.618 41.602 75.05 48.51 81.13 55.703c1.533 1.755 2.894 3.696 4.754 5.136 3.188 2.66 7.332 4.28 11.514 4.049 3.914-.218 7.66-2.175 10.163-5.176 2.637-3.136 3.665-7.535 2.756-11.523.353-.45.713-.893 1.087-1.33.607.998 1.019 2.102 1.081 3.278a6.028 6.028 0 0 0 2.07-2.083c.505-.854 1.506-1.714 2.55-1.195.79.794.655 2.199.062 3.074-1.211 1.36-2.945 2.096-4.632 2.675-.083 5.195-3.542 9.837-8.023 12.221-7.054 3.678-16.007 2.902-22.666-1.295-4.829-3.183-8.958-7.302-12.706-11.679-8.844-10.284-18.281-20.13-28.995-28.494 5.917.177 11.586-2.19 16.459-5.382 4.213-2.66 8.757-5.726 10.524-10.624zm0 0"/>
  <path fill="#36454F" d="M67.127 7.355c.4-.934.945-2.068 2.07-2.243.716-.19 1.188.557 1.31 1.157.17 1.357-.29 2.677-.607 3.977 4.356-1.196 9.057-1.515 13.44-.28 3.323 1.165 6.642 2.68 10.225 2.726 1.365.057 2.487-1.124 3.857-.838.96.812.308 2.449-.697 2.943-1.835.889-3.936.749-5.908 1.008 2.78 5.007 3.526 11.458.656 16.595 1.29 2.501-.637 6.135-3.582 5.966-1.834.09-3.582-1.714-3-3.57.385-2.34 2.999-3.411 5.141-3.154 3.492-6.083.629-14.554-5.452-17.779-3.526-1.832-7.736-1.745-11.469-.63-6.83 1.988-13.151 5.328-19.591 8.285-2.11.939-4.197 1.977-6.451 2.524 5.319 3.09 10.025 7.116 14.595 11.205C68.618 41.602 75.05 48.51 81.13 55.703c1.533 1.755 2.894 3.696 4.754 5.136 3.188 2.66 7.332 4.28 11.514 4.049 3.914-.218 7.66-2.175 10.163-5.176 2.637-3.136 3.665-7.535 2.756-11.523.353-.45.713-.893 1.087-1.33.607.998 1.019 2.102 1.081 3.278a6.028 6.028 0 0 0 2.07-2.083c.505-.854 1.506-1.714 2.55-1.195.79.794.655 2.199.062 3.074-1.211 1.36-2.945 2.096-4.632 2.675-.083 5.195-3.542 9.837-8.023 12.221-7.054 3.678-16.007 2.902-22.666-1.295-4.829-3.183-8.958-7.302-12.706-11.679-8.844-10.284-18.281-20.13-28.995-28.494 5.917.177 11.586-2.19 16.459-5.382 4.213-2.66 8.757-5.726 10.524-10.624zm0 0"/>
  <path fill="none" stroke="#36454F" stroke-miterlimit="10" stroke-width=".035" d="M6.38 19.656c.962-.755 2.357-.65 3.428-.187a11.333 11.333 0 0 1 4.435 3.605c5.83-.772 11.808.986 16.592 4.328 4.42 3.059 7.84 7.339 10.568 11.928 7.086 11.075 15.15 21.625 24.743 30.656 4.436 4.121 9.228 7.917 14.572 10.799 3.679 1.927 7.613 3.59 11.777 4.029 5.23.013 10.367-3.54 12.125-8.481.902-3.346.764-6.885.382-10.298a135.4 135.4 0 0 1 1.911-1.027c.518 3.291.468 6.635.076 9.937 1.779-1.232 3.288-2.855 5.218-3.86.902-.455 2.385-.827 2.949.307.6 1.546-.677 3.167-2.05 3.782-2.314.908-4.69 1.66-6.986 2.616-2.088 4.347-6.111 7.777-10.83 8.899-4.82 1.198-9.886.26-14.46-1.449-10.347-3.971-19.55-10.648-26.96-18.847-2.861-3.136-5.476-6.484-8.094-9.821-3.382-4.842-6.146-10.08-9.392-15.011-3.154-4.841-6.557-9.657-11.1-13.302-2.796-2.212-6.482-3.856-10.09-2.923-3.335.873-6.146 3.202-8.112 5.98C5.104 34.132 4.006 37.792 5 41.182c.79 2.987 3.296 5.54 6.381 6.08 1.814.364 3.943-.23 4.988-1.838.715-1.01.82-2.286.829-3.485-.921 1.034-2.26 1.864-3.696 1.48-2.252-.509-2.773-3.694-1.312-5.258 1.283-1.513 3.997-1.4 5.078.302 1.738 2.583 1.474 6.409-.65 8.699-1.88 1.946-4.927 2.014-7.346 1.187-2.598-.85-4.614-2.981-5.698-5.446-1.413-3.158-1.717-6.918-.334-10.14 1.528-3.654 4.671-6.417 8.139-8.2-1.66-.55-3.444-1.069-4.718-2.33-.654-.64-1.1-1.9-.282-2.577zm0 0"/>
  <path fill="#36454F" d="M6.38 19.656c.962-.755 2.357-.65 3.428-.187a11.333 11.333 0 0 1 4.435 3.605c5.83-.772 11.808.986 16.592 4.328 4.42 3.059 7.84 7.339 10.568 11.928 7.086 11.075 15.15 21.625 24.743 30.656 4.436 4.121 9.228 7.917 14.572 10.799 3.679 1.927 7.613 3.59 11.777 4.029 5.23.013 10.367-3.54 12.125-8.481.902-3.346.764-6.885.382-10.298a135.4 135.4 0 0 1 1.911-1.027c.518 3.291.468 6.635.076 9.937 1.779-1.232 3.288-2.855 5.218-3.86.902-.455 2.385-.827 2.949.307.6 1.546-.677 3.167-2.05 3.782-2.314.908-4.69 1.66-6.986 2.616-2.088 4.347-6.111 7.777-10.83 8.899-4.82 1.198-9.886.26-14.46-1.449-10.347-3.971-19.55-10.648-26.96-18.847-2.861-3.136-5.476-6.484-8.094-9.821-3.382-4.842-6.146-10.08-9.392-15.011-3.154-4.841-6.557-9.657-11.1-13.302-2.796-2.212-6.482-3.856-10.09-2.923-3.335.873-6.146 3.202-8.112 5.98C5.104 34.132 4.006 37.792 5 41.182c.79 2.987 3.296 5.54 6.381 6.08 1.814.364 3.943-.23 4.988-1.838.715-1.01.82-2.286.829-3.485-.921 1.034-2.26 1.864-3.696 1.48-2.252-.509-2.773-3.694-1.312-5.258 1.283-1.513 3.997-1.4 5.078.302 1.738 2.583 1.474 6.409-.65 8.699-1.88 1.946-4.927 2.014-7.346 1.187-2.598-.85-4.614-2.981-5.698-5.446-1.413-3.158-1.717-6.918-.334-10.14 1.528-3.654 4.671-6.417 8.139-8.2-1.66-.55-3.444-1.069-4.718-2.33-.654-.64-1.1-1.9-.282-2.577zm0 0"/>
  <path fill="none" stroke="#F8F8FF" stroke-miterlimit="10" stroke-width=".035" d="M45.673 25.29c5.725 3.314 10.769 7.684 15.64 12.129 4.753 4.67 9.266 9.58 13.738 14.52 2.44 2.605 4.47 5.601 7.241 7.89 2.61 2.307 5.577 4.208 8.816 5.503-6.237-.751-11.331-5.034-15.263-9.658-9.184-10.951-19.3-21.11-30.172-30.384zm0 0"/>
  <path fill="#F8F8FF" d="M45.673 25.29c5.725 3.314 10.769 7.684 15.64 12.129 4.753 4.67 9.266 9.58 13.738 14.52 2.44 2.605 4.47 5.601 7.241 7.89 2.61 2.307 5.577 4.208 8.816 5.503-6.237-.751-11.331-5.034-15.263-9.658-9.184-10.951-19.3-21.11-30.172-30.384zm0 0"/>
  <path fill="none" stroke="#F8F8FF" stroke-miterlimit="10" stroke-width=".035" d="M27.885 27.662c4.37 2.76 7.793 6.754 10.783 10.915 4.873 6.828 8.71 14.362 13.978 20.913 3.315 3.95 6.566 8.002 10.507 11.357 4.917 4.23 10.37 7.772 15.809 11.286-4.18-1.64-8.008-4.061-11.682-6.615-10.93-7.615-19.209-18.403-25.916-29.779-3.681-6.568-7.956-12.908-13.479-18.077zm0 0"/>
  <path fill="#F8F8FF" d="M27.885 27.662c4.37 2.76 7.793 6.754 10.783 10.915 4.873 6.828 8.71 14.362 13.978 20.913 3.315 3.95 6.566 8.002 10.507 11.357 4.917 4.23 10.37 7.772 15.809 11.286-4.18-1.64-8.008-4.061-11.682-6.615-10.93-7.615-19.209-18.403-25.916-29.779-3.681-6.568-7.956-12.908-13.479-18.077zm0 0"/>
  <path fill="none" stroke="#36454F" stroke-miterlimit="10" stroke-width=".035" d="M17.542 50.223c3.16-2.997 7.122-5.02 11.209-6.438a209.631 209.631 0 0 0 19.823 34.95c3.666 5.187 7.616 10.178 11.902 14.868 2.897 3.223 7.224 5.109 11.552 5.08 1.242-.102 2.78-.275 3.501-1.446.452-.966-.427-1.854-1.184-2.321-1.837-1.075-4.152-1.42-6.187-.745-1 .37-1.84 1.045-2.743 1.59a74.59 74.59 0 0 1-1.866-1.306c2.014-2.027 5.044-2.63 7.802-2.326 1.832.19 3.811.707 5.042 2.178.985 1.13 1.062 2.995.051 4.135-1.248 1.474-3.268 1.947-5.121 1.967-3.478.023-6.815-1.21-9.905-2.704-6.02-2.924-11.161-7.378-15.583-12.35-4.27-4.853-7.845-10.288-10.865-15.994-3.66-7.026-6.583-14.496-8.068-22.297-4.001 1.505-7.643 4.468-9.181 8.548-1.397 3.505-.972 7.403-.027 10.965.565 2.096 1.446 4.25 3.212 5.621-.393.876-.776 1.756-1.169 2.632-3.237-2.257-5.989-5.464-6.934-9.368-1.374-5.464.778-11.372 4.74-15.239zm0 0"/>
  <path fill="#36454F" d="M17.542 50.223c3.16-2.997 7.122-5.02 11.209-6.438a209.631 209.631 0 0 0 19.823 34.95c3.666 5.187 7.616 10.178 11.902 14.868 2.897 3.223 7.224 5.109 11.552 5.08 1.242-.102 2.78-.275 3.501-1.446.452-.966-.427-1.854-1.184-2.321-1.837-1.075-4.152-1.42-6.187-.745-1 .37-1.84 1.045-2.743 1.59a74.59 74.59 0 0 1-1.866-1.306c2.014-2.027 5.044-2.63 7.802-2.326 1.832.19 3.811.707 5.042 2.178.985 1.13 1.062 2.995.051 4.135-1.248 1.474-3.268 1.947-5.121 1.967-3.478.023-6.815-1.21-9.905-2.704-6.02-2.924-11.161-7.378-15.583-12.35-4.27-4.853-7.845-10.288-10.865-15.994-3.66-7.026-6.583-14.496-8.068-22.297-4.001 1.505-7.643 4.468-9.181 8.548-1.397 3.505-.972 7.403-.027 10.965.565 2.096 1.446 4.25 3.212 5.621-.393.876-.776 1.756-1.169 2.632-3.237-2.257-5.989-5.464-6.934-9.368-1.374-5.464.778-11.372 4.74-15.239zm0 0"/>
  <path fill="none" stroke="#F8F8FF" stroke-miterlimit="10" stroke-width=".035" d="m29.737 51.749.499.518c3.302 7.152 7.256 14.002 11.51 20.633 4.683 7.178 9.74 14.187 15.884 20.198-5.167-3.473-9.344-8.214-13.039-13.176-5.89-7.92-10.156-16.896-13.838-26.012-.11-.841-.823-1.371-1.016-2.161zm0 0"/>
  <path fill="#F8F8FF" d="m29.737 51.749.499.518c3.302 7.152 7.256 14.002 11.51 20.633 4.683 7.178 9.74 14.187 15.884 20.198-5.167-3.473-9.344-8.214-13.039-13.176-5.89-7.92-10.156-16.896-13.838-26.012-.11-.841-.823-1.371-1.016-2.161zm0 0"/>
  <path fill="none" stroke="#36454F" stroke-miterlimit="10" stroke-width=".035" d="M26.189 68.026c1.648-.881 3.751-1.578 5.53-.663 2.048 1.053 2.313 4.204.618 5.698-1.945 1.815-4.74 2.306-7.311 2.363.108-.663.191-1.33.35-1.982 1.734-.152 3.639-.07 5.141-1.1.964-.605 1.394-2.062.657-3-.672-.794-1.856-.77-2.757-.446-1.953.688-3.334 2.42-4.168 4.252-.935 2.149-1.307 4.515-1.27 6.85-.016 5.727 1.451 11.59 4.928 16.222 3.512 4.854 9.024 8.561 15.137 8.797 6.01.219 11.543-2.962 15.8-6.965.866.42 1.742.824 2.605 1.26-3.259 3.603-7.274 6.603-11.864 8.27.199 1.148.39 2.365.06 3.505-.562 1.36-1.427 2.682-2.713 3.452-.78.501-1.904.546-2.602-.112-.647-.756-.417-1.947.258-2.605.975-1.103 2.365-2.095 2.431-3.707-4.695.989-9.881.737-13.961-2.027-1.824 2.08-4.466 3.517-7.253 3.633-.594.041-1.386-.122-1.523-.804.093-1.29 1.269-2.164 2.374-2.622 1.54-.659 3.612.193 4.817-1.25-4.312-2.824-7.687-6.985-9.671-11.732-2.446.15-5.173-.643-6.54-2.816-.591-1.025-1.177-2.352-.56-3.492.35-.517 1.036-.443 1.575-.384 2.163.553 2.61 3.608 4.976 3.747-1.026-4.795-1.487-9.835-.401-14.659.712-3.1 2.443-6.16 5.337-7.683zm0 0"/>
  <path fill="#36454F" d="M26.189 68.026c1.648-.881 3.751-1.578 5.53-.663 2.048 1.053 2.313 4.204.618 5.698-1.945 1.815-4.74 2.306-7.311 2.363.108-.663.191-1.33.35-1.982 1.734-.152 3.639-.07 5.141-1.1.964-.605 1.394-2.062.657-3-.672-.794-1.856-.77-2.757-.446-1.953.688-3.334 2.42-4.168 4.252-.935 2.149-1.307 4.515-1.27 6.85-.016 5.727 1.451 11.59 4.928 16.222 3.512 4.854 9.024 8.561 15.137 8.797 6.01.219 11.543-2.962 15.8-6.965.866.42 1.742.824 2.605 1.26-3.259 3.603-7.274 6.603-11.864 8.27.199 1.148.39 2.365.06 3.505-.562 1.36-1.427 2.682-2.713 3.452-.78.501-1.904.546-2.602-.112-.647-.756-.417-1.947.258-2.605.975-1.103 2.365-2.095 2.431-3.707-4.695.989-9.881.737-13.961-2.027-1.824 2.08-4.466 3.517-7.253 3.633-.594.041-1.386-.122-1.523-.804.093-1.29 1.269-2.164 2.374-2.622 1.54-.659 3.612.193 4.817-1.25-4.312-2.824-7.687-6.985-9.671-11.732-2.446.15-5.173-.643-6.54-2.816-.591-1.025-1.177-2.352-.56-3.492.35-.517 1.036-.443 1.575-.384 2.163.553 2.61 3.608 4.976 3.747-1.026-4.795-1.487-9.835-.401-14.659.712-3.1 2.443-6.16 5.337-7.683zm0 0"/>
</svg>
