<svg xmlns="http://www.w3.org/2000/svg" xml:space="preserve" viewBox="0 0 32 32">
  <path d="M16 31.36C7.53 31.36.64 24.47.64 16S7.53.64 16 .64 31.36 7.53 31.36 16 24.47 31.36 16 31.36zm-2.486-.931c.809.139 1.639.211 2.486.211 3.693 0 7.072-1.374 9.65-3.64h-.01v-3.719l-3.727-.932a.362.362 0 0 1-.213-.15l-2-3a.357.357 0 0 1-.053-.27l1-5A.36.36 0 0 1 21 13.64h6a.36.36 0 0 1 .161.038l3.468 1.74a14.555 14.555 0 0 0-1.583-6.059h-1.823l-.9 1.801a.361.361 0 0 1-.323.2h-4a.36.36 0 0 1-.36-.36V7c0-.155.1-.292.246-.341l2.92-.973.76-.76A14.58 14.58 0 0 0 16 1.36a14.564 14.564 0 0 0-8.506 2.731L9.193 6.64h2.584l.901-1.801A.36.36 0 0 1 13 4.64h2a.36.36 0 0 1 .345.463l-2.985 9.949V17a.36.36 0 0 1-.36.36h-1a.36.36 0 0 1-.322-.199l-.901-1.801H7.126l-2.108 1.686 3.183 3.637 6.898 1.972a.36.36 0 0 1 .25.433l-1.835 7.341zm-9.032-5.402a14.67 14.67 0 0 0 8.324 5.262l1.76-7.038L7.9 21.346a.371.371 0 0 1-.172-.108l-3.5-4a.361.361 0 0 1 .046-.519l2.5-2A.366.366 0 0 1 7 14.64h3a.36.36 0 0 1 .322.199l.901 1.801h.417V15c0-.035.005-.07.015-.104l2.861-9.537h-1.293l-.901 1.801a.36.36 0 0 1-.322.2H9a.357.357 0 0 1-.299-.16L6.917 4.525C3.534 7.209 1.36 11.356 1.36 16c0 .303.009.604.028.903l4.889 5.867c.12.143.11.354-.022.485l-1.773 1.772zm17.741-3.342 3.864.966a.36.36 0 0 1 .273.35v3.334a14.597 14.597 0 0 0 4.278-10.105l-3.724-1.869h-5.62l-.913 4.565 1.842 2.759zm-20.7-3.495a14.56 14.56 0 0 0 2.523 6.254l1.466-1.467-3.989-4.787zm20.837-7.55h3.417l.9-1.801A.362.362 0 0 1 27 8.64h1.652a14.725 14.725 0 0 0-2.554-3.23l-.844.844a.363.363 0 0 1-.141.087l-2.753.918v3.381z"/>
  <path fill="none" d="M0 0h32v32H0z"/>
</svg>
