<svg xmlns="http://www.w3.org/2000/svg" xml:space="preserve" viewBox="0 0 16.939 16.939">
  <path fill="#030104" d="m14.464 6.649-.033-.052a5.797 5.797 0 0 0 0-.323l.005-.077-.141-.788c0-1.383-.904-5.233-3.208-4.907 0 0-2.366-1.292-5.267.27-2.813 1.144-3.209 3.254-3.209 4.637v1.042a.607.607 0 0 1-.017.051c-.091.261-.099.28.272 2.24a.487.487 0 0 0-.244.171c-.316.419-.04 1.525.045 1.821.08.52.281.818.465.987.407 2.921 2.918 5.218 5.125 5.218 2.581 0 5.022-2.53 5.453-5.214.183-.167.385-.461.46-.958.093-.33.369-1.438.052-1.856a.48.48 0 0 0-.136-.123 8.734 8.734 0 0 0 .344-2.121l.034-.018zM8.29 12.308c-.653 0-1.097-.48-1.097-1.121 0-.653.457-1.121 1.097-1.121.665 0 1.097.468 1.109 1.121 0 .64-.445 1.121-1.109 1.121zm1.491-4.583c-.457.505-.642.986-.629 1.54v.222H7.514l-.012-.32c-.037-.628.171-1.269.726-1.934.395-.468.714-.862.714-1.281 0-.431-.283-.714-.898-.739a2.33 2.33 0 0 0-1.22.37l-.42-1.344c.444-.259 1.184-.504 2.057-.504 1.627 0 2.365.899 2.365 1.92.001.937-.579 1.553-1.045 2.07z"/>
</svg>
