<?xml version="1.0" encoding="UTF-8" standalone="no"?>
<svg
   xmlns:dc="http://purl.org/dc/elements/1.1/"
   xmlns:cc="http://creativecommons.org/ns#"
   xmlns:rdf="http://www.w3.org/1999/02/22-rdf-syntax-ns#"
   xmlns:svg="http://www.w3.org/2000/svg"
   xmlns="http://www.w3.org/2000/svg"
   xmlns:sodipodi="http://sodipodi.sourceforge.net/DTD/sodipodi-0.dtd"
   xmlns:inkscape="http://www.inkscape.org/namespaces/inkscape"
   sodipodi:docname="flute.svg"
   inkscape:version="1.0 (4035a4f, 2020-05-01)"
   id="svg11383"
   version="1.1"
   viewBox="0 0 95.242851 96.126122"
   height="96.126122mm"
   width="95.242851mm">
  <defs
     id="defs11377" />
  <sodipodi:namedview
     inkscape:window-maximized="0"
     inkscape:window-y="28"
     inkscape:window-x="0"
     inkscape:window-height="1412"
     inkscape:window-width="2560"
     fit-margin-bottom="0"
     fit-margin-right="0"
     fit-margin-left="0"
     fit-margin-top="0"
     showgrid="false"
     inkscape:document-rotation="0"
     inkscape:current-layer="layer1"
     inkscape:document-units="mm"
     inkscape:cy="1770.2271"
     inkscape:cx="2579.9865"
     inkscape:zoom="0.35"
     inkscape:pageshadow="2"
     inkscape:pageopacity="0.0"
     borderopacity="1.0"
     bordercolor="#666666"
     pagecolor="#ffffff"
     id="base" />
  <metadata
     id="metadata11380">
    <rdf:RDF>
      <cc:Work
         rdf:about="">
        <dc:format>image/svg+xml</dc:format>
        <dc:type
           rdf:resource="http://purl.org/dc/dcmitype/StillImage" />
        <dc:title></dc:title>
      </cc:Work>
    </rdf:RDF>
  </metadata>
  <g
     transform="translate(576.78809,320.20592)"
     id="layer1"
     inkscape:groupmode="layer"
     inkscape:label="Layer 1">
    <g
       transform="matrix(0.35277777,0,0,-0.35277777,-636.58154,113.07574)"
       id="g11335">
      <path
         d="m 405.784,1212.66 18.49,-18.47 -11.587,-11.79 -13.956,-14.17 -4.872,-4.98 -139.466,-141.42 -3.732,-3.78 -5.311,-5.41 -29.957,-30.457 c -11.57,-11.569 -13.109,-18.64 -14.325,-18.526 l -24.248,24.236 c -0.081,1.084 5.319,2.408 14.432,10.484 1.298,1.143 2.646,2.413 4.086,3.853 l 210.446,210.43"
         style="fill:#fad1ab;fill-opacity:1;fill-rule:nonzero;stroke:none;stroke-width:0.1"
         id="path2108" />
      <path
         d="m 258.765,1046.91 c -2.183,2.2 -5.741,2.2 -7.938,0 -1.548,-1.54 -2.006,-3.79 -1.344,-5.75 0.253,-0.78 0.717,-1.56 1.344,-2.18 2.197,-2.2 5.755,-2.2 7.938,0 1.821,1.81 2.143,4.51 0.964,6.65 -0.233,0.48 -0.567,0.9 -0.964,1.28"
         style="fill:#cfae91;fill-opacity:1;fill-rule:nonzero;stroke:none;stroke-width:0.1"
         id="path2110" />
      <path
         d="m 254.027,1038.94 c -1.478,0 -2.955,0.56 -4.081,1.7 -0.169,0.17 -0.34,0.35 -0.463,0.52 v 0 c -0.197,0.58 -0.294,1.19 -0.294,1.79 0,1.44 0.549,2.88 1.638,3.96 1.098,1.1 2.538,1.65 3.976,1.65 1.435,0 2.871,-0.55 3.962,-1.65 0.397,-0.38 0.731,-0.8 0.964,-1.28 0.277,-1.76 -0.255,-3.63 -1.612,-4.99 -1.131,-1.14 -2.612,-1.7 -4.09,-1.7"
         style="fill:#98806b;fill-opacity:1;fill-rule:nonzero;stroke:none;stroke-width:0.1"
         id="path2112" />
      <path
         d="m 271.563,1053.69 c -1.438,0 -2.876,0.55 -3.97,1.65 -0.649,0.66 -1.099,1.41 -1.358,2.23 0.13,-0.21 0.306,-0.39 0.464,-0.55 1.128,-1.13 2.606,-1.69 4.089,-1.69 1.477,0 2.96,0.56 4.095,1.69 1.352,1.36 1.89,3.22 1.596,5.01 -0.244,0.45 -0.559,0.87 -0.94,1.26 -1.099,1.1 -2.538,1.64 -3.976,1.64 -1.438,0 -2.876,-0.54 -3.97,-1.64 -1.089,-1.1 -1.641,-2.53 -1.647,-3.95 0.006,1.42 0.558,2.85 1.647,3.95 1.094,1.1 2.532,1.64 3.97,1.64 1.438,0 2.877,-0.54 3.976,-1.64 0.381,-0.39 0.696,-0.81 0.94,-1.26 1.175,-2.13 0.853,-4.88 -0.94,-6.69 -1.099,-1.1 -2.538,-1.65 -3.976,-1.65"
         style="fill:#b89c82;fill-opacity:1;fill-rule:nonzero;stroke:none;stroke-width:0.1"
         id="path2114" />
      <path
         d="m 270.788,1055.33 c -1.483,0 -2.961,0.56 -4.089,1.69 -0.158,0.16 -0.334,0.34 -0.464,0.55 v 0 c -0.194,0.57 -0.289,1.17 -0.289,1.77 0.006,1.42 0.558,2.85 1.647,3.95 1.094,1.1 2.532,1.64 3.97,1.64 1.438,0 2.877,-0.54 3.976,-1.64 0.381,-0.39 0.696,-0.81 0.94,-1.26 0.294,-1.79 -0.244,-3.65 -1.596,-5.01 -1.135,-1.13 -2.618,-1.69 -4.095,-1.69"
         style="fill:#897360;fill-opacity:1;fill-rule:nonzero;stroke:none;stroke-width:0.1"
         id="path2116" />
      <path
         d="m 286.58,1069.1 c -1.438,0 -2.873,0.55 -3.969,1.64 -0.64,0.65 -1.11,1.41 -1.349,2.21 0.127,-0.2 0.286,-0.37 0.456,-0.54 1.126,-1.13 2.602,-1.69 4.08,-1.69 1.478,0 2.956,0.56 4.084,1.69 1.371,1.36 1.898,3.23 1.624,4.99 -0.245,0.47 -0.587,0.89 -0.954,1.3 -1.099,1.09 -2.535,1.64 -3.972,1.64 -1.438,0 -2.873,-0.55 -3.969,-1.64 -1.088,-1.1 -1.645,-2.53 -1.647,-3.96 0.002,1.43 0.559,2.86 1.647,3.96 1.096,1.09 2.531,1.64 3.969,1.64 1.437,0 2.873,-0.55 3.972,-1.64 0.367,-0.41 0.709,-0.83 0.954,-1.3 1.167,-2.13 0.844,-4.84 -0.954,-6.66 -1.099,-1.09 -2.535,-1.64 -3.972,-1.64"
         style="fill:#b89c82;fill-opacity:1;fill-rule:nonzero;stroke:none;stroke-width:0.1"
         id="path2118" />
      <path
         d="m 285.798,1070.72 c -1.478,0 -2.954,0.56 -4.08,1.69 -0.17,0.17 -0.329,0.34 -0.456,0.54 v 0 c -0.198,0.58 -0.298,1.18 -0.298,1.79 0.002,1.43 0.559,2.86 1.647,3.96 1.096,1.09 2.531,1.64 3.969,1.64 1.437,0 2.873,-0.55 3.972,-1.64 0.367,-0.41 0.709,-0.83 0.954,-1.3 0.274,-1.76 -0.253,-3.63 -1.624,-4.99 -1.128,-1.13 -2.606,-1.69 -4.084,-1.69"
         style="fill:#897360;fill-opacity:1;fill-rule:nonzero;stroke:none;stroke-width:0.1"
         id="path2120" />
      <path
         d="m 307.068,1089.78 c -1.438,0 -2.878,0.55 -3.979,1.65 -0.628,0.64 -1.077,1.4 -1.33,2.21 0.121,-0.2 0.287,-0.39 0.457,-0.54 1.132,-1.13 2.608,-1.7 4.085,-1.7 1.476,0 2.95,0.57 4.078,1.7 1.365,1.35 1.897,3.24 1.617,4.98 -0.236,0.48 -0.573,0.89 -0.953,1.28 -1.1,1.1 -2.537,1.65 -3.975,1.65 -1.438,0 -2.878,-0.55 -3.979,-1.65 -1.082,-1.07 -1.63,-2.51 -1.628,-3.94 -0.002,1.43 0.546,2.87 1.628,3.94 1.101,1.1 2.541,1.65 3.979,1.65 1.438,0 2.875,-0.55 3.975,-1.65 0.38,-0.39 0.717,-0.8 0.953,-1.28 1.173,-2.13 0.845,-4.85 -0.953,-6.65 -1.1,-1.1 -2.537,-1.65 -3.975,-1.65"
         style="fill:#b89c82;fill-opacity:1;fill-rule:nonzero;stroke:none;stroke-width:0.1"
         id="path2122" />
      <path
         d="m 306.301,1091.4 c -1.477,0 -2.953,0.57 -4.085,1.7 -0.17,0.15 -0.336,0.34 -0.457,0.54 v 0 c -0.199,0.57 -0.298,1.17 -0.298,1.78 -0.002,1.43 0.546,2.87 1.628,3.94 1.101,1.1 2.541,1.65 3.979,1.65 1.438,0 2.875,-0.55 3.975,-1.65 0.38,-0.39 0.717,-0.8 0.953,-1.28 0.28,-1.74 -0.252,-3.63 -1.617,-4.98 -1.128,-1.13 -2.602,-1.7 -4.078,-1.7"
         style="fill:#897360;fill-opacity:1;fill-rule:nonzero;stroke:none;stroke-width:0.1"
         id="path2124" />
      <path
         d="m 323.829,1106.16 c -1.436,0 -2.874,0.55 -3.97,1.65 -0.639,0.64 -1.095,1.4 -1.356,2.2 0.137,-0.2 0.299,-0.36 0.46,-0.54 1.127,-1.12 2.606,-1.68 4.083,-1.68 1.479,0 2.961,0.56 4.091,1.68 1.365,1.37 1.904,3.24 1.61,5 -0.237,0.46 -0.565,0.9 -0.94,1.29 -1.101,1.09 -2.541,1.63 -3.978,1.63 -1.436,0 -2.874,-0.54 -3.97,-1.63 -1.091,-1.1 -1.641,-2.54 -1.646,-3.97 0.005,1.43 0.555,2.87 1.646,3.97 1.096,1.09 2.534,1.63 3.97,1.63 1.437,0 2.877,-0.54 3.978,-1.63 0.375,-0.39 0.703,-0.83 0.94,-1.29 1.175,-2.13 0.86,-4.86 -0.94,-6.66 -1.101,-1.1 -2.541,-1.65 -3.978,-1.65"
         style="fill:#b89c82;fill-opacity:1;fill-rule:nonzero;stroke:none;stroke-width:0.1"
         id="path2126" />
      <path
         d="m 323.046,1107.79 c -1.477,0 -2.956,0.56 -4.083,1.68 -0.161,0.18 -0.323,0.34 -0.46,0.54 v 0 c -0.194,0.57 -0.29,1.18 -0.29,1.78 0.005,1.43 0.555,2.87 1.646,3.97 1.096,1.09 2.534,1.63 3.97,1.63 1.437,0 2.877,-0.54 3.978,-1.63 0.375,-0.39 0.703,-0.83 0.94,-1.29 0.294,-1.76 -0.245,-3.63 -1.61,-5 -1.13,-1.12 -2.612,-1.68 -4.091,-1.68"
         style="fill:#897360;fill-opacity:1;fill-rule:nonzero;stroke:none;stroke-width:0.1"
         id="path2128" />
      <path
         d="m 338.85,1121.55 c -1.438,0 -2.878,0.55 -3.978,1.65 -0.639,0.65 -1.091,1.4 -1.342,2.21 0.129,-0.19 0.279,-0.37 0.458,-0.53 1.127,-1.14 2.606,-1.7 4.083,-1.7 1.481,0 2.959,0.56 4.087,1.7 1.365,1.36 1.903,3.23 1.602,4.99 -0.223,0.46 -0.557,0.9 -0.94,1.28 -1.095,1.09 -2.533,1.64 -3.97,1.64 -1.438,0 -2.878,-0.55 -3.978,-1.64 -1.087,-1.09 -1.636,-2.52 -1.636,-3.96 0,1.44 0.549,2.87 1.636,3.96 1.1,1.09 2.54,1.64 3.978,1.64 1.437,0 2.875,-0.55 3.97,-1.64 0.383,-0.38 0.717,-0.82 0.94,-1.28 1.188,-2.14 0.868,-4.86 -0.94,-6.67 -1.095,-1.1 -2.533,-1.65 -3.97,-1.65"
         style="fill:#b89c82;fill-opacity:1;fill-rule:nonzero;stroke:none;stroke-width:0.1"
         id="path2130" />
      <path
         d="m 338.071,1123.18 c -1.477,0 -2.956,0.56 -4.083,1.7 -0.179,0.16 -0.329,0.34 -0.458,0.53 v 0 c -0.196,0.58 -0.294,1.18 -0.294,1.78 0,1.44 0.549,2.87 1.636,3.96 1.1,1.09 2.54,1.64 3.978,1.64 1.437,0 2.875,-0.55 3.97,-1.64 0.383,-0.38 0.717,-0.82 0.94,-1.28 0.301,-1.76 -0.237,-3.63 -1.602,-4.99 -1.128,-1.14 -2.606,-1.7 -4.087,-1.7"
         style="fill:#897360;fill-opacity:1;fill-rule:nonzero;stroke:none;stroke-width:0.1"
         id="path2132" />
      <path
         d="m 398.014,1163.8 -29.752,-29.76 -23.526,23.52 29.746,29.77 23.532,-23.53"
         style="fill:#dfbc9b;fill-opacity:1;fill-rule:nonzero;stroke:none;stroke-width:0.1"
         id="path2134" />
      <path
         d="m 412.865,1188.85 -0.136,0.14 4.208,4.2 0.184,0.21 -8.721,8.72 c 0,0 0.004,0.01 0.006,0.01 l 8.864,-8.87 -4.405,-4.41"
         style="fill:#b89c82;fill-opacity:1;fill-rule:nonzero;stroke:none;stroke-width:0.1"
         id="path2136" />
      <path
         d="m 426.533,1228.2 12.94,-12.93 -15.199,-21.08 -18.381,18.37 20.64,15.64"
         style="fill:#fad1ab;fill-opacity:1;fill-rule:nonzero;stroke:none;stroke-width:0.1"
         id="path2138" />
      <path
         d="m 397.313,1162.7 c -0.086,0.05 -0.172,0.09 -0.259,0.13 l 0.95,0.95 0.195,-0.19 -0.886,-0.89"
         style="fill:#f0decc;fill-opacity:1;fill-rule:nonzero;stroke:none;stroke-width:0.1"
         id="path2140" />
      <path
         d="m 397.054,1162.83 c -7.691,3.88 -15.493,5.29 -22.768,5.29 -8.768,0 -16.775,-2.05 -22.924,-4.31 l 23.318,23.31 23.324,-23.34 -0.95,-0.95"
         style="fill:#d0a07a;fill-opacity:1;fill-rule:nonzero;stroke:none;stroke-width:0.1"
         id="path2142" />
      <path
         d="m 201.097,963.657 c -0.01,0 -0.018,0 -0.029,0 l -24.248,24.236 c 0,0.012 0,0.025 0,0.025 0.001,1.085 5.39,2.446 14.432,10.459 6.155,0.696 12.925,1.693 20.105,3.213 l 11.656,-11.655 -7.62,-7.752 c -11.482,-11.482 -13.087,-18.526 -14.296,-18.526"
         style="fill:#fbdbb9;fill-opacity:1;fill-rule:nonzero;stroke:none;stroke-width:0.1"
         id="path2144" />
      <path
         d="m 202.077,964.036 c 1.909,-1.892 1.909,-5.004 0,-6.881 -1.901,-1.918 -4.987,-1.918 -6.897,0 l -24.252,24.248 c -1.913,1.902 -1.913,4.977 0,6.881 1.909,1.904 4.997,1.904 6.915,0 l 24.234,-24.248"
         style="fill:#dfbc9b;fill-opacity:1;fill-rule:nonzero;stroke:none;stroke-width:0.1"
         id="path2146" />
      <path
         d="m 230.568,1041.86 23.526,-23.53 -29.733,-29.744 -23.539,23.544 29.746,29.73"
         style="fill:#dfbc9b;fill-opacity:1;fill-rule:nonzero;stroke:none;stroke-width:0.1"
         id="path2148" />
      <path
         d="m 253.201,1017.43 c -0.003,0 -0.003,0 -0.005,0 l 0.898,0.9 -0.893,-0.9"
         style="fill:#f0decc;fill-opacity:1;fill-rule:nonzero;stroke:none;stroke-width:0.1"
         id="path2150" />
      <path
         d="m 253.196,1017.43 c -7.761,3.98 -15.642,5.42 -22.991,5.42 -8.772,0 -16.788,-2.06 -22.95,-4.31 l 23.313,23.32 23.526,-23.53 -0.898,-0.9"
         style="fill:#d0a07a;fill-opacity:1;fill-rule:nonzero;stroke:none;stroke-width:0.1"
         id="path2152" />
      <path
         d="m 391.119,1198.01 14.665,14.65 -14.651,-14.65 c -0.004,0 -0.01,0 -0.014,0 z m 23.297,6.03 -8.632,8.62 0.109,-0.1 8.529,-8.52 c -0.002,0 -0.002,0 -0.006,0"
         style="fill:#fad1ab;fill-opacity:1;fill-rule:nonzero;stroke:none;stroke-width:0.1"
         id="path2154" />
      <path
         d="m 391.133,1198.01 14.651,14.65 8.632,-8.62 c -2.031,-0.7 -4.04,-1.33 -6.01,-1.91 l -4.068,4.06 -4.421,-4.42 0.13,-0.13 -2.268,-2.26 c -2.353,-0.53 -4.582,-0.98 -6.646,-1.37"
         style="fill:#fbdbb9;fill-opacity:1;fill-rule:nonzero;stroke:none;stroke-width:0.1"
         id="path2156" />
      <path
         d="m 400.047,1201.64 -0.13,0.13 4.421,4.42 4.068,-4.06 c -0.002,0 -0.006,-0.01 -0.006,-0.01 l -3.92,3.92 -0.219,-0.19 -4.214,-4.21"
         style="fill:#d9bfa3;fill-opacity:1;fill-rule:nonzero;stroke:none;stroke-width:0.1"
         id="path2158" />
      <path
         d="m 414.422,1204.04 -8.529,8.52 20.64,15.64 12.619,-12.62 c -7.898,-5.02 -16.508,-8.76 -24.726,-11.54 -0.002,0 -0.002,0 -0.004,0"
         style="fill:#fbdbb9;fill-opacity:1;fill-rule:nonzero;stroke:none;stroke-width:0.1"
         id="path2160" />
      <path
         d="m 401.07,1181.04 c -2.293,0 -4.587,0.87 -6.336,2.62 -3.493,3.49 -3.493,9.18 0,12.67 l 3.045,3.05 c 1.193,0.26 2.42,0.55 3.671,0.86 l 11.279,-11.25 -5.336,-5.33 c -1.743,-1.75 -4.033,-2.62 -6.323,-2.62"
         style="fill:#b89c82;fill-opacity:1;fill-rule:nonzero;stroke:none;stroke-width:0.1"
         id="path2162" />
      <path
         d="m 412.729,1188.99 -11.279,11.25 c 2.24,0.56 4.565,1.18 6.95,1.88 l 8.721,-8.72 -0.184,-0.21 -4.208,-4.2"
         style="fill:#897360;fill-opacity:1;fill-rule:nonzero;stroke:none;stroke-width:0.1"
         id="path2164" />
      <path
         d="m 397.779,1199.38 2.268,2.26 1.403,-1.4 c -1.251,-0.31 -2.478,-0.6 -3.671,-0.86"
         style="fill:#b9a38c;fill-opacity:1;fill-rule:nonzero;stroke:none;stroke-width:0.1"
         id="path2166" />
      <path
         d="m 401.45,1200.24 -1.403,1.4 4.214,4.21 0.219,0.19 3.92,-3.92 c -2.385,-0.7 -4.71,-1.32 -6.95,-1.88"
         style="fill:#9e8b77;fill-opacity:1;fill-rule:nonzero;stroke:none;stroke-width:0.1"
         id="path2168" />
    </g>
  </g>
</svg>
