<svg xmlns="http://www.w3.org/2000/svg" viewBox="0 0 59.513 96.123">
  <path fill="#915941" d="m54.053 13.351-1.658-.734.281-.631 1.655.737-.278.628"/>
  <path fill="#9f9fa0" d="M53.947 12.931c-.082.184-.073.48.026.77.123.338.363.663.72.821.676.297 1.429.068 1.684-.518a1.015 1.015 0 0 0-.005-.85c-.12-.314-.385-.582-.74-.741-.67-.3-1.507.11-1.685.518"/>
  <path fill="#c8c8c9" d="M55.298 14.653c-.199 0-.406-.039-.606-.13-.356-.16-.596-.484-.719-.822.343.116.646.165.914.165a1.83 1.83 0 0 0 1.485-.712c.063.137.096.289.096.437 0 .141-.03.279-.091.413-.18.413-.606.649-1.079.649"/>
  <path fill="#915941" d="m57.097 9.33-1.654-.727.274-.635 1.66.734-.28.628"/>
  <path fill="#9f9fa0" d="M56.996 8.903c-.088.187-.075.487.026.776.123.335.361.67.721.822.672.303 1.425.067 1.683-.515.12-.275.115-.575-.005-.85a1.389 1.389 0 0 0-.743-.745c-.67-.3-1.507.113-1.682.512"/>
  <path fill="#c8c8c9" d="M58.348 10.635c-.2 0-.405-.046-.605-.134-.36-.152-.598-.487-.721-.822.344.116.648.162.916.162.76 0 1.229-.384 1.483-.705a1.06 1.06 0 0 1 .005.85c-.181.409-.608.649-1.078.649"/>
  <path fill="#915941" d="m43.046 8.68 1.656.734.282-.631-1.659-.734-.279.631"/>
  <path fill="#9f9fa0" d="M43.428 8.469c-.083.19-.309.388-.594.5-.327.135-.729.18-1.09.018-.674-.296-1.006-1.009-.746-1.59.124-.28.349-.473.631-.569a1.377 1.377 0 0 1 1.05.043c.67.3.93 1.203.75 1.598"/>
  <path fill="#c8c8c9" d="M42.243 9.09c-.167 0-.337-.029-.498-.103-.516-.225-.832-.698-.835-1.167a1.036 1.036 0 0 1 .719-.991c-.089.546-.01 1.456 1.205 2.14-.18.078-.384.12-.59.12"/>
  <path fill="#915941" d="m43.978 3.72 1.657.734.28-.624-1.659-.738-.278.628"/>
  <path fill="#9f9fa0" d="M44.362 3.516c-.084.19-.308.38-.592.494-.327.14-.733.183-1.097.02-.668-.295-1.003-1.008-.746-1.594a1.05 1.05 0 0 1 .635-.564c.32-.12.693-.117 1.052.046.67.3.924 1.2.748 1.598"/>
  <path fill="#c8c8c9" d="M43.178 4.137c-.17 0-.342-.036-.505-.106-.517-.226-.834-.706-.833-1.182a1.02 1.02 0 0 1 .722-.977c-.086.54-.01 1.46 1.208 2.138a1.51 1.51 0 0 1-.592.127"/>
  <path fill="#be7453" d="M56.29 7.96c-.792 1.708-1.83 3.38-3.09 4.795-.69.787-1.475 1.471-2.228 2.19-.11.114-.226.223-.337.329l-6.342-2.808a87.934 87.934 0 0 1-.1-1.58c-.044-.692-.184-1.38-.143-2.079.028-.54.168-1.058.288-1.583.441-1.913.943-3.821 1.943-5.54.24-.419.534-.99.996-1.213.67-.314 1.118.381 1.641.66.158.081.326.155.503.212.25.077.514.102.774-.01.501-.195.888-.692 1.345-.982.553-.352 1.174-.476 1.788-.2.62.274 1.008.772 1.184 1.414.25.92-.094 2.177 1.056 2.579.36.113.835-.028 1.144.208.243.173.401.593.43.875.04.405-.105.804-.227 1.178a16.14 16.14 0 0 1-.625 1.556"/>
  <path fill="#8a4534" d="m50.635 15.274-6.342-2.808a87.934 87.934 0 0 1-.1-1.58c-.039-.607-.151-1.207-.151-1.817 0-.089.002-.173.008-.262.028-.54.168-1.058.288-1.583.441-1.913.943-3.821 1.943-5.54.24-.419.534-.99.996-1.213a.776.776 0 0 1 .338-.077c.494 0 .874.508 1.303.737.158.081.326.155.503.212-.937 3.04-2.344 9.281 1.551 13.603-.11.113-.226.222-.337.328"/>
  <path fill="#974d40" d="M39.252 84.86c-2.12 5.414-7.27 10.325-12.304 11.126-3.609.568-7.078-.716-10.216-2.148-3.228-1.479-6.724-2.974-9.402-5.387-3.568-3.228-4.437-8.721-3.525-13.71 1.142-6.244 5.14-9.411 9.336-13.518 1.172-1.153 2.343-2.328 2.82-3.98.448-1.548.265-3.156.68-4.709.446-1.672 1.33-3.326 2.268-4.77 2.529-3.905 5.768-5.644 9.276-5.919 2.38-.18 4.88.304 7.368 1.249.403.155.806.321 1.21.497.994.438 2.008.95 2.996 1.51.515.297 1.02.6 1.51.925.558.349 1.094.74 1.606 1.125 3.71 2.84 4.296 7.581 3.112 12.065-.072.257-.142.515-.224.769a19.744 19.744 0 0 1-2.512 5.242l-.05.067c-1.142 1.538-2.602 2.717-2.963 4.703-.642 3.549.202 7.017.002 10.544-.081 1.433-.427 2.893-.988 4.318"/>
  <path fill="#be7453" d="M22.259 95.358c-.434 0-.865-.025-1.295-.064-2.611-.264-5.12-1.28-7.23-2.247l-.497-.225a92.557 92.557 0 0 1-3.551-1.673c-2.315-1.16-4.04-2.29-5.426-3.542C.944 84.591-.4 79.335.667 73.542c1.044-5.658 4.44-8.936 8.035-12.403.532-.505.98-.939 1.433-1.383 1.124-1.119 2.289-2.265 2.758-3.877.219-.766.282-1.546.348-2.368.062-.772.125-1.573.334-2.36.401-1.488 1.184-3.132 2.329-4.896 2.418-3.743 5.626-5.8 9.533-6.117.35-.025.703-.043 1.056-.043 2.015 0 4.183.438 6.45 1.302.428.17.827.328 1.225.498a31.838 31.838 0 0 1 4.547 2.458c.568.37 1.11.755 1.624 1.143 3.431 2.643 4.597 7.18 3.198 12.457a20.58 20.58 0 0 1-2.801 6.149c-.356.48-.674.86-.989 1.231-.89 1.055-1.733 2.046-1.987 3.46-.376 2.061-.243 4.139-.116 6.153.089 1.436.183 2.928.096 4.414-.089 1.442-.435 2.938-1.025 4.434-2.235 5.704-7.647 10.619-12.584 11.42-.63.098-1.254.144-1.872.144"/>
  <path fill="#fefefe" d="M26.493 39.788c-.363 0-.724.011-1.08.04-4.009.324-7.296 2.43-9.77 6.265-1.16 1.781-1.958 3.457-2.367 4.977-.213.815-.28 1.634-.342 2.42-.065.805-.125 1.567-.336 2.307-.448 1.532-1.581 2.65-2.679 3.74-.45.44-.897.871-1.342 1.295-3.72 3.587-7.15 6.896-8.213 12.657-1.087 5.895.294 11.257 3.688 14.344 1.408 1.274 3.155 2.417 5.497 3.592 1.177.596 2.386 1.143 3.56 1.679l.497.226c2.135.973 4.673 2.003 7.327 2.268.44.046.881.063 1.326.063.647 0 1.291-.042 1.917-.144 5.123-.83 10.516-5.715 12.825-11.61.602-1.524.956-3.052 1.047-4.526.09-1.507-.007-3.006-.098-4.456-.13-2.085-.255-4.06.113-6.078.24-1.334 1.056-2.293 1.917-3.316.32-.378.643-.762.946-1.165a21.105 21.105 0 0 0 2.679-5.531 25.1 25.1 0 0 0 .23-.8c1.432-5.402.227-10.062-3.306-12.779a29.792 29.792 0 0 0-1.641-1.16 48.365 48.365 0 0 0-1.54-.939 31.309 31.309 0 0 0-3.055-1.541c-.406-.18-.807-.339-1.204-.49-2.338-.893-4.543-1.338-6.596-1.338zm0 .618c2.067 0 4.209.465 6.338 1.28l.037.014c.39.149.784.31 1.177.48.995.434 2.006.946 2.998 1.514.512.296 1.015.606 1.506.917.558.367 1.095.748 1.605 1.132 3.71 2.85 4.283 7.61 3.084 12.132-.069.261-.141.515-.223.776a20.324 20.324 0 0 1-2.533 5.278l-.052.067c-1.147 1.549-2.61 2.734-2.974 4.741-.65 3.563.186 7.056-.023 10.601-.09 1.44-.439 2.91-1.004 4.343-2.134 5.443-7.305 10.407-12.348 11.225-.612.1-1.218.142-1.822.142-.424 0-.845-.018-1.264-.06-2.5-.254-4.9-1.203-7.135-2.22-1.32-.606-2.696-1.22-4.035-1.894-1.924-.966-3.785-2.07-5.358-3.5C.903 84.137.047 78.613.971 73.6c1.034-5.606 4.338-8.76 8.03-12.32a97.55 97.55 0 0 0 1.352-1.308c1.171-1.157 2.352-2.346 2.836-4.004.446-1.556.27-3.175.684-4.734.454-1.69 1.343-3.355 2.289-4.809 2.537-3.93 5.785-5.694 9.3-5.98.341-.024.685-.038 1.031-.038"/>
  <path fill="#c56e49" d="M22.259 95.048c-.218 0-.435-.004-.652-.018-.204-.007-.408-.025-.612-.042.096-2.096.602-4.569 1.611-7.363l2.391 1.062.219-.776 1.174-4.184-1.756-.776c1.055-2.103 2.36-4.336 3.944-6.682 5.93-8.791 6.624-18.591 5.84-26.183l1.97.095h.015a.313.313 0 0 0 .286-.194l2.1-5.217c.472.317.928.642 1.365.973 2.587 1.99 3.65 4.907 3.648 8.019 0 1.355-.2 2.741-.564 4.113-.069.261-.141.515-.223.776a20.324 20.324 0 0 1-2.533 5.278l-.052.067c-1.147 1.549-2.61 2.734-2.974 4.741-.187 1.03-.25 2.057-.252 3.077-.001 2.099.263 4.184.263 6.283 0 .412-.01.825-.034 1.241-.09 1.44-.439 2.91-1.004 4.343-2.134 5.443-7.305 10.407-12.348 11.225a11.273 11.273 0 0 1-1.822.141"/>
  <path fill="#fefefe" d="M22.257 95.048a9.975 9.975 0 0 1 .002 0 11.273 11.273 0 0 0-.002 0zm-1.262-.06zm3.086-.082c5.043-.818 10.214-5.782 12.348-11.225.565-1.432.914-2.903 1.004-4.343-.09 1.44-.439 2.91-1.004 4.343-2.134 5.443-7.305 10.407-12.348 11.225zm13.123-23.092c.001-1.02.065-2.047.252-3.077.364-2.007 1.827-3.192 2.974-4.741l.052-.067a20.324 20.324 0 0 0 2.533-5.278c.082-.26.154-.515.223-.776.363-1.372.564-2.758.564-4.113 0 1.355-.2 2.741-.564 4.113-.069.261-.141.515-.223.776a20.324 20.324 0 0 1-2.533 5.278l-.052.067c-1.147 1.549-2.61 2.734-2.974 4.741-.187 1.03-.25 2.057-.252 3.077"/>
  <path fill="#3e2617" d="M32.1 64.469a6.876 6.876 0 0 1-1.923 2.536 6.984 6.984 0 0 1-2.09 1.186 6.897 6.897 0 0 1-5.12-.198 6.91 6.91 0 0 1-4.109-5.997 6.92 6.92 0 0 1 9.721-6.66 6.887 6.887 0 0 1 3.783 4.2l.002.015a6.873 6.873 0 0 1-.264 4.918"/>
  <path fill="#55341b" d="M32.1 64.469a6.876 6.876 0 0 1-1.923 2.536 6.984 6.984 0 0 1-2.09 1.186 6.798 6.798 0 0 1-4.202-.456c-2.478-1.083-3.992-3.464-4.11-6a6.5 6.5 0 0 1 .542-2.202 6.589 6.589 0 0 1 8.694-3.355 6.582 6.582 0 0 1 3.351 3.359l.002.014a6.873 6.873 0 0 1-.264 4.918"/>
  <path fill="#4b331d" d="m31.164 49.772-3.91-3.785 16.555-32.805 6.306 2.635-5.46 13.956-8.11 20.154a.152.152 0 0 1-.142.099l-5.239-.254"/>
  <path fill="#4b331d" d="M43.946 12.942a.308.308 0 0 0-.274.17l-16.584 32.62a.311.311 0 0 0 .057.364l3.81 3.743a.305.305 0 0 0 .2.085l1.91.099 3.322.158h.016a.313.313 0 0 0 .286-.194l8.112-20.154 5.539-13.758a.312.312 0 0 0-.161-.399l-6.108-2.71a.307.307 0 0 0-.125-.024zm0 .307 6.107 2.713-5.539 13.755-8.111 20.154-3.323-.155-1.908-.1-3.81-3.742 16.584-32.625"/>
  <path fill="#cfd0d0" d="m37.1 48.163-8.9-3.947a.152.152 0 0 0-.204.08c-.034.075 0 .17.079.206l8.9 3.94a.15.15 0 0 0 .204-.078.153.153 0 0 0-.078-.2m1.496-3.726-8.579-3.803a.15.15 0 0 0-.202.081.151.151 0 0 0 .077.201l8.58 3.8c.077.035.168 0 .202-.074a.154.154 0 0 0-.078-.205m1.463-3.634-8.268-3.665a.15.15 0 0 0-.203.078.15.15 0 0 0 .078.2l8.268 3.67a.154.154 0 1 0 .125-.283m1.571-3.894-7.93-3.517a.153.153 0 0 0-.204.077.155.155 0 0 0 .078.205l7.93 3.517a.155.155 0 0 0 .125-.282m1.662-4.135-7.573-3.355a.151.151 0 0 0-.203.074c-.035.082 0 .17.078.205l7.572 3.362c.078.032.17 0 .204-.081a.157.157 0 0 0-.078-.205m1.859-4.618-7.173-3.178a.151.151 0 0 0-.202.074c-.035.081 0 .17.078.205l7.172 3.182c.078.031.17 0 .204-.078a.155.155 0 0 0-.079-.205m2.193-5.461-6.702-2.97a.154.154 0 0 0-.203.074c-.035.081 0 .17.078.205l6.702 2.97c.078.035.168 0 .203-.078a.151.151 0 0 0-.078-.2"/>
  <path d="M24.997 88.687 6.813 80.626l.414-.695 2.22-3.704 16.943 7.5-1.174 4.184-.219.776"/>
  <path fill="#55341b" d="m25.216 87.91-17.99-7.979 2.222-3.704 16.942 7.5-1.174 4.184"/>
  <path fill="#cfd0d0" d="m11.63 78.986 10.698 4.74c.078.04.17 0 .204-.073a.155.155 0 0 0-.079-.205l-10.698-4.745a.153.153 0 0 0-.203.078c-.034.078 0 .17.078.205"/>
  <path fill="#3f2518" d="m36.403 49.87-3.323-.154 1.112-2.505 2.783 1.231h.002zm.689-1.71-2.775-1.231 1.504-3.387 2.651 1.175c.002 0 .003.007.004.007l-1.384 3.436"/>
  <path fill="#8d745a" d="M36.977 48.442h-.002l-2.783-1.231.125-.282 2.775 1.23-.115.283"/>
  <path fill="#3f2518" d="m38.59 44.435-2.644-1.172 1.466-3.298 2.523 1.122h.003l-1.348 3.348m1.464-3.635-2.518-1.114 1.58-3.552 2.39 1.058-1.452 3.609"/>
  <path fill="#3f2518" d="m40.054 40.8 1.452-3.608-1.452 3.609m1.566-3.895-2.38-1.055 1.684-3.788 2.242.998h.003l-1.548 3.845m1.663-4.131-2.235-.991 1.897-4.269 2.065.918-.497 1.284-1.23 3.058m1.839-4.632-2.053-.906 2.264-5.098 1.803.8zm2.124-5.493-1.788-.79 2.948-6.632 1.461.65-2.621 6.772m2.621-6.773-1.461-.649.072-.166 1.456.646-.065.162-.002.007"/>
  <path fill="#8d745a" d="M38.476 44.724c-.001 0-.002-.007-.004-.007l-2.65-1.175.124-.279 2.644 1.172-.114.289m1.462-3.637h-.003l-2.523-1.122.124-.279 2.518 1.115-.116.286m1.568-3.895-2.39-1.058.125-.283 2.38 1.055-.115.286m1.664-4.131h-.004l-2.242-.998.125-.28 2.235.992-.115.286m1.842-4.628-2.065-.918.124-.278 2.053.906-.112.29m2.126-5.493-1.803-.801.125-.279 1.788.79-.11.29"/>
  <path fill="#fefefe" d="M49.105 15.334 18.7 85.06l.213.096 30.405-69.73-.212-.092m-1.75-.769L16.664 84.16l.212.092 30.691-69.596-.211-.092M15.178 83.501 46.027 14.29l-.21-.096-30.85 69.215.211.092m29.404-69.973-31.57 69.014.21.091 31.57-69.007-.21-.098"/>
  <path fill="#9f9fa0" d="M49.536 5.417a1.117 1.117 0 0 1-1.466.565 1.105 1.105 0 0 1-.56-1.46 1.107 1.107 0 1 1 2.026.895"/>
  <path fill="#8e8e8e" d="M49.317 5.315a.88.88 0 0 1-1.145.452.879.879 0 0 1-.445-1.154.87.87 0 0 1 1.15-.434c.435.19.632.702.44 1.136"/>
  <path fill="#9f9fa0" d="M47.594 9.799c-.248.56-.9.808-1.463.564a1.11 1.11 0 0 1 .9-2.032c.559.254.814.91.563 1.468"/>
  <path fill="#8e8e8e" d="M47.373 9.696a.867.867 0 1 1-1.584-.702.861.861 0 0 1 1.146-.433.857.857 0 0 1 .438 1.135"/>
  <path fill="#9f9fa0" d="M54.002 7.396a1.11 1.11 0 0 1-1.466.565c-.558-.254-.811-.903-.558-1.46.241-.562.9-.816 1.456-.565.563.247.815.896.568 1.46"/>
  <path fill="#8e8e8e" d="M53.78 7.298a.864.864 0 0 1-1.142.44.864.864 0 0 1-.443-1.142.861.861 0 0 1 1.146-.438.863.863 0 0 1 .44 1.14"/>
  <path fill="#6f6e6e" d="M53.422 7.139a.472.472 0 0 1-.625.25c-.244-.113-.352-.398-.244-.638a.475.475 0 0 1 .628-.24c.241.113.347.391.241.628"/>
  <path fill="#9f9fa0" d="M52.06 11.778c-.25.557-.905.811-1.463.564a1.11 1.11 0 1 1 1.463-.564"/>
  <path fill="#8e8e8e" d="M51.838 11.676c-.194.444-.71.642-1.144.444a.869.869 0 1 1 1.144-.444"/>
  <path fill="#fefefe" d="m50.289 16.173-6.66-2.952.425-.96 6.663 2.95-.428.962"/>
  <path fill="#fefefe" d="M46.074 14.177 48.63 5l-.222-.063-2.556 9.179.223.06"/>
  <path fill="#6f6e6e" d="M48.959 5.16a.485.485 0 0 1-.631.247.494.494 0 0 1-.243-.639.475.475 0 0 1 .63-.233c.24.11.347.385.244.625"/>
  <path fill="#fefefe" d="m44.865 13.46 1.824-4.063-.211-.092-1.824 4.06.211.096"/>
  <path fill="#6f6e6e" d="M47.017 9.545a.477.477 0 0 1-.63.236c-.24-.11-.348-.388-.24-.624.104-.247.389-.35.627-.247.243.11.346.395.243.635"/>
  <path fill="#fefefe" d="m47.608 14.554 5.475-7.539-.187-.137-5.475 7.539.187.137m1.762.752 1.78-3.934-.21-.095-1.781 3.937.21.092"/>
  <path fill="#6f6e6e" d="M51.483 11.524a.479.479 0 0 1-.629.24c-.243-.106-.35-.392-.243-.628a.476.476 0 0 1 .627-.244c.245.106.35.396.245.632"/>
  <path d="M23.214 87.135 8.986 80.83l.71-1.598 14.23 6.304-.712 1.598"/>
  <path fill="#8a4534" d="M9.825 90.874c-1.924-.966-3.785-2.07-5.358-3.5C1.773 84.93.626 81.177.626 77.32c0-1.245.12-2.497.345-3.721 1.034-5.606 4.338-8.76 8.03-12.32C6 70.866 4.844 81.77 9.824 90.875"/>
</svg>
