<svg xmlns="http://www.w3.org/2000/svg" xml:space="preserve" viewBox="0 0 512 512">
  <path d="M401.243 129.918a38.186 38.186 0 0 0-20.262-33.765c-16.639-8.868-37.614-4.1-48.796 11.093l-19.868 27.023c-1.573 2.139-3.96 3.312-6.646 3.21-2.645-.099-4.968-1.444-6.375-3.692l-47.357-75.639c-20.005-31.942-56.554-50.377-93.964-47.707-1.303.093-6.221.785-6.221.785C147.992 4.483 140.819 0 132.667 0a22.24 22.24 0 0 0-5.167.615c-10.701 2.597-17.834 12.797-16.606 23.638l48.847 480.623a7.925 7.925 0 0 0 7.885 7.123H314.22a7.928 7.928 0 0 0 5.62-13.517l-27.478-27.615a7.924 7.924 0 0 0-5.618-2.336H268.51L398.5 144.113a38.102 38.102 0 0 0 2.743-14.195zm-17.46 8.308L249.848 472.485a7.938 7.938 0 0 0-.569 2.949v1.025a7.927 7.927 0 0 0 7.926 7.926h26.244l11.703 11.763H174.789L126.656 22.559c-.341-3.011 1.63-5.822 4.55-6.531 3.617-.859 7.051 1.657 7.45 5.195l9.32 83.544c.006.077.014.154.022.233l41.267 369.883a7.925 7.925 0 0 0 3.394 6.05 7.937 7.937 0 0 0 11.661-3.057l173.42-333.575a16.605 16.605 0 0 0 .882-13.2 16.613 16.613 0 0 0-9.076-9.632c-2.606-1.114-5.465-1.537-8.193-1.231-5.126.525-9.625 3.332-12.346 7.7l-18.516 29.728c-6.781 10.884-18.486 17.442-31.312 17.54l-.293.001c-12.712 0-24.393-6.363-31.288-17.064l-48.995-76.021c-7.108-11.024-19.173-17.602-32.27-17.602h-.041a36.2 36.2 0 0 0-4.008.212c-8.396.88-15.902 4.4-21.743 9.693l-5.324-47.727.867-.172c32.651-3.506 64.977 12.183 82.419 40.033l47.356 75.636a23.696 23.696 0 0 0 19.218 11.122 23.732 23.732 0 0 0 20.015-9.659l19.867-27.021c6.545-8.896 18.827-11.689 28.57-6.495a22.361 22.361 0 0 1 11.864 19.775 22.386 22.386 0 0 1-1.61 8.309zM263.956 328.797l-12.095 23.264-25.909-229.272 17.853 27.701 20.151 178.307zm-1.215-151.932a52.576 52.576 0 0 0 15.887 10.189l10.538 93.253-12.104 23.283-14.321-126.725zm-23.985 200.403-12.095 23.264-36.135-319.767c6.02 1.132 11.352 4.673 14.753 9.947l1.328 2.06 32.149 284.496zm-25.2 48.473-11.38 21.889-38.378-343.987-.006-.691a22.485 22.485 0 0 1 11.091-19.449l38.673 342.238zm81.459-234.839c1.419.102 2.846.167 4.287.155a53.528 53.528 0 0 0 10.332-1.089l4.732 41.865-12.096 23.266-7.255-64.197zm29.928-6.633c7.63-4.294 14.19-10.491 19.006-18.222l18.516-29.729c.143-.228.353-.295.579-.318a.518.518 0 0 1 .27.044c.071.031.285.122.388.409a.66.66 0 0 1-.032.548l-36.2 69.627-2.527-22.359z"/>
</svg>
