<svg xmlns="http://www.w3.org/2000/svg" viewBox="0 0 72.757 96.126">
  <path fill="#f4bf6d" d="M8.135 89.468v4.586h.081c.692 1.105 5.828 2.004 12.072 2.068 6.72.07 12.185-.854 12.192-2.068v-4.586H8.135"/>
  <path fill="#e3b15d" d="M32.48 89.468c0 1.217-5.457 2.195-12.17 2.195-6.725 0-12.175-.978-12.175-2.195 0-1.203 5.45-2.183 12.174-2.183 6.714 0 12.171.98 12.171 2.183"/>
  <path fill="#e3b15d" d="M70.75 22.254c-8.344 13.955-16.246 28.148-24.166 42.333-2.416 4.329-4.85 8.636-7.373 12.908-1.979 3.359-4.522 6.622-5.874 10.308-.705 1.955-1.04 2.258-3.136 2.59l-.106.02c-3.058.477-6.106.844-9.136 1.475a468.47 468.47 0 0 0 3.037-4.078c11.278-15.254 21.71-30.998 31.725-47.12 1.556-2.498 3.105-5.006 4.65-7.504.483-.783 1.47-2.088 2.307-3.5 1.115-1.894 1.944-3.982.871-5.291-1.799-2.187-6.1 2.872-7.486 3.574-3.372 1.725-7.5 2.254-11.08.843-2.815-1.1-5.394-3.426-7.352-5.694 0 0-15.208-21.502-29.496-11.712L9.31 2.329c.063-.028.12-.057.183-.074C12.1 1.073 14.894.237 17.752.039 25.03-.458 31.217 3.846 35.81 9.13c3.45 3.969 5.521 10.47 10.231 13.124 2.35 1.323 6.237.716 8.498-.41 2.632-1.305 4.71-3.47 7.246-4.914 1.898-1.069 8.573-3.443 10.492-1.464 1.436 1.464-.734 5.465-1.527 6.788"/>
  <path fill="#e1a25a" d="m14.922 89.694-4.92.332-1.144-16.842-.106-1.704-.857-12.71-.123-1.704-.886-13.205-.042-.554-.106-1.693-.596-8.76-.12-1.696-.67-9.949-.117-1.704v-.003L4.064 2.198l4.928-.335.91 13.519.113 1.703.67 9.945.124 1.704.593 8.745.106 1.708.934 13.758.053.776.057.914.864 12.721.113 1.704 1.393 20.634m17.354-.55c0 1.033-2.808 1.873-6.273 1.873-3.457 0-6.265-.84-6.265-1.873 0-1.03 2.808-1.863 6.265-1.863 3.465 0 6.273.833 6.273 1.863"/>
  <path fill="#cf9654" d="M17.194 6.424c0 .52-.342.964-.822 1.108-.105.025-.222.053-.335.053-.642 0-1.15-.526-1.15-1.16a1.148 1.148 0 0 1 1.863-.91c.272.207.444.532.444.91"/>
  <path fill="#aa5e30" d="M16.372 7.532a1.037 1.037 0 0 1-.998-1.04c0-.572.462-1.041 1.034-1.041.123 0 .236.025.342.063.272.208.444.533.444.91 0 .52-.342.964-.822 1.108"/>
  <path fill="#cf9654" d="M22.567 7.162c0 .518-.342.966-.815 1.111-.106.025-.222.053-.342.053a1.166 1.166 0 0 1-1.157-1.164c0-.646.522-1.157 1.157-1.157.279 0 .522.091.713.254.271.208.444.532.444.903"/>
  <path fill="#aa5e30" d="M21.752 8.273a1.046 1.046 0 0 1-1.009-1.04 1.037 1.037 0 0 1 1.38-.974c.271.208.444.532.444.903 0 .518-.342.966-.815 1.111"/>
  <path fill="#cf9654" d="M27.975 10.062a1.158 1.158 0 0 1-1.15 1.157 1.164 1.164 0 0 1-1.164-1.157c0-.642.519-1.165 1.164-1.165.265 0 .512.096.713.258.264.205.437.536.437.907"/>
  <path fill="#aa5e30" d="M27.446 11.035a.462.462 0 0 0-.459-.43.457.457 0 0 0-.448.335 1.04 1.04 0 0 1 .65-1.845c.12 0 .243.014.349.06.264.205.437.536.437.907 0 .409-.208.769-.529.973"/>
  <path fill="#cf9654" d="M32.674 13.346a1.155 1.155 0 0 1-1.157 1.154 1.157 1.157 0 1 1 0-2.315 1.148 1.148 0 0 1 1.157 1.161"/>
  <path fill="#aa5e30" d="M32.082 14.355a.456.456 0 0 0-.438-.318h-.028a.474.474 0 0 0-.356.202 1.033 1.033 0 0 1-.399-.822 1.03 1.03 0 0 1 1.027-1.038c.123 0 .236.018.352.057a1.16 1.16 0 0 1-.158 1.919"/>
  <path fill="#cf9654" d="M36.604 17.332c0 .526-.342.963-.822 1.115a1.165 1.165 0 0 1-1.492-1.115c0-.638.522-1.157 1.164-1.157.265 0 .508.096.706.25.271.212.444.537.444.907"/>
  <path fill="#aa5e30" d="M35.239 18.267a1.057 1.057 0 0 1-.459-.86c0-.569.466-1.034 1.038-1.034.123 0 .243.014.342.053.271.211.444.536.444.906 0 .378-.173.706-.451.921a.457.457 0 0 0-.448-.384h-.036a.463.463 0 0 0-.43.398"/>
  <path fill="#cf9654" d="M41.127 23.45c0 .525-.353.97-.822 1.107a1.058 1.058 0 0 1-.335.053 1.159 1.159 0 0 1 0-2.318c.278 0 .511.089.712.254.272.205.445.533.445.904"/>
  <path fill="#aa5e30" d="m40.446 24.508-.014-.124a.463.463 0 0 0-.455-.423h-.039a.47.47 0 0 0-.378.247 1.055 1.055 0 0 1-.257-.68c0-.583.473-1.038 1.037-1.038.12 0 .244.014.342.056a1.156 1.156 0 0 1-.236 1.961"/>
  <path fill="#cf9654" d="M46.327 27.051c0 .515-.35.963-.822 1.101a1.148 1.148 0 0 1-1.492-1.1c0-.646.504-1.161 1.157-1.161.271 0 .515.088.712.247.272.204.445.532.445.913"/>
  <path fill="#aa5e30" d="m45.79 28.022-.02-.307a.459.459 0 0 0-.46-.427h-.035a.457.457 0 0 0-.426.494l.007.113a1.027 1.027 0 0 1-.353-.777 1.037 1.037 0 0 1 1.38-.98c.27.204.444.532.444.913 0 .403-.215.762-.536.97"/>
  <path fill="#cf9654" d="M53.69 27.75c0 .518-.35.96-.82 1.1a1.09 1.09 0 0 1-.33.057c-.65 0-1.165-.526-1.165-1.157 0-.646.515-1.16 1.164-1.16.265 0 .508.091.71.243.27.215.44.543.44.917"/>
  <path fill="#aa5e30" d="m53.026 28.79-.028-.352a.463.463 0 0 0-.459-.424h-.035a.459.459 0 0 0-.427.424 1.03 1.03 0 0 1 .829-1.651c.12 0 .236.007.342.046a1.16 1.16 0 0 1-.222 1.958"/>
  <path fill="#cf9654" d="m15.822 7.37 5.373 79.953a.462.462 0 0 0 .494.43.452.452 0 0 0 .427-.49L16.743 7.306a.46.46 0 0 0-.49-.43.465.465 0 0 0-.43.494m5.301.727 5.285 79.967a.46.46 0 0 0 .494.43.45.45 0 0 0 .427-.49l-5.285-79.97a.46.46 0 1 0-.92.063m5.4 3.002 4.657 71.973a.465.465 0 0 0 .494.434.454.454 0 0 0 .427-.49L27.446 11.04a.46.46 0 0 0-.494-.43.457.457 0 0 0-.427.49m4.657 3.431 4.251 63.987a.457.457 0 1 0 .914-.063l-4.244-63.987a.458.458 0 0 0-.487-.43.468.468 0 0 0-.434.493m4.057 3.828 3.609 54.518a.462.462 0 0 0 .92-.06L36.16 18.3a.464.464 0 0 0-.49-.43.457.457 0 0 0-.431.49m4.279 6.102 3.038 37.758a.46.46 0 0 0 .497.423.46.46 0 0 0 .423-.497l-3.044-37.762a.463.463 0 0 0-.494-.423.46.46 0 0 0-.42.501m5.331 3.32 2.356 31.601a.464.464 0 0 0 .928-.07l-2.364-31.598a.462.462 0 0 0-.92.067m7.228.73 1.556 19.576c.021.257.25.448.5.426a.455.455 0 0 0 .42-.497l-1.555-19.58a.461.461 0 1 0-.92.075"/>
  <path fill="#e1a25a" d="M14.958 89.874c0 .543-1.122.98-2.523.98-1.382 0-2.511-.437-2.511-.98 0-.543 1.129-.984 2.511-.984 1.4 0 2.523.44 2.523.984m55.792-67.62c-8.344 13.955-16.246 28.148-24.166 42.333-2.416 4.329-4.85 8.636-7.373 12.908-1.979 3.359-4.522 6.622-5.874 10.308-.705 1.955-1.04 2.258-3.136 2.59-.564-.237-1.383-.413-2.328-.568-2.865-.462-6.844-.674-8.135-1.214 7.387-9.99 16.238-20.528 24.267-31.14 4.24-5.598 8.255-11.221 11.716-16.781 1.556-2.498 3.105-5.006 4.65-7.504.483-.783 1.47-2.088 2.307-3.5l.085-.091c1.421-1.58 3.82-4.52 2.444-6.82-1.838-3.058-5.729-.102-7.517 1.172-1.912 1.351-3.64 2.053-5.712 2.212-.617.053-1.266.053-1.95.01-3.796-.225-6.717-1.739-9.261-4.59-.536-.592-1.034-1.333-1.429-2.017C23.774-2.875 10.245 4.879 10.245 4.879s-.314-1.122-.752-2.624C12.1 1.073 14.894.237 17.752.039 25.03-.458 31.217 3.846 35.81 9.13c3.45 3.969 5.521 10.47 10.231 13.124 1.75.984 4.343.9 6.491.331a10.83 10.83 0 0 0 2.007-.74c2.632-1.306 4.71-3.472 7.246-4.915 1.898-1.069 8.573-3.443 10.492-1.464 1.436 1.464-.734 5.465-1.527 6.788"/>
  <path fill="#e3b15d" d="m12.552 54.635-.057-.914-.053-.776z"/>
  <path fill="#f6bf42" d="m7.895 58.77-.123-1.704 4.35-3.839c.123.166.243.332.373.494l-.053-.776.053.776.057.914-4.657 4.135m.963 14.414-.106-1.704 4.664-4.124.113 1.704-4.67 4.124"/>
  <path fill="#d68d47" d="M30.201 90.393c-.564-.237-1.383-.413-2.328-.568 7.144-10.478 12.35-21.675 16.132-32.354 4.24-5.598 8.255-11.221 11.716-16.781 1.556-2.498 3.105-5.006 4.65-7.504.483-.783 1.47-2.088 2.307-3.5l.085-.091c1.114-1.249 2.85-3.34 2.857-5.295a2.9 2.9 0 0 0-.413-1.524c-.585-.977-1.386-1.34-2.257-1.34-1.852 0-4.043 1.643-5.26 2.51-1.912 1.352-3.64 2.054-5.712 2.213.205-1.235.385-2.434.554-3.574a10.83 10.83 0 0 0 2.007-.74c2.632-1.306 4.71-3.472 7.246-4.915 1.37-.772 5.236-2.226 8.001-2.226 1.062 0 1.955.215 2.491.762.346.35.48.843.48 1.408 0 1.81-1.408 4.37-2.007 5.38-8.344 13.955-16.246 28.148-24.166 42.333-2.416 4.329-4.85 8.636-7.373 12.908-1.979 3.359-4.522 6.622-5.874 10.308-.705 1.955-1.04 2.258-3.136 2.59"/>
  <path fill="#d88e48" d="M12.121 53.227c-2.014-2.751-3.75-5.969-5.235-9.366l-.042-.554 4.664-4.12.934 13.758zM6.738 41.614l-.596-8.76 4.667-4.12.593 8.745zm-.716-10.456-.67-9.949 4.663-4.124.67 9.945-4.663 4.128m-.787-11.656L4.064 2.198l4.928-.335.91 13.519-4.667 4.12"/>
  <path fill="#e9a637" d="m5.352 21.21-.117-1.705v-.003l4.667-4.12.113 1.703-4.663 4.124m.79 11.646-.12-1.697 4.664-4.128.123 1.704-4.667 4.12m.702 10.453-.106-1.693 4.664-4.135.106 1.708-4.664 4.12m5.651 10.414c-.13-.162-.25-.328-.374-.494l.321-.282.053.776"/>
  <path fill="#e3b15d" d="M0 2.71c.014.13.021.26.042.384.445 3.278 3.458 5.574 6.731 5.12a5.977 5.977 0 0 0 5.123-6.732c-.014-.13-.046-.265-.074-.388L0 2.71"/>
</svg>
