<svg id="JSBach" xmlns="http://www.w3.org/2000/svg" version="1.0" viewBox="0 0 240 48">
  <path fill="#57728b" transform="scale(0.6667 0.6667)"
    d="M18.193 67.45c-1.513-.61-1.065-3.275 1.007-5.993 2.757-3.614 12.717-11.343 15.277-11.855 3.954-.791 4.73-4.413 1.359-6.332-2.566-1.46-2.66-2.193-1.015-7.908 1.025-3.56 2.044-5.015 6.68-9.536 5.615-5.477 8.22-7.025 9.187-5.462.624 1.01-.318 6.782-1.452 8.901-1.099 2.053-.94 3.754.351 3.754 1.809 0 1.274 1.285-.746 1.792-1.254.314-2.36 1.529-3.392 3.724-.842 1.792-2.178 3.843-2.969 4.559-2.143 1.939-1.75 2.756 1.163 2.416 2.014-.236 2.6-.036 2.6.884 0 .654-.395 1.584-.879 2.068-.483.484-.66 1.098-.393 1.365.267.267 1.455-.551 2.639-1.819 2.282-2.443 3.176-2.468 2.55-.071-.48 1.835-4.022 4.401-6.075 4.401-1.165 0-1.557-.467-1.557-1.857 0-3.062-2.63-2.37-4.946 1.3-2.79 4.422-9.666 11.527-13.59 14.043-3.303 2.118-4.057 2.33-5.8 1.627zm5.633-3.53c3.472-1.795 11.908-11.582 9.984-11.582-1.703 0-13.137 8.942-14.363 11.232-.622 1.164-.487 1.4.8 1.4.852 0 2.463-.472 3.58-1.05zm17.96-23.844c.56-.675.746-2.023.469-3.408-.395-1.977-.051-2.695 2.508-5.228 2.837-2.809 4.077-6.595 2.16-6.595-1.084 0-8.88 8.157-9.587 10.031-.309.818-.399 2.573-.2 3.901.284 1.908.713 2.415 2.042 2.415.925 0 2.099-.502 2.609-1.116zm3.343-5.447c0-1.344-1.454-1.099-1.743.294-.16.774.118 1.114.743.906.55-.184 1-.724 1-1.2zM163.66 62.184c.007-.307 1.511-3.05 3.344-6.097 1.832-3.046 3.331-6.148 3.331-6.892 0-1.26-.152-1.275-2.192-.22-2.71 1.402-4.066 1.433-5.157.118-.641-.773-.574-1.24.28-1.949 1.205-.999 1.534-2.98.497-2.98-.846 0-2.743 2.268-3.374 4.034-.485 1.358-.577 1.366-1.784.143-1.204-1.219-1.12-1.43 1.552-3.893 3.469-3.197 6.834-3.337 6.834-.283 0 1.388.375 1.837 1.486 1.778 3.12-.167 3.794-.824 6.478-6.324 4.066-8.332 7.721-11.92 16.538-16.236 4.885-2.391 7.782-3.42 8.5-3.018.816.457.149 1.133-2.679 2.712-2.611 1.458-4.024 2.816-4.608 4.43-.463 1.28-1.506 2.928-2.318 3.663-1.623 1.469-1.961 4.782-.624 6.119.641.641.18 1.249-1.858 2.451-1.49.88-2.71 1.737-2.71 1.906 0 .169 1.293.1 2.874-.152 3.192-.511 6.043.604 6.043 2.362 0 1.624-2.133 5.51-3.025 5.51-.458 0-.571-.993-.286-2.516.61-3.246-.461-3.893-4.328-2.617-2.114.698-3.696 1.954-5.265 4.18-2.323 3.295-3.017 3.73-3.838 2.402-.265-.43 1.086-2.457 3.002-4.506 3.131-3.347 3.437-3.98 3.012-6.246-.404-2.155-.111-2.93 2.024-5.34 2.883-3.255 4.989-6.24 4.989-7.071 0-1.318-2.958-.427-5.628 1.695-4.099 3.257-5.984 6.23-8.862 13.969-1.716 4.617-4.02 8.868-7.115 13.127-4.437 6.107-5.16 6.915-5.133 5.74zm172.075-5.312c-1.214-1.342-1.194-1.47.422-2.6 2.092-1.467 3.624-1.507 5.488-.143 1.406 1.028 1.406 1.076.027 2.6-1.75 1.935-4.261 1.995-5.937.143zm-41.515-1.273c-1.228-1.228-.378-4.176 1.957-6.788 2.324-2.599 4.194-5.478 4.194-6.455 0-.231-2.153-.42-4.786-.42-2.632 0-5.002-.35-5.265-.776-.264-.427.066-1.61.734-2.628l1.213-1.851 1.923 1.512c2.052 1.615 4.985 1.931 7.838.847.964-.367 3.17-2.86 4.904-5.54 3.918-6.058 6.413-8.18 8.38-7.126.774.414 1.407 1.25 1.407 1.857 0 2.427-3.986 6.922-8.916 10.053-2.84 1.804-5.173 3.679-5.183 4.167-.011.487.683 1.379 1.543 1.98 1.326.93 1.484 1.551 1.049 4.13-.468 2.77-.373 3.034 1.087 3.034.88 0 2.164-.295 2.852-.657.726-.38 4.567-.375 9.152.015 8.797.749 11.79.161 11.79-2.312 0-.842.492-1.504 1.115-1.504 2.284 0 1.112 2.953-1.985 5.003-2.385 1.578-3.886 2.02-6.502 1.918-1.87-.073-7.824-.188-13.229-.255l-9.827-.123 1.15-2.226c.634-1.224.932-2.446.662-2.714-.49-.49-2.405 1.464-5.213 5.325-.83 1.139-1.749 1.83-2.044 1.534zm3.179-4.747c0-.409-.147-.743-.328-.743-.18 0-.534.334-.787.743-.252.409-.105.743.328.743s.787-.334.787-.743zm13.72-17.167c2.518-2.21 3.452-4.382 1.884-4.382-.964 0-5.944 5.3-5.944 6.325 0 .952 1.679.148 4.06-1.943zM116.836 52.867c-2.658-1.337-2.84-4.444-.404-6.88 3.226-3.226 7.279-1.04 4.889 2.636-.597.918-.988.951-2.224.186-2.078-1.289-2.4-1.177-2.127.735.47 3.294 5.121 2.598 9.585-1.435 3.86-3.487 5.991-7.195 8.887-15.462 3.216-9.179 6.321-14.782 10.984-19.82 4.095-4.424 9.48-7.583 14.415-8.456 2.436-.431 3.043-.21 5.108 1.855 2.056 2.056 2.295 2.707 1.946 5.307-.547 4.084-3.52 7.71-7.594 9.266-3.834 1.464-5.3 1.004-2.109-.663 6.342-3.311 10.14-11.737 5.784-12.83-8.255-2.072-17.816 5.062-21.971 16.394-.905 2.469-3.373 8.167-5.484 12.662-3.038 6.47-4.642 8.92-7.69 11.748-3.364 3.12-7.75 5.738-9.557 5.703-.32-.006-1.417-.431-2.438-.946zm-59.259-.948c-1.238-.91-1.236-1.068.041-3.24.739-1.257 1.008-2.285.6-2.285-.41 0-1.336 1.003-2.06 2.229-.725 1.226-1.58 2.23-1.9 2.23-1.187 0-.527-2.535 1.275-4.897 1.756-2.302 2.514-5.51 1.3-5.504-.306.002-1.685.69-3.063 1.53-2.803 1.71-4.553 1.452-4.553-.669 0-1.082.686-1.503 2.944-1.806 3.778-.507 8.248-2.732 9.265-4.613 4.438-8.203 8.276-12.154 10.065-10.363 1.105 1.105-1.21 4.986-5.99 10.04-2.775 2.935-4.395 5.286-4.395 6.378 0 .951.334 1.73.743 1.73 1.216 0 .848 2.254-.804 4.927l-1.547 2.503h2.381c1.948 0 2.225.188 1.524 1.032-1.23 1.483-4.307 1.894-5.826.778zm9.43-20.871c.853-1.085 1.386-2.135 1.186-2.336-.49-.49-2.538 1.263-3.439 2.945-1.121 2.096.462 1.668 2.253-.61zm26.471 21.366c-.987-.387-1.162-.732-.557-1.106.484-.299.88-1.066.88-1.705 0-.966-.195-1-1.153-.206-.973.808-1.217.707-1.572-.652-.553-2.113-1.917-2.034-4.07.237-2.05 2.16-2.865 2.343-2.865.64 0-1.144-.095-1.144-1.36 0-1.783 1.614-2.356 1.552-2.356-.256 0-.822-.495-1.486-1.108-1.486-.61 0-1.526.669-2.036 1.486-.972 1.556-3.193 1.92-4.944.812-.632-.4-1.98-.255-3.49.376-1.673.699-2.615.778-2.943.247-.85-1.375 1.105-4.726 3.767-6.457 2.192-1.427 2.808-1.538 4.095-.743 1.068.659 1.393 1.43 1.101 2.607-.557 2.25 1.023 2.183 4.518-.188 1.834-1.244 3.024-1.625 3.597-1.15.806.67 1.682.793 5.246.738.817-.012 2.394-.022 3.505-.022 1.11 0 2.217-.319 2.459-.71.242-.391 1.247-.711 2.235-.711 1.598 0 1.746.244 1.349 2.229-.407 2.033-.243 2.27 1.864 2.691 2.82.564 2.339 1.767-.705 1.767-1.278 0-2.39.47-2.637 1.115-.471 1.23-.722 1.269-2.82.447zm-22.086-6.661c-1.11-.395-2.366 1.115-1.754 2.107.365.59.832.438 1.519-.493.614-.833.703-1.447.235-1.614zm211.642 6.09c-.272-.273-.495-1.108-.495-1.858 0-1.67-.655-1.713-2.834-.187-1.182.828-2.504 1.036-4.471.704-1.536-.26-3.752-.107-4.924.338-1.557.592-2.35.585-2.94-.026-.588-.61.573-2.126 4.293-5.6 4.644-4.338 6.886-5.535 8.098-4.323.243.243-.202 1.497-.988 2.787-.787 1.29-1.431 2.639-1.433 2.999-.006 1.346 5.542-.31 8.204-2.45 3.323-2.67 4.354-2.19 1.804.84-1.01 1.201-1.837 2.503-1.837 2.893 0 1.273 2.289 1.625 4.136.637 2.975-1.593 2.791-.342-.261 1.773-2.744 1.902-5.325 2.5-6.352 1.473zm-7.926-6.374c0-.415-.493-.334-1.114.182-.613.508-1.115 1.26-1.115 1.668 0 .414.493.334 1.115-.182.613-.509 1.114-1.26 1.114-1.668zm-139.139 4.968c-1.123-1.161-.51-4.157 1.201-5.869.967-.966 3.14-2.463 4.83-3.325l3.072-1.567v1.704c0 1.191-.798 2.133-2.652 3.132-1.459.785-2.978 2.037-3.376 2.78-1.129 2.11 1.038 2.454 5.422.86l3.815-1.387 4.556-9.085c4.618-9.209 7.332-12.863 10.96-14.76 2.767-1.444 2.824-1.409 2.824 1.78 0 3.244-2.767 8.01-6.963 11.994-1.483 1.408-2.698 3.08-2.7 3.715-.006 2.645-3.08 6.117-7.003 7.914-4.015 1.838-12.946 3.188-13.986 2.114zm22.598-15.003c3.155-3.317 6.568-8.33 6.568-9.647 0-3.219-6.578 3.647-9.072 9.469-1.586 3.702-.895 3.75 2.504.178zm81.012 14.588c-3.685-1.082-2.836-2.945 1.975-4.338 3.56-1.031 6.804-3.552 6.804-5.287 0-.347-1.338-1.032-2.972-1.522-2.964-.888-2.973-.901-2.965-4.674.008-4.623 2.19-9.573 7.012-15.914 5.148-6.77 10.232-10.15 18.016-11.982 4.97-1.169 6.453-.637 8.344 2.99 2.281 4.377 2.044 8.693-.685 12.46-2.545 3.514-2.656 4.04-1.114 5.32 1.405 1.166 1.45 5.951.086 9.126-1.143 2.659-5.23 6.74-9.733 9.72-3.552 2.351-3.824 2.377-4.846.468-.656-1.227-.456-1.833 1.131-3.42 1.803-1.803 2.018-1.85 3.277-.71 1.88 1.7 4.445.413 6.986-3.507 2.327-3.587 2.544-7.106.59-9.52l-1.396-1.723-3.226 1.454c-6.465 2.914-18.134 13.121-18.134 15.862 0 .69 1.345 1.651 3.344 2.39 1.84.68 3.344 1.692 3.344 2.25 0 1.255-12.02 1.677-15.838.557zm12.826-14.282c.747-.546 1.215-1.426 1.039-1.954-.225-.672-.98-.381-2.518.97-2.34 2.057-1.108 2.876 1.479.984zm-2.283-2.07c1.927-1.277 5.388-4.454 7.69-7.06 2.301-2.605 4.627-4.737 5.168-4.737 1.152 0 1.31 1.196.243 1.855-.406.251-1.084 1.102-1.506 1.89-.709 1.324-.61 1.375 1.272.66 1.121-.427 2.464-1.128 2.983-1.559.519-.43 1.736-.584 2.706-.34 4.384 1.1 8.407-9.757 5.273-14.23-2.472-3.53-11.147-1.341-18.579 4.686-1.659 1.346-4.752 5.016-6.873 8.156-3.347 4.954-3.856 6.19-3.856 9.354 0 4.386.627 4.538 5.479 1.325zm9.242-2.834c.186-.557-.092-.836-.65-.65-.536.178-1.121.764-1.3 1.3-.186.557.093.836.65.65.537-.179 1.122-.764 1.3-1.3zm-61.171 17.03c-.717-1.16 2.328-5.564 4.544-6.574 2.796-1.274 3.063-.493.565 1.657-1.17 1.008-1.923 2.039-1.67 2.291.25.253 1.923-.766 3.714-2.264 2.845-2.379 3.287-2.547 3.487-1.325.531 3.24.74 3.37 3.287 2.043 1.336-.697 3.599-1.502 5.03-1.79 1.43-.29 3.185-.77 3.9-1.07 1.073-.449 1.3-.148 1.3 1.721 0 1.246.351 2.482.78 2.746 1.142.706-.628 2.579-2.436 2.579-1.043 0-1.342-.346-1.021-1.182.817-2.13-.358-2.59-2.58-1.008-1.911 1.362-2.235 1.408-2.63.376-.4-1.041-.731-1.004-2.872.318-2.94 1.818-4.547 1.896-5.46.266-.626-1.12-.891-1.086-2.938.371-2.435 1.734-4.26 2.043-5 .845zm-.611-13.114c-.94-.938-.493-3.062.743-3.536 1.821-.699 2.767.615 1.776 2.466-.86 1.607-1.648 1.942-2.52 1.07z" />
</svg>