<svg xmlns="http://www.w3.org/2000/svg" viewBox="0 0 96.157 40.545">
  <path d="M96.157 0c-13.461 25.253-1.093 4.994-.603 5.47v32.432c-.001 1.46-1.068 2.644-2.382 2.643H2.412c-.631.003-1.238-.274-1.685-.771a2.812 2.812 0 0 1-.698-1.872V5.257c0-.079-.062-.251-.004-.222l7.332 3.684c8.568 4.305 22.009 5.16 32.518 1.712 3.394-1.118 26.721.555 30.622.555 15.97 0-18.74 13.177-17.108.584l13.265.973 11.253-1.723c9.228-1.413 12.503.407 18.25-10.82"/>
  <path fill="#303031" d="M42.65 40.545H2.414a2.37 2.37 0 0 1-1.686-.694 2.404 2.404 0 0 1-.698-1.685V5.47c5.095 8.304 18.37 26.183 42.62 35.075"/>
  <path fill="#d5d6d6" d="M2.879 36.61h87.53V11.227H2.88V36.61"/>
  <path fill="#c5c6c7" d="M2.879 36.61h5.909V12.543h-5.91V36.61"/>
  <path fill="#fefefe" d="M2.879 35.3h5.909V11.226h-5.91V35.3"/>
  <path fill="#c5c6c7" d="M9.173 36.61h5.9V12.543h-5.9V36.61"/>
  <path fill="#fefefe" d="M9.173 35.3h5.9V11.226h-5.9V35.3"/>
  <path fill="#c5c6c7" d="M15.68 36.61h5.91V12.543h-5.91V36.61"/>
  <path fill="#fefefe" d="M15.68 35.3h5.91V11.226h-5.91V35.3"/>
  <path fill="#c5c6c7" d="M22.042 36.61h5.905V12.543h-5.905V36.61"/>
  <path fill="#fefefe" d="M22.042 35.3h5.905V11.226h-5.905V35.3"/>
  <path fill="#c5c6c7" d="M28.465 36.61h5.91V12.543h-5.91V36.61"/>
  <path fill="#fefefe" d="M28.465 35.3h5.917V11.226h-5.916V35.3"/>
  <path fill="#c5c6c7" d="M34.897 36.61h5.906V12.543h-5.906V36.61"/>
  <path fill="#fefefe" d="M34.897 35.3h5.906V11.226h-5.906V35.3"/>
  <path fill="#c5c6c7" d="M41.296 36.61h5.91V12.543h-5.91V36.61"/>
  <path fill="#fefefe" d="M41.296 35.3h5.91V11.226h-5.91V35.3"/>
  <path fill="#c5c6c7" d="M47.725 36.61h5.912V12.543h-5.913V36.61"/>
  <path fill="#fefefe" d="M47.72 35.3h5.917V11.226H47.72V35.3"/>
  <path fill="#c5c6c7" d="M54.317 36.61h5.91V12.543h-5.91V36.61"/>
  <path fill="#fefefe" d="M54.317 35.3h5.91V11.226h-5.91V35.3"/>
  <path fill="#c5c6c7" d="M60.742 36.61h5.912V12.543h-5.912V36.61"/>
  <path fill="#fefefe" d="M60.742 35.3h5.912V11.226h-5.912V35.3"/>
  <path fill="#c5c6c7" d="M67.116 36.61h5.916V12.543h-5.916V36.61"/>
  <path fill="#fefefe" d="M67.123 35.3h5.91V11.226h-5.91V35.3"/>
  <path fill="#c5c6c7" d="M73.55 36.61h5.906V12.543H73.55V36.61"/>
  <path fill="#fefefe" d="M73.55 35.3h5.906V11.226H73.55V35.3"/>
  <path fill="#c5c6c7" d="M79.837 36.61h5.91V12.543h-5.91V36.61"/>
  <path fill="#fefefe" d="M79.837 35.3h5.91V11.226h-5.91V35.3"/>
  <path fill="#c5c6c7" d="M86.269 36.61h5.909V12.543h-5.91V36.61"/>
  <path fill="#fefefe" d="M86.269 35.3h5.909V11.226h-5.91V35.3"/>
  <path fill="#dcdddd" d="M8.788 35.3h-5.91V18.273c.73 1.685 2.086 3.526 4.485 5.318v1.258h.003v1.063h1.422V35.3m6.287 0H9.172v-9.386h1.033v-.498c1.383.76 2.999 1.502 4.868 2.214v7.67m6.517 0h-5.91v-7.453c1.744.641 3.705 1.236 5.91 1.801V35.3m6.357 0h-5.905v-5.545A93.91 93.91 0 0 0 27.947 31v4.3m6.435 0h-5.916v-4.21c1.84.314 3.813.613 5.916.88v3.33m6.42 0h-5.905v-3.264c1.863.227 3.828.427 5.906.605v2.66m6.399 0h-5.906v-2.61c1.884.16 3.85.288 5.906.408v2.2m6.435.001H47.72v-2.175c1.89.094 3.866.182 5.916.24V35.3m6.59 0h-5.91v-1.917a225.7 225.7 0 0 0 5.91.102V35.3m6.428 0h-5.913v-1.81c.797.01 1.605.013 2.423.013 1.143 0 2.304-.008 3.49-.022v1.82m6.377 0h-5.91v-1.82c1.913-.022 3.88-.058 5.91-.116V35.3m6.424 0H73.55v-1.943a626.57 626.57 0 0 0 5.905-.2V35.3m6.29 0h-5.91v-2.162a533.16 533.16 0 0 0 5.91-.272v2.433m6.432.001h-5.91v-2.455c1.923-.116 3.895-.218 5.91-.35V35.3"/>
  <path fill="#595351" d="M7.366 25.913h2.84v-14.42h-2.84v14.42"/>
  <path fill="#393434" d="M7.363 24.85h2.843V10.431H7.363v14.42"/>
  <path fill="#eeeeef" d="M9.67 24.85h.173V10.431H9.67v14.42"/>
  <path fill="#343434" d="M10.206 24.85h-2.84 2.84"/>
  <path fill="#282526" d="M10.206 24.85h-.363v-1.57c.116.24.236.472.363.685zm-.536 0H7.363V10.431s.346 8.026 2.307 12.476v1.943"/>
  <path fill="#787a7d" d="M9.843 24.85H9.67v-1.943c.053.13.11.253.173.373v1.57"/>
  <path fill="#595351" d="M13.656 25.913H16.5v-14.42h-2.845v14.42"/>
  <path fill="#393434" d="M13.656 24.85H16.5V10.431h-2.845v14.42"/>
  <path fill="#eeeeef" d="M15.96 24.85h.173V10.431h-.173v14.42"/>
  <path fill="#343434" d="M16.5 24.85h-2.845 2.844"/>
  <path fill="#282526" d="M16.5 24.85h-.367v-1.574c.116.245.236.476.367.69zm-.54 0h-2.304V10.431s.35 8.025 2.304 12.476v1.943"/>
  <path fill="#787a7d" d="M16.133 24.85h-.173v-1.943c.06.125.113.25.173.37v1.573"/>
  <path fill="#595351" d="M26.529 25.913h2.84v-14.42h-2.84v14.42"/>
  <path fill="#393434" d="M26.525 24.85h2.844V10.431h-2.843v14.42"/>
  <path fill="#eeeeef" d="M28.829 24.85h.173V10.431h-.173v14.42"/>
  <path fill="#343434" d="M29.369 24.85h-2.84 2.84"/>
  <path fill="#282526" d="M29.369 24.85h-.367v-1.574c.12.245.24.476.367.69zm-.54 0h-2.303V10.431s.345 8.017 2.303 12.472v1.947"/>
  <path fill="#787a7d" d="M29.002 24.85h-.173v-1.947c.057.13.113.253.173.373v1.574"/>
  <path fill="#595351" d="M33.479 25.913h2.84v-14.42h-2.84v14.42"/>
  <path fill="#393434" d="M33.479 24.85h2.84V10.431h-2.84v14.42"/>
  <path fill="#eeeeef" d="M35.775 24.85h.177V10.431h-.177v14.42"/>
  <path fill="#343434" d="M36.319 24.85h-2.84 2.84"/>
  <path fill="#282526" d="M36.319 24.85h-.367v-1.574c.12.245.24.476.367.69zm-.544 0h-2.296V10.431s.346 8.02 2.296 12.472v1.947"/>
  <path fill="#787a7d" d="M35.952 24.85h-.177v-1.947c.06.13.117.253.177.373v1.574"/>
  <path fill="#595351" d="M39.882 25.913h2.84v-14.42h-2.84v14.42"/>
  <path fill="#393434" d="M39.875 24.85h2.847V10.431h-2.847v14.42"/>
  <path fill="#eeeeef" d="M42.185 24.85h.166V10.431h-.166v14.42"/>
  <path fill="#343434" d="M42.722 24.85h-2.84 2.84"/>
  <path fill="#282526" d="M42.722 24.85h-.367v-1.574c.113.245.24.476.367.69zm-.537 0h-2.31V10.431s.349 8.025 2.31 12.476v1.943"/>
  <path fill="#787a7d" d="M42.355 24.85h-.17v-1.943c.053.13.11.25.17.37v1.573"/>
  <path fill="#595351" d="M52.215 25.913h2.843v-14.42h-2.843v14.42"/>
  <path fill="#393434" d="M52.215 24.85h2.843V10.431h-2.843v14.42"/>
  <path fill="#eeeeef" d="M54.519 24.85h.169V10.431h-.17v14.42"/>
  <path fill="#343434" d="M55.058 24.85h-2.843 2.843"/>
  <path fill="#282526" d="M55.058 24.85h-.37v-1.578c.12.244.243.475.37.693zm-.54 0h-2.303V10.431s.342 8.02 2.304 12.476v1.943"/>
  <path fill="#787a7d" d="M54.688 24.85h-.17v-1.943c.057.125.11.245.17.365v1.578"/>
  <path fill="#595351" d="M58.808 25.913h2.847v-14.42h-2.847v14.42"/>
  <path fill="#393434" d="M58.808 24.85h2.847V10.431h-2.847v14.42"/>
  <path fill="#eeeeef" d="M61.112 24.85h.173V10.431h-.173v14.42"/>
  <path fill="#343434" d="M61.655 24.85h-2.847 2.847"/>
  <path fill="#282526" d="M61.655 24.85h-.37v-1.578c.116.244.24.475.37.693zm-.543 0h-2.304V10.431s.346 8.017 2.304 12.472v1.947"/>
  <path fill="#787a7d" d="M61.285 24.85h-.173v-1.947c.056.124.11.25.173.37v1.577"/>
  <path fill="#595351" d="M72.125 25.913h2.844v-14.42h-2.843v14.42"/>
  <path fill="#393434" d="M72.125 24.85h2.844V10.431h-2.843v14.42"/>
  <path fill="#eeeeef" d="M74.433 24.85h.173V10.431h-.173v14.42"/>
  <path fill="#343434" d="M74.969 24.85h-2.843 2.843"/>
  <path fill="#282526" d="M74.969 24.85h-.363v-1.57c.116.245.236.472.363.685zm-.536 0h-2.308V10.431s.349 8.03 2.307 12.48v1.94"/>
  <path fill="#787a7d" d="M74.605 24.85h-.172v-1.939c.056.125.116.25.173.37v1.57"/>
  <path fill="#595351" d="M78.415 25.913h2.848v-14.42h-2.848v14.42"/>
  <path fill="#393434" d="M78.415 24.85h2.848V10.431h-2.848v14.42"/>
  <path fill="#eeeeef" d="M80.723 24.85h.173V10.431h-.173v14.42"/>
  <path fill="#343434" d="M81.263 24.85h-2.848 2.847"/>
  <path fill="#282526" d="M81.263 24.85h-.367v-1.565c.116.24.24.467.367.68zm-.54 0h-2.308V10.431s.349 8.03 2.307 12.48v1.94"/>
  <path fill="#787a7d" d="M80.895 24.85h-.172v-1.939l.173.374v1.565"/>
  <path fill="#595351" d="M84.328 25.913h2.847v-14.42h-2.847v14.42"/>
  <path fill="#393434" d="M84.325 24.85h2.85V10.431h-2.85v14.42"/>
  <path fill="#eeeeef" d="M86.632 24.85h.17V10.431h-.17v14.42"/>
  <path fill="#343434" d="M87.175 24.85h-2.847 2.847"/>
  <path fill="#282526" d="M87.175 24.85H86.8v-1.578c.12.244.244.475.374.693zm-.543 0h-2.307V10.431s.349 8.02 2.307 12.472v1.947"/>
  <path fill="#787a7d" d="M86.8 24.85h-.17v-1.947c.058.124.11.25.17.37v1.577"/>
  <path fill="#9f9fa0" d="M92.22 11.036a.67.67 0 0 1-.667.675H3.518a.672.672 0 0 1-.67-.675c0-.369.3-.667.67-.667h88.035c.37 0 .667.298.667.667"/>
  <path d="M.029 15.975h95.525V5.47H.029v10.506"/>
</svg>
