<svg xmlns="http://www.w3.org/2000/svg" viewBox="0 0 96.124 83.757">
  <path fill="#822c23" d="M87.547 40.094v29.382l-2.816.233L3.49 76.571v-42.8l84.058 6.323"/>
  <path fill="#542b1b" d="M84.731 44.898V69.71L3.49 76.571V38.587l81.242 6.311"/>
  <path fill="#491c18" d="M34.835 37.254V78.99a1.74 1.74 0 0 0 1.637 1.74v.01h10.322v-.018a1.74 1.74 0 0 0 1.583-1.732V37.254H34.835"/>
  <path fill="#e1a25a" d="M48.351 29.852v46.401c0 .907-.698 1.651-1.583 1.725V78H36.445v-.007a1.743 1.743 0 0 1-1.637-1.74v-46.4c0-.925.72-1.687 1.637-1.733v-.017h10.323v.02a1.74 1.74 0 0 1 1.583 1.73"/>
  <path fill="#491c18" d="M40.097 32.269a1.506 1.506 0 0 0 3.013 0c0-.836-.672-1.506-1.506-1.506-.83 0-1.507.67-1.507 1.506m-.002 41.286c0 .832.674 1.506 1.506 1.506a1.506 1.506 0 1 0 0-3.013c-.832 0-1.506.674-1.506 1.507M18.542 32.378v49.633a1.74 1.74 0 0 0 1.638 1.735v.01h10.326v-.013a1.737 1.737 0 0 0 1.578-1.732V32.378H18.542"/>
  <path fill="#e1a25a" d="M32.06 24.98v54.286a1.73 1.73 0 0 1-1.583 1.729v.014h-10.32v-.004a1.744 1.744 0 0 1-1.641-1.739V24.981c0-.932.724-1.683 1.641-1.743v-.007h10.32v.014a1.745 1.745 0 0 1 1.584 1.736"/>
  <path fill="#491c18" d="M23.807 27.394a1.506 1.506 0 1 0 3.013 0 1.51 1.51 0 0 0-1.506-1.514c-.833 0-1.507.681-1.507 1.514m0 49.176a1.506 1.506 0 1 0 3.013 0 1.507 1.507 0 1 0-3.013 0m27.244-39.214v39.56c0 .935.727 1.68 1.64 1.74v.014h10.324v-.021a1.742 1.742 0 0 0 1.581-1.732V37.356H51.051"/>
  <path fill="#e1a25a" d="M64.567 33.518v40.657c0 .91-.696 1.644-1.58 1.733v.017H52.666v-.014a1.743 1.743 0 0 1-1.641-1.736V33.518c0-.932.727-1.69 1.641-1.743v-.014h10.323v.021a1.742 1.742 0 0 1 1.579 1.736"/>
  <path fill="#491c18" d="M56.316 35.93c0 .833.676 1.51 1.508 1.51a1.512 1.512 0 0 0 0-3.023c-.832 0-1.508.681-1.508 1.514m0 35.546a1.509 1.509 0 1 0 3.015 0c0-.833-.674-1.514-1.507-1.514-.835 0-1.508.681-1.508 1.514m10.828-29.955v31.793c0 .927.724 1.682 1.638 1.735v.01h10.321v-.013a1.745 1.745 0 0 0 1.583-1.732V41.522H67.144"/>
  <path fill="#e1a25a" d="M80.657 37.68v32.887c0 .913-.697 1.647-1.583 1.735v.01h-10.32v-.003a1.747 1.747 0 0 1-1.641-1.742V37.68c0-.932.727-1.69 1.64-1.736v-.021h10.32v.024a1.736 1.736 0 0 1 1.584 1.733"/>
  <path fill="#491c18" d="M72.404 40.094c0 .832.68 1.506 1.511 1.506a1.511 1.511 0 0 0 0-3.02c-.832 0-1.511.681-1.511 1.514m0 27.781c0 .832.674 1.506 1.506 1.506a1.513 1.513 0 0 0 .001-3.023c-.833 0-1.507.68-1.507 1.517"/>
  <path fill="#822c23" d="M0 76.57h14.75V31.766H0V76.57"/>
  <path fill="#6a211c" d="M0 76.57h14.75V34.11H0v42.46"/>
  <path fill="#cb8436" d="M25.19 67.307a107.072 107.072 0 0 1-1.383-8.09V27.395c0 .79.609 1.435 1.384 1.499zm-1.383-39.913V23.23h1.384v2.656a1.51 1.51 0 0 0-1.384 1.507"/>
  <path fill="#451c17" d="M25.19 28.893a1.505 1.505 0 0 1-1.383-1.5c0-.79.609-1.446 1.384-1.506v3.006"/>
  <path fill="#cb8436" d="M29.11 79.668a43.71 43.71 0 0 1-1.38-3.34V23.23h1.38v56.437M40.786 67a90.635 90.635 0 0 1-1.383-7.85V41.795a4.36 4.36 0 0 0 1.383-.385zm-.123-33.56a5.303 5.303 0 0 0-.058-.021 4.219 4.219 0 0 0-1.202-.303v-5.013h1.383v2.9a1.506 1.506 0 0 0-.689 1.266c0 .473.222.896.566 1.171"/>
  <path fill="#451c17" d="M40.786 33.497c-.041-.018-.081-.04-.123-.057a1.5 1.5 0 0 1-.566-1.171c0-.533.275-.998.689-1.266v2.494"/>
  <path fill="#cb8436" d="M43.805 76.444a38.418 38.418 0 0 1-.885-2.156 1.507 1.507 0 0 0-.502-2.004v-32.19a4.35 4.35 0 0 0 .253-4.911l1.134-1.147v42.408"/>
  <path fill="#451c17" d="M42.92 74.288a41.877 41.877 0 0 1-.503-1.404v-.6a1.507 1.507 0 0 1 .503 2.004"/>
  <path fill="#cb8436" d="M42.989 31.673a1.505 1.505 0 0 0-.572-.674v-2.896h1.388v2.744l-.816.826"/>
  <path fill="#451c17" d="M42.417 32.251V31c.253.162.453.395.572.674l-.572.578"/>
  <path fill="#cb8436" d="M46.616 78h-1.379V32.586l1.379-1.397zm-1.379-48.603v-1.294h1.277zm9.013 21.118c-.479-8.298-.194-15.685-.03-18.754h.03v18.754m2.698 18.598a67.881 67.881 0 0 1-1.383-6.413V31.76h1.383v2.94a1.511 1.511 0 0 0 0 2.458v31.955"/>
  <path fill="#451c17" d="M56.948 37.158a1.51 1.51 0 0 1 0-2.458v2.458"/>
  <path fill="#cb8436" d="M59.963 75.925h-.542a30.713 30.713 0 0 1-.844-1.901v-1.238a1.514 1.514 0 0 0 0-2.618V37.24a1.514 1.514 0 0 0 0-2.618v-2.861h1.386v44.164"/>
  <path fill="#451c17" d="M58.577 37.24v-2.618a1.514 1.514 0 0 1 0 2.618m0 35.546v-2.618a1.514 1.514 0 0 1 0 2.618"/>
  <path fill="#cb8436" d="M62.779 75.925h-1.381V40.591l.39.388.99-1.005zm-1.381-37.754v-6.41h1.38v5.013l-1.38 1.397m8.912 22.313c-1.537-10.012-1.13-20.972-.938-24.56h-.44 1.378v24.56m2.695 10.506a35.895 35.895 0 0 1-1.381-4.145V35.924h1.381v2.963a1.507 1.507 0 0 0 0 2.41V66.66c-.365.279-.601.72-.601 1.214s.236.931.601 1.206v1.909"/>
  <path fill="#451c17" d="M73.005 41.297a1.505 1.505 0 0 1 0-2.41v2.41m0 27.784a1.506 1.506 0 0 1-.601-1.206c0-.494.236-.935.601-1.214v2.42"/>
  <path fill="#cb8436" d="M76.024 72.313H74.64v-3.119a1.511 1.511 0 0 0 0-2.646V41.413c.465-.258.78-.751.78-1.32a1.52 1.52 0 0 0-.78-1.326v-2.843h1.383v36.389"/>
  <path fill="#451c17" d="M74.641 41.413v-2.646c.465.261.78.755.78 1.327 0 .568-.315 1.061-.78 1.319m0 27.781v-2.646a1.511 1.511 0 0 1 0 2.646"/>
  <path fill="#cb8436" d="M77.453 72.313h1.383v-36.39h-1.383v36.39"/>
  <path fill="#fad1ab" d="M95.456 6.89 61.788 40.98l-1.594-1.588 33.68-34.09c.487-.486 1.093-.723 1.558-.645a.77.77 0 0 1 .459.222c.436.434.244 1.34-.435 2.011"/>
  <path fill="#f4aa73" d="m61.788 40.98-1.594-1.588 33.68-34.09c.426-.426.944-.66 1.378-.66.062 0 .122.008.18.015-2 1.81-6.406 6.1-8.74 11.007L61.788 40.979"/>
  <path fill="#4d1d19" d="M62.274 45.184a4.364 4.364 0 0 1-6.175 0 4.363 4.363 0 0 1 0-6.17 4.364 4.364 0 0 1 6.175 0 4.363 4.363 0 0 1 0 6.17"/>
  <path fill="#822c23" d="M62.274 45.184a4.364 4.364 0 0 1-3.37 1.27c-.516-.215-1-.533-1.422-.952a4.36 4.36 0 0 1 0-6.17 4.358 4.358 0 0 1 3.367-1.27 4.255 4.255 0 0 1 1.425.952 4.363 4.363 0 0 1 0 6.17"/>
  <path fill="#b03a2d" d="M61.684 45.484c-.411.413-.97.61-1.509.568a1.956 1.956 0 1 1 1.51-.568"/>
  <path fill="#fad1ab" d="M75.215 2.251 41.538 36.33l-1.585-1.584L73.626.664c.49-.49 1.095-.727 1.565-.65a.726.726 0 0 1 .457.223c.438.43.243 1.34-.433 2.014"/>
  <path fill="#f4aa73" d="M42.67 35.18a4.409 4.409 0 0 0-.643-.816 4.567 4.567 0 0 0-.975-.73L73.626.664c.43-.43.947-.664 1.384-.664.062 0 .122.004.18.015-2.004 1.81-6.405 6.103-8.744 11L42.67 35.178"/>
  <path fill="#4d1d19" d="M42.027 40.542a4.321 4.321 0 0 1-3.366 1.263 4.328 4.328 0 0 1-2.804-1.263 4.364 4.364 0 1 1 6.17-6.178 4.364 4.364 0 0 1 0 6.178"/>
  <path fill="#822c23" d="M42.027 40.542a4.321 4.321 0 0 1-3.366 1.263 4.155 4.155 0 0 1-1.42-.953 4.36 4.36 0 0 1 0-6.17 4.365 4.365 0 0 1 3.364-1.263 4.364 4.364 0 0 1 1.423 7.123"/>
  <path fill="#b03a2d" d="M41.442 40.845a1.967 1.967 0 0 1-2.766 0 1.962 1.962 0 0 1 0-2.773 1.948 1.948 0 0 1 2.128-.423c.232.095.448.233.638.423.763.766.763 2 0 2.773"/>
  <path fill="#822c23" d="M14.374 76.57H0V52.12c2.916 8.738 7.42 17.699 14.374 24.45"/>
  <path fill="#c96e36" d="M29.768 81.009h-.657v-1.34c.213.458.431.902.657 1.34zm-2.038 0h-2.54v-2.935a1.504 1.504 0 0 0 1.629-1.503c0-.833-.671-1.51-1.505-1.51-.042 0-.083 0-.123.003v-7.757c.68 3.185 1.516 6.233 2.539 9.02zm-3.923 0h-2.089V23.23h.959c-.289 5.316-.876 21.029 1.13 35.987zm-3.47 0h-.18v-.004a1.744 1.744 0 0 1-1.641-1.739V24.981c0-.932.724-1.683 1.641-1.743v-.007h.18v57.778"/>
  <path fill="#451a17" d="M25.314 78.077c-.042 0-.083 0-.123-.003v-3.01c.04-.003.081-.003.123-.003.834 0 1.506.677 1.506 1.51 0 .832-.672 1.506-1.506 1.506"/>
  <path fill="#b95e31" d="M20.338 81.009h1.38V23.227h-1.38V81.01m4.852-.001h-1.383V76.57c0 .794.609 1.44 1.384 1.503zm-1.383-4.438V59.218c.368 2.744.823 5.464 1.384 8.089v7.757a1.512 1.512 0 0 0-1.384 1.507"/>
  <path fill="#401a18" d="M25.19 78.074a1.506 1.506 0 0 1-1.383-1.503c0-.79.609-1.443 1.384-1.507v3.01"/>
  <path fill="#b95e31" d="M29.11 81.009h-1.38v-4.682a43.71 43.71 0 0 0 1.38 3.341v1.34"/>
  <path fill="#451a17" d="M44.556 78h-8.311v-.007a1.51 1.51 0 0 1-1.407-1.419 1.744 1.744 0 0 0 1.607 1.419V78h8.111"/>
  <path fill="#c96e36" d="M44.556 78h-.75v-1.556c.24.536.49 1.055.75 1.556zm-2.139 0h-1.631v-3.18a1.499 1.499 0 0 0 1.632 0zm-3.014 0H38.09V41.734c.034.004.066.01.1.018.09 5.302.412 11.42 1.213 17.399zm-2.693 0h-.265v-.007a1.744 1.744 0 0 1-1.607-1.419 1.84 1.84 0 0 1-.003-.088V38.933a4.39 4.39 0 0 0 1.875 2.272zm4.076-5.715V67a60.56 60.56 0 0 0 1.393 5.161 1.526 1.526 0 0 0-1.393.123"/>
  <path fill="#451a17" d="M41.601 75.06c-.3 0-.58-.087-.815-.239v-2.536a1.526 1.526 0 0 1 1.393-.124c.078.244.158.483.238.723v1.937c-.235.152-.514.24-.816.24"/>
  <path fill="#b95e31" d="M38.09 78h-1.38V41.205c.432.257.9.434 1.38.529V78m2.696 0h-1.383V59.15A90.653 90.653 0 0 0 40.786 67v5.285a1.512 1.512 0 0 0-.001 2.536V78"/>
  <path fill="#401a18" d="M40.786 74.821a1.503 1.503 0 0 1-.691-1.266c0-.533.275-.999.69-1.27v2.536"/>
  <path fill="#b95e31" d="M43.805 78h-1.388v-3.18a1.53 1.53 0 0 0 .503-.533c.28.741.574 1.46.885 2.156V78"/>
  <path fill="#401a18" d="M42.417 74.821v-1.937c.162.477.33.946.503 1.404a1.53 1.53 0 0 1-.503.533"/>
  <path fill="#e1a25a" d="M34.835 29.546a1.496 1.496 0 0 1 1.41-1.486v-.01h2.183l-.003.053h-1.98v.017a1.73 1.73 0 0 0-1.61 1.426"/>
  <path fill="#c96e36" d="M34.835 35.973v-6.427a1.73 1.73 0 0 1 1.61-1.426v-.017h1.98a181.134 181.134 0 0 0-.197 5.044c-.045.007-.091.018-.138.025v-5.07h-1.38v5.6a4.361 4.361 0 0 0-1.875 2.272"/>
  <path fill="#b95e31" d="M36.71 33.701v-5.598h1.38v5.07c-.48.094-.948.27-1.38.528"/>
  <path fill="#471b18" d="M38.19 41.752c-.034-.007-.066-.014-.1-.018a4.342 4.342 0 0 1-2.233-1.192 4.39 4.39 0 0 1-1.022-1.61v-2.959a4.361 4.361 0 0 1 3.255-2.8c.047-.008.093-.019.138-.026a97.97 97.97 0 0 0-.018.808 4.33 4.33 0 0 0-.97.727c-1.704 1.71-1.704 4.473 0 6.17.288.293.607.536.947.727l.003.173"/>
  <path fill="#77261f" d="M38.187 41.579a4.19 4.19 0 0 1-.947-.727c-1.704-1.697-1.704-4.46 0-6.17a4.33 4.33 0 0 1 .97-.727 200.445 200.445 0 0 0-.047 5.017c-.083.324-.082.663.005.991.004.53.01 1.069.02 1.616"/>
  <path fill="#a33027" d="M38.168 39.963a1.966 1.966 0 0 1-.005-.991c0 .324.003.656.005.991"/>
  <path fill="#e1a25a" d="M51.051 75.548a1.353 1.353 0 0 1-.05-.367v-2.625h.023v1.62c0 .105.01.208.027.306zm-.027-38.199L51 37.345V33.07c0-.727.56-1.309 1.265-1.34v-.015h1.957l-.002.046h-1.555v.014a1.745 1.745 0 0 0-1.641 1.743v3.831"/>
  <path fill="#77261f" d="M51.024 42.28 51 42.278v-4.932l.024.004v4.932"/>
  <path fill="#4e2319" d="M51 72.556V42.277l.024.004v30.275H51"/>
  <path fill="#451a17" d="M59.725 76.532h-7.46v-.01a1.341 1.341 0 0 1-1.214-.974v-1.066c.14.784.803 1.38 1.614 1.43v.013h6.756c.1.205.2.41.304.607"/>
  <path fill="#c96e36" d="M58.577 75.925h-1.629v-3.22a1.503 1.503 0 0 0 1.214.243c.133.363.273.723.415 1.076zm-3.012 0h-1.314v-25.41c.23 3.979.635 8.163 1.314 12.185zm-2.697 0h-.203v-.014a1.744 1.744 0 0 1-1.641-1.736V33.518c0-.932.727-1.69 1.641-1.743v-.014h1.555-1.352zm4.08-5.68v-1.132c.09.328.18.653.275.977a1.57 1.57 0 0 0-.275.156"/>
  <path fill="#451a17" d="M57.824 72.987a1.5 1.5 0 0 1-.876-.283v-2.458a1.57 1.57 0 0 1 .275-.156c.288.985.6 1.94.939 2.858a1.522 1.522 0 0 1-.338.039"/>
  <path fill="#b95e31" d="M54.25 75.925h-1.382V31.761h1.352c-.164 3.07-.449 10.456.03 18.754v25.41m2.698 0h-1.383V62.7a67.881 67.881 0 0 0 1.383 6.413v1.133a1.511 1.511 0 0 0 0 2.458v3.221"/>
  <path fill="#401a18" d="M56.948 72.704a1.511 1.511 0 0 1 0-2.459v2.46"/>
  <path fill="#b95e31" d="M59.421 75.925h-.844v-1.901c.266.656.547 1.29.844 1.901"/>
  <path fill="#c96e36" d="M73.59 72.313h-.585V70.99c.187.455.38.892.584 1.323zm-1.966 0H70.31V60.484c.337 2.194.768 4.346 1.314 6.36zm-2.692 0h-.178v-.004a1.747 1.747 0 0 1-1.641-1.742V37.68c0-.932.727-1.69 1.64-1.736v-.021h.18v36.389"/>
  <path fill="#b95e31" d="M70.31 72.313h-1.378v-36.39h.44c-.191 3.589-.599 14.55.938 24.561v11.829m2.695 0h-1.381v-5.468c.396 1.46.854 2.854 1.381 4.145v1.323"/>
</svg>
