<?xml version="1.0" encoding="iso-8859-1"?>
<!-- Uploaded to: SVG Repo, www.svgrepo.com, Generator: SVG Repo Mixer Tools -->
<svg fill="#000000" height="800px" width="800px" version="1.1" id="Capa_1" xmlns="http://www.w3.org/2000/svg" xmlns:xlink="http://www.w3.org/1999/xlink" 
	 viewBox="0 0 512.001 512.001" xml:space="preserve">
<g>
	<g>
		<path d="M473.026,466.667L337.856,16.1c-2.866-9.555-11.66-16.096-21.635-16.096h-120.47c-9.975,0-18.769,6.543-21.635,16.096
			l-23.591,78.637L94.074,10.061C87.154-0.319,73.128-3.124,62.75,3.797C52.368,10.716,49.564,24.74,56.485,35.12l77.188,115.782
			l-95.087,316.96c-2.051,6.84-0.75,14.246,3.513,19.975c4.262,5.728,10.982,9.105,18.122,9.105h54.019
			c3.105,8.767,11.445,15.059,21.275,15.059h240.94c9.83,0,18.17-6.292,21.275-15.059h54.019c0.008,0,0.02-0.002,0.03,0
			c12.476,0,22.588-10.114,22.588-22.588C474.367,471.655,473.895,469.068,473.026,466.667z M255.971,316.236
			c0.012,0,0.024,0.003,0.035,0.003c0.008,0,0.015,0,0.023,0c12.437,0.024,22.546,10.144,22.546,22.585
			c0,12.455-10.133,22.588-22.588,22.588s-22.588-10.133-22.588-22.588C233.397,326.375,243.521,316.245,255.971,316.236z
			 M212.556,45.178h20.841v173.867l-50.346-75.518L212.556,45.178z M90.58,451.765l75.622-252.073l54.29,81.436
			c-19.346,11.946-32.271,33.337-32.271,57.695c0,37.367,30.399,67.765,67.764,67.765c37.365,0,67.765-30.399,67.765-67.765
			c0-29.447-18.885-54.556-45.176-63.879V45.178h20.841l121.976,406.587H90.58z"/>
	</g>
</g>
</svg>