<svg xmlns="http://www.w3.org/2000/svg" viewBox="0 0 96.132 91.488">
  <path d="M96.132 54.999a20.61 20.61 0 0 1-.603 4.922v29.188a2.38 2.38 0 0 1-2.382 2.379H2.388a2.37 2.37 0 0 1-1.686-.694 2.389 2.389 0 0 1-.698-1.685V59.73c0-.071-.004-.142-.004-.2V20.688c0-8.63 7.394-16.029 17.903-19.132C21.297.55 25.023 0 28.924 0c15.97 0 28.921 9.26 28.921 20.688V34.31h17.593c11.423 0 20.694 9.262 20.694 20.689"/>
  <path fill="#303031" d="M42.626 91.488H2.388a2.37 2.37 0 0 1-1.686-.694 2.404 2.404 0 0 1-.698-1.685V56.412C5.1 64.717 18.376 82.596 42.626 91.488"/>
  <path fill="#d5d6d6" d="M2.854 87.553h87.531V62.17H2.854v25.383"/>
  <path fill="#c5c6c7" d="M2.854 87.553h5.909V63.486H2.854v24.067"/>
  <path fill="#fefefe" d="M2.854 86.242h5.909V62.17H2.854v24.072"/>
  <path fill="#c5c6c7" d="M9.148 87.553h5.901V63.486H9.148v24.067"/>
  <path fill="#fefefe" d="M9.148 86.242h5.901V62.17H9.148v24.072"/>
  <path fill="#c5c6c7" d="M15.656 87.553h5.91V63.486h-5.91v24.067"/>
  <path fill="#fefefe" d="M15.656 86.242h5.91V62.17h-5.91v24.072"/>
  <path fill="#c5c6c7" d="M22.017 87.553h5.905V63.486h-5.905v24.067"/>
  <path fill="#fefefe" d="M22.017 86.242h5.905V62.17h-5.905v24.072"/>
  <path fill="#c5c6c7" d="M28.44 87.553h5.91V63.486h-5.91v24.067"/>
  <path fill="#fefefe" d="M28.44 86.242h5.917V62.17h-5.916v24.072"/>
  <path fill="#c5c6c7" d="M34.872 87.553h5.906V63.486h-5.906v24.067"/>
  <path fill="#fefefe" d="M34.872 86.242h5.906V62.17h-5.906v24.072"/>
  <path fill="#c5c6c7" d="M41.271 87.553h5.91V63.486h-5.91v24.067"/>
  <path fill="#fefefe" d="M41.271 86.242h5.91V62.17h-5.91v24.072"/>
  <path fill="#c5c6c7" d="M47.7 87.553h5.912V63.486h-5.913v24.067"/>
  <path fill="#fefefe" d="M47.696 86.242h5.916V62.17h-5.916v24.072"/>
  <path fill="#c5c6c7" d="M54.292 87.553h5.91V63.486h-5.91v24.067"/>
  <path fill="#fefefe" d="M54.292 86.242h5.91V62.17h-5.91v24.072"/>
  <path fill="#c5c6c7" d="M60.717 87.553h5.912V63.486h-5.912v24.067"/>
  <path fill="#fefefe" d="M60.717 86.242h5.912V62.17h-5.912v24.072"/>
  <path fill="#c5c6c7" d="M67.091 87.553h5.916V63.486h-5.916v24.067"/>
  <path fill="#fefefe" d="M67.098 86.242h5.91V62.17h-5.91v24.072"/>
  <path fill="#c5c6c7" d="M73.526 87.553h5.905V63.486h-5.905v24.067"/>
  <path fill="#fefefe" d="M73.526 86.242h5.905V62.17h-5.905v24.072"/>
  <path fill="#c5c6c7" d="M79.812 87.553h5.91V63.486h-5.91v24.067"/>
  <path fill="#fefefe" d="M79.812 86.242h5.91V62.17h-5.91v24.072"/>
  <path fill="#c5c6c7" d="M86.244 87.553h5.909V63.486h-5.91v24.067"/>
  <path fill="#fefefe" d="M86.244 86.242h5.909V62.17h-5.91v24.072"/>
  <path fill="#dcdddd" d="M8.763 86.242H2.854V69.217c.73 1.685 2.085 3.526 4.484 5.318v1.258h.003v1.063h1.422v9.386m6.287 0H9.147v-9.386h1.033v-.498c1.383.76 2.999 1.502 4.868 2.214v7.67m6.517 0h-5.909v-7.453c1.743.641 3.704 1.236 5.91 1.801v5.652m6.356 0h-5.905v-5.545a93.91 93.91 0 0 0 5.905 1.245v4.3m6.435 0h-5.916v-4.21c1.841.314 3.813.613 5.916.88v3.33m6.421 0h-5.906v-3.264c1.863.227 3.828.427 5.906.605v2.659m6.399 0h-5.906v-2.61c1.884.16 3.85.289 5.906.409v2.2m6.435.001h-5.916v-2.175c1.89.094 3.866.182 5.916.24v1.935m6.59 0h-5.91v-1.917a225.7 225.7 0 0 0 5.91.102v1.815m6.428 0h-5.913v-1.81c.797.009 1.605.013 2.423.013 1.143 0 2.304-.008 3.49-.022v1.819m6.377 0h-5.909v-1.82c1.912-.021 3.88-.057 5.91-.115v1.935m6.423 0h-5.905v-1.943a626.57 626.57 0 0 0 5.905-.2v2.143m6.29 0h-5.909V84.08c1.927-.076 3.892-.17 5.91-.272v2.433m6.431.001h-5.91v-2.455c1.923-.116 3.895-.218 5.91-.351v2.806"/>
  <path fill="#595351" d="M7.341 76.856h2.84v-14.42h-2.84v14.42"/>
  <path fill="#393434" d="M7.338 75.793h2.843V61.374H7.338v14.419"/>
  <path fill="#eeeeef" d="M9.645 75.793h.173V61.374h-.173v14.419"/>
  <path fill="#343434" d="M10.181 75.793h-2.84 2.84"/>
  <path fill="#282526" d="M10.181 75.793h-.363v-1.57c.116.24.236.472.363.685zm-.536 0H7.338V61.374S7.684 69.4 9.645 73.85v1.943"/>
  <path fill="#787a7d" d="M9.818 75.793h-.173V73.85c.053.13.11.253.173.373v1.57"/>
  <path fill="#595351" d="M13.631 76.856h2.844v-14.42H13.63v14.42"/>
  <path fill="#393434" d="M13.631 75.793h2.844V61.374H13.63v14.419"/>
  <path fill="#eeeeef" d="M15.935 75.793h.173V61.374h-.173v14.419"/>
  <path fill="#343434" d="M16.475 75.793H13.63h2.844"/>
  <path fill="#282526" d="M16.475 75.793h-.367v-1.574c.116.245.236.476.367.69zm-.54 0h-2.304V61.374s.35 8.025 2.304 12.476v1.943"/>
  <path fill="#787a7d" d="M16.108 75.793h-.173V73.85c.06.125.113.25.173.37v1.573"/>
  <path fill="#595351" d="M26.504 76.856h2.84v-14.42h-2.84v14.42"/>
  <path fill="#393434" d="M26.5 75.793h2.844V61.374h-2.843v14.419"/>
  <path fill="#eeeeef" d="M28.804 75.793h.173V61.374h-.173v14.419"/>
  <path fill="#343434" d="M29.344 75.793h-2.84 2.84"/>
  <path fill="#282526" d="M29.344 75.793h-.367v-1.574c.12.245.24.476.367.69zm-.54 0h-2.303V61.374s.345 8.017 2.303 12.472v1.947"/>
  <path fill="#787a7d" d="M28.977 75.793h-.173v-1.947c.057.129.113.253.173.373v1.574"/>
  <path fill="#595351" d="M33.454 76.856h2.84v-14.42h-2.84v14.42"/>
  <path fill="#393434" d="M33.454 75.793h2.84V61.374h-2.84v14.419"/>
  <path fill="#eeeeef" d="M35.75 75.793h.177V61.374h-.177v14.419"/>
  <path fill="#343434" d="M36.294 75.793h-2.84 2.84"/>
  <path fill="#282526" d="M36.294 75.793h-.367v-1.574c.12.245.24.476.367.69zm-.544 0h-2.296V61.374s.346 8.02 2.296 12.472v1.947"/>
  <path fill="#787a7d" d="M35.927 75.793h-.177v-1.947c.06.129.117.253.177.373v1.574"/>
  <path fill="#595351" d="M39.857 76.856h2.84v-14.42h-2.84v14.42"/>
  <path fill="#393434" d="M39.85 75.793h2.847V61.374H39.85v14.419"/>
  <path fill="#eeeeef" d="M42.16 75.793h.166V61.374h-.166v14.419"/>
  <path fill="#343434" d="M42.697 75.793h-2.84 2.84"/>
  <path fill="#282526" d="M42.697 75.793h-.367v-1.574c.113.245.24.476.367.69zm-.537 0h-2.31V61.374s.349 8.025 2.31 12.476v1.943"/>
  <path fill="#787a7d" d="M42.33 75.793h-.17V73.85c.053.13.11.25.17.37v1.573"/>
  <path fill="#595351" d="M52.19 76.856h2.843v-14.42H52.19v14.42"/>
  <path fill="#393434" d="M52.19 75.793h2.843V61.374H52.19v14.419"/>
  <path fill="#eeeeef" d="M54.494 75.793h.169V61.374h-.17v14.419"/>
  <path fill="#343434" d="M55.033 75.793H52.19h2.843"/>
  <path fill="#282526" d="M55.033 75.793h-.37v-1.578c.12.244.243.475.37.693zm-.54 0H52.19V61.374s.342 8.02 2.304 12.476v1.943"/>
  <path fill="#787a7d" d="M54.663 75.793h-.17V73.85c.057.125.11.245.17.365v1.578"/>
  <path fill="#595351" d="M58.783 76.856h2.847v-14.42h-2.847v14.42"/>
  <path fill="#393434" d="M58.783 75.793h2.847V61.374h-2.847v14.419"/>
  <path fill="#eeeeef" d="M61.087 75.793h.173V61.374h-.173v14.419"/>
  <path fill="#343434" d="M61.63 75.793h-2.847 2.847"/>
  <path fill="#282526" d="M61.63 75.793h-.37v-1.578c.116.244.24.475.37.693zm-.543 0h-2.304V61.374s.346 8.017 2.304 12.472v1.947"/>
  <path fill="#787a7d" d="M61.26 75.793h-.173v-1.947c.056.124.11.249.173.369v1.578"/>
  <path fill="#595351" d="M72.1 76.856h2.844v-14.42h-2.843v14.42"/>
  <path fill="#393434" d="M72.1 75.793h2.844V61.374h-2.843v14.419"/>
  <path fill="#eeeeef" d="M74.408 75.793h.173V61.374h-.173v14.419"/>
  <path fill="#343434" d="M74.944 75.793h-2.843 2.843"/>
  <path fill="#282526" d="M74.944 75.793h-.363v-1.57c.116.245.236.472.363.685zm-.536 0H72.1V61.374s.349 8.03 2.307 12.48v1.939"/>
  <path fill="#787a7d" d="M74.58 75.793h-.172v-1.939c.056.125.116.25.173.37v1.569"/>
  <path fill="#595351" d="M78.39 76.856h2.848v-14.42H78.39v14.42"/>
  <path fill="#393434" d="M78.39 75.793h2.848V61.374H78.39v14.419"/>
  <path fill="#eeeeef" d="M80.698 75.793h.173V61.374h-.173v14.419"/>
  <path fill="#343434" d="M81.238 75.793H78.39h2.847"/>
  <path fill="#282526" d="M81.238 75.793h-.367v-1.565c.116.24.24.467.367.68zm-.54 0H78.39V61.374s.349 8.03 2.307 12.48v1.939"/>
  <path fill="#787a7d" d="M80.87 75.793h-.172v-1.939l.173.374v1.565"/>
  <path fill="#595351" d="M84.303 76.856h2.847v-14.42h-2.847v14.42"/>
  <path fill="#393434" d="M84.3 75.793h2.85V61.374H84.3v14.419"/>
  <path fill="#eeeeef" d="M86.607 75.793h.17V61.374h-.17v14.419"/>
  <path fill="#343434" d="M87.15 75.793h-2.847 2.847"/>
  <path fill="#282526" d="M87.15 75.793h-.374v-1.578c.12.244.244.475.374.693zm-.543 0H84.3V61.374s.349 8.02 2.307 12.472v1.947"/>
  <path fill="#787a7d" d="M86.776 75.793h-.17v-1.947c.057.124.11.249.17.369v1.578"/>
  <path fill="#9f9fa0" d="M92.195 61.979a.67.67 0 0 1-.667.675H3.493a.672.672 0 0 1-.67-.675c0-.369.3-.667.67-.667h88.035c.37 0 .667.298.667.667"/>
  <path d="M.004 66.918h95.525V56.412H.004v10.506"/>
  <path fill="#303031" d="M.004 66.918v-46.23c0-8.63 7.39-16.029 17.9-19.132-.138 14.054 3.58 40.842 31.481 54.856 8.407 4.233 19.012 7.301 32.371 8.51 5.472.494 10.026 1.17 13.773 1.996H.004"/>
</svg>
