<svg xmlns="http://www.w3.org/2000/svg" xml:space="preserve" viewBox="0 0 64 64">
  <path fill="#ffffff" stroke="#0c0c0c" d="M46.208 33c1.732 0 3.324.796 4.367 2.184a1 1 0 0 0 .8.399h3.875a1 1 0 0 0 1-1V16.5a1 1 0 0 0-1-1H36.875v-2.397a7.396 7.396 0 0 0 2.583-5.645C39.458 3.346 36.112 0 32 0c-4.113 0-7.459 3.346-7.459 7.458 0 2.195.936 4.226 2.584 5.646V15.5H8.75a1 1 0 0 0-1 1v18.083a1 1 0 0 0 1 1h3.875c.314 0 .61-.148.8-.4A5.416 5.416 0 0 1 17.79 33a5.465 5.465 0 0 1 5.459 5.458c0 3.01-2.45 5.458-5.459 5.458a5.416 5.416 0 0 1-4.366-2.184 1.006 1.006 0 0 0-.8-.399H8.75a1 1 0 0 0-1 1V63a1 1 0 0 0 1 1h19.375a1 1 0 0 0 1-1v-2.584c0-.314-.148-.61-.4-.8a5.414 5.414 0 0 1-2.184-4.366c0-3.01 2.45-5.459 5.459-5.459 3.01 0 5.458 2.45 5.458 5.459a5.416 5.416 0 0 1-2.184 4.366 1 1 0 0 0-.399.8V63a1 1 0 0 0 1 1H55.25a1 1 0 0 0 1-1V42.333a1 1 0 0 0-1-1h-3.875a1 1 0 0 0-.8.4 5.419 5.419 0 0 1-4.367 2.183 5.464 5.464 0 0 1-5.458-5.458A5.464 5.464 0 0 1 46.208 33zm-7.458 5.458c0 4.112 3.346 7.458 7.458 7.458a7.396 7.396 0 0 0 5.646-2.583h2.396V62H36.875v-1.105a7.394 7.394 0 0 0 2.583-5.645c0-4.113-3.346-7.459-7.458-7.459-4.113 0-7.459 3.346-7.459 7.459 0 2.195.936 4.226 2.584 5.645V62H9.75V43.333h2.396a7.393 7.393 0 0 0 5.645 2.583c4.113 0 7.459-3.346 7.459-7.458S21.904 31 17.791 31a7.393 7.393 0 0 0-5.644 2.583H9.75V17.5h18.375a1 1 0 0 0 1-1v-3.875a1 1 0 0 0-.4-.8 5.417 5.417 0 0 1-2.184-4.367C26.541 4.448 28.991 2 32 2a5.464 5.464 0 0 1 5.458 5.458 5.422 5.422 0 0 1-2.184 4.368.997.997 0 0 0-.399.799V16.5a1 1 0 0 0 1 1H54.25v16.083h-2.396A7.397 7.397 0 0 0 46.208 31c-4.112 0-7.458 3.346-7.458 7.458z"/>
</svg>
