<?xml version="1.0" encoding="iso-8859-1"?>
<!-- Uploaded to: SVG Repo, www.svgrepo.com, Generator: SVG Repo Mixer Tools -->
<svg fill="#000000" height="800px" width="800px" version="1.1" id="Layer_1" xmlns="http://www.w3.org/2000/svg" xmlns:xlink="http://www.w3.org/1999/xlink" 
	 viewBox="0 0 512 512" xml:space="preserve">
<g>
	<g>
		<path d="M401.545,132.966l18.057-22.571l-20.002-16l-18.005,22.502c-32.222-22.844-70.895-37.009-112.794-39.45V25.6h38.4
			c7.074,0,12.8-5.726,12.8-12.8C320,5.726,314.274,0,307.2,0H204.8C197.726,0,192,5.726,192,12.8c0,7.074,5.726,12.8,12.8,12.8
			h38.4v51.849c-41.899,2.441-80.572,16.614-112.794,39.458l-18.005-22.502l-20.002,16l18.057,22.571
			C66.313,172.792,38.4,230.263,38.4,294.4C38.4,414.575,135.825,512,256,512s217.6-97.425,217.6-217.6
			C473.6,230.263,445.688,172.792,401.545,132.966z M256,486.4c-105.865,0-192-86.135-192-192s86.135-192,192-192
			s192,86.135,192,192S361.865,486.4,256,486.4z"/>
	</g>
</g>
<g>
	<g>
		<path d="M256,256c-21.205,0-38.4,17.195-38.4,38.4c0,16.691,10.718,30.763,25.6,36.053V460.8h25.6V330.453
			c14.882-5.291,25.6-19.354,25.6-36.053C294.4,273.195,277.205,256,256,256z M256,307.2c-7.057,0-12.8-5.743-12.8-12.8
			s5.743-12.8,12.8-12.8c7.057,0,12.8,5.743,12.8,12.8S263.057,307.2,256,307.2z"/>
	</g>
</g>
<g>
	<g>
		<path d="M256,128v25.6c77.636,0,140.8,63.164,140.8,140.8c0,64.316-43.392,118.571-102.4,135.339v26.428
			c73.353-17.357,128-83.106,128-161.766C422.4,202.496,347.904,128,256,128z"/>
	</g>
</g>
</svg>