<svg xmlns="http://www.w3.org/2000/svg" viewBox="0 0 448.518 448.518" fill="#faf6ee">
  <path d="M388.953 100.169H273.196a46.932 46.932 0 0 0-9.973-22.369l41.035-41.034a19.598 19.598 0 0 0 9.952 2.72c10.886 0 19.743-8.857 19.743-19.743S325.096 0 314.209 0s-19.743 8.857-19.743 19.743a19.6 19.6 0 0 0 2.72 9.952L256.15 70.731c-17.353-14.054-42.381-14.053-59.729 0l-41.036-41.036a19.598 19.598 0 0 0 2.72-9.952C158.105 8.857 149.249 0 138.362 0s-19.743 8.857-19.743 19.743 8.857 19.743 19.743 19.743c3.631 0 7.025-1.003 9.952-2.72l41.035 41.035a46.933 46.933 0 0 0-9.974 22.369H59.565c-32.312 0-58.6 26.288-58.6 58.6v218.002c0 32.312 26.288 58.6 58.6 58.6h18.917v5.646a7.5 7.5 0 0 0 15 0v-5.646h261.555v5.646a7.5 7.5 0 0 0 15 0v-5.646h18.917c32.312 0 58.6-26.288 58.6-58.6V158.769c-.001-32.312-26.289-58.6-58.601-58.6zM314.209 10c5.373 0 9.743 4.371 9.743 9.743s-4.371 9.743-9.743 9.743-9.743-4.371-9.743-9.743S308.837 10 314.209 10zM138.362 29.486c-5.373 0-9.743-4.371-9.743-9.743S132.99 10 138.362 10s9.743 4.371 9.743 9.743-4.371 9.743-9.743 9.743zm64.947 55.197c12.67-12.669 33.284-12.669 45.957.003 4.337 4.331 7.289 9.67 8.653 15.483h-63.267c1.365-5.814 4.318-11.153 8.657-15.486zm229.244 292.089c0 24.041-19.559 43.6-43.6 43.6H59.565c-24.041 0-43.6-19.559-43.6-43.6V158.769c0-24.041 19.559-43.6 43.6-43.6h329.388c24.041 0 43.6 19.559 43.6 43.6v218.003z"/>
  <path d="M388.595 124.49H59.923c-19.099 0-34.638 15.538-34.638 34.638v217.287c0 19.099 15.539 34.638 34.638 34.638h328.672c19.099 0 34.638-15.538 34.638-34.638V159.127c0-19.099-15.539-34.637-34.638-34.637zm24.638 251.924c0 13.585-11.052 24.638-24.638 24.638H59.923c-13.585 0-24.638-11.052-24.638-24.638V159.127c0-13.585 11.052-24.638 24.638-24.638h328.672c13.585 0 24.638 11.052 24.638 24.638v217.287z"/>
  <path d="M299.113 152.132a770.71 770.71 0 0 0-225.866 0c-9.91 1.467-17.849 9.105-19.756 19.007-12.35 64.12-12.35 129.144 0 193.264 1.907 9.902 9.846 17.54 19.756 19.007 37.468 5.546 75.2 8.319 112.933 8.319s75.465-2.773 112.934-8.319c9.91-1.466 17.849-9.105 19.756-19.007 12.35-64.12 12.35-129.144 0-193.264-1.908-9.902-9.847-17.541-19.757-19.007zm9.937 210.379c-1.105 5.737-5.687 10.16-11.4 11.006a760.733 760.733 0 0 1-222.938 0c-5.714-.846-10.295-5.269-11.4-11.006-12.108-62.865-12.108-126.616 0-189.481 1.105-5.737 5.687-10.16 11.4-11.006 36.983-5.474 74.226-8.211 111.469-8.211s74.486 2.737 111.469 8.211c5.714.846 10.295 5.269 11.4 11.006 12.108 62.865 12.108 126.616 0 189.481z"/>
  <path d="M299.625 209.503a4.999 4.999 0 0 0-4.417 5.521 478.904 478.904 0 0 1 1.722 86.569 5 5 0 1 0 9.975.709 488.976 488.976 0 0 0-1.758-88.382 5.003 5.003 0 0 0-5.522-4.417zm-.835-6.505a5.002 5.002 0 0 0 4.228-5.668 498.287 498.287 0 0 0-3.622-21.547 5 5 0 0 0-9.824 1.874 489.253 489.253 0 0 1 3.55 21.113 5 5 0 0 0 5.668 4.228zm97.623 139.867H341.19a5 5 0 0 0 0 10h55.223a5 5 0 0 0 0-10zm0 18.183H341.19a5 5 0 0 0 0 10h55.223a5 5 0 0 0 0-10zm0 18.183H341.19a5 5 0 0 0 0 10h55.223a5 5 0 0 0 0-10zm-45.84-95.382c-10.051 10.051-10.051 26.405 0 36.457 5.026 5.025 11.627 7.538 18.229 7.538 6.602 0 13.203-2.513 18.229-7.538 4.869-4.869 7.55-11.343 7.55-18.228 0-6.886-2.681-13.36-7.55-18.229-10.053-10.051-26.406-10.052-36.458 0zm7.071 7.071a15.73 15.73 0 0 1 11.157-4.614c2.416 0 4.828.562 7.038 1.662l-21.147 21.147c-2.939-5.906-1.963-13.28 2.952-18.195zm22.314 22.314c-4.915 4.915-12.289 5.891-18.195 2.952l21.15-21.15a15.694 15.694 0 0 1 1.666 7.041 15.666 15.666 0 0 1-4.621 11.157zm-29.385-55.858c5.026 5.026 11.626 7.538 18.229 7.538 6.601 0 13.204-2.513 18.229-7.538 4.869-4.869 7.55-11.343 7.55-18.228s-2.681-13.359-7.55-18.229c-10.052-10.051-26.405-10.051-36.457 0-10.052 10.052-10.052 26.406-.001 36.457zm7.071-7.071c-4.915-4.915-5.891-12.289-2.952-18.195l21.147 21.147c-5.905 2.94-13.279 1.964-18.195-2.952zm22.314-22.314a15.677 15.677 0 0 1 4.622 11.157c0 2.487-.585 4.88-1.666 7.041l-21.151-21.15a15.803 15.803 0 0 1 7.038-1.662c4.041 0 8.081 1.538 11.157 4.614zm-34.636-45.473c1.31 0 2.6-.53 3.53-1.46.93-.93 1.47-2.22 1.47-3.54 0-1.32-.54-2.6-1.47-3.54a5.03 5.03 0 0 0-3.53-1.46c-1.32 0-2.61.53-3.54 1.46-.93.93-1.46 2.22-1.46 3.54a5.003 5.003 0 0 0 5 5zm15.65 0c1.32 0 2.61-.53 3.54-1.46.93-.94 1.46-2.22 1.46-3.54 0-1.32-.53-2.61-1.46-3.54a5.036 5.036 0 0 0-3.54-1.46 5.003 5.003 0 0 0-5 5c0 1.32.53 2.6 1.47 3.54a5.03 5.03 0 0 0 3.53 1.46zm15.66 0c1.31 0 2.6-.53 3.53-1.46.93-.94 1.47-2.22 1.47-3.54 0-1.32-.54-2.6-1.47-3.54a5.03 5.03 0 0 0-3.53-1.46c-1.32 0-2.61.53-3.54 1.46-.93.93-1.46 2.22-1.46 3.54 0 1.32.53 2.61 1.46 3.54.93.93 2.22 1.46 3.54 1.46zm15.65 0c1.32 0 2.61-.53 3.54-1.46.93-.94 1.46-2.22 1.46-3.54 0-1.32-.53-2.61-1.46-3.54a5.036 5.036 0 0 0-3.54-1.46c-1.32 0-2.6.53-3.53 1.46-.93.93-1.47 2.22-1.47 3.54 0 1.32.54 2.61 1.47 3.54.93.93 2.21 1.46 3.53 1.46zm-46.96-14.5c1.31 0 2.6-.53 3.53-1.46.93-.94 1.47-2.22 1.47-3.54 0-1.32-.54-2.61-1.47-3.53a4.997 4.997 0 0 0-3.53-1.47c-1.32 0-2.61.53-3.54 1.46-.93.93-1.46 2.22-1.46 3.54 0 1.32.53 2.61 1.46 3.54.93.93 2.22 1.46 3.54 1.46zm15.65 0c1.32 0 2.61-.53 3.54-1.46.93-.94 1.46-2.22 1.46-3.54 0-1.32-.53-2.61-1.46-3.54a5.054 5.054 0 0 0-3.54-1.46c-1.31 0-2.6.53-3.53 1.46-.94.93-1.47 2.22-1.47 3.54 0 1.32.53 2.6 1.47 3.54a5.03 5.03 0 0 0 3.53 1.46zm15.66 0a5.022 5.022 0 0 0 5-5c0-1.32-.54-2.6-1.47-3.54a5.03 5.03 0 0 0-3.53-1.46c-1.32 0-2.61.53-3.54 1.46-.93.93-1.46 2.22-1.46 3.54a5.003 5.003 0 0 0 5 5zm15.65 0a5.003 5.003 0 0 0 5-5c0-1.32-.53-2.6-1.46-3.54a5.036 5.036 0 0 0-3.54-1.46c-1.31 0-2.6.53-3.53 1.46-.93.93-1.47 2.22-1.47 3.54a5.022 5.022 0 0 0 5 5zm-46.96 29c1.31 0 2.6-.53 3.53-1.46.93-.94 1.47-2.23 1.47-3.54 0-1.32-.54-2.6-1.47-3.54a5.03 5.03 0 0 0-3.53-1.46c-1.32 0-2.61.53-3.54 1.46-.93.93-1.46 2.22-1.46 3.54 0 1.32.53 2.6 1.46 3.54.93.93 2.22 1.46 3.54 1.46zm15.65 0c1.32 0 2.61-.53 3.54-1.46.93-.94 1.46-2.22 1.46-3.54 0-1.32-.53-2.6-1.46-3.54a5.036 5.036 0 0 0-3.54-1.46c-1.31 0-2.6.53-3.53 1.46a5.02 5.02 0 0 0-1.47 3.54c0 1.32.53 2.6 1.47 3.54a5.03 5.03 0 0 0 3.53 1.46zm15.66 0c1.31 0 2.6-.53 3.53-1.46.93-.94 1.47-2.22 1.47-3.54 0-1.32-.54-2.6-1.47-3.54a5.03 5.03 0 0 0-3.53-1.46c-1.32 0-2.61.53-3.54 1.46-.93.93-1.46 2.22-1.46 3.54 0 1.32.53 2.61 1.46 3.54.93.93 2.22 1.46 3.54 1.46zm15.65 0c1.32 0 2.61-.53 3.54-1.46.93-.94 1.46-2.22 1.46-3.54a5.003 5.003 0 0 0-5-5 5.022 5.022 0 0 0-5 5c0 1.32.54 2.6 1.47 3.54a5.03 5.03 0 0 0 3.53 1.46z"/>
</svg>
