<svg xmlns="http://www.w3.org/2000/svg" version="1.0" viewBox="0 0 485 1280">
  <path d="M253.6 33c-22.5 3.6-42.4 13.8-59.2 30.5-25.3 25.1-40 57.9-46.6 104.5-2 14.2-1.7 64.9.5 86.5 5.3 51.1 16.1 109.2 32.6 174.5 3.8 15.1 7.1 28 7.3 28.7.1.7-4.9 5.5-11.2 10.9-50.8 42.7-88.1 80.7-107.9 109.8-27.7 40.9-44.8 85.3-51.8 135.1-2.5 17.9-2.5 59.6 0 77.5 7.7 55.1 28.8 100.1 64.1 136.8 18.5 19.2 38.2 33.5 62.1 45.2 40.7 19.9 81.6 28 134.5 26.7 22.5-.5 34.8-1.9 52.4-5.8 4.9-1.1 9.1-1.8 9.3-1.5.9.9 8.5 29.9 11.9 45.6 10.1 46.7 12 85.8 5.3 111.8-6.3 24.8-25.9 50-51.8 66.8-22.5 14.4-50.3 18.9-67.7 11-5-2.3-14.4-9.9-14.4-11.7 0-.4 3.3-2.5 7.3-4.6 10.8-5.6 23-18.2 28.4-29.3 5.6-11.5 7.3-19.1 8-34.5.4-10.6.1-14.8-1.5-22.6-6.5-31.3-30.8-57.6-60.9-66.1-10.2-2.8-28.6-3-38.3-.4-30.6 8.3-55.2 29-63.4 53.6-7.3 21.9-5.1 48.1 5.9 69.9 15.2 30.3 43 47.5 71.9 44.5l9.1-1 6.7 3.8c33.6 19.4 71.4 24.6 109.7 15.2 38.3-9.4 63.2-33.6 74.5-72.5 5.1-17.8 6-26.4 6.1-55.4 0-20.9-.4-29.9-1.8-40-2.9-20.2-8.1-45.1-14.2-67.4-3.1-11.2-5.5-20.4-5.3-20.6.2-.1 3.9-1.4 8.3-2.9 54.6-18.9 86-58.4 94.1-118.4 1.8-13.9 2.1-44.7.4-57.7-4.2-33.5-15.2-63.5-33.1-90.4-21.2-31.9-41.7-51.5-67.1-64.5-23.6-12-44.6-15.9-86.5-16-12.3-.1-22.3-.1-22.3-.2 0 0-7-24.3-15.5-53.9-8.5-29.6-15.5-54.3-15.5-54.9 0-.6 4.8-4.8 10.8-9.2 55-41.5 97-96.1 125.1-163 15-35.8 26.7-78.7 31.8-116.9 2.5-18.7 2.4-61.6-.1-77.5-6.5-41.5-22.3-74.2-47.7-98.5-15.6-15-31.7-24.3-50.4-29.1-11.2-2.9-33.2-4.1-43.9-2.4zm37.2 50.6c12.8 2.6 21.4 7.3 31.2 17.3 12.9 12.9 20 28.1 23.5 49.5 3.4 21.2 2.8 54-1.6 81.1-6.8 41.6-21.5 77.2-45.7 110.3-9.7 13.4-15.3 20.1-30.6 36.2-17.1 18.1-63.5 62-65.5 62-.9 0-2.4-6.8-9.7-42-19.4-94.3-25-170.4-16.3-222 2.5-15.1 6.1-28.3 9.8-36.5 12.4-27.4 40.9-49.8 71.1-56 9-1.8 24.6-1.8 33.8.1zm-84.4 465.1c2 6.4 16.3 55.6 22.1 76.3 2.5 9.1 4.7 17 5 17.7.3.8-3.6 2.5-11 4.8-49 15.3-88.9 55.4-98.6 99-.8 3.5-1.3 11.6-1.3 19.5.1 11.5.5 14.8 2.8 22.3 5.9 19.8 17.1 35.8 34.9 50.1 3.2 2.5 6.1 4.6 6.5 4.6.4 0 .6-8 .4-17.8-.3-15.1-.1-19.2 1.8-28.2 6.9-33.6 26.4-54.3 61.6-65.3 8.7-2.8 25.3-6.2 26-5.4.8.7 70.7 223.5 75 238.9.6 2.1-6.3 4.8-19.6 7.6-13.9 3-26.8 4.2-45.2 4.2-62.1 0-105.1-15.1-138.9-48.9-28-28.1-44.9-65.7-49.8-111.3-1.6-14.2-1.3-44.2.4-59.8 8.2-71.1 44-144 92-187.3 10.9-9.9 31.4-25.5 33.7-25.6.3-.1 1.3 2 2.2 4.6zM325 728c10.4 2.5 28.2 11.1 37.1 17.9 10.3 7.9 25 23.8 33.3 36.3 11.7 17.6 18.3 33.5 22.2 53.4 2.7 13.3 2.4 37.6-.5 51.4-5 23.6-15.8 41.7-33.3 55.5-7.4 5.9-26.1 16.6-27 15.5-.3-.3-3-9.3-6.2-20-14.4-48.5-47.6-152.6-60.6-190-7.9-22.8-7.7-21.8-3.8-22.3 7.7-1.2 30.4.2 38.8 2.3z"/>
</svg>
