<svg xmlns="http://www.w3.org/2000/svg" xml:space="preserve" viewBox="0 0 511.999 511.999">
  <path d="M232.072 279.929c-17.591-17.589-46.208-17.589-63.799 0-17.587 17.589-17.587 46.208 0 63.797 8.796 8.796 20.346 13.192 31.899 13.192 11.552 0 23.105-4.398 31.899-13.192 8.521-8.521 13.212-19.849 13.212-31.899.001-12.049-4.691-23.377-13.211-31.898zm-12.598 51.2c-10.642 10.643-27.961 10.643-38.602 0-10.643-10.643-10.643-27.961 0-38.602 5.321-5.321 12.31-7.983 19.301-7.983s13.98 2.66 19.301 7.981c5.156 5.156 7.994 12.011 7.994 19.301 0 7.293-2.838 14.148-7.994 19.303zm-52.316 69.792-56.077-56.077a8.909 8.909 0 0 0-12.598 0l-20 20a8.907 8.907 0 0 0 0 12.597l56.076 56.077a8.911 8.911 0 0 0 12.599 0l20-20a8.907 8.907 0 0 0 0-12.597zm-26.3 13.7L97.38 371.142l7.402-7.402 43.478 43.479-7.402 7.402z"/>
  <path d="m506.682 68.188 2.266-1.978a8.907 8.907 0 0 0 2.359-10.152c-10.54-25.165-30.203-44.827-55.366-55.366a8.908 8.908 0 0 0-10.152 2.359l-1.978 2.266-.355-.355c-3.479-3.479-9.119-3.48-12.597 0a8.906 8.906 0 0 0-.001 12.597l1.21 1.21-7.08 8.111-.354-.354c-3.479-3.479-9.119-3.48-12.597 0a8.906 8.906 0 0 0-.001 12.597l1.21 1.21-7.08 8.111-.125-.125c-3.48-3.479-9.12-3.48-12.597 0a8.906 8.906 0 0 0-.001 12.597l1.936 1.936a58.915 58.915 0 0 0-5.705 14.537l-144.72 134.207c-31.058-17.687-60.746-16.774-80.352 2.83-8.342 8.345-16.562 21.873-23.142 38.091a45.214 45.214 0 0 1-32.733 27.305c-35.758 7.447-71.682 24.358-89.391 42.078C1.982 339.249-3.96 363.783 2.604 390.985c5.914 24.497 21.822 50.641 44.795 73.615 22.975 22.974 49.117 38.882 73.615 44.795 7.224 1.744 14.259 2.605 21.022 2.605 18.703 0 35.318-6.589 48.058-19.332 17.724-17.71 34.636-53.635 42.082-89.395a45.213 45.213 0 0 1 27.293-32.727c16.197-6.553 29.727-14.773 38.102-23.147 19.592-19.593 20.508-49.281 2.83-80.35l134.208-144.724c5.092-1.242 9.973-3.181 14.537-5.704l1.937 1.937a8.88 8.88 0 0 0 6.298 2.609c2.279 0 4.56-.869 6.3-2.609a8.906 8.906 0 0 0-.001-12.597l-.125-.125 8.11-7.079 1.209 1.209a8.878 8.878 0 0 0 6.299 2.609c2.279 0 4.56-.869 6.298-2.609a8.906 8.906 0 0 0 .001-12.597l-.355-.355 8.111-7.08 1.21 1.21a8.878 8.878 0 0 0 6.299 2.609c2.279 0 4.56-.869 6.298-2.609a8.906 8.906 0 0 0 .001-12.597l-.354-.359zM284.975 334.799c-6.627 6.626-18.358 13.635-32.197 19.234-19.53 7.931-33.753 24.982-38.043 45.607-6.692 32.133-22.001 65.204-37.237 80.427-16.395 16.401-37.49 15.584-52.304 12.008-21.355-5.155-44.51-19.387-65.197-40.074-20.688-20.688-34.919-43.843-40.074-65.197-3.576-14.812-4.394-35.909 12.011-52.308 15.218-15.23 48.289-30.54 80.421-37.232 20.625-4.29 37.677-18.511 45.61-38.045 5.621-13.859 12.632-25.594 19.231-32.194 12.565-12.562 32.229-13.34 53.928-2.605l-8.244 7.645a8.909 8.909 0 0 0 6.309 15.435c9.541-.276 18.53 3.292 25.272 10.036 6.744 6.744 10.308 15.719 10.036 25.273a8.907 8.907 0 0 0 15.436 6.309l7.643-8.243c10.73 21.707 9.952 41.372-2.601 53.924zm-5.869-70.986a52.204 52.204 0 0 0-12.044-18.875 52.15 52.15 0 0 0-18.875-12.043L397.552 94.383l20.066 20.066-138.512 149.364zM447.659 96.061a41.045 41.045 0 0 1-14.94 8.292l-25.071-25.071a41.078 41.078 0 0 1 8.292-14.941l38.886-44.55c16.178 8.211 29.172 21.206 37.383 37.384l-44.55 38.886z"/>
</svg>
