<svg xmlns="http://www.w3.org/2000/svg" viewBox="0 0 94.621 96.131">
  <path fill="#3e2617" d="m91.208 8.272-1.626-1.636.79-.793 1.634 1.636-.798.793"/>
  <path fill="#55341b" d="M93.29 9.558a1.95 1.95 0 0 1-.998.543c-.124.014-.247.029-.37.029a1.94 1.94 0 0 1-1.38-.572c-.618-.614 1.069-2.521 2.13-2.836.258-.078.48-.064.621.086a1.9 1.9 0 0 1 .572 1.379c0 .5-.187.985-.575 1.371"/>
  <path fill="#462b18" d="M92.292 10.101c-.124.014-.247.029-.37.029a1.94 1.94 0 0 1-1.38-.572c-.618-.614 1.069-2.521 2.13-2.836-.68.8-1.294 2.036-.38 3.38"/>
  <path fill="#3e2617" d="m87.963 11.816-1.63-1.63.794-.792 1.633 1.629-.797.793"/>
  <path fill="#55341b" d="M90.044 13.109a1.996 1.996 0 0 1-.995.542c-.13.015-.25.029-.377.029-.504 0-.998-.186-1.376-.571-.617-.615 1.062-2.53 2.131-2.844.254-.071.476-.064.62.086.378.386.576.886.565 1.386a1.89 1.89 0 0 1-.568 1.372"/>
  <path fill="#462b18" d="M89.05 13.651c-.131.015-.251.029-.378.029-.504 0-.998-.186-1.376-.571-.617-.615 1.062-2.53 2.131-2.844-.684.808-1.298 2.036-.378 3.386"/>
  <path fill="#bd5731" d="m91.494 5.715-.032-.036-6.028 6.772-1.02 1.143-3.64-3.643 8.106-6.886c-.37-.543-.286-1.315.247-1.843.59-.593 1.496-.636 2.022-.1.042.035.07.085.109.135l.07-.071c.343-.35.73-.6 1.119-.757.702-.3 1.4-.258 1.82.164.646.643.385 1.964-.59 2.936l-.059.05v.007c.536.529.487 1.443-.102 2.022-.586.593-1.493.643-2.022.107"/>
  <path fill="#a04a2b" d="M52.265 86.218c-.176-.106-3.108-1.66-8.636 2.734-.43.38-.86.752-1.301 1.097l-.022.014a27.902 27.902 0 0 1-2.42 1.732c-4.744 3.047-10.11 4.496-15.25 4.322-.053 0-.092-.005-.145-.009-5.443-.222-10.633-2.277-14.587-6.232-.103-.102-.201-.213-.297-.318-.105-.101-.218-.193-.32-.299C5.3 85.27 3.24 80.02 3.052 74.53c-.184-5.145 1.27-10.501 4.31-15.256a30.384 30.384 0 0 1 1.736-2.42l.011-.015a39.12 39.12 0 0 1 1.104-1.305c4.389-5.53 2.837-8.455 2.738-8.629 1.182 1.911 4.459 2.807 6.52 2.874 6.402.216 9.676-4.312 13.045-8.795.624-.965 1.316-2.83-1.933-3.358 0 0 5.136-.907 6.522-1.936.078-.071.152-.143.233-.221 3.038-2.579 6.851-4.458 10.619-4.95a13.957 13.957 0 0 1 3.62-.015c4.01.529 7.803 2.65 10.749 5.708.105.1.204.214.306.321 3.221 2.993 5.483 6.907 6.033 11.055.631 4.818-1.549 10.213-4.981 14.236a20.936 20.936 0 0 1-1.98 2.003c-.888 1.86-1.615 5.958-1.615 5.958-.519-3.167-2.293-2.59-3.28-1.984-.227.14-.41.28-.527.376l.579-.505.325-.28c-.103.077-.205.16-.307.231-4.008 3.061-7.69 6.29-7.5 12.066a11.53 11.53 0 0 0 .96 4.095c.15.337.33.664.521.968.381.6.847 1.126 1.404 1.467"/>
  <path fill="#a04a2b" d="M56.23 68.215c-.06.062-.105.096-.105.096l.106-.096"/>
  <path fill="#ec6b39" d="M49.228 83.105c-.176-.097-3.108-1.652-8.64 2.738-.42.384-.857.75-1.298 1.102l-.021.014a26.679 26.679 0 0 1-2.42 1.728c-4.745 3.046-10.104 4.504-15.25 4.321-.046 0-.096-.004-.145-.004-5.44-.227-10.633-2.282-14.584-6.232-.102-.106-.194-.217-.296-.323-.106-.101-.22-.193-.325-.299C2.263 82.16.209 76.916.015 71.42c-.183-5.14 1.27-10.506 4.318-15.256a27.967 27.967 0 0 1 1.736-2.416l.01-.014c.353-.443.72-.876 1.101-1.305 4.385-5.525 2.837-8.455 2.734-8.633 1.186 1.916 4.46 2.806 6.527 2.878 6.396.218 9.67-4.32 13.042-8.799.62-.971 1.316-2.822-1.933-3.35 0 0 5.133-.915 6.523-1.95.074-.072.155-.136.232-.2 3.034-2.593 6.855-4.472 10.616-4.958 1.224-.164 2.44-.186 3.619-.021 4.015.528 7.807 2.657 10.756 5.714.103.1.205.207.3.315 3.224 2.986 5.482 6.907 6.036 11.06.632 4.816-1.552 10.206-4.981 14.234a20.32 20.32 0 0 1-1.98 1.993c-.892 1.872-1.615 5.962-1.615 5.962-.519-3.162-2.29-2.584-3.277-1.983a4.4 4.4 0 0 0-.53.376l.583-.5.324-.28c-.102.082-.204.15-.307.232-4.014 3.06-7.69 6.285-7.507 12.06.043 1.18.36 2.747.96 4.104.151.332.331.65.522.953.38.616.85 1.127 1.404 1.469"/>
  <path fill="#ec6b39" d="M53.2 65.11c-.07.058-.11.087-.11.087l.11-.087"/>
  <path fill="#f08a25" d="m53.832 64.567.017-.048c.103-.082.205-.15.307-.232l-.324.28"/>
  <path fill="#f08a25" d="M57.056 66.674c-.314-1.91-1.086-2.455-1.866-2.455-.512 0-1.02.234-1.411.472.01-.043.035-.086.053-.124l.324-.28c-.102.082-.204.15-.307.232 4.004-9.884 5.317-18.939 5.507-26.022l2.523-2.6c1.986 2.543 3.344 5.5 3.753 8.587.07.565.106 1.137.106 1.714-.004 4.348-2.06 8.965-5.087 12.521a20.32 20.32 0 0 1-1.98 1.993c-.892 1.872-1.615 5.962-1.615 5.962"/>
  <path fill="#3e2617" d="m84.633 3.843 1.633 1.629.794-.793-1.63-1.629-.797.793"/>
  <path fill="#55341b" d="M83.345 1.765c-.29.285-.462.628-.536.992-.025.13-.032.25-.032.379 0 .507.184.993.568 1.379.607.614 2.53-1.064 2.843-2.136.075-.257.057-.479-.088-.622a1.978 1.978 0 0 0-1.383-.564 1.94 1.94 0 0 0-1.372.572"/>
  <path fill="#462b18" d="M82.809 2.757c-.025.13-.032.25-.032.379 0 .507.184.993.568 1.379.607.614 2.53-1.064 2.843-2.136-.807.686-2.039 1.293-3.38.378"/>
  <path fill="#3e2617" d="m81.08 7.094 1.634 1.621.793-.786-1.63-1.635-.797.8"/>
  <path fill="#55341b" d="M79.793 5.008a1.872 1.872 0 0 0-.53 1 1.971 1.971 0 0 0 .522 1.757c.625.607 2.533-1.071 2.851-2.143.074-.257.06-.471-.088-.621a1.97 1.97 0 0 0-1.383-.565c-.494 0-.991.193-1.372.572"/>
  <path fill="#462b18" d="M79.263 6.008a1.971 1.971 0 0 0 .522 1.757c.625.607 2.533-1.071 2.851-2.143-.797.686-2.032 1.307-3.373.386"/>
  <path fill="#ec6b39" d="m91.258 5.486-.021-.036-6.033 6.773-1.02 1.135-3.644-3.642 8.107-6.887c-.367-.536-.282-1.315.24-1.843.593-.586 1.5-.636 2.032-.1.035.043.067.086.11.136l.067-.079a3.618 3.618 0 0 1 1.114-.75c.702-.293 1.404-.257 1.828.164.649.65.38 1.972-.593 2.944l-.06.05c.536.528.483 1.443-.099 2.028-.592.593-1.499.636-2.028.107"/>
  <path fill="#bc482b" d="M85.204 12.223s.004 0 .004-.007l6.029-6.766.014.022-.014-.014-6.033 6.765"/>
  <path fill="#ea5832" d="M85.208 12.216c.12-.55.289-1.122.494-1.686L87.8 7.787l1.358-1.565-.822-.821A51.217 51.217 0 0 1 91.755.736c.166-.193.318-.379.455-.543-.137.164-.289.35-.455.543.522 1.35.9 3.172.35 5.114a1.281 1.281 0 0 1-.84-.364l-.014-.014-.014-.022zm.684-2.194a.393.393 0 0 1 .032-.078l.257-.3-.289.378"/>
  <path fill="#55341b" d="m44.14 54.171-4.663-4.663L80.82 9.994l3.15 3.143-39.828 41.034m-32.524 29.3c-.13.1-.26.225-.384.35-1.16 1.15-2.057 2.729-2.501 4.235a.368.368 0 0 1-.078.275l-.007.024-.01-.005a.347.347 0 0 1-.491 0l-3.574-3.58a.337.337 0 0 1 0-.491l.01-.005.008-.005a.327.327 0 0 1 .275-.082c1.514-.442 3.09-1.323 4.251-2.483 1.665-1.67 1.827-4.028 2.734-6.059.455-1.03 1.937-2.614 3.404-4.019 1.718-1.655 3.43-3.064 3.43-3.064l5.778 5.783s-4.875 5.752-7.126 6.739c-1.902.827-4.078 1.029-5.719 2.387"/>
  <path fill="#fefefe" d="M17.601 72.372a.583.583 0 1 1-.825-.827.59.59 0 0 1 .822 0 .58.58 0 0 1 .003.827m1.295 1.29a.579.579 0 0 1-.829 0 .582.582 0 1 1 .829 0m1.312 1.32a.575.575 0 0 1-.822 0 .573.573 0 0 1 0-.824.575.575 0 0 1 .822 0 .58.58 0 0 1 0 .824m1.552 1.554a.584.584 0 1 1-.826-.828.584.584 0 0 1 .827.828"/>
  <path fill="#432316" d="M8.394 88.45a.356.356 0 0 1-.247-.1l-3.574-3.58a.326.326 0 0 1-.106-.242c0-.09.036-.18.106-.25l.01-.004v-.002c.512.653 1.07 1.28 1.666 1.878.106.106.219.198.325.299.102.106.194.217.296.323a20.391 20.391 0 0 0 1.774 1.58h-.003l-.004-.002a.333.333 0 0 1-.243.1"/>
  <path fill="#3e2617" d="m83.521 12.701-2.31-2.322 6.477-5.628 1.47 1.471-5.637 6.48"/>
  <path fill="#55341b" d="M40.345 76.858a1.686 1.686 0 0 0-.05-.611c.11-.37.025-.77-.264-1.054a1.064 1.064 0 0 0-1.51 0 1.064 1.064 0 0 0 0 1.506.885.885 0 0 0 .25.178.95.95 0 0 1-.349.303c-.324.179-.744.082-.96.01-.528-.168-1.043-.573-1.227-.953a2.55 2.55 0 0 1-.212-1.377h.025c.25-1.929 2.089-2.968 4.04-4.066 1.605-.895 3.263-1.824 4.166-3.35.698-1.164.758-2.666.17-3.907-.364-.751-1.193-1.43-2.118-1.733-.769-.255-1.53-.212-2.134.116-.688.371-1.14.987-1.213 1.64-.011.14-.004.275.014.414-.106.366-.018.766.26 1.05a1.07 1.07 0 0 0 1.513-1.51l-.112-.093a1.19 1.19 0 0 1 .254-.187c.325-.169.738-.078.953-.005.529.163 1.048.568 1.231.957.374.78.332 1.757-.113 2.498-.691 1.179-2.106 1.968-3.602 2.805-1.601.901-3.358 1.887-4.247 3.514h-.007c-.71 1.188-.787 2.676-.215 3.874.13.284.335.553.578.798.41.41.953.752 1.535.94.769.25 1.527.211 2.134-.116.684-.37 1.14-.982 1.21-1.641M16.402 52.92c.215-.024.413-.005.617.049.36-.107.77-.025 1.052.26a1.069 1.069 0 1 1-1.51 1.515 1.185 1.185 0 0 1-.177-.25.937.937 0 0 0-.303.346c-.176.328-.085.742-.01.963.169.524.57 1.035.955 1.222.42.198.907.27 1.373.212v-.02c1.943-.25 2.974-2.088 4.067-4.041.9-1.607 1.828-3.264 3.348-4.168a4.243 4.243 0 0 1 3.912-.17c.755.367 1.433 1.195 1.736 2.119.25.774.208 1.53-.116 2.132-.378.683-.988 1.14-1.644 1.217-.141.01-.279.005-.417-.01a1.064 1.064 0 0 1-1.048-1.776 1.069 1.069 0 0 1 1.514 0l.092.107a.928.928 0 0 0 .183-.245c.177-.329.081-.746.01-.963-.165-.523-.578-1.045-.955-1.227-.783-.371-1.764-.333-2.498.1-1.182.703-1.972 2.113-2.812 3.615-.896 1.598-1.89 3.354-3.51 4.245l.007.004c-1.199.712-2.68.795-3.884.227a3.062 3.062 0 0 1-.793-.583 3.977 3.977 0 0 1-.946-1.535c-.25-.775-.208-1.53.124-2.136.37-.684.98-1.136 1.633-1.208"/>
  <path fill="#fefefe" d="m32.863 68.302-7.829-7.831.734-.732 7.828 7.826-.733.737M83.97 13.144l-3.144-3.143.247-.25 3.147 3.15-.25.243"/>
  <path fill="#fefefe" d="m81.673 10.358 6.353-5.122.007-.107-.105-.014-6.354 5.122-.014.107.113.014m.783.779 5.796-5.68v-.106l-.106-.007-5.8 5.679-.003.114h.113m.692.936 5.496-6.237-.007-.114-.11.007-5.492 6.237.007.107h.106m5.739-5.965-5.08 6.636.014.107.11-.014L89.014 6.2 89 6.094l-.113.014"/>
  <path fill="#9f4125" d="M21.454 93.004a22.7 22.7 0 0 1-7.148-1.44 22.87 22.87 0 0 0 7.148 1.44zm-7.155-1.442-.031-.012c.01.005.02.009.031.012"/>
  <path fill="#ea5d31" d="M21.454 93.004a22.87 22.87 0 0 1-7.148-1.44l-.007-.002-.031-.012a21.348 21.348 0 0 1-3.31-1.597c.787.11 1.581.183 2.382.216-.328-2.448-.406-4.99-.272-7.589 1.362-.624 2.886-.896 4.269-1.496 1.266-.557 3.372-2.629 4.967-4.33-1.129 5.616-1.531 11.135-.85 16.25zM23.15 73.03l-4.467-4.47s-1.71 1.41-3.429 3.065c-.243.235-.49.475-.73.717 1.016-4.552 2.48-9.15 4.209-13.637a4.309 4.309 0 0 0 1.534-.55l-.007-.004c1.62-.89 2.614-2.647 3.51-4.245.84-1.502 1.63-2.912 2.812-3.614a2.66 2.66 0 0 1 1.344-.355c.395 0 .794.085 1.154.254.377.182.79.704.956 1.227.07.217.166.634-.01.963a.928.928 0 0 1-.184.245l-.092-.106a1.065 1.065 0 0 0-1.513 0 1.064 1.064 0 0 0 1.047 1.776 2.64 2.64 0 0 0 .417.01c.063-.008.13-.02.194-.035a137.497 137.497 0 0 0-2.847 6.747l-1.28-1.28-.735.732 1.61 1.607c-1.373 3.609-2.57 7.288-3.493 10.953"/>
  <path fill="#542e19" d="M13.068 82.58c.152-3.051.596-6.181 1.26-9.34.303-.572.617-1.11.927-1.614 1.718-1.655 3.43-3.064 3.43-3.064l4.466 4.469a71.982 71.982 0 0 0-.847 3.724c-1.595 1.7-3.7 3.772-4.967 4.329-1.383.6-2.907.872-4.269 1.496zm8.28-7.042a.583.583 0 1 0 0 1.167c.148 0 .3-.057.413-.17a.583.583 0 0 0-.413-.998zm-1.552-1.553a.57.57 0 0 0-.41.173.573.573 0 0 0 0 .824.572.572 0 0 0 .822 0 .58.58 0 0 0 0-.824.571.571 0 0 0-.412-.173zm-1.313-1.315a.585.585 0 0 0 0 1.167.58.58 0 0 0 .413-.175.584.584 0 0 0-.413-.992zm-1.293-1.29c-.152 0-.3.055-.413.166a.583.583 0 1 0 .825.827.58.58 0 0 0-.412-.993"/>
  <path fill="#ea5d31" d="M19.446 56.897c2.205-5.483 4.766-10.762 7.324-15.543-1.65 1.944-3.468 3.623-5.771 4.553 2.303-.93 4.12-2.61 5.771-4.553.935-1.1 1.82-2.286 2.713-3.479.222-.343.455-.8.508-1.279a1.45 1.45 0 0 0-.116-.821c.398-.693.793-1.372 1.181-2.036 1.228-.321 2.445-.729 3.017-1.164.074-.072.155-.136.232-.2 3.034-2.593 6.855-4.472 10.616-4.958-3.405 5.129-8.725 13.658-13.466 23.518-.307-.915-.98-1.733-1.729-2.096a4.21 4.21 0 0 0-1.792-.398c-.74 0-1.478.19-2.12.567-1.52.904-2.448 2.56-3.348 4.168-.882 1.57-1.718 3.065-3.02 3.721"/>
  <path fill="#fbd7a5" d="M17.189 72.542a.583.583 0 0 1-.413-.997.582.582 0 0 1 .413-.166.58.58 0 1 1 0 1.163m1.294 1.295a.585.585 0 0 1-.416-.993.586.586 0 0 1 .83 0 .579.579 0 0 1 0 .818.58.58 0 0 1-.414.175m1.313 1.317a.572.572 0 0 1-.41-.172.573.573 0 0 1 0-.824.571.571 0 0 1 .822 0 .58.58 0 0 1 0 .824.574.574 0 0 1-.412.172m1.552 1.551a.584.584 0 1 1 0-1.167.584.584 0 0 1 0 1.167"/>
  <path fill="#432016" d="M14.328 73.24c.063-.299.13-.598.197-.897.24-.242.487-.482.73-.717a29.08 29.08 0 0 0-.927 1.614"/>
  <path fill="#542e19" d="M18.734 58.706c.233-.604.469-1.207.712-1.809 1.302-.656 2.138-2.15 3.02-3.721.9-1.607 1.828-3.264 3.348-4.168a4.205 4.205 0 0 1 2.12-.567 4.21 4.21 0 0 1 1.792.398c.748.363 1.422 1.181 1.729 2.096a160.6 160.6 0 0 0-1.56 3.337c-.063.015-.13.027-.193.034a2.294 2.294 0 0 1-.417-.01 1.07 1.07 0 0 1-1.048-.27 1.064 1.064 0 0 1 0-1.505 1.065 1.065 0 0 1 1.513 0l.093.106a.928.928 0 0 0 .183-.245c.177-.329.081-.746.01-.963-.165-.523-.578-1.045-.955-1.227a2.721 2.721 0 0 0-1.154-.254c-.473 0-.945.12-1.344.355-1.182.702-1.972 2.112-2.812 3.614-.896 1.598-1.89 3.354-3.51 4.245l.007.004a4.309 4.309 0 0 1-1.534.55"/>
  <path fill="#fbd7a5" d="m26.643 62.078-1.609-1.607.734-.732 1.28 1.28c-.137.352-.27.705-.405 1.059"/>
  <path fill="#f8c7a9" d="M29.875 35.775c-.156-.329-.456-.629-.974-.872.046.022.095.043.137.072.434.228.695.5.837.8zm-2.325-1.25s.017-.007.046-.015c0 0-.004.008-.007.008a.094.094 0 0 0-.04.007"/>
  <path fill="#ea5832" d="M29.038 34.975c-.042-.029-.091-.05-.137-.072a5.152 5.152 0 0 0-1.351-.378s.014-.007.039-.007c-.015 0-.029 0-.036.007.635.1 1.122.257 1.485.45"/>
  <path fill="#f8c7a9" d="M28.45 34.346a40.524 40.524 0 0 0 2.342-.535c-.43.114-.857.214-1.253.3-.405.092-.776.17-1.09.235"/>
  <path fill="#ea5832" d="M29.54 34.11a28.73 28.73 0 0 0 1.252-.3c.088-.02.176-.042.264-.071-.518.143-1.037.264-1.517.371"/>
  <path fill="#f4aa6e" d="M29.875 35.775c-.142-.3-.403-.572-.837-.8.438.221.699.5.837.8zm-2.286-1.257c.003 0 .007-.008.007-.008a48.299 48.299 0 0 0 1.944-.4c-.978.229-1.768.372-1.951.408"/>
  <path fill="#e94f2e" d="M29.875 35.775c-.138-.3-.4-.579-.837-.8-.363-.193-.85-.35-1.485-.45.007-.007.021-.007.036-.007.183-.036.973-.179 1.95-.408.48-.107.999-.228 1.517-.371-.388.664-.783 1.343-1.181 2.036"/>
  <path fill="#ea562d" d="M13.34 90.17a24.745 24.745 0 0 1-2.381-.217 20.818 20.818 0 0 1-2.315-1.601l.004.003.007-.024a.368.368 0 0 0 .081-.228c0-.015 0-.03-.003-.047.444-1.506 1.34-3.085 2.5-4.235a3.88 3.88 0 0 1 .385-.35 6.47 6.47 0 0 1 1.45-.891c-.134 2.6-.056 5.14.272 7.59"/>
  <path fill="#60301a" d="M11.618 83.471c.032-3.993 1.256-7.487 2.71-10.231-.664 3.159-1.108 6.289-1.26 9.34a6.47 6.47 0 0 0-1.45.891"/>
  <path fill="#f5ae6f" d="M16.878 46.681c1.528 0 2.875-.278 4.089-.762-1.21.485-2.558.762-4.089.762zm4.107-.769a.039.039 0 0 1 .014-.005c-.007.001-.01.003-.014.005"/>
  <path fill="#ea562d" d="M4.584 84.272C1.688 80.58.178 76.091.015 71.42c-.01-.281-.014-.563-.014-.845-.003-4.88 1.45-9.92 4.332-14.411a27.967 27.967 0 0 1 1.736-2.416l.01-.014c.353-.443.72-.876 1.101-1.305 2.526-3.183 3.084-5.505 3.084-6.935-.004-1.053-.307-1.623-.35-1.698 1.186 1.916 4.46 2.806 6.527 2.878.148.004.296.007.437.007 1.531 0 2.879-.277 4.089-.762.007-.003.01-.005.018-.007a.039.039 0 0 1 .014-.005c2.303-.93 4.12-2.61 5.771-4.553-2.558 4.781-5.119 10.06-7.324 15.543a3.198 3.198 0 0 1-1.047.32v.02a2.513 2.513 0 0 1-1.372-.212c-.385-.187-.787-.698-.957-1.222-.074-.221-.165-.635.01-.963a.937.937 0 0 1 .304-.345c.046.086.103.168.177.249a1.072 1.072 0 0 0 1.51 0c.42-.423.42-1.097 0-1.515a1.042 1.042 0 0 0-.741-.305c-.106 0-.208.015-.31.045a1.694 1.694 0 0 0-.618-.048c-.653.072-1.263.524-1.633 1.208-.332.606-.374 1.361-.124 2.136.19.573.53 1.121.946 1.535.243.246.515.443.793.583a3.97 3.97 0 0 0 1.7.373c.216 0 .435-.016.65-.05-1.729 4.486-3.193 9.085-4.209 13.637-1.203 1.203-2.296 2.444-2.674 3.302-.907 2.031-1.069 4.389-2.734 6.059-1.16 1.16-2.737 2.04-4.25 2.483a.324.324 0 0 0-.275.082l-.008.003"/>
  <path fill="#492016" d="m8.648 88.355-.004-.003a20.391 20.391 0 0 1-1.774-1.58c-.102-.106-.194-.217-.296-.323-.106-.101-.22-.193-.325-.299a21.247 21.247 0 0 1-1.665-1.878l.007-.003a.324.324 0 0 1 .275-.082c1.514-.442 3.09-1.323 4.251-2.483 1.665-1.67 1.827-4.028 2.734-6.059.378-.858 1.471-2.099 2.674-3.302-.067.299-.134.598-.197.897-1.454 2.744-2.678 6.238-2.71 10.231-.13.1-.26.225-.384.35-1.16 1.15-2.057 2.729-2.501 4.235a.368.368 0 0 1-.078.274l-.007.025"/>
  <path fill="#60301a" d="M18.085 58.756a3.96 3.96 0 0 1-1.7-.373 3.062 3.062 0 0 1-.794-.583 3.977 3.977 0 0 1-.946-1.535c-.25-.775-.208-1.53.124-2.136.37-.684.98-1.136 1.633-1.208a1.646 1.646 0 0 1 .617.048c.103-.03.205-.045.31-.045.269 0 .537.1.742.305a1.069 1.069 0 1 1-1.51 1.515 1.185 1.185 0 0 1-.177-.25.937.937 0 0 0-.303.346c-.176.328-.085.742-.01.963.169.524.57 1.035.955 1.222a2.513 2.513 0 0 0 1.373.212v-.02c.38-.049.73-.159 1.047-.32-.243.602-.48 1.205-.712 1.81-.215.033-.434.05-.65.05"/>
  <path fill="#422116" d="m44.14 54.171-1.784-1.79L82.78 11.959l.007.008.733.735h.004l.441.443-22.087 22.752-2.523 2.6L44.14 54.172"/>
  <path fill="#381d15" d="m83.521 12.701-.733-.735.402.4.335.335h-.004"/>
  <path fill="#8c6844" d="m83.966 13.144-.441-.443-.335-.335.78.771-.004.007"/>
  <path fill="#29271e" d="m42.783 55.505-4.65-4.654 1.344-1.343 4.66 4.654-1.354 1.343m-18.348 18.86-5.761-5.75 1.347-1.348 5.758 5.755-1.344 1.343"/>
  <path fill="#fefefe" d="m82.096 11.273-63.67 61.93v.109l.107.002L82.206 11.38v-.107h-.11m-.766-.765L17.133 71.903v.11h.11l64.195-61.398.003-.107h-.11m2.356 2.358L21.295 76.063v.108h.11l62.392-63.198v-.107h-.11m-.779-.779-63.165 62.43v.11h.11L83.02 12.194v-.107h-.113"/>
  <path fill="#bb402a" d="M92.803 5.715c.173-.079.335-.193.483-.336.582-.585.635-1.5.1-2.029h.003c.247.25.367.586.367.93 0 .385-.16.785-.47 1.1-.148.142-.31.256-.483.335"/>
  <path fill="#f29c81" d="M94.038.357c-.24-.236-.575-.357-.95-.357.375 0 .71.121.95.357"/>
  <path fill="#e94d30" d="M92.175 5.85h-.07c.55-1.942.172-3.764-.35-5.114.166-.193.318-.379.455-.543.304-.128.6-.193.879-.193.374 0 .709.121.949.357.24.243.356.579.349.95 0 .629-.332 1.38-.942 1.994l-.06.05c.536.528.483 1.443-.099 2.028-.148.143-.31.257-.483.336-.201.093-.42.135-.628.135"/>
</svg>
