<svg xmlns="http://www.w3.org/2000/svg" xml:space="preserve" viewBox="0 0 512 512">
  <path d="M512 36.623c0-2.892-1.127-5.613-3.172-7.658L483.032 3.168c-4.222-4.221-11.092-4.221-15.317.001l-5.024 5.024-.252-.252a8.603 8.603 0 0 0-12.168-.011 8.606 8.606 0 0 0-.013 12.17l.264.265-5.029 5.029c-3.151 3.153-3.944 7.783-2.388 11.684l-5.832 5.453-1.145-1.145a8.605 8.605 0 0 0-12.169 12.168l.737.737-120.492 112.643c-16.085-10.071-33.83-16.128-50.634-17.175-20.482-1.277-38.704 4.985-51.349 17.628-10.245 10.243-17.316 19.916-22.224 30.401-1.964 3.308-6.364 9.006-14.653 12.227a13.084 13.084 0 0 0-8.336 12.065 13.115 13.115 0 0 0 7.946 12.253l.464.208c.295.166.6.315.916.445.995.413 1.29.844 1.381.98.885 1.298.483 5.045-2.489 10.208-3.837 6.666-10.84 13.758-19.222 19.465-8.363 5.706-17.521 9.626-25.125 10.756-5.792.862-9.408-.091-10.375-1.358-.179-.32-1.023-1.899-3.234-7.051a12.314 12.314 0 0 0-11.34-7.461l-.164.001a12.305 12.305 0 0 0-11.295 7.748c-1.509 3.766-3.698 7.098-6.506 9.907-3.145 3.145-7.003 5.522-11.155 6.872-19.29 6.262-35.258 15.344-46.179 26.264-18.372 18.373-24.765 44.834-18 74.512 5.578 24.467 19.611 49.614 39.785 71.593L2.997 496.839a8.604 8.604 0 0 0 6.085 14.689c2.201 0 4.405-.84 6.085-2.521l39.417-39.417c21.974 20.172 47.12 34.205 71.589 39.779 7.718 1.759 15.216 2.627 22.412 2.627 20.478 0 38.504-7.036 52.097-20.631 10.904-10.903 19.991-26.862 26.283-46.164 2.595-8.006 8.703-14.448 16.751-17.672a12.322 12.322 0 0 0 4.183-2.74c2.877-2.877 4.135-7.005 3.366-11.044-.766-4.016-3.472-7.385-7.269-9.028-5.211-2.229-6.716-3.042-7.02-3.216-3.419-2.514-2.443-18.133 9.39-35.513 5.709-8.376 12.804-15.38 19.468-19.214 5.163-2.971 8.912-3.372 10.203-2.492.142.098.576.393.988 1.388.13.312.278.616.443.909l.189.431a13.114 13.114 0 0 0 12.274 7.98c5.364-.07 10.097-3.343 12.064-8.352 3.255-8.334 8.943-12.693 12.227-14.619 10.496-4.937 20.165-12.015 30.393-22.245 12.64-12.639 18.896-30.874 17.617-51.344-1.05-16.801-7.103-34.547-17.165-50.639l105.839-113.21 1.092 1.092a8.58 8.58 0 0 0 6.085 2.521c2.202 0 4.405-.84 6.085-2.521a8.604 8.604 0 0 0 0-12.168l-1.503-1.502 12.261-13.115c1.291.515 2.659.774 4.029.774 2.773 0 5.547-1.056 7.659-3.167l5.019-5.019.263.263a8.578 8.578 0 0 0 6.085 2.521c2.202 0 4.404-.84 6.084-2.521a8.603 8.603 0 0 0 .001-12.169l-.263-.264 5.029-5.029A10.75 10.75 0 0 0 512 36.623zM60.529 451.488a186.874 186.874 0 0 1-4.849-5.057l29.162-29.163 9.892 9.892-29.163 29.163a182.892 182.892 0 0 1-5.042-4.835zm271.912-153.879c-8.876 8.877-17.086 14.906-25.835 18.974a8.69 8.69 0 0 0-.629.325c-4.215 2.399-11.257 7.435-16.586 16.417a19.19 19.19 0 0 0-3.654-3.249c-7.493-5.112-17.616-4.478-28.495 1.786-8.964 5.159-17.879 13.838-25.107 24.441-16.628 24.426-18.693 49.989-4.828 59.445.263.179.571.379.98.615-8.321 5.673-14.568 13.886-17.693 23.52-5.374 16.486-13.217 30.448-22.085 39.316-17.993 17.992-41.757 17.213-58.516 13.394-17.13-3.904-34.768-12.64-51.207-25.149l33.592-33.592 48.223-32.021a8.608 8.608 0 0 0 1.325-13.253l-38.505-38.504a8.603 8.603 0 0 0-13.253 1.325l-32.02 48.223-33.591 33.591c-12.509-16.441-21.246-34.078-25.15-51.208-3.822-16.766-4.602-40.526 13.391-58.518 8.878-8.879 22.843-16.714 39.327-22.066 6.724-2.188 12.952-6.016 18.006-11.071a46.282 46.282 0 0 0 5.505-6.638c.229.398.422.7.598.955 5.11 7.491 14.761 10.599 27.174 8.753 10.235-1.521 21.704-6.339 32.286-13.558 10.601-7.218 19.284-16.132 24.446-25.101 6.263-10.881 6.9-20.999 1.788-28.497a19.154 19.154 0 0 0-3.25-3.654c8.931-5.298 13.987-12.324 16.411-16.537.127-.221.246-.449.352-.68 4.039-8.736 10.061-16.945 18.951-25.835 16.968-16.969 48.078-16.759 76.748-.407l-91.452 85.499a8.606 8.606 0 0 0-.209 12.371l35.501 35.501a8.605 8.605 0 0 0 6.085 2.521l.145-.001a8.605 8.605 0 0 0 6.142-2.727l85.494-91.447c16.336 28.678 16.549 59.788-.405 76.741zM95.906 403.992l22.784-34.313 23.633 23.632-34.314 22.784-12.103-12.103zm144.95-109.935-22.916-22.916L454.03 50.424l7.546 7.546-220.72 236.087zM478.951 49.82l-16.774-16.774 13.196-13.197 16.775 16.774-13.197 13.197z"/>
  <path d="M226.714 349.078c5.127-8.169 2.653-18.984-5.515-24.111a8.605 8.605 0 1 0-9.15 14.576c.131.083.17.255.088.384l-25.663 40.884a17.376 17.376 0 0 0-2.235 13.198 17.374 17.374 0 0 0 7.751 10.912 8.598 8.598 0 0 0 11.862-2.714 8.605 8.605 0 0 0-2.713-11.862c-.034-.022-.099-.062-.124-.174a.255.255 0 0 1 .036-.21l25.663-40.883zm-39.68-58.276a17.378 17.378 0 0 0-10.913-7.751 17.367 17.367 0 0 0-13.197 2.236L122.04 310.95a.25.25 0 0 1-.211.036.246.246 0 0 1-.173-.124 8.603 8.603 0 0 0-11.863-2.713 8.603 8.603 0 0 0-2.713 11.862 17.378 17.378 0 0 0 10.913 7.751 17.378 17.378 0 0 0 13.197-2.236l40.884-25.663a.255.255 0 0 1 .211-.036.243.243 0 0 1 .173.124 8.604 8.604 0 0 0 11.863 2.713 8.603 8.603 0 0 0 2.713-11.862z"/>
</svg>
