<svg xmlns="http://www.w3.org/2000/svg" xml:space="preserve" viewBox="0 0 512 512">
  <path d="M489.052 143.406v-14.638c0-17.52-14.253-31.773-31.773-31.773H419.03c-17.52 0-31.773 14.254-31.773 31.773v14.331h-19.641v-14.331c0-17.52-14.253-31.773-31.773-31.773h-38.249c-17.52 0-31.773 14.254-31.773 31.773v14.331H246.18v-14.331c0-17.52-14.253-31.773-31.773-31.773h-38.25c-17.52 0-31.773 14.254-31.773 31.773v14.331h-19.64v-14.331c0-17.52-14.253-31.773-31.773-31.773H54.723c-17.519 0-31.773 14.254-31.773 31.773v14.638C9.975 145.371 0 156.598 0 170.113v67.204c0 12.728 9.044 23.851 21.505 26.446l1.445.301V300.3c0 17.52 14.253 31.773 31.773 31.773h38.25c17.52 0 31.773-14.253 31.773-31.773v-15.03l19.64 4.089v38.585c0 17.519 14.253 31.773 31.773 31.773h38.25c17.519 0 31.773-14.253 31.773-31.773v-17.378l19.641 4.096v40.926c0 17.519 14.253 31.773 31.773 31.773h38.249c17.52 0 31.773-14.253 31.773-31.773v-19.721l19.641 4.089v43.276c0 17.519 14.253 31.773 31.773 31.773h38.249c17.52 0 31.773-14.253 31.773-31.773v-23.811a26.912 26.912 0 0 0 12.975-5.739A26.905 26.905 0 0 0 512 332.723v-162.61c0-13.514-9.974-24.741-22.948-26.707zM22.95 247.654c-4.175-1.648-7.048-5.737-7.048-10.338v-67.204c0-4.692 2.928-8.705 7.048-10.333v87.875zm85.894 52.646h-.001c0 8.752-7.12 15.872-15.872 15.872H54.723c-8.751 0-15.872-7.12-15.872-15.872V128.768c0-8.752 7.12-15.872 15.872-15.872h38.25c8.752 0 15.872 7.121 15.872 15.872V300.3zm35.541-27.183-19.64-4.089V159.001h19.64v114.116zm85.894 54.827c0 8.751-7.12 15.872-15.872 15.872h-38.25c-8.752 0-15.872-7.12-15.872-15.872V128.767c0-8.752 7.12-15.872 15.872-15.872h38.25c8.751 0 15.872 7.121 15.872 15.872v199.177zm35.543-29.525-19.641-4.096V159.001h19.641v139.418zm85.893 57.169c0 8.751-7.12 15.872-15.872 15.872h-38.249c-8.752 0-15.872-7.12-15.872-15.872V128.767c0-8.752 7.12-15.872 15.872-15.872h38.249c8.752 0 15.872 7.121 15.872 15.872v226.821zm35.543-31.875-19.641-4.089V159.001h19.641v164.712zm70.021 75.39H419.03c-8.752 0-15.872-7.12-15.872-15.872V128.767c0-8.752 7.12-15.872 15.872-15.872h38.249c8.752 0 15.872 7.121 15.872 15.872v254.465c0 8.751-7.12 15.871-15.872 15.871zm34.717-57.759c-.9.731-1.895 1.298-2.944 1.712V159.782c4.119 1.627 7.045 5.641 7.045 10.332v162.609h.001a11.06 11.06 0 0 1-4.102 8.621z"/>
  <circle cx="73.13" cy="159.765" r="7.922"/>
  <circle cx="73.13" cy="269.399" r="7.922"/>
  <circle cx="195.278" cy="159.765" r="7.922"/>
  <circle cx="316.732" cy="159.765" r="7.922"/>
  <circle cx="438.165" cy="159.765" r="7.922"/>
  <circle cx="195.278" cy="288.48" r="7.922"/>
  <circle cx="316.69" cy="307.562" r="7.922"/>
  <circle cx="438.165" cy="340.944" r="7.922"/>
</svg>
