<svg xmlns="http://www.w3.org/2000/svg" viewBox="0 -256 1850 1844">
  <path fill="#fff" d="M359.178 432.56h758.551v721.444H359.178Z"/>
  <path fill="#7f7f7f" d="M924.446 11.249s-563.028 0-704.328 38.141c-75.665 21.962-137.97 86.681-159.113 166.424-36.718 146.784-36.718 450.769-36.718 450.769s0 305.132 36.718 449.603c21.143 79.743 82.335 143.306 159.113 165.267 142.422 39.298 704.328 39.298 704.328 39.298s564.133 0 705.433-38.141c76.778-21.953 137.97-84.368 157.99-165.267 37.841-145.628 37.841-449.604 37.841-449.604s1.113-305.141-37.832-451.925c-20.038-79.743-81.221-143.306-157.99-164.111-141.309-40.454-705.442-40.454-705.442-40.454Zm-179.15 374.476 468.448 280.858-468.448 279.692Z"/>
  <path d="M1849.12-193.36v501.124q0 25.447-18.462 44.044-18.461 18.596-43.725 18.596-25.264 0-43.725-18.596l-171.015-172.262-633.532 638.15q-9.717 9.787-22.349 9.787-12.631 0-22.348-9.788L783.193 706.117q-9.717-9.787-9.717-22.511 0-12.724 9.717-22.511l633.532-638.15-171.015-172.26q-18.462-18.597-18.462-44.045 0-25.447 18.462-44.044Q1264.172-256 1289.436-256h497.497q25.264 0 43.725 18.596 18.462 18.597 18.462 44.044z"/>
  <path fill="#fff" d="m745.296 385.725 468.448 280.858-468.448 279.692z"/>
</svg>
