<svg xmlns="http://www.w3.org/2000/svg" xmlns:xlink="http://www.w3.org/1999/xlink">
    <defs>
        <symbol id="close-circle-symbol" preserveAspectRatio="xMidYMid slice" viewBox="0 0 32 32">
            <path
                d="M6.576 6.576c-5.205 5.205-5.205 13.643 0 18.849s13.643 5.205 18.849 0c5.206-5.206 5.206-13.643 0-18.849s-13.643-5.205-18.849 0zM24.67 24.67c-4.781 4.781-12.56 4.781-17.341 0s-4.781-12.56 0-17.341c4.781-4.781 12.56-4.781 17.341 0s4.78 12.56 0 17.341z" />
            <path d="m10.722 9.969-.754.754 5.278 5.278-5.253 5.253.754.754L16 16.755l5.253 5.253.754-.754-5.253-5.253 5.278-5.278-.754-.754L16 15.247z" />
        </symbol>
        <symbol id="twitter-symbol" preserveAspectRatio="xMidYMid slice" viewBox="0 0 248 204">
            <path fill="#1d9bf0"
                d="M221.95 51.29c.15 2.17.15 4.34.15 6.53 0 66.73-50.8 143.69-143.69 143.69v-.04c-27.44.04-54.31-7.82-77.41-22.64 3.99.48 8 .72 12.02.73 22.74.02 44.83-7.61 62.72-21.66-21.61-.41-40.56-14.5-47.18-35.07 7.57 1.46 15.37 1.16 22.8-.87-23.56-4.76-40.51-25.46-40.51-49.5v-.64c7.02 3.91 14.88 6.08 22.92 6.32C11.58 63.31 4.74 33.79 18.14 10.71c25.64 31.55 63.47 50.73 104.08 52.76-4.07-17.54 1.49-35.92 14.61-48.25 20.34-19.12 52.33-18.14 71.45 2.19 11.31-2.23 22.15-6.38 32.07-12.26-3.77 11.69-11.66 21.62-22.2 27.93 10.01-1.18 19.79-3.86 29-7.95-6.78 10.16-15.32 19.01-25.2 26.16z" />
        </symbol>
        <symbol id="instagram-symbol" preserveAspectRatio="xMidYMid slice" viewBox="0 0 492 491.9">
            <radialGradient id="a" cx="56.35" cy="19.218" r="711.335" gradientTransform="matrix(.999 -.052 .044 .849 -48.174 433.501)" gradientUnits="userSpaceOnUse">
                <stop offset="0" stop-color="#fed576" />
                <stop offset=".263" stop-color="#f47133" />
                <stop offset=".609" stop-color="#bc3081" />
                <stop offset="1" stop-color="#4c63d2" />
            </radialGradient>
            <path fill="url(#a)"
                d="M84.9 12.9C68.7 19.2 55 27.6 41.3 41.3 27.6 54.9 19.2 68.7 12.9 84.8c-6.1 15.6-10.2 33.5-11.4 59.7C.3 170.7 0 179.1 0 245.9c0 66.8.3 75.2 1.5 101.4 1.2 26.2 5.4 44.1 11.4 59.7 6.3 16.2 14.7 29.9 28.4 43.6C55 464.3 68.7 472.7 84.9 479c15.6 6.1 33.5 10.2 59.7 11.4 26.2 1.2 34.6 1.5 101.4 1.5 66.8 0 75.2-.3 101.4-1.5 26.2-1.2 44.1-5.4 59.7-11.4 16.2-6.3 29.9-14.7 43.6-28.4 13.7-13.7 22.1-27.4 28.4-43.6 6.1-15.6 10.2-33.5 11.4-59.7 1.2-26.2 1.5-34.6 1.5-101.4 0-66.8-.3-75.2-1.5-101.4-1.2-26.2-5.4-44.1-11.4-59.7-6.3-16.1-14.7-29.9-28.3-43.5-13.7-13.7-27.4-22.1-43.6-28.4-15.6-6.1-33.5-10.2-59.7-11.4C321.3.3 312.9 0 246.1 0c-66.8 0-75.2.3-101.4 1.5-26.3 1.1-44.2 5.3-59.8 11.4Zm260.5 32.8c24 1.1 37 5.1 45.7 8.5 11.5 4.5 19.7 9.8 28.3 18.4 8.6 8.6 13.9 16.8 18.4 28.3 3.4 8.7 7.4 21.7 8.5 45.7 1.2 25.9 1.4 33.7 1.4 99.4s-.3 73.5-1.4 99.4c-1.1 24-5.1 37-8.5 45.7-4.5 11.5-9.8 19.7-18.4 28.3-8.6 8.6-16.8 13.9-28.3 18.4-8.7 3.4-21.7 7.4-45.7 8.5-25.9 1.2-33.7 1.4-99.4 1.4s-73.5-.3-99.4-1.4c-24-1.1-37-5.1-45.7-8.5-11.5-4.5-19.7-9.8-28.3-18.4-8.6-8.6-13.9-16.8-18.4-28.3-3.4-8.7-7.4-21.7-8.5-45.7-1.2-25.9-1.4-33.7-1.4-99.4s.3-73.5 1.4-99.4c1.1-24 5.1-37 8.5-45.7 4.5-11.5 9.8-19.7 18.4-28.3 8.6-8.6 16.8-13.9 28.3-18.4 8.7-3.4 21.7-7.4 45.7-8.5 25.9-1.2 33.7-1.4 99.4-1.4s73.5.2 99.4 1.4z" />
            <radialGradient id="b" cx="154.073" cy="134.55" r="365.28" gradientTransform="matrix(.999 -.052 .044 .849 -35.562 242.995)" gradientUnits="userSpaceOnUse">
                <stop offset="0" stop-color="#fed576" />
                <stop offset=".263" stop-color="#f47133" />
                <stop offset=".609" stop-color="#bc3081" />
                <stop offset="1" stop-color="#4c63d2" />
            </radialGradient>
            <path fill="url(#b)"
                d="M119.7 246c0 69.8 56.6 126.3 126.3 126.3 69.7 0 126.3-56.6 126.3-126.3 0-69.7-56.5-126.3-126.3-126.3S119.7 176.2 119.7 246zm208.3 0c0 45.3-36.7 82-82 82s-82-36.7-82-82 36.7-82 82-82 82 36.7 82 82z" />
            <circle cx="377.4" cy="114.7" r="29.5" fill="#654c9f" />
        </symbol>
        <symbol id="facebook-symbol" preserveAspectRatio="xMidYMid slice" viewBox="0 0 40 40">
            <linearGradient id="b" x1="-277.375" x2="-277.375" y1="406.602" y2="407.573" gradientTransform="matrix(40 0 0 -39.778 11115.001 16212.334)"
                gradientUnits="userSpaceOnUse">
                <stop offset="0" stop-color="#0062e0" />
                <stop offset="1" stop-color="#19afff" />
            </linearGradient>
            <path fill="url(#b)" d="M16.7 39.8C7.2 38.1 0 29.9 0 20 0 9 9 0 20 0s20 9 20 20c0 9.9-7.2 18.1-16.7 19.8l-1.1-.9h-4.4l-1.1.9z" />
            <path fill="#fff"
                d="m27.8 25.6.9-5.6h-5.3v-3.9c0-1.6.6-2.8 3-2.8H29V8.2c-1.4-.2-3-.4-4.4-.4-4.6 0-7.8 2.8-7.8 7.8V20h-5v5.6h5v14.1c1.1.2 2.2.3 3.3.3 1.1 0 2.2-.1 3.3-.3V25.6h4.4z" />
        </symbol>
        <symbol id="cthiebaud-symbol" preserveAspectRatio="xMidYMid slice" viewBox="0 0 382.07 377.86">
            <path
                d="M93.832 377.709c-21.112-1.858-38.24-9.37-53.95-23.664-5.08-4.622-9.224-9.262-14.454-16.181C11.66 319.647 3.735 299.304.79 274.614c-.785-6.585-.79-6.7-.789-18.75.003-12.034.008-12.178.811-19.25 3.088-27.162 11.52-49.436 26.027-68.75 4.202-5.594 6.978-8.741 11.89-13.479 17.442-16.823 39.576-26.865 65.854-29.875 5.85-.67 10.164-.894 17.25-.894 9.42 0 16.454.707 24.524 2.466 2.82.615 3.248.657 3.133.31-.073-.222-.808-2.372-1.633-4.778-4.187-12.221-6.55-23.3-7.536-35.332-.432-5.27-.18-15.74.485-20.223 1.447-9.744 4.553-18.708 9.293-26.824 11.336-19.405 29.848-32.269 53.36-37.077C212.406.328 215.935.014 227.708 0c8.056-.01 11.212.083 14.75.434 23.78 2.357 41.102 9.522 53.015 21.929 10.091 10.51 15.863 23.818 18.161 41.875.522 4.103.544 5.271.632 33.812l.09 29.563h54.976v17.75h-55.028l.111 78.437c.072 55.82.184 79.52.389 82.188 1.086 14.195 2.866 22.98 6.152 30.37 2.643 5.944 6.677 10.315 11.136 12.067 2.737 1.075 4.1 1.263 8.153 1.125 11.535-.395 21.91-5.793 32.487-16.905l2.265-2.38 3.533 2.987c1.942 1.642 3.539 3.049 3.547 3.126.01.077-.962 1.315-2.157 2.75-16.583 19.923-33.949 32.172-52.226 36.84-4.974 1.27-10.298 1.895-16.134 1.895-16.34 0-27.51-5.106-34.278-15.67-4.183-6.53-7.249-19.946-8.558-37.455-.732-9.795-.872-26.123-.877-102.848v-76.598l-10.187.129c-13.124.166-16.41-.11-19.085-1.604-1.753-.979-2.074-2.279-1.236-4.993l.492-1.592 3.696-2.62c6.637-4.706 12.791-10.024 21.383-18.478l4.937-4.859v-10.644c0-16.29-.983-24.346-4.16-34.143-7.28-22.439-24.682-33.892-51.464-33.87-7.978.007-13.147.6-19.66 2.26-5.943 1.513-11.928 4.159-16.818 7.434-10.838 7.257-16.968 16.986-18.902 30.002-.625 4.201-.673 12.004-.105 16.998 1.433 12.613 5.504 26.432 12.315 41.8 1.289 3.228 1.01 3.115 3.833 4.632 11.49 6.172 20.256 13.867 24.914 21.869 2.144 3.682 3.66 7.467 4.592 11.455.745 3.19.8 3.74.815 8.17.016 4.73.012 4.76-.801 7.14-2.36 6.902-9.84 13.83-16.933 15.684-2.525.66-8.054.96-10.442.568-5.494-.903-10.021-3.568-14.239-8.38-2.43-2.773-4.1-5.546-5.127-8.512-.871-2.514-.981-3.274-1.309-9.048-.481-8.47-2.143-14.385-5.534-19.702-1.52-2.382-5.872-6.794-8.225-8.336-4.532-2.97-10.56-5.08-17.75-6.212-2.343-.368-4.284-.448-10.5-.43-7.485.023-7.703.038-11.875.825-18.364 3.466-32.456 14.023-43.75 32.775-8.038 13.347-12.957 28.758-14.804 46.378-.687 6.548-.612 22.714.134 29.326 2.29 20.27 8.313 37.366 18.691 53.049 4.014 6.065 7.612 10.522 12.222 15.138 11.714 11.732 24.718 18.367 40.907 20.874 4.318.668 14.628.946 18.775.505 24.96-2.652 47.668-18.625 68.178-47.955 1.274-1.821 2.374-3.312 2.444-3.312.113 0 7.341 4.198 7.53 4.374.043.04-1.181 2.587-2.72 5.661-12.237 24.456-26.382 43.31-42.746 56.98-12.74 10.64-27.745 18.024-43.11 21.215-7.002 1.453-10.677 1.812-19.376 1.892-4.33.04-8.38.027-9-.027z" />
        </symbol>
        <symbol id="github-symbol" preserveAspectRatio="xMidYMid slice" viewBox="0 0 98 98">
            <path fill-rule="evenodd" clip-rule="evenodd"
                d="M48.854 0C21.839 0 0 22 0 49.217c0 21.756 13.993 40.172 33.405 46.69 2.427.49 3.316-1.059 3.316-2.362 0-1.141-.08-5.052-.08-9.127-13.59 2.934-16.42-5.867-16.42-5.867-2.184-5.704-5.42-7.17-5.42-7.17-4.448-3.015.324-3.015.324-3.015 4.934.326 7.523 5.052 7.523 5.052 4.367 7.496 11.404 5.378 14.235 4.074.404-3.178 1.699-5.378 3.074-6.6-10.839-1.141-22.243-5.378-22.243-24.283 0-5.378 1.94-9.778 5.014-13.2-.485-1.222-2.184-6.275.486-13.038 0 0 4.125-1.304 13.426 5.052a46.97 46.97 0 0 1 12.214-1.63c4.125 0 8.33.571 12.213 1.63 9.302-6.356 13.427-5.052 13.427-5.052 2.67 6.763.97 11.816.485 13.038 3.155 3.422 5.015 7.822 5.015 13.2 0 18.905-11.404 23.06-22.324 24.283 1.78 1.548 3.316 4.481 3.316 9.126 0 6.6-.08 11.897-.08 13.526 0 1.304.89 2.853 3.316 2.364 19.412-6.52 33.405-24.935 33.405-46.691C97.707 22 75.788 0 48.854 0z"
                fill="#212529" />
        </symbol>
        <symbol id="youtube-symbol" preserveAspectRatio="xMidYMid meet" viewBox="48.863006591796875, 79.2229995727539, 202.2743682861328, 141.55401611328125">
            <path fill="#F0F8FF" d="M97.437 98.708h102.584v93.685H97.437z" opacity="1" />
            <path fill="red"
                d="M149.938 79.223s-63.22 0-79.086 4.123c-8.496 2.374-15.492 9.37-17.866 17.99-4.123 15.867-4.123 48.727-4.123 48.727s0 32.984 4.123 48.601c2.374 8.62 9.245 15.491 17.866 17.865 15.992 4.248 79.086 4.248 79.086 4.248s63.344 0 79.21-4.123c8.621-2.373 15.492-9.12 17.74-17.865 4.249-15.742 4.249-48.601 4.249-48.601s.125-32.985-4.248-48.852c-2.25-8.62-9.12-15.491-17.74-17.74-15.867-4.373-79.211-4.373-79.211-4.373zm-20.116 40.48 52.6 30.36-52.6 30.234v-60.594z" />
        </symbol>
        <symbol id="youtube2-symbol" preserveAspectRatio="xMidYMid meet" viewBox="48.863006591796875, 79.2229995727539, 202.2743682861328, 141.55401611328125">
            <path fill="#1a1c1c" d="M97.437 98.708h102.584v93.685H97.437z" opacity="1" />
            <path fill="#F0F8FF"
                d="M149.938 79.223s-63.22 0-79.086 4.123c-8.496 2.374-15.492 9.37-17.866 17.99-4.123 15.867-4.123 48.727-4.123 48.727s0 32.984 4.123 48.601c2.374 8.62 9.245 15.491 17.866 17.865 15.992 4.248 79.086 4.248 79.086 4.248s63.344 0 79.21-4.123c8.621-2.373 15.492-9.12 17.74-17.865 4.249-15.742 4.249-48.601 4.249-48.601s.125-32.985-4.248-48.852c-2.25-8.62-9.12-15.491-17.74-17.74-15.867-4.373-79.211-4.373-79.211-4.373zm-20.116 40.48 52.6 30.36-52.6 30.234v-60.594z" />
        </symbol>
        <symbol id="youtube_external_link-symbol" viewBox="0 -256 1850 1844">
            <!-- path fill="#fff" d="M359.178 432.56h758.551v721.444H359.178Z"/ -->
            <path fill="#7f7f7f"
                d="M924.446 11.249s-563.028 0-704.328 38.141c-75.665 21.962-137.97 86.681-159.113 166.424-36.718 146.784-36.718 450.769-36.718 450.769s0 305.132 36.718 449.603c21.143 79.743 82.335 143.306 159.113 165.267 142.422 39.298 704.328 39.298 704.328 39.298s564.133 0 705.433-38.141c76.778-21.953 137.97-84.368 157.99-165.267 37.841-145.628 37.841-449.604 37.841-449.604s1.113-305.141-37.832-451.925c-20.038-79.743-81.221-143.306-157.99-164.111-141.309-40.454-705.442-40.454-705.442-40.454Zm-179.15 374.476 468.448 280.858-468.448 279.692Z" />
            <path fill="#afafaf"
                d="M1849.12-193.36v501.124q0 25.447-18.462 44.044-18.461 18.596-43.725 18.596-25.264 0-43.725-18.596l-171.015-172.262-633.532 638.15q-9.717 9.787-22.349 9.787-12.631 0-22.348-9.788L783.193 706.117q-9.717-9.787-9.717-22.511 0-12.724 9.717-22.511l633.532-638.15-171.015-172.26q-18.462-18.597-18.462-44.045 0-25.447 18.462-44.044Q1264.172-256 1289.436-256h497.497q25.264 0 43.725 18.596 18.462 18.597 18.462 44.044z" />
            <path fill="#ffffff" d="m745.296 385.725 468.448 280.858-468.448 279.692z" />
        </symbol>
        <symbol id="share-symbol" viewBox="0 0 227.216 227.216">
            <path fill="#d0d0d0"
                d="M175.897 141.476c-13.249 0-25.11 6.044-32.98 15.518l-51.194-29.066a42.671 42.671 0 0 0 2.467-14.317 42.67 42.67 0 0 0-2.467-14.316l51.19-29.073c7.869 9.477 19.732 15.523 32.982 15.523 23.634 0 42.862-19.235 42.862-42.879C218.759 19.229 199.531 0 175.897 0 152.26 0 133.03 19.229 133.03 42.865c0 5.02.874 9.838 2.467 14.319L84.304 86.258c-7.869-9.472-19.729-15.514-32.975-15.514-23.64 0-42.873 19.229-42.873 42.866 0 23.636 19.233 42.865 42.873 42.865 13.246 0 25.105-6.042 32.974-15.513l51.194 29.067a42.67 42.67 0 0 0-2.468 14.321c0 23.636 19.23 42.865 42.867 42.865 23.634 0 42.862-19.23 42.862-42.865.001-23.64-19.227-42.874-42.861-42.874zm0-126.476c15.363 0 27.862 12.5 27.862 27.865 0 15.373-12.499 27.879-27.862 27.879-15.366 0-27.867-12.506-27.867-27.879C148.03 27.5 160.531 15 175.897 15zM51.33 141.476c-15.369 0-27.873-12.501-27.873-27.865 0-15.366 12.504-27.866 27.873-27.866 15.363 0 27.861 12.5 27.861 27.866 0 15.364-12.499 27.865-27.861 27.865zm124.567 70.74c-15.366 0-27.867-12.501-27.867-27.865 0-15.37 12.501-27.875 27.867-27.875 15.363 0 27.862 12.505 27.862 27.875 0 15.364-12.499 27.865-27.862 27.865z" />
        </symbol>
        <symbol id="puzzle-symbol" viewBox="0 0 64 64">
            <path
                d="M46.208 33c1.732 0 3.324.796 4.367 2.184a1 1 0 0 0 .8.399h3.875a1 1 0 0 0 1-1V16.5a1 1 0 0 0-1-1H36.875v-2.397a7.396 7.396 0 0 0 2.583-5.645C39.458 3.346 36.112 0 32 0c-4.113 0-7.459 3.346-7.459 7.458 0 2.195.936 4.226 2.584 5.646V15.5H8.75a1 1 0 0 0-1 1v18.083a1 1 0 0 0 1 1h3.875c.314 0 .61-.148.8-.4A5.416 5.416 0 0 1 17.79 33a5.465 5.465 0 0 1 5.459 5.458c0 3.01-2.45 5.458-5.459 5.458a5.416 5.416 0 0 1-4.366-2.184 1.006 1.006 0 0 0-.8-.399H8.75a1 1 0 0 0-1 1V63a1 1 0 0 0 1 1h19.375a1 1 0 0 0 1-1v-2.584c0-.314-.148-.61-.4-.8a5.414 5.414 0 0 1-2.184-4.366c0-3.01 2.45-5.459 5.459-5.459 3.01 0 5.458 2.45 5.458 5.459a5.416 5.416 0 0 1-2.184 4.366 1 1 0 0 0-.399.8V63a1 1 0 0 0 1 1H55.25a1 1 0 0 0 1-1V42.333a1 1 0 0 0-1-1h-3.875a1 1 0 0 0-.8.4 5.419 5.419 0 0 1-4.367 2.183 5.464 5.464 0 0 1-5.458-5.458A5.464 5.464 0 0 1 46.208 33zm-7.458 5.458c0 4.112 3.346 7.458 7.458 7.458a7.396 7.396 0 0 0 5.646-2.583h2.396V62H36.875v-1.105a7.394 7.394 0 0 0 2.583-5.645c0-4.113-3.346-7.459-7.458-7.459-4.113 0-7.459 3.346-7.459 7.459 0 2.195.936 4.226 2.584 5.645V62H9.75V43.333h2.396a7.393 7.393 0 0 0 5.645 2.583c4.113 0 7.459-3.346 7.459-7.458S21.904 31 17.791 31a7.393 7.393 0 0 0-5.644 2.583H9.75V17.5h18.375a1 1 0 0 0 1-1v-3.875a1 1 0 0 0-.4-.8 5.417 5.417 0 0 1-2.184-4.367C26.541 4.448 28.991 2 32 2a5.464 5.464 0 0 1 5.458 5.458 5.422 5.422 0 0 1-2.184 4.368.997.997 0 0 0-.399.799V16.5a1 1 0 0 0 1 1H54.25v16.083h-2.396A7.397 7.397 0 0 0 46.208 31c-4.112 0-7.458 3.346-7.458 7.458z" />
        </symbol>
        <symbol id="puzzle_filled-symbol" viewBox="0 0 362.125 362.126">
            <path
                d="m329.278 242.223-18.053.024a11.795 11.795 0 0 0-8.459 3.592c-5.436 5.634-12.708 8.742-20.479 8.757-15.736.015-28.568-12.774-28.592-28.519 0-15.754 12.78-28.559 28.489-28.586 7.781-.02 15.066 3.064 20.518 8.666a11.791 11.791 0 0 0 8.454 3.562l18.048-.021a11.77 11.77 0 0 0 8.323-3.462 11.794 11.794 0 0 0 3.442-8.321v-.017l-.146-94.278a11.784 11.784 0 0 0-11.798-11.765l-103.405.162h-21.74l-.021-11.117v-.035c0-4.48 1.823-8.771 5.042-11.9 7.844-7.602 12.162-17.768 12.162-28.617v-.227c-.031-22.074-17.948-40.02-40-40.121-22.052.102-39.969 18.047-40 40.121v.227c0 10.85 4.318 21.016 12.162 28.617a16.603 16.603 0 0 1 5.042 11.9v.035l-.021 11.117h-21.74L33.1 91.855a11.784 11.784 0 0 0-11.798 11.765l-.144 94.278v.017c0 3.119 1.24 6.11 3.442 8.321a11.77 11.77 0 0 0 8.323 3.462l18.048.021a11.746 11.746 0 0 0 8.454-3.562c5.45-5.602 12.736-8.686 20.518-8.666 15.709.028 28.489 12.832 28.489 28.586-.021 15.741-12.854 28.53-28.592 28.519-7.77-.015-15.045-3.123-20.478-8.757a11.795 11.795 0 0 0-8.459-3.592l-18.053-.024c-6.502-.007-11.781 5.252-11.789 11.757l.122 96.268v.018c0 6.496 5.258 11.769 11.756 11.777l120.108.084a11.778 11.778 0 0 0 11.801-11.756l.019-9.994v-.022c0-3.185-1.296-6.232-3.583-8.455-5.572-5.398-8.64-12.623-8.64-20.33v-.159c.022-15.686 12.752-28.434 28.417-28.505 15.665.071 28.395 12.819 28.417 28.505v.159c0 7.707-3.067 14.932-8.64 20.33a11.797 11.797 0 0 0-3.584 8.455v.022l.02 9.994a11.766 11.766 0 0 0 3.463 8.32 11.786 11.786 0 0 0 8.338 3.436l120.108-.084c6.498-.01 11.756-5.281 11.756-11.777v-.018l.126-96.268c-.006-6.505-5.285-11.764-11.787-11.757z" />
        </symbol>
        <symbol id="arrow_in_left-symbol" xmlns="http://www.w3.org/2000/svg" viewBox="0 0 20 20">
            <path fill="#00000060" fill-rule="evenodd" d="M7.757 10.233 13 5.99V9h7v2h-7v3.476l-5.243-4.243ZM10 4H8V2H2v16h6v-2h2v4H0V0h10v4Z" />
        </symbol>
        <symbol id="arrow_in_right-symbol" xmlns="http://www.w3.org/2000/svg" viewBox="0 0 20 20">
            <path fill="#00000060" fill-rule="evenodd"
                d="M7.392 5.06 5.938 6.408 8.366 9H0v2h8.366l-2.428 2.544 1.454 1.362 4.671-4.948L7.392 5.06ZM10 0v4h2V2h6v16h-6v-2h-2v4h10V0H10Z" />
        </symbol>
        <symbol id="arrow_out_left-symbol" viewBox= "0 0 20 20">
            <path fill="#00000060" d="m4.671 5.06 1.454 1.348L3.697 9h8.366v2H3.697l2.428 2.544-1.454 1.362L0 9.958ZM10 0v4h2V2h6v16h-6v-2h-2v4h10V0Z"/>
        </symbol>

        <symbol id="home-symbol" viewBox="0 0 1920 1920">
            <path fill-rule="evenodd"
                d="M960.16 0 28 932.16l79 78.777 853.16-853.16 853.16 853.16 78.889-78.777L960.16 0Zm613.693 1027.34v781.078h-334.86v-557.913h-557.8v557.912H346.445V1027.34H234.751V1920h1450.684v-892.66h-111.582Zm-446.33 334.748v446.441H792.775v-446.441h334.748ZM960.127 692.604c61.593 0 111.582 49.989 111.582 111.582 0 61.594-49.989 111.583-111.582 111.583-61.594 0-111.583-49.99-111.583-111.583 0-61.593 49.99-111.582 111.583-111.582Zm223.165 111.582c0-123.075-100.09-223.165-223.165-223.165-123.076 0-223.165 100.09-223.165 223.165 0 123.076 100.09 223.165 223.165 223.165 123.075 0 223.165-100.09 223.165-223.165" />
        </symbol>

        <symbol id="treble_clef-symbol" preserveAspectRatio="xMidYMid meet" viewBox="0 0 485 1280">
            <path fill="#F0F8FF"
                d="M253.6 33c-22.5 3.6-42.4 13.8-59.2 30.5-25.3 25.1-40 57.9-46.6 104.5-2 14.2-1.7 64.9.5 86.5 5.3 51.1 16.1 109.2 32.6 174.5 3.8 15.1 7.1 28 7.3 28.7.1.7-4.9 5.5-11.2 10.9-50.8 42.7-88.1 80.7-107.9 109.8-27.7 40.9-44.8 85.3-51.8 135.1-2.5 17.9-2.5 59.6 0 77.5 7.7 55.1 28.8 100.1 64.1 136.8 18.5 19.2 38.2 33.5 62.1 45.2 40.7 19.9 81.6 28 134.5 26.7 22.5-.5 34.8-1.9 52.4-5.8 4.9-1.1 9.1-1.8 9.3-1.5.9.9 8.5 29.9 11.9 45.6 10.1 46.7 12 85.8 5.3 111.8-6.3 24.8-25.9 50-51.8 66.8-22.5 14.4-50.3 18.9-67.7 11-5-2.3-14.4-9.9-14.4-11.7 0-.4 3.3-2.5 7.3-4.6 10.8-5.6 23-18.2 28.4-29.3 5.6-11.5 7.3-19.1 8-34.5.4-10.6.1-14.8-1.5-22.6-6.5-31.3-30.8-57.6-60.9-66.1-10.2-2.8-28.6-3-38.3-.4-30.6 8.3-55.2 29-63.4 53.6-7.3 21.9-5.1 48.1 5.9 69.9 15.2 30.3 43 47.5 71.9 44.5l9.1-1 6.7 3.8c33.6 19.4 71.4 24.6 109.7 15.2 38.3-9.4 63.2-33.6 74.5-72.5 5.1-17.8 6-26.4 6.1-55.4 0-20.9-.4-29.9-1.8-40-2.9-20.2-8.1-45.1-14.2-67.4-3.1-11.2-5.5-20.4-5.3-20.6.2-.1 3.9-1.4 8.3-2.9 54.6-18.9 86-58.4 94.1-118.4 1.8-13.9 2.1-44.7.4-57.7-4.2-33.5-15.2-63.5-33.1-90.4-21.2-31.9-41.7-51.5-67.1-64.5-23.6-12-44.6-15.9-86.5-16-12.3-.1-22.3-.1-22.3-.2 0 0-7-24.3-15.5-53.9-8.5-29.6-15.5-54.3-15.5-54.9 0-.6 4.8-4.8 10.8-9.2 55-41.5 97-96.1 125.1-163 15-35.8 26.7-78.7 31.8-116.9 2.5-18.7 2.4-61.6-.1-77.5-6.5-41.5-22.3-74.2-47.7-98.5-15.6-15-31.7-24.3-50.4-29.1-11.2-2.9-33.2-4.1-43.9-2.4zm37.2 50.6c12.8 2.6 21.4 7.3 31.2 17.3 12.9 12.9 20 28.1 23.5 49.5 3.4 21.2 2.8 54-1.6 81.1-6.8 41.6-21.5 77.2-45.7 110.3-9.7 13.4-15.3 20.1-30.6 36.2-17.1 18.1-63.5 62-65.5 62-.9 0-2.4-6.8-9.7-42-19.4-94.3-25-170.4-16.3-222 2.5-15.1 6.1-28.3 9.8-36.5 12.4-27.4 40.9-49.8 71.1-56 9-1.8 24.6-1.8 33.8.1zm-84.4 465.1c2 6.4 16.3 55.6 22.1 76.3 2.5 9.1 4.7 17 5 17.7.3.8-3.6 2.5-11 4.8-49 15.3-88.9 55.4-98.6 99-.8 3.5-1.3 11.6-1.3 19.5.1 11.5.5 14.8 2.8 22.3 5.9 19.8 17.1 35.8 34.9 50.1 3.2 2.5 6.1 4.6 6.5 4.6.4 0 .6-8 .4-17.8-.3-15.1-.1-19.2 1.8-28.2 6.9-33.6 26.4-54.3 61.6-65.3 8.7-2.8 25.3-6.2 26-5.4.8.7 70.7 223.5 75 238.9.6 2.1-6.3 4.8-19.6 7.6-13.9 3-26.8 4.2-45.2 4.2-62.1 0-105.1-15.1-138.9-48.9-28-28.1-44.9-65.7-49.8-111.3-1.6-14.2-1.3-44.2.4-59.8 8.2-71.1 44-144 92-187.3 10.9-9.9 31.4-25.5 33.7-25.6.3-.1 1.3 2 2.2 4.6zM325 728c10.4 2.5 28.2 11.1 37.1 17.9 10.3 7.9 25 23.8 33.3 36.3 11.7 17.6 18.3 33.5 22.2 53.4 2.7 13.3 2.4 37.6-.5 51.4-5 23.6-15.8 41.7-33.3 55.5-7.4 5.9-26.1 16.6-27 15.5-.3-.3-3-9.3-6.2-20-14.4-48.5-47.6-152.6-60.6-190-7.9-22.8-7.7-21.8-3.8-22.3 7.7-1.2 30.4.2 38.8 2.3z" />
        </symbol>

        <symbol id="ear-symbol" preserveAspectRatio="xMidYMid meet" viewBox="0 0 512 512">
            <path
                d="m460.292 450.719-.905-.095c.08.072-.667 2.741-3.163 5.959-3.671 4.902-10.694 10.964-19.68 15.398-9.002 4.489-19.879 7.484-31.63 7.476-13.706-.04-28.698-3.893-44.707-14.968-15.334-10.702-23.28-19.276-28.578-27.904-3.973-6.523-6.65-13.499-9.209-22.5-3.838-13.436-7.134-31.161-14.293-54.321-7.174-23.184-18.274-51.707-37.835-87.666-15.604-28.562-29-71.164-28.912-111.494 0-16.915 2.288-33.409 7.389-48.481 5.116-15.095 12.959-28.777 24.368-40.631 26.982-27.872 58.095-38.867 87.683-38.947 21.412-.016 41.958 5.982 58.618 16.041 16.701 10.05 29.334 24.026 35.786 39.574l30.032-12.521c-9.582-22.962-27.236-41.792-49.022-54.933C414.409 7.572 388.261.016 360.819 0c-37.843-.08-78.292 14.762-111.105 48.91-15.024 15.556-25.337 33.719-31.773 52.788-6.451 19.084-9.096 39.082-9.104 58.905.095 47.329 14.849 93.721 32.868 127.035 16.518 30.406 26.37 54.52 32.996 74.462 4.965 14.969 8.128 27.602 10.9 39.082 4.188 17.114 7.397 32.194 15.414 47.377 3.996 7.532 9.185 14.841 15.85 21.873 6.674 7.039 14.778 13.824 24.757 20.768 21.094 14.723 43.19 20.848 63.291 20.8 23.819-.032 44.572-8.183 59.842-19.124 7.659-5.514 14.016-11.734 18.799-18.568 4.72-6.857 8.263-14.388 8.374-23.589h-31.636z"
                class="st0" />
            <path
                d="M392.036 257.033c-11.394 2.121-21.778 8.613-28.928 18.345-7.206 9.726-11.187 22.477-11.17 37.001 0 7.778 1.119 16.097 3.463 24.876 4.044 15.136 10.988 27.49 20.236 36.309 9.192 8.811 20.944 13.952 33.139 13.92 12.696.032 25.25-5.529 35.403-15.477 6.722-6.547 10.853-14.889 13.3-23.787 2.462-8.931 3.337-18.608 3.353-28.889-.016-17.154-2.526-36.094-5.8-55.695-3.29-19.585-7.381-39.805-10.734-59.08-3.679-20.856-9.486-43.134-21.222-61.455-5.88-9.129-13.396-17.313-23.009-23.2-9.582-5.895-21.198-9.272-34.117-9.24-.985 0-1.97.015-2.956.055-15.755.5-29.159 6.372-38.232 15.938-9.121 9.526-13.824 21.841-15.588 34.521-.93 6.682 3.726 12.847 10.408 13.769 6.674.93 12.839-3.726 13.761-10.4v-.008c1.256-9.041 4.418-16.208 9.026-20.975 4.648-4.728 10.837-7.961 21.547-8.454l2.034-.039c8.851.032 15.533 2.113 21.373 5.657 8.692 5.276 15.771 14.595 21.245 26.79 5.474 12.125 9.184 26.776 11.687 41.22 3.146 18.067 6.769 36.42 9.813 54.011a56.662 56.662 0 0 0-26.894-6.769 59.264 59.264 0 0 0-11.138 1.056zm44.079 56.076c.024.191.088.366.12.557.064 1.882.19 3.869.19 5.665.016 8.819-.818 16.478-2.462 22.405-1.653 5.975-3.996 10.043-6.802 12.776-6.531 6.285-12.744 8.541-18.385 8.564-5.426-.023-10.901-2.097-16.311-7.19-5.355-5.085-10.392-13.316-13.483-24.924-1.852-6.944-2.638-13.157-2.638-18.584.015-10.17 2.701-17.504 6.379-22.492 3.726-4.974 8.43-7.818 13.857-8.875a35.343 35.343 0 0 1 6.594-.627c8.096.015 15.596 2.812 21.436 8.096 5.816 5.315 10.242 13.165 11.505 24.629zM148.621 156.83c-3.385-5.825-10.853-7.802-16.677-4.402-5.832 3.392-7.794 10.853-4.41 16.685 2.686 4.616 5.212 9.296 7.468 14.071 25.202 53.216 22.08 112.631-3.234 161.27-3.106 5.99-.786 13.348 5.188 16.462 5.991 3.107 13.348.795 16.463-5.188 28.682-55.076 32.233-122.601 3.638-183-2.62-5.538-5.481-10.822-8.436-15.898zm-52.525 26.528c-3.393-5.824-10.862-7.802-16.693-4.418-5.824 3.401-7.794 10.87-4.418 16.693 1.915 3.281 3.687 6.547 5.252 9.86 17.67 37.326 15.469 78.935-2.272 113.051-3.114 5.975-.786 13.348 5.188 16.462 5.975 3.115 13.348.787 16.463-5.187 21.118-40.537 23.74-90.273 2.686-134.766-1.948-4.108-4.053-7.985-6.206-11.695zm-49.252 32.543c-1.32-2.781-2.718-5.236-4.005-7.469-3.384-5.832-10.853-7.818-16.685-4.441-5.832 3.384-7.818 10.861-4.433 16.685v.008c1.184 2.042 2.232 3.917 3.058 5.657 10.146 21.444 8.844 45.192-1.342 64.793-3.123 5.982-.795 13.34 5.18 16.454 5.975 3.122 13.34.803 16.446-5.172l.016-.008c11.854-22.724 14.682-50.007 6.134-75.645a99.94 99.94 0 0 0-4.369-10.862z"
                class="st0" />
        </symbol>

        <symbol id="note-symbol" viewBox="0 0 36 36">
            <path
                d="M31.68 6.16c-1.92-3.3-10.6-4-11.58-4.09L19 2v20.34a5.89 5.89 0 0 0-.82-.56 8.33 8.33 0 0 0-6.53-.41c-4.08 1.33-6.73 5.13-5.87 8.47a5.33 5.33 0 0 0 2.66 3.32 7.48 7.48 0 0 0 3.61.88 9.54 9.54 0 0 0 2.95-.47c3.67-1.18 6.17-4.33 6.06-7.36V9.34a29.14 29.14 0 0 1 6.55 1.43 1 1 0 1 0 .72-1.87A31.37 31.37 0 0 0 21 7.33V4.17c3.33.36 8 1.38 8.92 3 2 3.41-2.33 7.36-2.37 7.4a1 1 0 0 0 1.33 1.49c.27-.21 5.62-5.06 2.8-9.9ZM14.35 31.67a6.43 6.43 0 0 1-5-.26 3.31 3.31 0 0 1-1.69-2.07c-.6-2.33 1.45-5.05 4.58-6.06a7.52 7.52 0 0 1 2.3-.37 5.52 5.52 0 0 1 2.65.62 3.31 3.31 0 0 1 1.69 2.07c.66 2.34-1.39 5.06-4.53 6.07Z"
                class="clr-i-outline clr-i-outline-path-1" />
            <path fill="none" d="M0 0h36v36H0z" />
        </symbol>


        <symbol id="bach_siel_full_left-symbol" preserveAspectRatio="xMidYMid meet" viewBox="0 0 120 120">
            <path fill="none" stroke="#58728a" stroke-miterlimit="10" stroke-width=".035"
                d="M56.03 8.592c.518-3.53 4.943-3.56 3.058.404.625 7.064 8.027 10.545 13.806 12.982 2.3 1.11 7.473 1.571 2.666 3.211-12.916 8.786-19.648 23.843-31.735 33.574-7.926 6.831-19.556 10.883-29.69 6.889-5.26-2.224-8.29-8.206-7.424-13.776-3.237-.956-6.271-10.06-1.499-8.298.642 2.294 2.028 7.086 3.238 2.442 2.408 4.134-.735 10.488 3.184 14.57 6.47 6.107 16.932 3.824 23.192-1.47 8.133-6.523 13.326-15.89 21.248-22.666 4.314-4.685 12.216-9.293 15.5-12.528-9.595-2.637-17.311-9.752-27.037-11.922-8.835-1.367-18.275 5.702-18.315 14.918-2.446 5.39 7.548 3.875 3.923 9.602-5.013 3.55-6.956-2.771-5.668-6.497-.71-6.233 1.26-13.029 6.149-17.17-2.719.706-9.94-.426-4.428-3.27 5.455 1.09 10.881.014 16.243-1.228 5.213-.027 10.253 1.868 14.699 4.478-.275-1.443-1.414-2.698-1.11-4.245z" />
            <path fill="#58728a"
                d="M56.03 8.592c.518-3.53 4.943-3.56 3.058.404.625 7.064 8.027 10.545 13.806 12.982 2.3 1.11 7.473 1.571 2.666 3.211-12.916 8.786-19.648 23.843-31.735 33.574-7.926 6.831-19.556 10.883-29.69 6.889-5.26-2.224-8.29-8.206-7.424-13.776-3.237-.956-6.271-10.06-1.499-8.298.642 2.294 2.028 7.086 3.238 2.442 2.408 4.134-.735 10.488 3.184 14.57 6.47 6.107 16.932 3.824 23.192-1.47 8.133-6.523 13.326-15.89 21.248-22.666 4.314-4.685 12.216-9.293 15.5-12.528-9.595-2.637-17.311-9.752-27.037-11.922-8.835-1.367-18.275 5.702-18.315 14.918-2.446 5.39 7.548 3.875 3.923 9.602-5.013 3.55-6.956-2.771-5.668-6.497-.71-6.233 1.26-13.029 6.149-17.17-2.719.706-9.94-.426-4.428-3.27 5.455 1.09 10.881.014 16.243-1.228 5.213-.027 10.253 1.868 14.699 4.478-.275-1.443-1.414-2.698-1.11-4.245z" />
            <path fill="none" stroke="#58728a" stroke-miterlimit="10" stroke-width=".035"
                d="M108.102 24.148c2.022-4.029 13.413-.828 5.87 1.317-2.576.162-4.729-.01-1.663 2.019 5.572 5.178 7.5 15.506 1.143 20.822-4.498 4.02-11.439-1.152-9.624-6.578.593-6.409 12.089-3.485 6.382 1.612-3.153 1.918-6.052-4.43-5.082 1.458 2.111 6.622 10.904 2.19 10.316-3.514 1.5-9.101-7.31-17.42-16.27-16.109-7.769.385-11.946 7.626-15.894 13.281-9.902 14.434-16.89 31.779-31.976 41.857-9.636 6.88-23.867 7.26-33.559.331-2.91-3.383-4.647-6.753-9.314-7.779-3.52-3.807 3.311-3.938 4.753-.914-.617-2.071-.386-7.9 1.603-3.943-.76 7.089 5.032 13.39 11.941 14.204 10.73 2.07 20.152-5.137 27.386-12.11 11.801-11.299 17.571-27.157 28.473-39.145 6.348-6.812 16.575-10.489 25.515-6.81z" />
            <path fill="#58728a"
                d="M108.102 24.148c2.022-4.029 13.413-.828 5.87 1.317-2.576.162-4.729-.01-1.663 2.019 5.572 5.178 7.5 15.506 1.143 20.822-4.498 4.02-11.439-1.152-9.624-6.578.593-6.409 12.089-3.485 6.382 1.612-3.153 1.918-6.052-4.43-5.082 1.458 2.111 6.622 10.904 2.19 10.316-3.514 1.5-9.101-7.31-17.42-16.27-16.109-7.769.385-11.946 7.626-15.894 13.281-9.902 14.434-16.89 31.779-31.976 41.857-9.636 6.88-23.867 7.26-33.559.331-2.91-3.383-4.647-6.753-9.314-7.779-3.52-3.807 3.311-3.938 4.753-.914-.617-2.071-.386-7.9 1.603-3.943-.76 7.089 5.032 13.39 11.941 14.204 10.73 2.07 20.152-5.137 27.386-12.11 11.801-11.299 17.571-27.157 28.473-39.145 6.348-6.812 16.575-10.489 25.515-6.81z" />
            <path fill="none" stroke="#F8F8FF" stroke-miterlimit="10" stroke-width=".035"
                d="M81.972 35.07c1.538-2.17 6.342-7.107 2.618-1.922-7.467 11.343-14.134 23.267-22.513 33.973C56 74.214 48.554 80.99 39.208 83.163 53.981 76.67 64.061 63.172 71.995 49.63c3.137-4.979 6.373-9.905 9.977-14.56z" />
            <path fill="#F8F8FF"
                d="M81.972 35.07c1.538-2.17 6.342-7.107 2.618-1.922-7.467 11.343-14.134 23.267-22.513 33.973C56 74.214 48.554 80.99 39.208 83.163 53.981 76.67 64.061 63.172 71.995 49.63c3.137-4.979 6.373-9.905 9.977-14.56z" />
            <path fill="none" stroke="#F8F8FF" stroke-miterlimit="10" stroke-width=".035"
                d="M58.44 37.622c1.493-1.585 8.937-8.972 4.904-3.982-8.693 10.728-17.98 21.336-29.488 29.106-3.538 1.273 3.831-3.176 4.883-4.81 6.864-6.478 13.138-13.54 19.701-20.314z" />
            <path fill="#F8F8FF"
                d="M58.44 37.622c1.493-1.585 8.937-8.972 4.904-3.982-8.693 10.728-17.98 21.336-29.488 29.106-3.538 1.273 3.831-3.176 4.883-4.81 6.864-6.478 13.138-13.54 19.701-20.314z" />
            <path fill="none" stroke="#58728a" stroke-miterlimit="10" stroke-width=".035"
                d="M75.452 69.094c6.154-8.643 11.498-17.824 16.726-27.046 7.454 3.187 16.077 8.783 16.484 17.744.198 9.072-8.592 18.075-17.934 15.662-6.039-.247-5.81-9.95.84-6.867 2.776.197 7.852 5.422 2.627 3.029-2.162-2.726-9.574-1.849-4.367 1.602 6.85 3.361 13.167-3.58 14.701-9.782 2.414-6.743-1.377-14.205-7.583-17.319-4.888-4.059-4.36 6.11-6.92 8.832-5.932 14.174-15.624 26.591-27.78 35.957-1.461 1.704-8.226 6.308-4.594 2.13 13.635-10.95 24.843-25.195 31.426-41.452-7.67 14.455-17.81 27.7-29.944 38.688-1.171 2.04-6.978 4.599-3.463.966 7.315-6.69 14.066-14.033 19.781-22.144z" />
            <path fill="#58728a"
                d="M75.452 69.094c6.154-8.643 11.498-17.824 16.726-27.046 7.454 3.187 16.077 8.783 16.484 17.744.198 9.072-8.592 18.075-17.934 15.662-6.039-.247-5.81-9.95.84-6.867 2.776.197 7.852 5.422 2.627 3.029-2.162-2.726-9.574-1.849-4.367 1.602 6.85 3.361 13.167-3.58 14.701-9.782 2.414-6.743-1.377-14.205-7.583-17.319-4.888-4.059-4.36 6.11-6.92 8.832-5.932 14.174-15.624 26.591-27.78 35.957-1.461 1.704-8.226 6.308-4.594 2.13 13.635-10.95 24.843-25.195 31.426-41.452-7.67 14.455-17.81 27.7-29.944 38.688-1.171 2.04-6.978 4.599-3.463.966 7.315-6.69 14.066-14.033 19.781-22.144z" />
            <path fill="none" stroke="#58728a" stroke-miterlimit="10" stroke-width=".035"
                d="M97.108 77.205c5.262-2.037 2.94 8.045 2.559 11.26-1.644 3.385-2.496 7.04 1.886 3.713 2.02-3.975 9.325-.917 3.58 1.552-4.396 2.057-9.286-.136-10.928 5.548-1.741 2.671-6.832 6.398-.645 5.648 6.858 3.11-4.483 5.888-6.074 1.195-4.008 2.615-9.032 3.302-13.703 2.583 2.455 1.974 3.315 8.002-.941 4.382-1.835-6.427-9.226-6.203-13.44-11.261-4.125-3.239-7.643-9.122-13.703-7.931-6.14 1.83 3.122 4.444 5.193 1.574 5.014 3.971-6.932 4.241-9.206 1.871-2.233-7.533 10.15-6.129 13.546-2.152 7.107 7.46 18.572 12.209 28.5 7.588 9.765-4.152 14.956-15.338 13.376-25.57z" />
            <path fill="#58728a"
                d="M97.108 77.205c5.262-2.037 2.94 8.045 2.559 11.26-1.644 3.385-2.496 7.04 1.886 3.713 2.02-3.975 9.325-.917 3.58 1.552-4.396 2.057-9.286-.136-10.928 5.548-1.741 2.671-6.832 6.398-.645 5.648 6.858 3.11-4.483 5.888-6.074 1.195-4.008 2.615-9.032 3.302-13.703 2.583 2.455 1.974 3.315 8.002-.941 4.382-1.835-6.427-9.226-6.203-13.44-11.261-4.125-3.239-7.643-9.122-13.703-7.931-6.14 1.83 3.122 4.444 5.193 1.574 5.014 3.971-6.932 4.241-9.206 1.871-2.233-7.533 10.15-6.129 13.546-2.152 7.107 7.46 18.572 12.209 28.5 7.588 9.765-4.152 14.956-15.338 13.376-25.57z" />
        </symbol>

        <symbol id="bach_siel_full_right-symbol" preserveAspectRatio="xMidYMid slice" viewBox="0 0 120 120">
            <path fill="none" stroke="#36454F" stroke-miterlimit="10" stroke-width=".035"
                d="M67.127 7.355c.4-.934.945-2.068 2.07-2.243.716-.19 1.188.557 1.31 1.157.17 1.357-.29 2.677-.607 3.977 4.356-1.196 9.057-1.515 13.44-.28 3.323 1.165 6.642 2.68 10.225 2.726 1.365.057 2.487-1.124 3.857-.838.96.812.308 2.449-.697 2.943-1.835.889-3.936.749-5.908 1.008 2.78 5.007 3.526 11.458.656 16.595 1.29 2.501-.637 6.135-3.582 5.966-1.834.09-3.582-1.714-3-3.57.385-2.34 2.999-3.411 5.141-3.154 3.492-6.083.629-14.554-5.452-17.779-3.526-1.832-7.736-1.745-11.469-.63-6.83 1.988-13.151 5.328-19.591 8.285-2.11.939-4.197 1.977-6.451 2.524 5.319 3.09 10.025 7.116 14.595 11.205C68.618 41.602 75.05 48.51 81.13 55.703c1.533 1.755 2.894 3.696 4.754 5.136 3.188 2.66 7.332 4.28 11.514 4.049 3.914-.218 7.66-2.175 10.163-5.176 2.637-3.136 3.665-7.535 2.756-11.523.353-.45.713-.893 1.087-1.33.607.998 1.019 2.102 1.081 3.278a6.028 6.028 0 0 0 2.07-2.083c.505-.854 1.506-1.714 2.55-1.195.79.794.655 2.199.062 3.074-1.211 1.36-2.945 2.096-4.632 2.675-.083 5.195-3.542 9.837-8.023 12.221-7.054 3.678-16.007 2.902-22.666-1.295-4.829-3.183-8.958-7.302-12.706-11.679-8.844-10.284-18.281-20.13-28.995-28.494 5.917.177 11.586-2.19 16.459-5.382 4.213-2.66 8.757-5.726 10.524-10.624zm0 0" />
            <path fill="#36454F"
                d="M67.127 7.355c.4-.934.945-2.068 2.07-2.243.716-.19 1.188.557 1.31 1.157.17 1.357-.29 2.677-.607 3.977 4.356-1.196 9.057-1.515 13.44-.28 3.323 1.165 6.642 2.68 10.225 2.726 1.365.057 2.487-1.124 3.857-.838.96.812.308 2.449-.697 2.943-1.835.889-3.936.749-5.908 1.008 2.78 5.007 3.526 11.458.656 16.595 1.29 2.501-.637 6.135-3.582 5.966-1.834.09-3.582-1.714-3-3.57.385-2.34 2.999-3.411 5.141-3.154 3.492-6.083.629-14.554-5.452-17.779-3.526-1.832-7.736-1.745-11.469-.63-6.83 1.988-13.151 5.328-19.591 8.285-2.11.939-4.197 1.977-6.451 2.524 5.319 3.09 10.025 7.116 14.595 11.205C68.618 41.602 75.05 48.51 81.13 55.703c1.533 1.755 2.894 3.696 4.754 5.136 3.188 2.66 7.332 4.28 11.514 4.049 3.914-.218 7.66-2.175 10.163-5.176 2.637-3.136 3.665-7.535 2.756-11.523.353-.45.713-.893 1.087-1.33.607.998 1.019 2.102 1.081 3.278a6.028 6.028 0 0 0 2.07-2.083c.505-.854 1.506-1.714 2.55-1.195.79.794.655 2.199.062 3.074-1.211 1.36-2.945 2.096-4.632 2.675-.083 5.195-3.542 9.837-8.023 12.221-7.054 3.678-16.007 2.902-22.666-1.295-4.829-3.183-8.958-7.302-12.706-11.679-8.844-10.284-18.281-20.13-28.995-28.494 5.917.177 11.586-2.19 16.459-5.382 4.213-2.66 8.757-5.726 10.524-10.624zm0 0" />
            <path fill="none" stroke="#36454F" stroke-miterlimit="10" stroke-width=".035"
                d="M6.38 19.656c.962-.755 2.357-.65 3.428-.187a11.333 11.333 0 0 1 4.435 3.605c5.83-.772 11.808.986 16.592 4.328 4.42 3.059 7.84 7.339 10.568 11.928 7.086 11.075 15.15 21.625 24.743 30.656 4.436 4.121 9.228 7.917 14.572 10.799 3.679 1.927 7.613 3.59 11.777 4.029 5.23.013 10.367-3.54 12.125-8.481.902-3.346.764-6.885.382-10.298a135.4 135.4 0 0 1 1.911-1.027c.518 3.291.468 6.635.076 9.937 1.779-1.232 3.288-2.855 5.218-3.86.902-.455 2.385-.827 2.949.307.6 1.546-.677 3.167-2.05 3.782-2.314.908-4.69 1.66-6.986 2.616-2.088 4.347-6.111 7.777-10.83 8.899-4.82 1.198-9.886.26-14.46-1.449-10.347-3.971-19.55-10.648-26.96-18.847-2.861-3.136-5.476-6.484-8.094-9.821-3.382-4.842-6.146-10.08-9.392-15.011-3.154-4.841-6.557-9.657-11.1-13.302-2.796-2.212-6.482-3.856-10.09-2.923-3.335.873-6.146 3.202-8.112 5.98C5.104 34.132 4.006 37.792 5 41.182c.79 2.987 3.296 5.54 6.381 6.08 1.814.364 3.943-.23 4.988-1.838.715-1.01.82-2.286.829-3.485-.921 1.034-2.26 1.864-3.696 1.48-2.252-.509-2.773-3.694-1.312-5.258 1.283-1.513 3.997-1.4 5.078.302 1.738 2.583 1.474 6.409-.65 8.699-1.88 1.946-4.927 2.014-7.346 1.187-2.598-.85-4.614-2.981-5.698-5.446-1.413-3.158-1.717-6.918-.334-10.14 1.528-3.654 4.671-6.417 8.139-8.2-1.66-.55-3.444-1.069-4.718-2.33-.654-.64-1.1-1.9-.282-2.577zm0 0" />
            <path fill="#36454F"
                d="M6.38 19.656c.962-.755 2.357-.65 3.428-.187a11.333 11.333 0 0 1 4.435 3.605c5.83-.772 11.808.986 16.592 4.328 4.42 3.059 7.84 7.339 10.568 11.928 7.086 11.075 15.15 21.625 24.743 30.656 4.436 4.121 9.228 7.917 14.572 10.799 3.679 1.927 7.613 3.59 11.777 4.029 5.23.013 10.367-3.54 12.125-8.481.902-3.346.764-6.885.382-10.298a135.4 135.4 0 0 1 1.911-1.027c.518 3.291.468 6.635.076 9.937 1.779-1.232 3.288-2.855 5.218-3.86.902-.455 2.385-.827 2.949.307.6 1.546-.677 3.167-2.05 3.782-2.314.908-4.69 1.66-6.986 2.616-2.088 4.347-6.111 7.777-10.83 8.899-4.82 1.198-9.886.26-14.46-1.449-10.347-3.971-19.55-10.648-26.96-18.847-2.861-3.136-5.476-6.484-8.094-9.821-3.382-4.842-6.146-10.08-9.392-15.011-3.154-4.841-6.557-9.657-11.1-13.302-2.796-2.212-6.482-3.856-10.09-2.923-3.335.873-6.146 3.202-8.112 5.98C5.104 34.132 4.006 37.792 5 41.182c.79 2.987 3.296 5.54 6.381 6.08 1.814.364 3.943-.23 4.988-1.838.715-1.01.82-2.286.829-3.485-.921 1.034-2.26 1.864-3.696 1.48-2.252-.509-2.773-3.694-1.312-5.258 1.283-1.513 3.997-1.4 5.078.302 1.738 2.583 1.474 6.409-.65 8.699-1.88 1.946-4.927 2.014-7.346 1.187-2.598-.85-4.614-2.981-5.698-5.446-1.413-3.158-1.717-6.918-.334-10.14 1.528-3.654 4.671-6.417 8.139-8.2-1.66-.55-3.444-1.069-4.718-2.33-.654-.64-1.1-1.9-.282-2.577zm0 0" />
            <path fill="none" stroke="#F8F8FF" stroke-miterlimit="10" stroke-width=".035"
                d="M45.673 25.29c5.725 3.314 10.769 7.684 15.64 12.129 4.753 4.67 9.266 9.58 13.738 14.52 2.44 2.605 4.47 5.601 7.241 7.89 2.61 2.307 5.577 4.208 8.816 5.503-6.237-.751-11.331-5.034-15.263-9.658-9.184-10.951-19.3-21.11-30.172-30.384zm0 0" />
            <path fill="#F8F8FF"
                d="M45.673 25.29c5.725 3.314 10.769 7.684 15.64 12.129 4.753 4.67 9.266 9.58 13.738 14.52 2.44 2.605 4.47 5.601 7.241 7.89 2.61 2.307 5.577 4.208 8.816 5.503-6.237-.751-11.331-5.034-15.263-9.658-9.184-10.951-19.3-21.11-30.172-30.384zm0 0" />
            <path fill="none" stroke="#F8F8FF" stroke-miterlimit="10" stroke-width=".035"
                d="M27.885 27.662c4.37 2.76 7.793 6.754 10.783 10.915 4.873 6.828 8.71 14.362 13.978 20.913 3.315 3.95 6.566 8.002 10.507 11.357 4.917 4.23 10.37 7.772 15.809 11.286-4.18-1.64-8.008-4.061-11.682-6.615-10.93-7.615-19.209-18.403-25.916-29.779-3.681-6.568-7.956-12.908-13.479-18.077zm0 0" />
            <path fill="#F8F8FF"
                d="M27.885 27.662c4.37 2.76 7.793 6.754 10.783 10.915 4.873 6.828 8.71 14.362 13.978 20.913 3.315 3.95 6.566 8.002 10.507 11.357 4.917 4.23 10.37 7.772 15.809 11.286-4.18-1.64-8.008-4.061-11.682-6.615-10.93-7.615-19.209-18.403-25.916-29.779-3.681-6.568-7.956-12.908-13.479-18.077zm0 0" />
            <path fill="none" stroke="#36454F" stroke-miterlimit="10" stroke-width=".035"
                d="M17.542 50.223c3.16-2.997 7.122-5.02 11.209-6.438a209.631 209.631 0 0 0 19.823 34.95c3.666 5.187 7.616 10.178 11.902 14.868 2.897 3.223 7.224 5.109 11.552 5.08 1.242-.102 2.78-.275 3.501-1.446.452-.966-.427-1.854-1.184-2.321-1.837-1.075-4.152-1.42-6.187-.745-1 .37-1.84 1.045-2.743 1.59a74.59 74.59 0 0 1-1.866-1.306c2.014-2.027 5.044-2.63 7.802-2.326 1.832.19 3.811.707 5.042 2.178.985 1.13 1.062 2.995.051 4.135-1.248 1.474-3.268 1.947-5.121 1.967-3.478.023-6.815-1.21-9.905-2.704-6.02-2.924-11.161-7.378-15.583-12.35-4.27-4.853-7.845-10.288-10.865-15.994-3.66-7.026-6.583-14.496-8.068-22.297-4.001 1.505-7.643 4.468-9.181 8.548-1.397 3.505-.972 7.403-.027 10.965.565 2.096 1.446 4.25 3.212 5.621-.393.876-.776 1.756-1.169 2.632-3.237-2.257-5.989-5.464-6.934-9.368-1.374-5.464.778-11.372 4.74-15.239zm0 0" />
            <path fill="#36454F"
                d="M17.542 50.223c3.16-2.997 7.122-5.02 11.209-6.438a209.631 209.631 0 0 0 19.823 34.95c3.666 5.187 7.616 10.178 11.902 14.868 2.897 3.223 7.224 5.109 11.552 5.08 1.242-.102 2.78-.275 3.501-1.446.452-.966-.427-1.854-1.184-2.321-1.837-1.075-4.152-1.42-6.187-.745-1 .37-1.84 1.045-2.743 1.59a74.59 74.59 0 0 1-1.866-1.306c2.014-2.027 5.044-2.63 7.802-2.326 1.832.19 3.811.707 5.042 2.178.985 1.13 1.062 2.995.051 4.135-1.248 1.474-3.268 1.947-5.121 1.967-3.478.023-6.815-1.21-9.905-2.704-6.02-2.924-11.161-7.378-15.583-12.35-4.27-4.853-7.845-10.288-10.865-15.994-3.66-7.026-6.583-14.496-8.068-22.297-4.001 1.505-7.643 4.468-9.181 8.548-1.397 3.505-.972 7.403-.027 10.965.565 2.096 1.446 4.25 3.212 5.621-.393.876-.776 1.756-1.169 2.632-3.237-2.257-5.989-5.464-6.934-9.368-1.374-5.464.778-11.372 4.74-15.239zm0 0" />
            <path fill="none" stroke="#F8F8FF" stroke-miterlimit="10" stroke-width=".035"
                d="m29.737 51.749.499.518c3.302 7.152 7.256 14.002 11.51 20.633 4.683 7.178 9.74 14.187 15.884 20.198-5.167-3.473-9.344-8.214-13.039-13.176-5.89-7.92-10.156-16.896-13.838-26.012-.11-.841-.823-1.371-1.016-2.161zm0 0" />
            <path fill="#F8F8FF"
                d="m29.737 51.749.499.518c3.302 7.152 7.256 14.002 11.51 20.633 4.683 7.178 9.74 14.187 15.884 20.198-5.167-3.473-9.344-8.214-13.039-13.176-5.89-7.92-10.156-16.896-13.838-26.012-.11-.841-.823-1.371-1.016-2.161zm0 0" />
            <path fill="none" stroke="#36454F" stroke-miterlimit="10" stroke-width=".035"
                d="M26.189 68.026c1.648-.881 3.751-1.578 5.53-.663 2.048 1.053 2.313 4.204.618 5.698-1.945 1.815-4.74 2.306-7.311 2.363.108-.663.191-1.33.35-1.982 1.734-.152 3.639-.07 5.141-1.1.964-.605 1.394-2.062.657-3-.672-.794-1.856-.77-2.757-.446-1.953.688-3.334 2.42-4.168 4.252-.935 2.149-1.307 4.515-1.27 6.85-.016 5.727 1.451 11.59 4.928 16.222 3.512 4.854 9.024 8.561 15.137 8.797 6.01.219 11.543-2.962 15.8-6.965.866.42 1.742.824 2.605 1.26-3.259 3.603-7.274 6.603-11.864 8.27.199 1.148.39 2.365.06 3.505-.562 1.36-1.427 2.682-2.713 3.452-.78.501-1.904.546-2.602-.112-.647-.756-.417-1.947.258-2.605.975-1.103 2.365-2.095 2.431-3.707-4.695.989-9.881.737-13.961-2.027-1.824 2.08-4.466 3.517-7.253 3.633-.594.041-1.386-.122-1.523-.804.093-1.29 1.269-2.164 2.374-2.622 1.54-.659 3.612.193 4.817-1.25-4.312-2.824-7.687-6.985-9.671-11.732-2.446.15-5.173-.643-6.54-2.816-.591-1.025-1.177-2.352-.56-3.492.35-.517 1.036-.443 1.575-.384 2.163.553 2.61 3.608 4.976 3.747-1.026-4.795-1.487-9.835-.401-14.659.712-3.1 2.443-6.16 5.337-7.683zm0 0" />
            <path fill="#36454F"
                d="M26.189 68.026c1.648-.881 3.751-1.578 5.53-.663 2.048 1.053 2.313 4.204.618 5.698-1.945 1.815-4.74 2.306-7.311 2.363.108-.663.191-1.33.35-1.982 1.734-.152 3.639-.07 5.141-1.1.964-.605 1.394-2.062.657-3-.672-.794-1.856-.77-2.757-.446-1.953.688-3.334 2.42-4.168 4.252-.935 2.149-1.307 4.515-1.27 6.85-.016 5.727 1.451 11.59 4.928 16.222 3.512 4.854 9.024 8.561 15.137 8.797 6.01.219 11.543-2.962 15.8-6.965.866.42 1.742.824 2.605 1.26-3.259 3.603-7.274 6.603-11.864 8.27.199 1.148.39 2.365.06 3.505-.562 1.36-1.427 2.682-2.713 3.452-.78.501-1.904.546-2.602-.112-.647-.756-.417-1.947.258-2.605.975-1.103 2.365-2.095 2.431-3.707-4.695.989-9.881.737-13.961-2.027-1.824 2.08-4.466 3.517-7.253 3.633-.594.041-1.386-.122-1.523-.804.093-1.29 1.269-2.164 2.374-2.622 1.54-.659 3.612.193 4.817-1.25-4.312-2.824-7.687-6.985-9.671-11.732-2.446.15-5.173-.643-6.54-2.816-.591-1.025-1.177-2.352-.56-3.492.35-.517 1.036-.443 1.575-.384 2.163.553 2.61 3.608 4.976 3.747-1.026-4.795-1.487-9.835-.401-14.659.712-3.1 2.443-6.16 5.337-7.683zm0 0" />
        </symbol>
        <symbol id="bach_signature-symbol" preserveAspectRatio="xMidYMid slice" viewBox="0 0 360 72">
            <path fill="#57728b"
                d="M18.193 67.45c-1.513-.61-1.065-3.275 1.007-5.993 2.757-3.614 12.717-11.343 15.277-11.855 3.954-.791 4.73-4.413 1.359-6.332-2.566-1.46-2.66-2.193-1.015-7.908 1.025-3.56 2.044-5.015 6.68-9.536 5.615-5.477 8.22-7.025 9.187-5.462.624 1.01-.318 6.782-1.452 8.901-1.099 2.053-.94 3.754.351 3.754 1.809 0 1.274 1.285-.746 1.792-1.254.314-2.36 1.529-3.392 3.724-.842 1.792-2.178 3.843-2.969 4.559-2.143 1.939-1.75 2.756 1.163 2.416 2.014-.236 2.6-.036 2.6.884 0 .654-.395 1.584-.879 2.068-.483.484-.66 1.098-.393 1.365.267.267 1.455-.551 2.639-1.819 2.282-2.443 3.176-2.468 2.55-.071-.48 1.835-4.022 4.401-6.075 4.401-1.165 0-1.557-.467-1.557-1.857 0-3.062-2.63-2.37-4.946 1.3-2.79 4.422-9.666 11.527-13.59 14.043-3.303 2.118-4.057 2.33-5.8 1.627zm5.633-3.53c3.472-1.795 11.908-11.582 9.984-11.582-1.703 0-13.137 8.942-14.363 11.232-.622 1.164-.487 1.4.8 1.4.852 0 2.463-.472 3.58-1.05zm17.96-23.844c.56-.675.746-2.023.469-3.408-.395-1.977-.051-2.695 2.508-5.228 2.837-2.809 4.077-6.595 2.16-6.595-1.084 0-8.88 8.157-9.587 10.031-.309.818-.399 2.573-.2 3.901.284 1.908.713 2.415 2.042 2.415.925 0 2.099-.502 2.609-1.116zm3.343-5.447c0-1.344-1.454-1.099-1.743.294-.16.774.118 1.114.743.906.55-.184 1-.724 1-1.2zM163.66 62.184c.007-.307 1.511-3.05 3.344-6.097 1.832-3.046 3.331-6.148 3.331-6.892 0-1.26-.152-1.275-2.192-.22-2.71 1.402-4.066 1.433-5.157.118-.641-.773-.574-1.24.28-1.949 1.205-.999 1.534-2.98.497-2.98-.846 0-2.743 2.268-3.374 4.034-.485 1.358-.577 1.366-1.784.143-1.204-1.219-1.12-1.43 1.552-3.893 3.469-3.197 6.834-3.337 6.834-.283 0 1.388.375 1.837 1.486 1.778 3.12-.167 3.794-.824 6.478-6.324 4.066-8.332 7.721-11.92 16.538-16.236 4.885-2.391 7.782-3.42 8.5-3.018.816.457.149 1.133-2.679 2.712-2.611 1.458-4.024 2.816-4.608 4.43-.463 1.28-1.506 2.928-2.318 3.663-1.623 1.469-1.961 4.782-.624 6.119.641.641.18 1.249-1.858 2.451-1.49.88-2.71 1.737-2.71 1.906 0 .169 1.293.1 2.874-.152 3.192-.511 6.043.604 6.043 2.362 0 1.624-2.133 5.51-3.025 5.51-.458 0-.571-.993-.286-2.516.61-3.246-.461-3.893-4.328-2.617-2.114.698-3.696 1.954-5.265 4.18-2.323 3.295-3.017 3.73-3.838 2.402-.265-.43 1.086-2.457 3.002-4.506 3.131-3.347 3.437-3.98 3.012-6.246-.404-2.155-.111-2.93 2.024-5.34 2.883-3.255 4.989-6.24 4.989-7.071 0-1.318-2.958-.427-5.628 1.695-4.099 3.257-5.984 6.23-8.862 13.969-1.716 4.617-4.02 8.868-7.115 13.127-4.437 6.107-5.16 6.915-5.133 5.74zm172.075-5.312c-1.214-1.342-1.194-1.47.422-2.6 2.092-1.467 3.624-1.507 5.488-.143 1.406 1.028 1.406 1.076.027 2.6-1.75 1.935-4.261 1.995-5.937.143zm-41.515-1.273c-1.228-1.228-.378-4.176 1.957-6.788 2.324-2.599 4.194-5.478 4.194-6.455 0-.231-2.153-.42-4.786-.42-2.632 0-5.002-.35-5.265-.776-.264-.427.066-1.61.734-2.628l1.213-1.851 1.923 1.512c2.052 1.615 4.985 1.931 7.838.847.964-.367 3.17-2.86 4.904-5.54 3.918-6.058 6.413-8.18 8.38-7.126.774.414 1.407 1.25 1.407 1.857 0 2.427-3.986 6.922-8.916 10.053-2.84 1.804-5.173 3.679-5.183 4.167-.011.487.683 1.379 1.543 1.98 1.326.93 1.484 1.551 1.049 4.13-.468 2.77-.373 3.034 1.087 3.034.88 0 2.164-.295 2.852-.657.726-.38 4.567-.375 9.152.015 8.797.749 11.79.161 11.79-2.312 0-.842.492-1.504 1.115-1.504 2.284 0 1.112 2.953-1.985 5.003-2.385 1.578-3.886 2.02-6.502 1.918-1.87-.073-7.824-.188-13.229-.255l-9.827-.123 1.15-2.226c.634-1.224.932-2.446.662-2.714-.49-.49-2.405 1.464-5.213 5.325-.83 1.139-1.749 1.83-2.044 1.534zm3.179-4.747c0-.409-.147-.743-.328-.743-.18 0-.534.334-.787.743-.252.409-.105.743.328.743s.787-.334.787-.743zm13.72-17.167c2.518-2.21 3.452-4.382 1.884-4.382-.964 0-5.944 5.3-5.944 6.325 0 .952 1.679.148 4.06-1.943zM116.836 52.867c-2.658-1.337-2.84-4.444-.404-6.88 3.226-3.226 7.279-1.04 4.889 2.636-.597.918-.988.951-2.224.186-2.078-1.289-2.4-1.177-2.127.735.47 3.294 5.121 2.598 9.585-1.435 3.86-3.487 5.991-7.195 8.887-15.462 3.216-9.179 6.321-14.782 10.984-19.82 4.095-4.424 9.48-7.583 14.415-8.456 2.436-.431 3.043-.21 5.108 1.855 2.056 2.056 2.295 2.707 1.946 5.307-.547 4.084-3.52 7.71-7.594 9.266-3.834 1.464-5.3 1.004-2.109-.663 6.342-3.311 10.14-11.737 5.784-12.83-8.255-2.072-17.816 5.062-21.971 16.394-.905 2.469-3.373 8.167-5.484 12.662-3.038 6.47-4.642 8.92-7.69 11.748-3.364 3.12-7.75 5.738-9.557 5.703-.32-.006-1.417-.431-2.438-.946zm-59.259-.948c-1.238-.91-1.236-1.068.041-3.24.739-1.257 1.008-2.285.6-2.285-.41 0-1.336 1.003-2.06 2.229-.725 1.226-1.58 2.23-1.9 2.23-1.187 0-.527-2.535 1.275-4.897 1.756-2.302 2.514-5.51 1.3-5.504-.306.002-1.685.69-3.063 1.53-2.803 1.71-4.553 1.452-4.553-.669 0-1.082.686-1.503 2.944-1.806 3.778-.507 8.248-2.732 9.265-4.613 4.438-8.203 8.276-12.154 10.065-10.363 1.105 1.105-1.21 4.986-5.99 10.04-2.775 2.935-4.395 5.286-4.395 6.378 0 .951.334 1.73.743 1.73 1.216 0 .848 2.254-.804 4.927l-1.547 2.503h2.381c1.948 0 2.225.188 1.524 1.032-1.23 1.483-4.307 1.894-5.826.778zm9.43-20.871c.853-1.085 1.386-2.135 1.186-2.336-.49-.49-2.538 1.263-3.439 2.945-1.121 2.096.462 1.668 2.253-.61zm26.471 21.366c-.987-.387-1.162-.732-.557-1.106.484-.299.88-1.066.88-1.705 0-.966-.195-1-1.153-.206-.973.808-1.217.707-1.572-.652-.553-2.113-1.917-2.034-4.07.237-2.05 2.16-2.865 2.343-2.865.64 0-1.144-.095-1.144-1.36 0-1.783 1.614-2.356 1.552-2.356-.256 0-.822-.495-1.486-1.108-1.486-.61 0-1.526.669-2.036 1.486-.972 1.556-3.193 1.92-4.944.812-.632-.4-1.98-.255-3.49.376-1.673.699-2.615.778-2.943.247-.85-1.375 1.105-4.726 3.767-6.457 2.192-1.427 2.808-1.538 4.095-.743 1.068.659 1.393 1.43 1.101 2.607-.557 2.25 1.023 2.183 4.518-.188 1.834-1.244 3.024-1.625 3.597-1.15.806.67 1.682.793 5.246.738.817-.012 2.394-.022 3.505-.022 1.11 0 2.217-.319 2.459-.71.242-.391 1.247-.711 2.235-.711 1.598 0 1.746.244 1.349 2.229-.407 2.033-.243 2.27 1.864 2.691 2.82.564 2.339 1.767-.705 1.767-1.278 0-2.39.47-2.637 1.115-.471 1.23-.722 1.269-2.82.447zm-22.086-6.661c-1.11-.395-2.366 1.115-1.754 2.107.365.59.832.438 1.519-.493.614-.833.703-1.447.235-1.614zm211.642 6.09c-.272-.273-.495-1.108-.495-1.858 0-1.67-.655-1.713-2.834-.187-1.182.828-2.504 1.036-4.471.704-1.536-.26-3.752-.107-4.924.338-1.557.592-2.35.585-2.94-.026-.588-.61.573-2.126 4.293-5.6 4.644-4.338 6.886-5.535 8.098-4.323.243.243-.202 1.497-.988 2.787-.787 1.29-1.431 2.639-1.433 2.999-.006 1.346 5.542-.31 8.204-2.45 3.323-2.67 4.354-2.19 1.804.84-1.01 1.201-1.837 2.503-1.837 2.893 0 1.273 2.289 1.625 4.136.637 2.975-1.593 2.791-.342-.261 1.773-2.744 1.902-5.325 2.5-6.352 1.473zm-7.926-6.374c0-.415-.493-.334-1.114.182-.613.508-1.115 1.26-1.115 1.668 0 .414.493.334 1.115-.182.613-.509 1.114-1.26 1.114-1.668zm-139.139 4.968c-1.123-1.161-.51-4.157 1.201-5.869.967-.966 3.14-2.463 4.83-3.325l3.072-1.567v1.704c0 1.191-.798 2.133-2.652 3.132-1.459.785-2.978 2.037-3.376 2.78-1.129 2.11 1.038 2.454 5.422.86l3.815-1.387 4.556-9.085c4.618-9.209 7.332-12.863 10.96-14.76 2.767-1.444 2.824-1.409 2.824 1.78 0 3.244-2.767 8.01-6.963 11.994-1.483 1.408-2.698 3.08-2.7 3.715-.006 2.645-3.08 6.117-7.003 7.914-4.015 1.838-12.946 3.188-13.986 2.114zm22.598-15.003c3.155-3.317 6.568-8.33 6.568-9.647 0-3.219-6.578 3.647-9.072 9.469-1.586 3.702-.895 3.75 2.504.178zm81.012 14.588c-3.685-1.082-2.836-2.945 1.975-4.338 3.56-1.031 6.804-3.552 6.804-5.287 0-.347-1.338-1.032-2.972-1.522-2.964-.888-2.973-.901-2.965-4.674.008-4.623 2.19-9.573 7.012-15.914 5.148-6.77 10.232-10.15 18.016-11.982 4.97-1.169 6.453-.637 8.344 2.99 2.281 4.377 2.044 8.693-.685 12.46-2.545 3.514-2.656 4.04-1.114 5.32 1.405 1.166 1.45 5.951.086 9.126-1.143 2.659-5.23 6.74-9.733 9.72-3.552 2.351-3.824 2.377-4.846.468-.656-1.227-.456-1.833 1.131-3.42 1.803-1.803 2.018-1.85 3.277-.71 1.88 1.7 4.445.413 6.986-3.507 2.327-3.587 2.544-7.106.59-9.52l-1.396-1.723-3.226 1.454c-6.465 2.914-18.134 13.121-18.134 15.862 0 .69 1.345 1.651 3.344 2.39 1.84.68 3.344 1.692 3.344 2.25 0 1.255-12.02 1.677-15.838.557zm12.826-14.282c.747-.546 1.215-1.426 1.039-1.954-.225-.672-.98-.381-2.518.97-2.34 2.057-1.108 2.876 1.479.984zm-2.283-2.07c1.927-1.277 5.388-4.454 7.69-7.06 2.301-2.605 4.627-4.737 5.168-4.737 1.152 0 1.31 1.196.243 1.855-.406.251-1.084 1.102-1.506 1.89-.709 1.324-.61 1.375 1.272.66 1.121-.427 2.464-1.128 2.983-1.559.519-.43 1.736-.584 2.706-.34 4.384 1.1 8.407-9.757 5.273-14.23-2.472-3.53-11.147-1.341-18.579 4.686-1.659 1.346-4.752 5.016-6.873 8.156-3.347 4.954-3.856 6.19-3.856 9.354 0 4.386.627 4.538 5.479 1.325zm9.242-2.834c.186-.557-.092-.836-.65-.65-.536.178-1.121.764-1.3 1.3-.186.557.093.836.65.65.537-.179 1.122-.764 1.3-1.3zm-61.171 17.03c-.717-1.16 2.328-5.564 4.544-6.574 2.796-1.274 3.063-.493.565 1.657-1.17 1.008-1.923 2.039-1.67 2.291.25.253 1.923-.766 3.714-2.264 2.845-2.379 3.287-2.547 3.487-1.325.531 3.24.74 3.37 3.287 2.043 1.336-.697 3.599-1.502 5.03-1.79 1.43-.29 3.185-.77 3.9-1.07 1.073-.449 1.3-.148 1.3 1.721 0 1.246.351 2.482.78 2.746 1.142.706-.628 2.579-2.436 2.579-1.043 0-1.342-.346-1.021-1.182.817-2.13-.358-2.59-2.58-1.008-1.911 1.362-2.235 1.408-2.63.376-.4-1.041-.731-1.004-2.872.318-2.94 1.818-4.547 1.896-5.46.266-.626-1.12-.891-1.086-2.938.371-2.435 1.734-4.26 2.043-5 .845zm-.611-13.114c-.94-.938-.493-3.062.743-3.536 1.821-.699 2.767.615 1.776 2.466-.86 1.607-1.648 1.942-2.52 1.07z" />
        </symbol>
        <symbol id="violin-symbol" viewBox="0 0 512 512">
            <g>
                <path
                    d="M512 36.623c0-2.892-1.127-5.613-3.172-7.658L483.032 3.168c-4.222-4.221-11.092-4.221-15.317.001l-5.024 5.024-.252-.252a8.603 8.603 0 0 0-12.168-.011 8.606 8.606 0 0 0-.013 12.17l.264.265-5.029 5.029c-3.151 3.153-3.944 7.783-2.388 11.684l-5.832 5.453-1.145-1.145a8.605 8.605 0 0 0-12.169 12.168l.737.737-120.492 112.643c-16.085-10.071-33.83-16.128-50.634-17.175-20.482-1.277-38.704 4.985-51.349 17.628-10.245 10.243-17.316 19.916-22.224 30.401-1.964 3.308-6.364 9.006-14.653 12.227a13.084 13.084 0 0 0-8.336 12.065 13.115 13.115 0 0 0 7.946 12.253l.464.208c.295.166.6.315.916.445.995.413 1.29.844 1.381.98.885 1.298.483 5.045-2.489 10.208-3.837 6.666-10.84 13.758-19.222 19.465-8.363 5.706-17.521 9.626-25.125 10.756-5.792.862-9.408-.091-10.375-1.358-.179-.32-1.023-1.899-3.234-7.051a12.314 12.314 0 0 0-11.34-7.461l-.164.001a12.305 12.305 0 0 0-11.295 7.748c-1.509 3.766-3.698 7.098-6.506 9.907-3.145 3.145-7.003 5.522-11.155 6.872-19.29 6.262-35.258 15.344-46.179 26.264-18.372 18.373-24.765 44.834-18 74.512 5.578 24.467 19.611 49.614 39.785 71.593L2.997 496.839a8.604 8.604 0 0 0 6.085 14.689c2.201 0 4.405-.84 6.085-2.521l39.417-39.417c21.974 20.172 47.12 34.205 71.589 39.779 7.718 1.759 15.216 2.627 22.412 2.627 20.478 0 38.504-7.036 52.097-20.631 10.904-10.903 19.991-26.862 26.283-46.164 2.595-8.006 8.703-14.448 16.751-17.672a12.322 12.322 0 0 0 4.183-2.74c2.877-2.877 4.135-7.005 3.366-11.044-.766-4.016-3.472-7.385-7.269-9.028-5.211-2.229-6.716-3.042-7.02-3.216-3.419-2.514-2.443-18.133 9.39-35.513 5.709-8.376 12.804-15.38 19.468-19.214 5.163-2.971 8.912-3.372 10.203-2.492.142.098.576.393.988 1.388.13.312.278.616.443.909l.189.431a13.114 13.114 0 0 0 12.274 7.98c5.364-.07 10.097-3.343 12.064-8.352 3.255-8.334 8.943-12.693 12.227-14.619 10.496-4.937 20.165-12.015 30.393-22.245 12.64-12.639 18.896-30.874 17.617-51.344-1.05-16.801-7.103-34.547-17.165-50.639l105.839-113.21 1.092 1.092a8.58 8.58 0 0 0 6.085 2.521c2.202 0 4.405-.84 6.085-2.521a8.604 8.604 0 0 0 0-12.168l-1.503-1.502 12.261-13.115c1.291.515 2.659.774 4.029.774 2.773 0 5.547-1.056 7.659-3.167l5.019-5.019.263.263a8.578 8.578 0 0 0 6.085 2.521c2.202 0 4.404-.84 6.084-2.521a8.603 8.603 0 0 0 .001-12.169l-.263-.264 5.029-5.029A10.75 10.75 0 0 0 512 36.623zM60.529 451.488a186.874 186.874 0 0 1-4.849-5.057l29.162-29.163 9.892 9.892-29.163 29.163a182.892 182.892 0 0 1-5.042-4.835zm271.912-153.879c-8.876 8.877-17.086 14.906-25.835 18.974a8.69 8.69 0 0 0-.629.325c-4.215 2.399-11.257 7.435-16.586 16.417a19.19 19.19 0 0 0-3.654-3.249c-7.493-5.112-17.616-4.478-28.495 1.786-8.964 5.159-17.879 13.838-25.107 24.441-16.628 24.426-18.693 49.989-4.828 59.445.263.179.571.379.98.615-8.321 5.673-14.568 13.886-17.693 23.52-5.374 16.486-13.217 30.448-22.085 39.316-17.993 17.992-41.757 17.213-58.516 13.394-17.13-3.904-34.768-12.64-51.207-25.149l33.592-33.592 48.223-32.021a8.608 8.608 0 0 0 1.325-13.253l-38.505-38.504a8.603 8.603 0 0 0-13.253 1.325l-32.02 48.223-33.591 33.591c-12.509-16.441-21.246-34.078-25.15-51.208-3.822-16.766-4.602-40.526 13.391-58.518 8.878-8.879 22.843-16.714 39.327-22.066 6.724-2.188 12.952-6.016 18.006-11.071a46.282 46.282 0 0 0 5.505-6.638c.229.398.422.7.598.955 5.11 7.491 14.761 10.599 27.174 8.753 10.235-1.521 21.704-6.339 32.286-13.558 10.601-7.218 19.284-16.132 24.446-25.101 6.263-10.881 6.9-20.999 1.788-28.497a19.154 19.154 0 0 0-3.25-3.654c8.931-5.298 13.987-12.324 16.411-16.537.127-.221.246-.449.352-.68 4.039-8.736 10.061-16.945 18.951-25.835 16.968-16.969 48.078-16.759 76.748-.407l-91.452 85.499a8.606 8.606 0 0 0-.209 12.371l35.501 35.501a8.605 8.605 0 0 0 6.085 2.521l.145-.001a8.605 8.605 0 0 0 6.142-2.727l85.494-91.447c16.336 28.678 16.549 59.788-.405 76.741zM95.906 403.992l22.784-34.313 23.633 23.632-34.314 22.784-12.103-12.103zm144.95-109.935-22.916-22.916L454.03 50.424l7.546 7.546-220.72 236.087zM478.951 49.82l-16.774-16.774 13.196-13.197 16.775 16.774-13.197 13.197z" />
                <path
                    d="M226.714 349.078c5.127-8.169 2.653-18.984-5.515-24.111a8.605 8.605 0 1 0-9.15 14.576c.131.083.17.255.088.384l-25.663 40.884a17.376 17.376 0 0 0-2.235 13.198 17.374 17.374 0 0 0 7.751 10.912 8.598 8.598 0 0 0 11.862-2.714 8.605 8.605 0 0 0-2.713-11.862c-.034-.022-.099-.062-.124-.174a.255.255 0 0 1 .036-.21l25.663-40.883zm-39.68-58.276a17.378 17.378 0 0 0-10.913-7.751 17.367 17.367 0 0 0-13.197 2.236L122.04 310.95a.25.25 0 0 1-.211.036.246.246 0 0 1-.173-.124 8.603 8.603 0 0 0-11.863-2.713 8.603 8.603 0 0 0-2.713 11.862 17.378 17.378 0 0 0 10.913 7.751 17.378 17.378 0 0 0 13.197-2.236l40.884-25.663a.255.255 0 0 1 .211-.036.243.243 0 0 1 .173.124 8.604 8.604 0 0 0 11.863 2.713 8.603 8.603 0 0 0 2.713-11.862z" />
            </g>
        </symbol>
        <symbol id="ukulele-symbol" viewBox="0 0 511.999 511.999">
            <g>
                <path
                    d="M232.072 279.929c-17.591-17.589-46.208-17.589-63.799 0-17.587 17.589-17.587 46.208 0 63.797 8.796 8.796 20.346 13.192 31.899 13.192 11.552 0 23.105-4.398 31.899-13.192 8.521-8.521 13.212-19.849 13.212-31.899.001-12.049-4.691-23.377-13.211-31.898zm-12.598 51.2c-10.642 10.643-27.961 10.643-38.602 0-10.643-10.643-10.643-27.961 0-38.602 5.321-5.321 12.31-7.983 19.301-7.983s13.98 2.66 19.301 7.981c5.156 5.156 7.994 12.011 7.994 19.301 0 7.293-2.838 14.148-7.994 19.303zm-52.316 69.792-56.077-56.077a8.909 8.909 0 0 0-12.598 0l-20 20a8.907 8.907 0 0 0 0 12.597l56.076 56.077a8.911 8.911 0 0 0 12.599 0l20-20a8.907 8.907 0 0 0 0-12.597zm-26.3 13.7L97.38 371.142l7.402-7.402 43.478 43.479-7.402 7.402z" />
                <path
                    d="m506.682 68.188 2.266-1.978a8.907 8.907 0 0 0 2.359-10.152c-10.54-25.165-30.203-44.827-55.366-55.366a8.908 8.908 0 0 0-10.152 2.359l-1.978 2.266-.355-.355c-3.479-3.479-9.119-3.48-12.597 0a8.906 8.906 0 0 0-.001 12.597l1.21 1.21-7.08 8.111-.354-.354c-3.479-3.479-9.119-3.48-12.597 0a8.906 8.906 0 0 0-.001 12.597l1.21 1.21-7.08 8.111-.125-.125c-3.48-3.479-9.12-3.48-12.597 0a8.906 8.906 0 0 0-.001 12.597l1.936 1.936a58.915 58.915 0 0 0-5.705 14.537l-144.72 134.207c-31.058-17.687-60.746-16.774-80.352 2.83-8.342 8.345-16.562 21.873-23.142 38.091a45.214 45.214 0 0 1-32.733 27.305c-35.758 7.447-71.682 24.358-89.391 42.078C1.982 339.249-3.96 363.783 2.604 390.985c5.914 24.497 21.822 50.641 44.795 73.615 22.975 22.974 49.117 38.882 73.615 44.795 7.224 1.744 14.259 2.605 21.022 2.605 18.703 0 35.318-6.589 48.058-19.332 17.724-17.71 34.636-53.635 42.082-89.395a45.213 45.213 0 0 1 27.293-32.727c16.197-6.553 29.727-14.773 38.102-23.147 19.592-19.593 20.508-49.281 2.83-80.35l134.208-144.724c5.092-1.242 9.973-3.181 14.537-5.704l1.937 1.937a8.88 8.88 0 0 0 6.298 2.609c2.279 0 4.56-.869 6.3-2.609a8.906 8.906 0 0 0-.001-12.597l-.125-.125 8.11-7.079 1.209 1.209a8.878 8.878 0 0 0 6.299 2.609c2.279 0 4.56-.869 6.298-2.609a8.906 8.906 0 0 0 .001-12.597l-.355-.355 8.111-7.08 1.21 1.21a8.878 8.878 0 0 0 6.299 2.609c2.279 0 4.56-.869 6.298-2.609a8.906 8.906 0 0 0 .001-12.597l-.354-.359zM284.975 334.799c-6.627 6.626-18.358 13.635-32.197 19.234-19.53 7.931-33.753 24.982-38.043 45.607-6.692 32.133-22.001 65.204-37.237 80.427-16.395 16.401-37.49 15.584-52.304 12.008-21.355-5.155-44.51-19.387-65.197-40.074-20.688-20.688-34.919-43.843-40.074-65.197-3.576-14.812-4.394-35.909 12.011-52.308 15.218-15.23 48.289-30.54 80.421-37.232 20.625-4.29 37.677-18.511 45.61-38.045 5.621-13.859 12.632-25.594 19.231-32.194 12.565-12.562 32.229-13.34 53.928-2.605l-8.244 7.645a8.909 8.909 0 0 0 6.309 15.435c9.541-.276 18.53 3.292 25.272 10.036 6.744 6.744 10.308 15.719 10.036 25.273a8.907 8.907 0 0 0 15.436 6.309l7.643-8.243c10.73 21.707 9.952 41.372-2.601 53.924zm-5.869-70.986a52.204 52.204 0 0 0-12.044-18.875 52.15 52.15 0 0 0-18.875-12.043L397.552 94.383l20.066 20.066-138.512 149.364zM447.659 96.061a41.045 41.045 0 0 1-14.94 8.292l-25.071-25.071a41.078 41.078 0 0 1 8.292-14.941l38.886-44.55c16.178 8.211 29.172 21.206 37.383 37.384l-44.55 38.886z" />
            </g>
        </symbol>
        <svg id="keyboard-symbol" viewBox="0 0 512 512">
            <path
                d="M503.248 88.852H8.752A8.752 8.752 0 0 0 0 97.604v316.792a8.752 8.752 0 0 0 8.752 8.752h494.497a8.752 8.752 0 0 0 8.752-8.752V97.604a8.754 8.754 0 0 0-8.753-8.752zM117.796 405.645H49.009v-239.78h42.108v143.064a8.751 8.751 0 0 0 8.752 8.75h17.927v87.966zm-9.176-105.468V165.864h35.855v134.313H108.62zm95.478 105.469H135.3v-87.967h17.928a8.752 8.752 0 0 0 8.752-8.752V165.864h42.119v239.782zm86.29 0H221.6V165.864h42.109v143.064a8.752 8.752 0 0 0 8.752 8.752h17.927v87.966zm-9.175-105.469V165.864h35.855v134.313h-35.855zm95.477 105.469h-68.798v-87.967h17.928a8.752 8.752 0 0 0 8.752-8.752V165.864h15.44v143.064a8.752 8.752 0 0 0 8.752 8.752h17.927v87.966zm-9.176-105.469V165.864h35.855v134.313h-35.855zm95.477 105.469h-68.798V317.68h17.928a8.752 8.752 0 0 0 8.752-8.752V165.864h42.119v239.782zm31.506-.001h-14.003V157.113a8.752 8.752 0 0 0-8.752-8.752H40.257a8.752 8.752 0 0 0-8.752 8.752v248.533H17.503v-299.29h476.994v299.289z" />
        </svg>
        <symbol id="harp-symbol" viewBox="0 0 512 512">
            <path
                d="M401.243 129.918a38.186 38.186 0 0 0-20.262-33.765c-16.639-8.868-37.614-4.1-48.796 11.093l-19.868 27.023c-1.573 2.139-3.96 3.312-6.646 3.21-2.645-.099-4.968-1.444-6.375-3.692l-47.357-75.639c-20.005-31.942-56.554-50.377-93.964-47.707-1.303.093-6.221.785-6.221.785C147.992 4.483 140.819 0 132.667 0a22.24 22.24 0 0 0-5.167.615c-10.701 2.597-17.834 12.797-16.606 23.638l48.847 480.623a7.925 7.925 0 0 0 7.885 7.123H314.22a7.928 7.928 0 0 0 5.62-13.517l-27.478-27.615a7.924 7.924 0 0 0-5.618-2.336H268.51L398.5 144.113a38.102 38.102 0 0 0 2.743-14.195zm-17.46 8.308L249.848 472.485a7.938 7.938 0 0 0-.569 2.949v1.025a7.927 7.927 0 0 0 7.926 7.926h26.244l11.703 11.763H174.789L126.656 22.559c-.341-3.011 1.63-5.822 4.55-6.531 3.617-.859 7.051 1.657 7.45 5.195l9.32 83.544c.006.077.014.154.022.233l41.267 369.883a7.925 7.925 0 0 0 3.394 6.05 7.937 7.937 0 0 0 11.661-3.057l173.42-333.575a16.605 16.605 0 0 0 .882-13.2 16.613 16.613 0 0 0-9.076-9.632c-2.606-1.114-5.465-1.537-8.193-1.231-5.126.525-9.625 3.332-12.346 7.7l-18.516 29.728c-6.781 10.884-18.486 17.442-31.312 17.54l-.293.001c-12.712 0-24.393-6.363-31.288-17.064l-48.995-76.021c-7.108-11.024-19.173-17.602-32.27-17.602h-.041a36.2 36.2 0 0 0-4.008.212c-8.396.88-15.902 4.4-21.743 9.693l-5.324-47.727.867-.172c32.651-3.506 64.977 12.183 82.419 40.033l47.356 75.636a23.696 23.696 0 0 0 19.218 11.122 23.732 23.732 0 0 0 20.015-9.659l19.867-27.021c6.545-8.896 18.827-11.689 28.57-6.495a22.361 22.361 0 0 1 11.864 19.775 22.386 22.386 0 0 1-1.61 8.309zM263.956 328.797l-12.095 23.264-25.909-229.272 17.853 27.701 20.151 178.307zm-1.215-151.932a52.576 52.576 0 0 0 15.887 10.189l10.538 93.253-12.104 23.283-14.321-126.725zm-23.985 200.403-12.095 23.264-36.135-319.767c6.02 1.132 11.352 4.673 14.753 9.947l1.328 2.06 32.149 284.496zm-25.2 48.473-11.38 21.889-38.378-343.987-.006-.691a22.485 22.485 0 0 1 11.091-19.449l38.673 342.238zm81.459-234.839c1.419.102 2.846.167 4.287.155a53.528 53.528 0 0 0 10.332-1.089l4.732 41.865-12.096 23.266-7.255-64.197zm29.928-6.633c7.63-4.294 14.19-10.491 19.006-18.222l18.516-29.729c.143-.228.353-.295.579-.318a.518.518 0 0 1 .27.044c.071.031.285.122.388.409a.66.66 0 0 1-.032.548l-36.2 69.627-2.527-22.359z" />
        </symbol>
        <symbol id="xylophone-symbol" viewBox="0 0 512 512">
            <path
                d="M489.052 143.406v-14.638c0-17.52-14.253-31.773-31.773-31.773H419.03c-17.52 0-31.773 14.254-31.773 31.773v14.331h-19.641v-14.331c0-17.52-14.253-31.773-31.773-31.773h-38.249c-17.52 0-31.773 14.254-31.773 31.773v14.331H246.18v-14.331c0-17.52-14.253-31.773-31.773-31.773h-38.25c-17.52 0-31.773 14.254-31.773 31.773v14.331h-19.64v-14.331c0-17.52-14.253-31.773-31.773-31.773H54.723c-17.519 0-31.773 14.254-31.773 31.773v14.638C9.975 145.371 0 156.598 0 170.113v67.204c0 12.728 9.044 23.851 21.505 26.446l1.445.301V300.3c0 17.52 14.253 31.773 31.773 31.773h38.25c17.52 0 31.773-14.253 31.773-31.773v-15.03l19.64 4.089v38.585c0 17.519 14.253 31.773 31.773 31.773h38.25c17.519 0 31.773-14.253 31.773-31.773v-17.378l19.641 4.096v40.926c0 17.519 14.253 31.773 31.773 31.773h38.249c17.52 0 31.773-14.253 31.773-31.773v-19.721l19.641 4.089v43.276c0 17.519 14.253 31.773 31.773 31.773h38.249c17.52 0 31.773-14.253 31.773-31.773v-23.811a26.912 26.912 0 0 0 12.975-5.739A26.905 26.905 0 0 0 512 332.723v-162.61c0-13.514-9.974-24.741-22.948-26.707zM22.95 247.654c-4.175-1.648-7.048-5.737-7.048-10.338v-67.204c0-4.692 2.928-8.705 7.048-10.333v87.875zm85.894 52.646h-.001c0 8.752-7.12 15.872-15.872 15.872H54.723c-8.751 0-15.872-7.12-15.872-15.872V128.768c0-8.752 7.12-15.872 15.872-15.872h38.25c8.752 0 15.872 7.121 15.872 15.872V300.3zm35.541-27.183-19.64-4.089V159.001h19.64v114.116zm85.894 54.827c0 8.751-7.12 15.872-15.872 15.872h-38.25c-8.752 0-15.872-7.12-15.872-15.872V128.767c0-8.752 7.12-15.872 15.872-15.872h38.25c8.751 0 15.872 7.121 15.872 15.872v199.177zm35.543-29.525-19.641-4.096V159.001h19.641v139.418zm85.893 57.169c0 8.751-7.12 15.872-15.872 15.872h-38.249c-8.752 0-15.872-7.12-15.872-15.872V128.767c0-8.752 7.12-15.872 15.872-15.872h38.249c8.752 0 15.872 7.121 15.872 15.872v226.821zm35.543-31.875-19.641-4.089V159.001h19.641v164.712zm70.021 75.39H419.03c-8.752 0-15.872-7.12-15.872-15.872V128.767c0-8.752 7.12-15.872 15.872-15.872h38.249c8.752 0 15.872 7.121 15.872 15.872v254.465c0 8.751-7.12 15.871-15.872 15.871zm34.717-57.759c-.9.731-1.895 1.298-2.944 1.712V159.782c4.119 1.627 7.045 5.641 7.045 10.332v162.609h.001a11.06 11.06 0 0 1-4.102 8.621z" />
            <circle cx="73.13" cy="159.765" r="7.922" />
            <circle cx="73.13" cy="269.399" r="7.922" />
            <circle cx="195.278" cy="159.765" r="7.922" />
            <circle cx="316.732" cy="159.765" r="7.922" />
            <circle cx="438.165" cy="159.765" r="7.922" />
            <circle cx="195.278" cy="288.48" r="7.922" />
            <circle cx="316.69" cy="307.562" r="7.922" />
            <circle cx="438.165" cy="340.944" r="7.922" />
        </symbol>
        <symbol id="flute-symbol" viewBox="0 0 512 512">
            <path
                d="M509.278 55.277 456.724 2.722a9.292 9.292 0 0 0-13.141 0L98.346 347.959c-3.629 3.629-3.629 9.513 0 13.14l15.575 15.576c-8.016 3.001-17.41 1.285-23.846-5.15a22.489 22.489 0 0 1-.738-.776 9.292 9.292 0 0 0-6.657-3.047c-2.556-.083-4.999.921-6.797 2.718l-52.791 52.791c-3.406 3.406-3.615 8.798-.627 12.448L2.722 455.402a9.29 9.29 0 0 0 0 13.14l40.735 40.735a9.29 9.29 0 0 0 13.14 0l19.744-19.744a9.287 9.287 0 0 0 12.446-.627l420.491-420.49c3.629-3.628 3.629-9.512 0-13.139zM50.027 489.567l-27.594-27.594 13.14-13.139 27.594 27.594-13.14 13.139zm32.19-20.371-39.414-39.414 40.145-40.145c15.979 10.828 37.959 9.174 52.105-4.972a9.29 9.29 0 0 0 0-13.14l-16.996-16.996L450.152 22.433l39.414 39.414L82.217 469.196z" />
            <circle cx="217.88" cy="281.698" r="9.259" />
            <circle cx="437.383" cy="62.183" r="9.259" />
            <circle cx="406.025" cy="93.54" r="9.259" />
            <circle cx="374.667" cy="124.898" r="9.259" />
            <circle cx="343.31" cy="156.255" r="9.259" />
            <circle cx="311.952" cy="187.625" r="9.259" />
            <circle cx="280.595" cy="218.983" r="9.259" />
            <circle cx="249.237" cy="250.34" r="9.259" />
        </symbol>

    </defs>

    <!-- row 0 -->
    <view viewBox=   "0   0 100 100" id="close-circle-view" />
    <view viewBox= "200   0 100 100" id="twitter-view" />
    <view viewBox= "400   0 100 100" id="instagram-view" />
    <view viewBox= "600   0 100 100" id="facebook-view" />
    <view viewBox= "800   0 100 100" id="cthiebaud-view" />
    <view viewBox="1000   0 100 100" id="github-view" />
    <view preserveAspectRatio="xMidYMid meet " viewBox="1200   0 100 100" id="youtube-view" />
    <view preserveAspectRatio="xMidYMid meet " viewBox="1400   0 100 100" id="youtube_external_link-view" />
    <view preserveAspectRatio="xMidYMid meet " viewBox="1600   0 100 100" id="share-view" />
    <view preserveAspectRatio="xMidYMid meet " viewBox="1800   0 100 100" id="puzzle-view" />
    <view preserveAspectRatio="xMidYMid meet " viewBox="2000   0 100 100" id="puzzle_filled-view" />
    <view preserveAspectRatio="xMidYMid meet " viewBox="2200   0 100 100" id="home-view" />
    <!-- row 1 -->
    <view preserveAspectRatio="xMidYMid slice" viewBox=  "25 225  50  50" id="treble_clef-view" />
    <view preserveAspectRatio="xMidYMid slice" viewBox= "200 200 100 100" id="ear-view" />
    <view preserveAspectRatio="xMidYMid slice" viewBox= "400 200 100 100" id="note-view" />
    <view preserveAspectRatio="xMidYMid meet " viewBox= "600 200 100 100" id="arrow_in_left-view" />
    <view preserveAspectRatio="xMidYMid meet " viewBox= "800 200 100 100" id="arrow_in_right-view" />
    <view preserveAspectRatio="xMidYMid meet " viewBox="1000 200 100 100" id="arrow_out_left-view" />
    <!-- row 2 -->
    <view preserveAspectRatio="xMidYMid meet " viewBox=   "0 400 100 100" id="bach_siel_full_left-view" />
    <view preserveAspectRatio="xMidYMid meet " viewBox= "200 400 100 100" id="bach_siel_full_right-view" />
    <view preserveAspectRatio="xMidYMid meet " viewBox= "400 400 100 100" id="youtube2-view" />
    <!-- row 3 -->
    <view preserveAspectRatio="xMidYMax meet " viewBox="-200 600 700 100" id="bach_signature-view" />
    <!-- row 4 -->
    <view preserveAspectRatio="xMinYMid meet " viewBox=   "0 800 100 100" id="violin-view" />
    <view preserveAspectRatio="xMinYMid meet " viewBox= "200 800 100 100" id="ukulele-view" />
    <view preserveAspectRatio="xMinYMid meet " viewBox= "400 800 100 100" id="keyboard-view" />
    <view preserveAspectRatio="xMinYMid meet " viewBox= "600 800 100 100" id="harp-view" />
    <view preserveAspectRatio="xMinYMid meet " viewBox= "800 800 100 100" id="xylophone-view" />
    <view preserveAspectRatio="xMinYMid meet " viewBox="1000 800 100 100" id="flute-view" />

    <!-- row 0 -->
    <use x=   "0" y=  "0" width="100" height="100" id="close-circle" xlink:href="#close-circle-symbol"></use>
    <use x= "200" y=  "0" width="100" height="100" id="twitter" xlink:href="#twitter-symbol"></use>
    <use x= "400" y=  "0" width="100" height="100" id="instagram" xlink:href="#instagram-symbol"></use>
    <use x= "600" y=  "0" width="100" height="100" id="facebook" xlink:href="#facebook-symbol"></use>
    <use x= "800" y=  "0" width="100" height="100" id="cthiebaud" xlink:href="#cthiebaud-symbol"></use>
    <use x="1000" y=  "0" width="100" height="100" id="github" xlink:href="#github-symbol"></use>
    <use x="1200" y=  "0" width="100" height="100" id="youtube" xlink:href="#youtube-symbol"></use>
    <use x="1400" y=  "0" width="100" height="100" id="youtube_external_link" xlink:href="#youtube_external_link-symbol"></use>
    <use x="1600" y=  "0" width="100" height="100" id="share" xlink:href="#share-symbol"></use>
    <use x="1800" y=  "0" width="100" height="100" id="puzzle" xlink:href="#puzzle-symbol"></use>
    <use x="2000" y=  "0" width="100" height="100" id="puzzle" xlink:href="#puzzle_filled-symbol"></use>
    <use x="2200" y=  "0" width="100" height="100" id="home" xlink:href="#home-symbol"></use>
    <!-- row 1 -->
    <use x=   "0" y="200" width="100" height="100" id="treble_clef" xlink:href="#treble_clef-symbol"></use>
    <use x= "200" y="200" width="100" height="100" id="ear" xlink:href="#ear-symbol"></use>
    <use x= "400" y="200" width="100" height="100" id="note" xlink:href="#note-symbol"></use>
    <use x= "600" y="200" width="100" height="100" id="arrow_in_left" xlink:href="#arrow_in_left-symbol"></use>
    <use x= "800" y="200" width="100" height="100" id="arrow_in_right" xlink:href="#arrow_in_right-symbol"></use>
    <use x="1000" y="200" width="100" height="100" id="arrow_out_left" xlink:href="#arrow_out_left-symbol"></use>
    <!-- row 2 -->
    <use x=   "0" y="400" width="100" height="100" id="bach_siel_full_left" xlink:href="#bach_siel_full_left-symbol"></use>
    <use x= "200" y="400" width="100" height="100" id="bach_siel_full_right" xlink:href="#bach_siel_full_right-symbol"></use>
    <use x= "400" y="400" width="100" height="100" id="youtube2" xlink:href="#youtube2-symbol"></use>
    <!-- row 3 -->
    <use x=   "0" y="600" width="500" height="100" id="bach_signature" xlink:href="#bach_signature-symbol"></use>
    <!-- row 4 -->
    <use x=   "0" y="800" width="100" height="100" id="violin" xlink:href="#violin-symbol"></use>
    <use x= "200" y="800" width="100" height="100" id="ukulele" xlink:href="#ukulele-symbol"></use>
    <use x= "400" y="800" width="100" height="100" id="ukulele" xlink:href="#keyboard-symbol"></use>
    <use x= "600" y="800" width="100" height="100" id="harp" xlink:href="#harp-symbol"></use>
    <use x= "800" y="800" width="100" height="100" id="xylophone" xlink:href="#xylophone-symbol"></use>
    <use x="1000" y="800" width="100" height="100" id="flute" xlink:href="#flute-symbol"></use>

</svg>