<?xml version="1.0" standalone="no"?>
<!DOCTYPE svg PUBLIC "-//W3C//DTD SVG 20010904//EN"
 "http://www.w3.org/TR/2001/REC-SVG-20010904/DTD/svg10.dtd">
<svg version="1.0" xmlns="http://www.w3.org/2000/svg"
 width="2310.000000pt" height="2310.000000pt" viewBox="0 0 2310.000000 2310.000000"
 preserveAspectRatio="xMidYMid meet">
<metadata>
Created by potrace 1.14, written by Peter Selinger 2001-2017
</metadata>
<g transform="translate(0.000000,2310.000000) scale(0.100000,-0.100000)"
fill="#000000" stroke="none">
<path d="M9777 21832 c-26 -32 -64 -125 -72 -178 -2 -16 -7 -40 -10 -54 -3
-14 -7 -46 -9 -71 -2 -26 -6 -50 -9 -55 -11 -20 3 -372 18 -434 7 -29 13 -59
19 -95 3 -14 12 -52 21 -83 10 -31 17 -58 16 -59 0 -2 20 -43 45 -93 34 -68
67 -112 134 -184 48 -51 96 -109 105 -127 22 -41 21 -105 0 -129 -16 -17 -20
-16 -108 25 -94 43 -271 116 -291 119 -6 1 -15 4 -21 7 -10 7 -77 29 -98 33
-7 2 -19 6 -28 10 -42 18 -243 75 -251 70 -4 -3 -8 0 -8 5 0 6 -3 10 -7 9 -5
-1 -21 1 -38 5 -16 4 -41 10 -55 13 -40 8 -63 13 -90 20 -23 5 -80 17 -140 29
-14 3 -41 8 -60 11 -19 4 -42 7 -50 9 -8 1 -26 5 -40 9 -14 4 -43 8 -65 10
-22 2 -47 6 -55 9 -8 3 -40 9 -70 12 -121 15 -136 16 -170 21 -79 10 -148 16
-192 17 -27 1 -48 4 -48 8 0 3 -26 7 -57 8 -142 6 -189 9 -203 14 -8 3 -46 6
-85 6 -38 1 -135 4 -215 7 -80 3 -298 7 -485 8 l-341 3 -84 68 c-47 38 -130
98 -184 133 -104 68 -334 184 -347 176 -4 -2 -10 0 -14 5 -6 10 -218 82 -232
79 -5 0 -15 1 -23 5 -42 16 -163 37 -242 40 -21 1 -38 4 -38 7 0 4 -37 7 -82
8 -46 2 -111 5 -145 7 -35 2 -63 1 -63 -3 0 -4 -35 -8 -77 -9 -74 -1 -158 -8
-158 -12 0 -1 -16 -4 -35 -6 -149 -16 -365 -86 -439 -142 l-33 -26 69 -36 c38
-20 91 -53 119 -73 63 -47 208 -196 358 -370 179 -208 311 -312 467 -369 44
-16 83 -28 87 -28 4 1 9 0 12 -1 36 -18 338 -15 367 3 6 4 18 1 28 -7 16 -11
7 -20 -81 -83 -432 -310 -960 -876 -1219 -1308 -46 -77 -155 -289 -159 -310
-2 -5 -9 -26 -18 -46 -9 -20 -19 -47 -23 -60 -15 -48 -26 -54 -105 -56 -72 -2
-155 -8 -155 -13 0 -1 -13 -3 -30 -5 -46 -5 -107 -13 -140 -20 -16 -3 -42 -6
-57 -7 -16 -1 -28 -4 -28 -7 0 -3 -10 -7 -22 -7 -13 -1 -39 -4 -58 -8 -19 -3
-46 -8 -60 -11 -14 -2 -38 -7 -55 -10 -16 -3 -42 -6 -57 -7 -16 -1 -28 -5 -28
-10 0 -4 -7 -5 -15 -2 -8 4 -23 3 -32 -1 -10 -4 -36 -9 -58 -11 -86 -10 -100
-12 -100 -14 0 -1 -82 -9 -115 -11 -9 0 -57 11 -106 26 -50 14 -101 28 -113
30 -27 6 -44 11 -111 29 -30 8 -58 12 -62 10 -3 -2 -9 0 -12 5 -3 5 -20 12
-38 15 -18 3 -44 8 -58 11 -14 3 -37 7 -52 10 -15 2 -31 6 -36 8 -4 3 -28 8
-52 11 -25 3 -56 8 -70 11 -55 12 -155 17 -350 18 -212 0 -289 -5 -410 -29
-14 -3 -33 -5 -42 -5 -10 0 -20 -5 -23 -10 -4 -5 -11 -7 -16 -3 -8 5 -96 -16
-139 -33 -8 -3 -22 -7 -30 -8 -8 -1 -44 -12 -80 -25 -88 -30 -165 -36 -300
-25 -57 5 -70 7 -130 19 -19 4 -44 9 -55 11 -11 2 -22 4 -25 6 -3 1 -9 3 -15
4 -5 0 -25 9 -43 18 -44 24 -55 15 -47 -42 3 -25 7 -66 7 -91 0 -25 3 -49 6
-54 3 -5 6 -23 8 -40 4 -42 12 -74 19 -86 4 -6 9 -22 11 -36 15 -85 107 -249
199 -358 84 -99 215 -199 335 -256 43 -21 134 -55 155 -59 6 -1 26 -6 45 -11
19 -5 44 -10 55 -10 11 0 45 -2 75 -4 66 -3 143 13 199 42 56 29 75 21 68 -32
-11 -82 -19 -103 -77 -201 -33 -55 -60 -104 -60 -110 -1 -5 -7 -17 -15 -25
-16 -18 -122 -231 -160 -320 -54 -127 -128 -340 -118 -340 3 0 0 -6 -6 -14 -7
-8 -13 -28 -13 -45 -1 -17 -5 -31 -10 -31 -5 0 -8 -8 -7 -17 2 -10 0 -28 -4
-39 -4 -12 -10 -37 -13 -55 -3 -19 -7 -47 -10 -64 -12 -79 -17 -137 -18 -213
0 -45 -5 -82 -9 -82 -5 0 -5 -5 -1 -11 3 -6 8 -50 10 -97 3 -84 10 -157 14
-157 1 0 3 -13 4 -30 2 -16 7 -46 11 -65 5 -19 8 -38 7 -42 -1 -5 3 -8 9 -8 5
0 8 -4 5 -9 -9 -14 59 -194 109 -288 102 -193 272 -384 455 -515 79 -56 346
-204 373 -206 4 0 32 -10 62 -21 30 -11 65 -23 77 -25 13 -3 46 -11 73 -20 56
-17 80 -22 205 -42 59 -10 348 -12 393 -3 23 5 59 11 79 14 67 8 205 54 293
98 190 94 360 265 442 443 14 30 26 60 27 67 2 7 8 24 14 38 5 14 13 39 16 55
2 16 8 40 11 54 16 65 22 225 12 325 -5 47 -8 67 -23 157 -3 21 -10 40 -15 44
-5 3 -7 9 -4 14 3 5 -3 32 -14 60 -52 136 -186 283 -316 345 -41 20 -85 38
-97 39 -13 2 -30 6 -38 9 -29 10 -151 13 -226 4 -60 -7 -161 -44 -246 -89 -74
-39 -206 -161 -258 -238 -45 -66 -89 -168 -93 -213 -2 -18 -6 -37 -10 -43 -8
-14 -2 -198 7 -213 4 -6 9 -20 11 -31 2 -10 13 -41 25 -67 12 -26 21 -49 20
-51 -2 -6 87 -121 123 -159 36 -38 39 -45 35 -81 -12 -89 -81 -135 -207 -136
-42 -1 -81 2 -87 6 -6 5 -24 10 -40 12 -54 7 -195 74 -297 142 -185 123 -363
325 -465 529 -43 86 -73 153 -77 171 -2 6 -11 38 -20 70 -10 33 -19 66 -20 74
-2 8 -4 17 -5 20 -1 3 -3 10 -5 15 -1 6 -3 12 -4 15 -2 3 -5 28 -7 55 -2 28
-6 68 -9 90 -11 88 -7 210 10 330 5 28 8 60 7 73 0 12 5 22 10 22 6 0 8 9 5
20 -3 11 -1 23 5 26 5 3 7 12 4 20 -3 7 -1 16 4 19 4 3 12 24 16 48 4 23 8 44
9 47 0 3 6 14 12 25 6 11 11 22 11 25 0 3 6 19 12 35 7 17 13 35 14 40 1 6 15
39 31 75 17 36 29 68 27 73 -1 4 2 7 8 7 5 0 10 4 10 10 0 5 23 48 50 96 193
336 549 670 975 914 136 79 380 195 399 191 4 -1 15 4 23 11 8 6 24 13 36 15
11 2 26 8 34 14 7 6 13 9 13 6 0 -5 88 22 130 40 8 3 24 7 35 9 11 1 38 8 60
14 39 10 98 21 123 23 6 0 12 3 12 6 0 3 15 6 33 7 17 0 55 4 82 8 28 4 81 8
118 10 58 2 71 -1 82 -17 9 -13 11 -27 5 -42 -10 -26 -11 -42 -12 -250 0 -138
3 -199 15 -295 14 -101 41 -231 55 -257 6 -11 8 -23 5 -27 -4 -3 -2 -16 4 -29
6 -12 19 -44 28 -72 10 -27 29 -75 43 -105 14 -30 26 -60 28 -67 5 -27 111
-201 168 -276 114 -152 266 -288 416 -372 155 -87 351 -167 443 -180 23 -4 45
-9 50 -12 9 -6 138 -16 185 -15 87 3 118 5 126 10 5 3 23 6 40 8 58 6 79 13
174 60 124 60 237 169 295 284 21 42 39 82 41 90 2 8 6 22 10 31 4 9 8 33 9
53 1 20 5 36 8 36 3 0 5 32 5 70 0 39 -3 70 -6 70 -3 0 -6 15 -7 33 -1 17 -7
46 -14 62 -7 17 -13 36 -15 43 -6 30 -70 115 -123 164 -59 55 -157 113 -204
122 -14 2 -32 8 -39 13 -14 8 -29 12 -73 18 -16 2 -30 5 -30 6 0 1 -18 3 -40
5 -22 1 -40 3 -40 5 0 6 -166 5 -171 -2 -2 -4 -11 -6 -18 -3 -7 3 -35 -4 -62
-14 -27 -11 -53 -20 -57 -20 -17 -1 -165 -78 -218 -114 -31 -20 -75 -58 -97
-84 l-40 -47 -45 31 c-66 46 -156 149 -205 235 -39 68 -110 244 -117 292 -2
11 -8 45 -15 75 -16 79 -20 131 -20 250 1 163 11 234 35 259 22 23 249 13 370
-15 17 -4 40 -8 53 -8 12 -1 22 -4 22 -7 0 -3 6 -6 13 -6 24 -1 159 -43 172
-53 7 -6 17 -10 21 -8 18 5 292 -129 328 -161 10 -9 20 -15 22 -13 8 5 207
-136 316 -223 347 -278 715 -706 1085 -1260 105 -157 272 -424 329 -523 35
-61 69 -119 103 -179 19 -32 45 -76 57 -98 124 -224 195 -355 371 -695 113
-217 219 -422 236 -455 17 -33 36 -63 42 -67 5 -4 7 -8 2 -8 -4 0 9 -25 29
-55 27 -40 35 -61 30 -79 -13 -51 -208 -280 -735 -866 -151 -168 -282 -305
-290 -305 -24 0 -118 131 -201 277 -41 73 -75 135 -76 138 0 3 -20 46 -43 95
-24 50 -52 112 -63 140 -11 27 -24 56 -30 62 -6 7 -8 13 -4 13 4 0 -1 15 -11
33 -9 17 -18 35 -19 40 -1 4 -2 8 -4 10 -1 1 -3 9 -5 17 -1 8 -15 47 -30 85
-15 39 -28 75 -29 80 -2 6 -6 17 -9 25 -3 8 -18 53 -33 100 -14 47 -29 89 -32
95 -3 5 -7 22 -9 39 -2 16 -8 35 -14 43 -6 7 -8 13 -5 13 4 0 2 8 -3 18 -6 11
-12 30 -15 43 -2 13 -21 89 -42 169 -20 80 -37 153 -38 163 0 9 -3 17 -6 17
-3 0 -6 10 -6 23 -3 33 -14 99 -21 122 -3 11 -8 34 -10 50 -5 42 -10 70 -12
70 -2 0 -4 23 -7 50 -3 45 -10 90 -14 90 -3 0 -11 122 -11 165 0 25 -3 52 -6
60 -3 8 -6 68 -6 133 0 64 -2 117 -4 117 -2 0 -30 -14 -63 -30 -33 -17 -63
-30 -67 -31 -12 0 -444 -224 -583 -302 -545 -304 -1027 -634 -1439 -986 -180
-153 -543 -516 -672 -671 -124 -148 -243 -307 -334 -445 -84 -128 -217 -355
-208 -355 3 0 -1 -8 -9 -17 -8 -10 -21 -34 -28 -53 -7 -19 -19 -42 -27 -51 -7
-8 -13 -20 -13 -25 0 -5 -12 -32 -27 -59 -14 -28 -26 -51 -25 -52 1 -2 -6 -20
-15 -40 -9 -21 -18 -42 -19 -48 -1 -5 -9 -27 -18 -47 -9 -21 -13 -38 -10 -38
4 0 1 -6 -5 -14 -15 -17 -63 -158 -56 -164 3 -3 1 -10 -4 -16 -15 -17 -83
-288 -98 -386 -22 -151 -34 -256 -37 -350 -1 -37 -5 -70 -8 -75 -9 -17 4 -382
17 -475 3 -19 7 -53 10 -75 2 -22 7 -51 9 -65 3 -14 7 -42 11 -64 3 -21 8 -42
11 -47 9 -16 -34 -48 -58 -43 -13 3 -48 7 -78 9 -30 2 -62 5 -70 8 -8 3 -22 6
-30 6 -32 1 -77 8 -86 13 -5 4 -27 10 -49 14 -22 4 -65 15 -95 26 -30 10 -55
18 -55 18 0 -7 -236 100 -245 110 -3 4 -23 17 -45 30 -22 13 -42 26 -45 30 -3
3 -25 19 -49 35 -118 80 -296 283 -393 449 -39 66 -146 301 -153 336 -2 8 -13
51 -24 95 -26 98 -27 99 -36 155 -11 62 -14 79 -19 125 -7 57 -8 392 -2 440
19 139 21 150 39 220 9 33 18 71 21 85 9 47 57 181 97 273 109 247 298 498
498 661 79 64 241 178 241 169 0 -3 8 1 18 9 9 9 60 37 112 63 52 26 97 49 99
51 8 8 -35 47 -74 66 -21 11 -58 22 -81 23 -23 2 -46 5 -51 8 -11 6 -96 6
-107 -1 -5 -3 -37 -6 -70 -8 -34 -2 -72 -6 -86 -9 -14 -3 -38 -9 -55 -12 -16
-2 -35 -9 -41 -14 -6 -5 -14 -6 -17 -3 -3 4 -14 3 -24 -1 -10 -5 -24 -9 -31
-11 -57 -12 -112 -29 -112 -36 0 -4 -3 -7 -7 -7 -5 1 -10 0 -13 -1 -5 -2 -18
-5 -55 -14 -81 -18 -299 -132 -358 -185 -43 -39 -66 -47 -73 -25 -2 8 -7 22
-11 32 -3 9 -5 20 -5 24 1 4 -7 32 -19 63 -11 30 -20 57 -20 60 0 2 -25 53
-55 112 -235 455 -626 818 -1019 947 -133 44 -133 44 -72 -27 73 -85 227 -340
227 -377 0 -7 6 -21 13 -29 8 -9 28 -52 46 -96 19 -44 38 -91 44 -105 5 -14
11 -29 13 -35 1 -5 20 -63 42 -127 22 -64 38 -119 34 -122 -3 -3 0 -6 6 -6 7
0 12 -15 12 -34 0 -19 4 -37 9 -40 7 -5 15 -38 21 -88 1 -4 6 -22 11 -40 10
-33 16 -65 24 -123 2 -16 6 -50 10 -75 4 -25 8 -58 10 -75 2 -16 7 -46 10 -65
3 -19 8 -55 11 -80 3 -25 8 -56 10 -70 2 -14 6 -41 8 -60 3 -19 7 -48 10 -65
3 -16 8 -55 11 -84 4 -30 9 -59 12 -65 4 -5 8 -24 9 -40 2 -17 6 -44 9 -61 3
-16 6 -40 6 -52 -1 -12 4 -25 9 -28 5 -3 7 -12 4 -20 -3 -8 -2 -20 2 -26 4 -7
9 -27 10 -43 2 -17 5 -38 7 -46 2 -8 7 -37 12 -65 4 -27 10 -54 13 -60 3 -5 7
-21 9 -35 8 -50 10 -65 13 -67 1 -2 4 -7 5 -13 1 -5 4 -13 5 -17 1 -5 2 -11 1
-15 0 -3 7 -30 15 -60 9 -29 17 -58 18 -65 1 -7 5 -15 8 -19 4 -3 4 -12 2 -19
-3 -7 0 -16 5 -20 6 -3 9 -10 7 -14 -3 -4 2 -30 10 -57 9 -27 17 -56 19 -64 2
-8 9 -28 15 -45 7 -16 14 -40 16 -53 5 -23 79 -226 109 -297 10 -22 17 -41 16
-43 -3 -7 158 -317 207 -396 209 -339 475 -608 804 -812 82 -51 340 -182 371
-188 7 -2 26 -9 42 -15 32 -14 104 -40 108 -40 1 0 19 -7 39 -15 21 -9 44 -16
51 -16 8 0 31 -7 51 -15 19 -8 39 -14 43 -13 5 0 15 -1 23 -5 25 -9 154 -40
176 -42 11 -1 24 -4 30 -7 9 -6 56 -15 119 -24 95 -13 92 -10 230 -191 196
-257 283 -359 423 -495 219 -212 440 -365 752 -523 91 -45 168 -84 172 -84 4
-1 34 -13 65 -28 77 -33 96 -41 106 -39 5 0 13 -7 18 -17 8 -13 5 -26 -10 -50
-10 -17 -27 -52 -36 -77 -10 -25 -24 -60 -32 -79 -8 -18 -16 -39 -17 -45 -1
-6 -15 -49 -29 -95 -15 -46 -28 -94 -29 -107 -1 -13 -6 -24 -11 -24 -4 0 -6
-3 -3 -8 2 -4 -4 -33 -15 -64 -17 -51 -29 -106 -32 -150 -1 -10 -4 -18 -8 -18
-3 0 -9 -21 -13 -47 -4 -27 -9 -59 -12 -73 -3 -14 -7 -32 -8 -40 -2 -8 -6 -26
-9 -40 -8 -28 -15 -68 -23 -120 -3 -19 -8 -48 -11 -65 -3 -16 -7 -48 -8 -70
-2 -22 -4 -40 -5 -40 -2 0 -4 -19 -5 -43 -2 -23 -8 -55 -14 -71 l-12 -28 -154
48 c-160 49 -355 123 -440 167 -27 14 -52 26 -55 27 -6 1 -84 41 -169 87 -81
43 -268 168 -358 240 -104 82 -300 275 -376 368 -115 143 -228 332 -288 483
-12 29 -26 63 -32 77 -5 14 -11 30 -12 36 -2 6 -11 38 -20 70 -9 33 -19 70
-21 84 -2 14 -6 36 -8 50 -3 14 -7 43 -11 65 -8 48 -9 348 -2 390 3 17 8 48
12 70 3 22 10 55 15 74 5 19 7 38 4 42 -4 6 -59 6 -59 -1 0 -1 -9 -3 -21 -4
-38 -4 -118 -58 -179 -120 -59 -60 -124 -165 -129 -209 -2 -12 -8 -40 -14 -62
-17 -63 -6 -241 18 -285 6 -11 8 -20 6 -20 -8 0 19 -69 57 -148 20 -40 37 -76
38 -80 1 -4 6 -18 12 -32 27 -66 5 -95 -56 -74 -52 18 -84 42 -210 156 -120
109 -229 193 -297 229 -25 13 -48 29 -52 34 -4 6 -8 7 -8 3 0 -4 -24 4 -53 17
-28 13 -64 26 -79 29 -15 2 -31 7 -35 9 -8 5 -52 14 -118 24 -64 10 -350 6
-370 -5 -5 -4 -22 -5 -37 -3 -16 1 -28 -1 -28 -6 0 -4 -10 -9 -22 -9 -13 -1
-34 -4 -48 -8 -14 -3 -38 -9 -55 -12 -16 -4 -41 -11 -55 -17 -14 -5 -32 -11
-40 -12 -27 -3 -150 -48 -150 -55 0 -4 39 -33 88 -65 48 -32 123 -93 167 -135
366 -353 646 -545 940 -645 44 -15 87 -30 95 -33 8 -3 22 -7 30 -8 14 -2 27
-6 82 -20 36 -9 73 -16 143 -28 84 -14 114 -18 155 -21 25 -2 45 -5 45 -6 0
-1 16 -3 35 -5 19 -2 53 -7 75 -10 22 -3 55 -6 73 -7 17 -1 32 -5 32 -9 0 -5
3 -7 7 -6 5 1 31 -1 58 -5 28 -4 53 -7 57 -7 4 -1 26 -7 48 -15 22 -8 40 -12
40 -9 0 4 33 -27 72 -68 167 -170 578 -461 948 -670 153 -86 254 -142 260
-143 3 -1 40 -18 84 -38 43 -20 82 -37 87 -37 5 0 24 -9 44 -20 19 -11 39 -19
43 -18 4 1 17 -3 28 -10 12 -6 24 -9 27 -6 3 3 12 2 19 -2 7 -5 28 -9 47 -11
42 -2 51 -11 54 -51 1 -18 4 -32 7 -32 5 0 7 -44 11 -220 1 -41 4 -79 7 -84 3
-5 6 -43 8 -85 4 -109 13 -196 29 -306 2 -16 6 -43 9 -60 8 -61 15 -91 25
-116 5 -15 7 -30 4 -33 -3 -3 0 -12 7 -21 7 -8 10 -15 6 -15 -3 0 -1 -11 4
-25 16 -43 19 -73 7 -71 -7 1 -56 35 -109 75 -153 115 -299 205 -473 292 -150
75 -363 154 -441 163 -18 3 -38 7 -43 10 -33 21 -361 24 -361 3 0 -5 -6 -7
-14 -4 -8 3 -30 1 -48 -4 -18 -6 -44 -12 -58 -15 -28 -6 -155 -66 -183 -86
-17 -13 -17 -15 5 -55 61 -111 108 -180 215 -313 63 -80 138 -175 165 -212
121 -166 305 -282 523 -333 17 -4 39 -9 50 -12 11 -2 34 -6 50 -8 17 -2 30 -4
30 -5 0 -5 69 -11 155 -15 52 -2 97 -4 100 -5 3 -2 10 -1 15 0 6 1 44 3 85 5
89 3 150 13 168 27 6 6 12 7 12 4 0 -4 12 1 28 12 15 10 33 17 40 15 6 -3 12
-1 12 4 0 8 40 16 65 14 6 -1 21 -3 35 -4 40 -5 120 -56 120 -77 0 -11 4 -21
10 -25 5 -3 7 -12 3 -20 -3 -8 0 -15 6 -15 6 0 11 -8 11 -18 0 -43 189 -338
373 -582 334 -441 813 -962 984 -1070 77 -48 89 -72 54 -104 -15 -14 -43 -18
-128 -22 -59 -2 -116 -4 -125 -5 -10 0 -20 -4 -23 -8 -2 -5 -16 -7 -30 -6 -14
2 -25 -1 -25 -6 0 -6 -4 -7 -10 -4 -5 3 -27 1 -47 -5 -21 -6 -61 -17 -89 -25
-28 -8 -77 -25 -108 -39 -31 -14 -57 -24 -59 -23 -1 1 -33 -16 -72 -37 -158
-88 -275 -197 -330 -308 -27 -55 -27 -55 60 -87 96 -36 139 -53 160 -62 86
-37 350 -121 420 -134 89 -16 118 -18 205 -19 78 0 155 7 155 14 0 1 13 3 29
5 50 7 187 79 273 143 44 34 126 106 180 161 101 100 115 107 159 83 28 -15
400 -162 479 -190 33 -11 84 -30 113 -41 28 -11 52 -18 52 -15 0 4 6 2 13 -4
17 -14 371 -121 417 -126 9 -1 20 -5 25 -8 6 -3 24 -9 40 -12 17 -3 41 -9 55
-12 14 -3 33 -7 43 -7 9 -1 17 -6 17 -11 0 -5 2 -7 5 -4 4 3 25 1 48 -4 23 -5
51 -12 62 -14 11 -2 31 -6 45 -9 35 -8 137 -25 185 -31 22 -3 54 -7 70 -9 17
-3 50 -7 75 -9 25 -3 65 -8 90 -11 25 -3 81 -8 125 -10 44 -2 80 -5 80 -6 0
-5 491 -6 499 -1 13 7 153 10 163 3 4 -3 9 -15 10 -27 1 -11 8 -34 14 -50 24
-59 2 -98 -62 -108 -129 -21 -275 -158 -425 -401 -14 -24 -83 -178 -83 -188 0
-1 -5 -15 -11 -31 -6 -16 -12 -38 -15 -50 -2 -11 -4 -21 -5 -21 -1 0 -3 -9 -6
-20 -11 -50 -16 -83 -18 -116 -2 -20 -5 -40 -8 -45 -3 -5 -4 -45 -2 -89 4
-106 5 -185 1 -211 -4 -26 -30 -69 -64 -106 -14 -14 -22 -31 -19 -37 6 -10
105 -8 166 3 14 2 43 7 65 11 22 4 44 10 49 15 5 5 15 6 22 3 8 -3 14 0 14 7
0 6 4 9 9 5 6 -3 56 13 113 35 489 193 830 588 913 1055 2 11 7 36 10 55 4 19
8 73 10 120 2 47 4 90 4 96 1 6 56 61 124 121 467 420 801 640 981 647 132 5
301 -91 811 -459 110 -79 239 -168 288 -196 64 -38 87 -58 88 -73 0 -12 2 -46
4 -76 2 -30 6 -86 8 -125 3 -38 9 -88 15 -110 6 -22 13 -51 16 -65 4 -25 10
-43 23 -77 3 -10 7 -20 7 -23 10 -45 31 -100 37 -100 5 0 9 -7 9 -15 0 -9 18
-48 41 -88 154 -273 431 -494 767 -611 56 -19 102 -33 102 -30 0 2 9 0 19 -5
10 -6 36 -13 57 -17 22 -3 53 -8 69 -11 17 -2 65 -6 108 -8 l77 -3 -31 36
c-34 38 -70 111 -70 140 -1 30 8 66 23 102 24 56 37 122 33 163 -1 20 1 37 7
37 5 0 7 4 4 8 -3 5 -7 36 -10 71 -3 34 -8 66 -10 70 -3 4 -8 23 -11 42 -8 52
-86 206 -139 276 -74 97 -197 206 -287 253 -44 23 -90 43 -102 45 -83 12 -116
33 -112 72 4 40 41 123 55 124 48 4 66 4 75 -2 6 -4 26 -7 45 -8 112 -3 242
-10 289 -15 29 -3 58 -3 64 1 6 3 60 7 121 8 61 1 111 3 111 4 0 2 90 8 188
13 15 1 27 4 27 7 0 3 16 7 35 8 78 4 90 5 100 11 5 4 22 5 37 3 16 -1 28 1
28 6 0 4 12 9 28 9 15 1 38 4 52 7 14 3 43 8 65 12 22 3 58 11 80 17 50 15 42
13 97 22 26 4 50 11 53 17 4 5 11 7 16 4 5 -4 14 -3 21 1 7 4 25 9 42 11 16 2
34 8 41 13 7 5 14 7 17 5 3 -3 18 -1 34 6 31 12 57 18 90 23 11 2 26 6 33 10
6 4 22 9 36 12 13 2 37 9 52 16 16 6 32 10 37 9 4 -1 14 4 22 10 8 6 14 9 14
6 0 -4 105 30 233 74 127 44 243 83 257 86 14 3 33 12 43 21 9 8 17 12 17 9 0
-3 16 1 35 9 19 8 37 14 40 13 10 -1 120 43 132 53 7 6 13 7 13 2 0 -4 5 -3
12 4 7 7 18 12 24 12 7 0 23 4 36 9 13 5 25 8 28 8 3 0 14 5 26 11 57 30 67
26 154 -74 170 -195 323 -298 512 -348 49 -13 275 -19 293 -8 6 4 19 7 30 7
45 3 125 18 125 24 0 3 14 7 31 8 17 1 37 7 44 13 6 5 14 8 17 5 2 -3 48 9
101 25 53 17 99 31 102 31 15 2 223 76 239 86 19 11 19 13 -12 76 -63 128
-230 273 -414 360 -87 41 -249 100 -256 92 -3 -3 -10 -1 -17 5 -6 5 -27 12
-46 14 -19 3 -45 8 -59 11 -14 4 -45 9 -70 11 -160 16 -170 19 -170 57 0 22
18 39 67 63 57 28 215 168 383 340 461 471 912 1051 1000 1288 26 68 65 101
135 112 64 10 67 9 145 -29 36 -18 70 -32 75 -33 6 0 18 -4 27 -8 9 -4 21 -5
27 -2 5 4 12 2 16 -3 3 -5 13 -10 23 -10 37 -2 160 -11 206 -16 27 -2 53 -2
59 2 5 3 42 7 81 8 69 3 125 9 176 20 14 4 36 8 50 11 14 3 41 10 60 16 19 7
37 13 40 13 21 4 95 33 140 55 91 46 174 114 247 201 37 46 121 144 186 218
65 75 150 183 188 241 l70 105 -25 20 c-32 25 -146 84 -172 88 -10 1 -23 5
-29 9 -5 3 -28 9 -50 13 -22 3 -56 9 -75 12 -54 10 -335 4 -335 -6 0 -1 -13
-4 -30 -6 -68 -9 -81 -12 -101 -23 -12 -6 -24 -9 -26 -6 -3 2 -18 0 -34 -7
-16 -6 -37 -12 -46 -14 -40 -8 -128 -39 -128 -45 0 -4 -6 -7 -13 -7 -15 0
-129 -44 -137 -53 -3 -3 -29 -16 -58 -28 -68 -27 -291 -153 -401 -226 -51 -34
-92 -54 -101 -51 -15 5 -14 13 11 83 15 43 30 92 33 108 2 16 7 40 10 54 15
67 25 135 31 215 2 28 5 50 6 50 1 0 4 23 6 50 2 28 5 73 8 100 2 28 6 79 9
115 12 141 16 190 18 202 5 20 35 39 70 42 46 5 148 38 148 48 0 5 4 7 8 4 11
-6 229 105 372 189 376 224 858 575 1050 767 47 47 87 78 105 82 45 10 88 18
110 21 11 1 20 3 20 4 0 1 27 4 60 6 33 3 83 7 110 10 28 3 77 7 110 10 33 2
80 6 105 9 25 2 76 7 114 10 38 4 73 9 78 12 5 3 25 7 46 10 20 2 60 9 87 16
28 7 52 13 55 13 36 7 77 19 85 23 6 4 16 8 23 9 25 6 38 10 67 23 17 7 36 14
43 16 30 6 243 116 327 169 127 81 291 206 424 324 117 105 165 141 241 182
25 13 49 28 55 32 5 4 18 14 29 21 17 11 13 15 -45 37 -35 13 -66 24 -69 25
-3 0 -18 6 -35 14 -53 22 -148 49 -157 44 -4 -3 -8 0 -8 7 0 7 -3 10 -6 6 -3
-3 -16 -2 -29 3 -13 5 -43 12 -66 16 -24 3 -55 8 -69 11 -14 2 -48 5 -76 7
-27 1 -54 5 -60 8 -9 6 -81 3 -179 -5 -224 -21 -391 -102 -651 -318 -121 -100
-147 -118 -206 -140 -29 -10 -53 -18 -53 -16 -27 33 -23 46 50 198 41 85 76
163 78 174 1 11 6 25 9 30 22 35 28 254 9 290 -3 6 -7 19 -8 30 -8 54 -70 154
-137 221 -77 77 -140 116 -198 120 l-37 2 4 -41 c3 -23 7 -60 10 -82 6 -45 7
-343 1 -391 -2 -17 -7 -44 -10 -60 -4 -16 -9 -45 -12 -64 -8 -53 -11 -64 -17
-80 -4 -8 -9 -26 -11 -40 -3 -14 -5 -26 -7 -27 -1 -2 -2 -6 -3 -10 -1 -5 -7
-17 -13 -28 -6 -11 -14 -35 -18 -52 -3 -18 -23 -66 -43 -105 -20 -40 -36 -75
-36 -78 -1 -3 -25 -49 -55 -102 -167 -296 -463 -595 -791 -798 -121 -76 -129
-80 -137 -82 -5 0 -24 -11 -43 -23 -43 -26 -143 -74 -151 -72 -4 1 -15 -5 -25
-14 -16 -13 -316 -131 -331 -130 -2 0 -24 -7 -50 -15 -27 -8 -61 -17 -77 -20
-16 -3 -41 -11 -55 -16 -14 -6 -31 -10 -38 -9 -7 1 -28 -5 -47 -13 -50 -21
-68 -5 -72 65 -7 118 -19 224 -41 354 -2 17 -7 44 -9 60 -5 31 -9 54 -19 103
-3 15 -7 36 -9 47 -2 11 -4 20 -6 20 -1 0 -3 11 -5 25 -2 14 -6 39 -10 55 -3
17 -6 38 -6 47 0 10 -5 20 -10 23 -5 4 -7 10 -5 14 3 4 0 25 -5 47 -5 21 -12
53 -15 69 -3 17 -10 38 -15 47 -5 9 -9 30 -9 46 0 16 -3 32 -7 36 -4 3 -8 17
-10 29 -5 36 -74 239 -94 279 -23 45 -23 55 -4 74 8 9 15 13 15 10 0 -7 111
33 128 47 6 5 12 6 12 3 0 -4 10 -1 23 6 12 7 26 11 31 10 4 -2 13 1 20 6 6 5
38 19 71 32 33 13 63 29 67 34 4 6 8 8 8 3 0 -4 42 14 93 40 50 26 94 47 97
48 19 2 218 129 300 191 189 142 296 261 522 579 186 261 159 236 253 241 73
4 172 11 235 17 14 1 30 5 35 8 6 3 20 4 33 3 12 0 22 1 22 5 0 3 10 6 23 7
28 1 84 11 139 25 24 5 56 12 71 14 16 3 33 7 38 10 5 4 19 8 30 10 38 8 183
56 211 71 15 8 30 15 33 15 14 -1 166 75 248 123 256 151 488 374 666 639 71
106 191 318 191 336 0 6 5 11 10 11 6 0 10 7 10 15 0 9 11 38 25 65 14 27 25
56 25 65 0 8 4 15 8 15 8 0 43 95 44 115 0 6 4 15 9 21 13 16 80 204 72 204
-3 0 -1 6 5 13 6 7 13 24 16 37 2 14 12 45 20 69 9 24 14 46 11 49 -3 3 -1 10
4 16 13 16 50 154 44 160 -3 3 -1 11 4 18 10 12 25 65 28 98 1 8 7 28 14 44 6
16 10 31 7 33 -2 3 2 23 10 46 8 23 12 47 10 54 -3 7 -2 13 3 13 7 0 15 37 27
120 1 8 9 43 18 78 9 34 14 67 11 72 -3 5 -1 11 5 15 5 3 9 16 9 28 -1 21 2
35 22 127 13 56 21 108 23 138 0 12 4 22 9 22 4 0 7 12 6 28 0 15 2 41 6 57 4
17 9 37 10 45 1 8 5 22 9 30 3 8 8 29 10 45 2 17 8 41 13 55 6 14 14 43 18 65
10 47 8 42 24 79 6 16 9 31 6 34 -2 3 -1 10 4 16 8 9 37 100 46 140 1 6 8 25
14 41 7 17 14 38 16 48 2 10 18 55 35 99 17 45 32 89 33 100 1 10 6 18 11 18
5 0 6 3 3 7 -4 3 -2 11 3 18 5 6 11 20 13 31 1 10 6 24 10 30 3 6 20 47 36 90
30 82 70 179 102 250 11 22 19 46 19 52 0 7 5 12 10 12 6 0 10 7 10 15 0 22
129 270 180 346 24 35 56 79 73 96 30 32 30 32 6 27 -33 -7 -53 -12 -59 -14
-3 -1 -8 -2 -12 -1 -7 1 -129 -41 -173 -60 -16 -7 -32 -13 -35 -14 -24 -6
-215 -116 -255 -147 -87 -67 -185 -149 -235 -195 -77 -71 -226 -243 -302 -350
-54 -74 -185 -285 -189 -301 0 -4 -11 -25 -22 -47 -11 -22 -22 -44 -23 -50 -9
-32 -57 -152 -65 -160 -6 -6 -20 4 -40 28 -30 37 -159 127 -237 166 -48 24
-209 91 -232 96 -8 2 -27 8 -41 13 -15 6 -29 8 -32 6 -3 -3 -14 -1 -24 4 -45
24 -287 50 -298 32 -3 -5 -12 -7 -20 -4 -8 3 -20 2 -27 -2 -7 -5 -19 -9 -26
-10 -22 -4 -92 -56 -92 -69 0 -6 29 -26 64 -43 35 -17 110 -62 167 -100 305
-204 512 -461 672 -832 8 -19 27 -73 41 -120 15 -47 29 -92 33 -100 3 -8 7
-19 8 -25 1 -5 3 -12 4 -15 2 -3 4 -16 6 -30 7 -47 12 -75 14 -75 1 0 4 -18 7
-40 7 -56 11 -80 13 -80 10 0 19 -405 9 -411 -4 -3 -7 -26 -7 -52 -1 -47 -3
-65 -16 -132 -3 -19 -8 -46 -10 -60 -2 -14 -11 -50 -19 -82 -8 -31 -17 -67
-20 -80 -2 -12 -11 -42 -19 -65 -9 -22 -13 -44 -10 -47 4 -3 1 -6 -6 -6 -6 0
-11 -6 -10 -12 2 -14 -13 -52 -72 -175 -21 -46 -39 -85 -39 -88 0 -2 -37 -59
-81 -126 -133 -197 -312 -371 -492 -477 -91 -54 -228 -115 -309 -138 -29 -8
-60 -18 -68 -21 -8 -3 -19 -7 -25 -7 -5 -1 -30 -6 -55 -11 -25 -5 -49 -8 -54
-6 -5 1 -16 -1 -25 -5 -33 -13 -242 -23 -270 -12 -23 8 -23 39 -2 91 6 15 10
31 9 35 -1 4 2 14 5 22 15 38 48 191 42 199 -3 5 -1 12 4 16 5 3 10 13 10 23
0 22 9 106 12 112 3 6 5 30 15 145 9 101 9 275 1 380 -11 136 -16 179 -32 265
-2 14 -6 44 -9 68 -3 23 -9 50 -14 60 -5 9 -7 22 -5 29 2 6 0 14 -6 17 -6 4
-8 13 -4 21 3 9 0 22 -7 30 -7 8 -9 15 -5 15 4 0 2 6 -4 13 -6 8 -8 16 -6 19
3 3 0 18 -6 34 -7 16 -13 36 -14 44 -4 28 -28 105 -37 117 -5 6 -11 22 -13 36
-3 13 -13 42 -22 63 -9 22 -16 45 -14 52 1 6 -3 12 -9 12 -5 0 -10 7 -10 15 0
20 -108 249 -178 378 -399 735 -1106 1465 -2047 2114 -329 226 -778 498 -1117
677 l-124 65 -3 -102 c-5 -178 -6 -197 -12 -197 -3 0 -6 -12 -6 -27 0 -16 -4
-44 -8 -63 -3 -19 -8 -49 -9 -66 -2 -17 -6 -35 -9 -40 -3 -6 -8 -28 -11 -49
-3 -22 -15 -78 -27 -125 -12 -47 -23 -94 -24 -105 -2 -11 -4 -22 -6 -25 -1 -3
-3 -9 -4 -15 -1 -5 -7 -23 -14 -38 -6 -16 -9 -33 -5 -38 3 -5 0 -9 -5 -9 -6 0
-10 -3 -9 -7 4 -19 -116 -385 -177 -543 -21 -52 -38 -101 -38 -107 0 -7 -4
-13 -9 -13 -4 0 -7 -3 -6 -7 1 -5 -8 -30 -20 -57 -12 -27 -22 -50 -22 -51 0
-2 -10 -25 -22 -52 -12 -26 -22 -51 -22 -54 -5 -32 -333 -702 -347 -707 -5 -2
-9 -7 -9 -12 0 -5 -18 -40 -41 -79 -59 -103 -57 -104 -228 50 -190 170 -595
635 -743 852 -53 78 -110 187 -98 187 6 0 10 4 10 10 0 9 69 123 90 147 5 7
10 14 10 17 0 7 180 327 192 344 6 6 7 12 4 12 -4 0 1 12 12 28 10 15 52 88
92 162 40 74 80 143 88 153 8 9 12 17 8 17 -4 0 9 25 29 55 19 30 32 55 28 55
-3 0 1 8 9 18 13 15 119 194 190 322 118 213 468 754 623 964 261 353 424 548
654 777 196 195 335 316 486 422 44 31 85 60 90 65 16 13 262 152 269 152 3 0
33 13 66 29 33 16 60 27 60 25 0 -3 12 2 28 10 35 19 125 48 187 61 17 3 46
10 65 15 40 11 99 20 150 24 19 2 35 4 35 5 0 5 193 1 230 -4 49 -7 50 -8 64
-70 37 -161 41 -302 16 -520 -8 -63 -74 -247 -113 -313 -52 -88 -140 -175
-215 -212 l-59 -29 -58 67 c-80 92 -175 168 -217 175 -10 1 -23 6 -29 10 -12
7 -123 34 -179 44 -46 7 -259 12 -270 5 -5 -3 -24 -7 -41 -9 -43 -3 -128 -38
-179 -73 -50 -35 -135 -126 -135 -146 0 -8 -4 -14 -9 -14 -9 0 -38 -70 -45
-110 -2 -14 -5 -25 -7 -25 -3 0 -10 -79 -10 -120 0 -61 7 -131 15 -144 4 -6 9
-24 12 -39 2 -15 22 -63 44 -108 48 -98 141 -203 234 -263 65 -43 191 -95 206
-86 5 3 11 1 15 -4 7 -12 12 -12 170 -13 72 -1 146 2 165 6 19 3 44 8 55 10
11 2 20 4 20 5 0 1 11 4 25 6 14 2 39 9 55 16 17 7 36 13 42 15 30 6 159 59
174 71 8 7 23 13 31 13 9 0 18 3 20 8 2 4 23 18 48 31 200 106 371 287 482
511 49 99 79 165 82 184 1 6 14 47 28 91 14 44 28 94 31 112 3 17 7 36 10 40
3 5 9 34 12 64 4 30 8 65 11 79 23 138 31 350 21 565 -2 50 0 95 4 100 12 17
179 5 314 -21 11 -2 31 -6 45 -9 14 -3 36 -7 50 -11 14 -3 38 -7 53 -10 15 -2
37 -9 48 -15 11 -6 23 -8 26 -5 4 3 12 1 19 -4 6 -6 16 -10 20 -9 5 1 22 -3
37 -9 15 -7 31 -11 35 -10 4 1 14 -2 22 -5 8 -4 59 -22 113 -42 126 -45 269
-106 379 -161 49 -24 91 -45 95 -46 16 -4 270 -161 333 -206 270 -191 488
-412 609 -617 44 -75 132 -267 147 -320 1 -5 14 -48 29 -95 33 -108 45 -162
60 -270 8 -61 9 -336 1 -380 -4 -19 -8 -48 -11 -65 -2 -16 -6 -39 -9 -50 -3
-11 -10 -40 -17 -65 -6 -25 -12 -49 -13 -55 -2 -5 -6 -18 -10 -27 -4 -9 -9
-22 -10 -30 -1 -7 -22 -56 -48 -109 -115 -242 -290 -446 -498 -580 -41 -27
-79 -52 -85 -57 -5 -4 -46 -23 -90 -41 -44 -18 -84 -36 -90 -39 -5 -3 -20 -7
-33 -8 -14 -2 -32 -6 -41 -10 -44 -18 -149 -21 -206 -5 -61 17 -100 45 -120
87 -28 57 -20 82 44 149 32 33 72 80 88 105 38 56 76 130 67 130 -4 0 -2 6 3
13 20 25 37 120 35 192 -1 28 -1 61 -2 74 0 12 -3 28 -7 34 -4 6 -8 21 -9 32
-1 12 -10 39 -20 61 -9 21 -18 45 -20 53 -1 8 -6 17 -11 20 -4 3 -17 24 -28
45 -30 59 -148 180 -227 232 -109 72 -249 122 -350 123 -53 1 -63 1 -97 1 -18
0 -39 -4 -45 -8 -6 -3 -24 -7 -40 -8 -15 -1 -66 -20 -111 -43 -96 -47 -197
-139 -262 -236 -52 -79 -98 -223 -106 -332 -1 -13 -4 -23 -7 -23 -7 0 -11 -65
-12 -170 0 -110 2 -126 24 -225 62 -270 243 -497 503 -628 78 -39 215 -91 215
-81 0 3 9 0 19 -5 10 -6 36 -13 57 -17 22 -3 53 -8 69 -10 127 -20 334 -20
445 0 14 2 47 7 75 11 27 4 55 11 61 16 6 5 13 7 16 4 3 -3 24 2 48 10 23 8
53 15 66 15 13 0 24 5 24 12 0 6 3 9 6 5 6 -6 94 24 172 59 220 98 380 210
544 382 103 109 181 223 247 363 50 105 105 274 95 290 -3 5 0 9 6 9 6 0 11
10 10 23 -1 12 -1 24 0 27 20 41 31 367 17 495 -13 124 -18 158 -24 168 -4 6
-7 20 -8 31 -3 28 -14 82 -26 131 -6 22 -10 40 -9 40 1 0 -4 14 -10 30 -7 17
-13 38 -15 48 -6 30 -16 61 -25 82 -5 11 -23 61 -41 110 -17 50 -61 153 -96
230 -36 77 -67 148 -70 158 -3 9 -9 17 -14 17 -5 0 -9 5 -9 10 0 6 -18 42 -39
80 -22 38 -41 84 -44 102 -3 18 -6 38 -7 43 -7 31 2 76 16 82 9 3 39 -7 67
-22 53 -28 70 -33 142 -41 75 -9 181 -1 225 16 3 1 8 2 12 1 17 -2 174 61 234
94 129 73 270 202 353 324 36 52 102 174 107 196 1 6 12 36 23 69 11 32 18 62
16 66 -3 5 -1 11 5 15 5 3 10 16 10 28 0 32 8 112 11 112 1 0 3 22 4 48 3 41
1 47 -14 42 -9 -4 -28 -9 -43 -12 -16 -3 -28 -8 -28 -12 0 -4 -8 -7 -17 -8
-22 -2 -76 -10 -83 -13 -3 -1 -21 -2 -40 -2 -19 0 -39 -3 -44 -6 -14 -8 -256
-1 -276 9 -3 1 -9 3 -15 4 -5 0 -32 11 -59 23 -28 13 -61 25 -75 29 -14 3 -30
9 -36 13 -5 5 -23 10 -40 13 -16 3 -43 10 -59 16 -16 6 -31 9 -34 6 -3 -2 -10
-1 -16 4 -6 5 -27 12 -46 15 -19 3 -46 8 -60 11 -14 4 -38 8 -55 10 -16 2 -30
4 -30 5 0 4 -45 11 -95 16 -30 3 -82 7 -115 11 -93 8 -420 3 -420 -7 0 -1 -16
-3 -35 -5 -43 -3 -120 -14 -151 -21 -13 -3 -44 -7 -68 -10 -24 -2 -49 -8 -55
-11 -6 -4 -20 -8 -31 -9 -36 -3 -100 -16 -109 -22 -5 -3 -21 -7 -35 -8 -14 -2
-55 -10 -91 -18 -127 -31 -169 -36 -298 -39 -57 -1 -106 1 -109 6 -2 4 -23 7
-46 7 -23 -1 -60 2 -82 5 -22 4 -53 8 -70 10 -16 2 -30 4 -30 5 0 2 -19 6 -65
14 -51 8 -70 13 -118 25 -23 7 -47 9 -52 6 -5 -3 -11 -1 -14 4 -5 8 -68 24
-101 26 -5 0 -14 3 -20 6 -11 7 -109 31 -140 35 -11 1 -22 3 -25 5 -3 1 -9 3
-15 4 -5 1 -28 7 -49 13 -22 6 -42 10 -45 8 -11 -7 -76 30 -73 42 1 7 -2 12
-7 12 -6 0 -9 8 -9 18 1 26 -59 186 -110 292 -25 52 -46 98 -46 101 -3 16
-158 267 -219 353 -237 334 -687 781 -980 974 -40 26 -74 50 -77 53 -3 3 -16
12 -30 19 -43 23 5 29 79 9 36 -9 73 -17 81 -18 8 -1 40 -4 70 -7 95 -10 220
-5 220 9 0 5 7 7 15 4 20 -8 127 28 205 69 127 67 217 145 505 443 139 144
214 208 313 263 28 17 50 34 47 38 -5 8 -147 70 -170 74 -5 2 -27 10 -49 19
-47 21 -136 48 -136 41 0 -2 -12 2 -27 9 -24 13 -88 29 -118 32 -5 0 -15 4
-22 8 -7 4 -29 10 -50 12 -21 3 -51 8 -68 11 -108 20 -172 25 -350 29 -93 2
-173 1 -178 -2 -5 -3 -32 -7 -60 -9 -52 -3 -90 -8 -137 -19 -14 -3 -41 -8 -60
-11 -19 -3 -42 -10 -51 -15 -9 -4 -19 -5 -23 -2 -3 3 -6 1 -6 -6 0 -7 -4 -10
-9 -6 -5 3 -33 -4 -63 -16 -29 -12 -57 -22 -63 -23 -5 -1 -32 -12 -59 -24 -27
-12 -50 -22 -52 -22 -3 0 -21 -10 -42 -23 -20 -13 -66 -41 -102 -62 -36 -21
-67 -41 -70 -45 -3 -3 -25 -20 -50 -37 -55 -38 -179 -150 -242 -218 l-47 -51
-103 2 c-57 1 -110 4 -118 7 -8 3 -37 6 -65 6 -27 0 -99 3 -160 7 -224 13
-348 16 -665 16 -299 0 -425 -3 -600 -16 -36 -3 -89 -6 -117 -7 -29 -1 -53 -4
-53 -8 0 -3 -20 -6 -45 -5 -25 1 -45 -2 -45 -5 0 -3 -15 -6 -32 -7 -18 0 -60
-4 -93 -8 -33 -5 -66 -9 -72 -9 -7 0 -13 -3 -13 -6 0 -3 -12 -6 -27 -7 -16 0
-44 -4 -63 -8 -19 -3 -46 -9 -60 -11 -37 -7 -65 -13 -65 -15 0 -1 -18 -4 -39
-6 -21 -3 -47 -9 -57 -15 -11 -5 -19 -7 -19 -5 0 3 -12 1 -26 -5 -15 -5 -43
-12 -63 -15 -20 -3 -41 -10 -47 -15 -6 -5 -13 -6 -16 -4 -8 9 -442 -140 -469
-161 -25 -19 -53 -10 -68 20 -10 22 -11 31 -3 34 7 2 12 12 12 22 0 20 48 88
110 156 38 41 90 123 94 146 1 7 4 18 7 23 7 11 29 78 33 98 2 7 8 32 15 56 7
23 10 49 7 57 -3 7 -2 15 2 18 8 5 14 46 16 104 1 17 4 32 8 32 4 0 6 28 5 63
0 34 2 67 5 72 7 12 2 261 -7 325 -3 25 -6 56 -5 69 0 12 -3 28 -7 34 -3 6 -7
24 -9 40 -1 16 -6 39 -12 51 -5 11 -14 33 -20 48 l-11 27 -100 -34 c-376 -126
-645 -345 -799 -650 -38 -76 -82 -185 -75 -185 3 0 1 -6 -4 -12 -11 -14 -55
-142 -58 -168 -1 -8 -5 -22 -8 -30 -8 -22 -29 -89 -31 -103 -6 -32 -79 -243
-101 -294 -15 -32 -26 -59 -25 -61 3 -8 -88 -168 -119 -209 -20 -26 -63 -69
-95 -94 -56 -46 -269 -163 -278 -153 -3 2 -18 -1 -34 -7 -16 -6 -41 -11 -56
-10 -16 1 -28 -2 -28 -6 0 -16 -171 -1 -247 20 -29 9 -53 14 -53 12 0 -12
-246 123 -294 161 -48 38 -65 60 -96 127 -21 45 -36 85 -34 89 3 4 0 8 -6 8
-6 0 -9 4 -6 9 3 5 1 22 -4 37 -5 16 -11 43 -14 59 -2 17 -5 30 -6 30 0 0 -3
18 -5 40 -5 48 -13 109 -19 150 -3 17 -8 57 -11 89 -3 33 -10 67 -15 76 -5 10
-7 20 -4 22 4 5 -21 117 -33 148 -3 8 -5 20 -4 27 1 6 -3 14 -9 18 -5 3 -10
14 -10 23 0 31 -107 235 -160 304 -140 185 -346 346 -616 481 -170 85 -180 89
-197 69z m-1662 -1588 c171 -9 306 -20 450 -39 99 -13 124 -16 210 -31 22 -3
54 -8 70 -9 17 -2 30 -4 30 -5 0 -1 7 -3 15 -5 51 -11 88 -18 105 -20 11 -1
27 -5 36 -9 9 -4 20 -6 25 -5 5 1 12 0 17 -1 4 -1 12 -4 17 -5 6 -1 11 -3 13
-5 3 -2 35 -9 67 -14 14 -2 61 -14 105 -26 44 -13 89 -24 100 -25 11 -2 21 -4
23 -5 1 -2 7 -4 12 -5 6 -1 13 -4 18 -5 4 -2 12 -4 17 -5 6 -1 51 -14 100 -30
50 -15 97 -29 105 -30 8 -1 23 -5 32 -9 9 -4 22 -9 30 -10 7 -2 26 -8 42 -15
16 -6 36 -13 45 -14 9 -1 21 -5 26 -8 6 -4 28 -12 50 -19 56 -17 165 -56 260
-93 44 -17 82 -32 85 -33 3 0 17 -6 32 -12 162 -67 255 -104 264 -106 7 -1 18
-7 25 -13 8 -6 17 -12 21 -12 8 -2 68 -27 207 -89 49 -22 93 -49 104 -64 55
-74 -49 -160 -314 -261 -130 -50 -147 -56 -154 -57 -4 0 -27 -8 -100 -36 -11
-4 -25 -8 -31 -9 -12 -3 -171 -51 -224 -68 -19 -6 -37 -12 -40 -12 -44 -9 -77
-19 -87 -27 -7 -6 -13 -8 -13 -5 0 3 -39 -6 -87 -19 -49 -14 -95 -27 -103 -29
-8 -2 -17 -4 -20 -5 -3 -1 -9 -3 -15 -5 -5 -1 -14 -3 -20 -5 -5 -1 -14 -3 -20
-4 -53 -10 -86 -20 -91 -27 -3 -5 -9 -7 -13 -5 -4 3 -41 -4 -82 -15 -41 -11
-83 -21 -94 -23 -38 -7 -120 -27 -135 -33 -8 -3 -19 -7 -25 -8 -30 -4 -92 -17
-105 -22 -8 -3 -22 -7 -30 -9 -39 -7 -78 -16 -115 -26 -22 -6 -44 -11 -49 -9
-5 1 -16 -1 -25 -5 -9 -4 -23 -8 -31 -9 -8 -1 -28 -5 -45 -9 -16 -3 -46 -9
-65 -12 -19 -3 -40 -10 -46 -15 -6 -5 -13 -6 -17 -3 -3 3 -21 1 -39 -5 -18 -6
-51 -13 -73 -17 -22 -3 -44 -9 -50 -12 -5 -4 -18 -5 -27 -4 -10 2 -18 -1 -18
-6 0 -6 -10 -10 -22 -9 -25 0 -72 -8 -128 -23 -19 -5 -53 -12 -75 -15 -22 -3
-47 -9 -55 -12 -13 -5 -66 -16 -125 -26 -11 -2 -29 -7 -40 -10 -11 -3 -32 -9
-47 -12 -57 -11 -85 -16 -153 -31 -38 -8 -85 -17 -104 -20 -19 -2 -40 -9 -46
-14 -6 -5 -21 -7 -33 -3 -12 3 -22 1 -22 -4 0 -5 6 -10 13 -11 40 -4 205 -43
237 -55 24 -9 86 -27 106 -31 32 -7 291 -105 370 -141 41 -19 74 -32 74 -31 0
7 422 -204 451 -225 16 -11 29 -18 29 -15 0 8 273 -159 440 -269 267 -177 510
-358 715 -534 135 -115 381 -358 464 -456 86 -101 184 -248 179 -269 -1 -9
-181 -197 -398 -418 -400 -407 -737 -732 -777 -751 -16 -7 -27 -7 -37 2 -9 7
-82 106 -163 219 -591 830 -987 1324 -1361 1699 -219 220 -460 427 -636 545
-33 23 -63 44 -66 47 -3 3 -18 14 -35 24 -16 10 -82 48 -145 86 -63 38 -169
95 -235 126 -66 32 -128 62 -138 67 -41 20 -217 86 -217 81 0 -3 -6 -1 -12 4
-17 13 -231 79 -293 90 -11 2 -32 8 -46 14 -14 5 -30 9 -35 8 -5 -1 -11 0 -14
1 -10 3 -78 19 -110 25 -125 24 -201 36 -250 40 -19 2 -35 4 -35 5 0 4 -31 8
-105 15 -177 17 -310 25 -447 29 -90 2 -126 14 -118 39 2 7 6 30 9 52 5 45 51
179 96 280 120 268 353 554 661 810 83 70 381 265 404 265 4 0 19 9 33 19 15
10 30 19 35 20 4 0 40 17 80 37 78 40 329 142 362 148 11 2 37 11 56 19 20 8
55 18 77 22 23 4 44 11 47 15 3 5 12 7 20 3 8 -3 15 -1 15 3 0 5 11 10 25 10
14 1 33 5 43 9 9 4 37 9 62 12 25 2 46 8 48 13 2 5 10 6 17 4 8 -3 20 -2 27 2
12 8 40 13 96 16 12 1 22 4 22 8 0 3 10 5 23 6 20 1 43 4 172 20 70 8 137 13
247 17 59 1 109 5 112 7 4 5 125 2 301 -6z m7480 -27 c56 -2 106 -6 112 -10 6
-4 31 -5 57 -3 25 2 46 0 46 -4 0 -4 15 -7 33 -7 17 -1 52 -4 77 -8 25 -4 61
-9 80 -11 19 -3 51 -7 70 -10 19 -3 47 -7 61 -8 14 -2 31 -6 38 -10 6 -4 18
-5 26 -2 8 3 15 0 15 -6 0 -6 2 -9 6 -6 3 3 36 -2 75 -12 38 -10 69 -16 69
-15 0 2 16 -3 35 -11 20 -8 40 -12 45 -9 6 4 10 2 10 -3 0 -5 6 -9 13 -9 24
-2 173 -51 277 -92 598 -237 1044 -626 1280 -1116 49 -102 108 -256 116 -303
1 -8 6 -21 10 -30 3 -9 8 -26 9 -37 2 -11 6 -33 9 -50 12 -61 14 -105 5 -105
-6 0 -8 -3 -6 -7 5 -8 -32 -11 -155 -13 -38 -1 -68 -5 -68 -8 0 -4 -21 -7 -47
-6 -27 1 -52 -1 -57 -4 -6 -3 -33 -7 -60 -8 -28 -2 -73 -6 -101 -8 -27 -3 -65
-6 -82 -7 -18 -1 -33 -5 -33 -8 0 -3 -15 -7 -32 -7 -46 -3 -103 -10 -223 -30
-52 -8 -60 -10 -72 -14 -5 -1 -12 -2 -17 -1 -5 1 -16 -1 -25 -5 -9 -4 -25 -8
-36 -9 -38 -6 -120 -22 -120 -25 0 -1 -15 -3 -34 -6 -19 -2 -39 -9 -46 -14 -7
-5 -14 -8 -17 -5 -2 3 -36 -5 -74 -16 -68 -20 -87 -25 -121 -33 -20 -5 -109
-34 -133 -43 -8 -3 -22 -7 -31 -9 -9 -2 -29 -9 -45 -15 -16 -7 -34 -13 -40
-14 -6 -2 -27 -9 -45 -18 -19 -8 -65 -27 -104 -42 -100 -40 -373 -178 -469
-238 -615 -381 -1070 -848 -2066 -2122 -236 -303 -248 -317 -264 -304 -6 5
-31 25 -56 45 -174 138 -1100 1081 -1100 1119 0 26 36 78 135 195 268 316 868
789 1425 1122 157 94 455 258 469 258 6 0 11 5 11 10 0 6 4 10 10 10 5 0 53
21 107 46 54 25 139 64 188 86 50 22 104 46 122 55 17 8 37 16 45 17 7 2 27 9
43 15 17 7 75 28 130 47 55 19 107 38 115 41 8 3 25 8 38 10 12 2 35 9 50 15
15 6 38 13 52 15 13 2 30 8 36 14 6 5 13 7 16 4 2 -3 20 0 39 6 19 5 48 12 64
14 17 3 41 7 55 10 47 11 75 16 97 17 31 3 17 18 -15 18 -45 0 -72 4 -72 10 0
3 -10 7 -22 7 -41 3 -83 10 -101 18 -10 4 -21 5 -24 1 -3 -3 -11 -1 -18 4 -6
5 -32 11 -58 14 -26 3 -50 7 -54 9 -5 3 -24 8 -43 11 -19 3 -46 8 -60 11 -14
3 -38 8 -55 12 -16 3 -41 7 -55 9 -14 1 -25 3 -25 4 0 1 -7 3 -15 5 -36 8 -86
18 -105 20 -11 2 -20 4 -20 5 0 1 -11 4 -25 5 -14 2 -44 9 -68 15 -24 6 -47 8
-52 5 -5 -3 -11 -1 -15 4 -3 5 -13 10 -23 9 -9 0 -28 3 -42 7 -14 3 -37 8 -51
9 -14 2 -31 6 -37 10 -6 4 -26 8 -44 10 -18 2 -40 7 -49 10 -9 4 -20 6 -25 5
-5 -1 -11 0 -14 1 -7 2 -42 10 -65 14 -11 2 -38 8 -60 14 -22 6 -60 14 -84 17
-23 3 -47 8 -52 10 -5 3 -21 8 -36 10 -33 5 -40 6 -158 34 -49 12 -105 24
-124 27 -19 3 -45 10 -59 15 -14 5 -27 7 -30 4 -3 -2 -11 0 -19 7 -7 6 -16 8
-20 5 -3 -4 -13 -2 -23 3 -9 5 -30 12 -46 15 -32 5 -43 8 -129 30 -33 9 -69
17 -80 18 -12 2 -25 6 -30 9 -6 3 -27 9 -48 12 -21 3 -47 11 -58 16 -10 6 -19
8 -19 4 0 -3 -7 -1 -15 6 -8 7 -15 10 -15 7 0 -3 -24 1 -52 10 -29 9 -60 17
-68 18 -8 1 -28 7 -43 14 -16 6 -34 11 -40 11 -7 0 -31 7 -55 15 -24 9 -51 16
-60 18 -9 1 -21 5 -27 8 -5 4 -48 19 -95 33 -47 15 -92 30 -100 34 -8 3 -20 6
-26 7 -6 0 -18 6 -27 13 -8 7 -19 12 -23 11 -20 -5 -254 108 -310 149 -56 41
-83 88 -72 128 11 43 29 56 143 100 55 21 103 42 106 47 3 5 10 8 15 8 5 -1
20 3 34 8 14 4 28 9 32 10 4 1 36 14 70 27 35 14 70 27 78 29 34 8 104 36 117
46 7 6 13 9 13 5 0 -3 30 6 68 20 37 14 90 33 117 41 28 8 55 18 60 21 6 4 20
8 33 10 12 1 35 8 50 14 15 6 32 12 37 14 41 11 193 56 205 61 8 3 18 7 23 8
4 2 10 4 15 5 4 1 10 2 14 1 4 0 27 5 50 13 47 15 92 27 123 33 11 2 27 6 35
10 8 3 22 7 30 8 8 2 26 6 40 9 14 3 39 9 55 12 17 3 34 9 40 12 5 3 16 7 25
8 37 4 96 16 103 21 4 2 24 7 43 9 20 2 44 9 54 14 9 5 20 7 23 3 3 -3 14 -2
24 2 10 4 27 9 38 10 11 2 34 6 50 9 29 6 55 10 120 20 17 3 44 7 60 10 17 3
48 8 70 11 22 3 54 8 70 11 17 3 43 5 59 5 17 0 34 3 40 6 9 6 66 11 149 14
20 1 39 4 41 8 3 4 31 6 63 5 32 -1 62 1 67 4 5 3 51 6 102 6 51 1 95 3 97 6
5 5 170 3 412 -3z m-3978 -1015 c30 -17 302 -122 322 -125 9 -1 23 -7 31 -12
11 -7 149 -58 180 -67 3 0 20 -7 37 -15 18 -7 40 -14 50 -16 10 -1 23 -6 28
-9 6 -4 56 -23 110 -43 55 -20 149 -55 208 -76 59 -22 116 -42 125 -44 9 -3
58 -20 109 -40 50 -19 100 -37 110 -39 10 -1 35 -10 55 -20 21 -9 45 -18 55
-19 10 -2 32 -9 48 -16 17 -7 64 -24 105 -38 41 -14 84 -30 95 -36 11 -5 33
-13 50 -18 35 -8 269 -94 285 -104 16 -10 -5 -32 -38 -40 -41 -10 -531 -261
-672 -345 -8 -4 -76 -43 -150 -86 -582 -334 -1019 -621 -1194 -785 -35 -32
-68 -59 -73 -59 -5 0 -29 21 -53 46 -105 107 -329 257 -685 458 -104 59 -197
111 -205 116 -30 19 -798 400 -883 439 -49 23 -93 41 -99 41 -6 0 -19 6 -27
13 -9 8 -51 27 -93 43 -43 16 -78 34 -78 39 0 17 22 35 42 35 10 0 18 4 18 8
0 5 6 9 13 9 17 0 459 172 474 185 7 6 13 8 13 5 0 -3 39 10 88 29 48 19 94
37 102 39 8 2 63 24 122 48 59 24 110 42 113 39 3 -3 5 -1 5 5 0 5 6 10 13 10
6 0 89 31 182 68 94 37 180 69 193 72 12 3 22 10 22 15 0 5 6 8 13 6 6 -1 23
4 37 12 14 7 27 13 30 13 6 -1 12 2 125 47 44 17 86 36 93 42 6 6 12 8 12 4 0
-6 63 17 137 50 21 9 42 16 47 15 5 -1 12 2 15 6 7 9 70 34 89 36 6 0 12 5 12
10 0 6 3 8 6 5 3 -3 42 9 87 27 85 34 107 37 144 17z m2068 -1132 c3 -5 -15
-24 -41 -42 -456 -316 -728 -537 -1164 -945 -206 -192 -588 -579 -796 -803
-446 -485 -1070 -1226 -1605 -1908 -617 -787 -1016 -1241 -1603 -1828 -505
-504 -850 -815 -1228 -1106 -66 -51 -126 -98 -132 -103 -36 -35 -532 -379
-546 -380 -3 0 -18 -9 -35 -21 -49 -34 -246 -150 -346 -205 -146 -78 -441
-219 -460 -219 -6 0 -23 -6 -37 -14 -46 -25 -335 -122 -397 -133 -11 -2 -38
-9 -60 -15 -22 -6 -47 -12 -55 -13 -8 -2 -33 -6 -55 -10 -195 -35 -445 -50
-474 -28 -14 10 -14 13 -1 27 8 8 27 17 42 20 14 2 47 13 71 24 25 11 48 18
51 14 3 -3 6 1 6 8 0 7 3 11 6 8 6 -7 123 34 242 84 15 6 32 12 37 14 6 1 64
27 130 57 1098 498 1983 1244 3301 2782 99 116 301 354 449 530 817 972 1497
1732 2070 2314 681 691 1342 1218 2000 1594 148 84 592 307 612 307 6 0 15 -4
18 -10z m-3335 -562 c52 -24 100 -46 105 -49 6 -4 57 -31 115 -61 136 -72 274
-155 380 -232 110 -79 240 -205 240 -232 0 -13 -37 -57 -100 -118 l-99 -98
-28 33 c-90 112 -293 307 -567 547 -340 297 -347 304 -335 318 11 13 79 -12
289 -108z m-3182 -112 c129 -96 431 -394 598 -591 305 -358 705 -897 1078
-1455 202 -300 296 -447 296 -460 0 -14 -103 -138 -199 -240 l-61 -65 -40 45
c-63 69 -230 323 -306 465 -14 28 -30 51 -35 53 -5 2 -9 8 -9 13 0 12 -128
238 -148 262 -8 9 -12 17 -7 17 4 0 1 7 -6 16 -7 9 -18 24 -24 34 -123 214
-277 440 -862 1258 -407 570 -552 780 -547 794 5 17 12 15 86 -24 44 -24 128
-79 186 -122z m9027 94 c3 -5 -156 -227 -353 -492 -573 -772 -753 -1024 -1007
-1408 -128 -196 -297 -462 -350 -555 -16 -27 -33 -51 -37 -53 -4 -2 -8 -8 -8
-14 0 -8 -121 -222 -168 -298 -9 -14 -14 -25 -11 -25 2 0 -6 -13 -17 -30 -12
-16 -112 -187 -223 -380 -111 -192 -206 -357 -211 -365 -5 -8 -100 -172 -211
-365 -111 -192 -207 -357 -214 -365 -8 -8 -15 -19 -16 -25 -1 -5 -7 -19 -14
-30 -7 -11 -90 -153 -185 -315 -95 -162 -180 -303 -188 -312 -8 -10 -11 -18
-7 -18 4 0 1 -8 -7 -17 -8 -10 -46 -70 -83 -133 -278 -466 -696 -1127 -963
-1520 -442 -652 -948 -1275 -1412 -1741 -466 -467 -904 -818 -1411 -1132 -186
-115 -495 -283 -511 -279 -5 1 -8 -3 -8 -10 0 -6 -3 -9 -6 -5 -4 3 -28 -5 -54
-18 -25 -13 -107 -49 -181 -80 -74 -32 -138 -61 -143 -65 -5 -5 -15 -6 -22 -3
-8 3 -14 -1 -14 -8 0 -7 -3 -10 -6 -7 -3 4 -38 -7 -77 -23 -40 -17 -74 -30
-77 -30 -10 1 -75 -22 -86 -30 -6 -5 -13 -6 -16 -4 -3 3 -18 0 -34 -6 -34 -14
-29 -13 -74 -23 -19 -5 -41 -13 -47 -18 -7 -6 -13 -8 -13 -5 0 3 -48 -8 -107
-24 -125 -35 -136 -37 -183 -45 -19 -3 -39 -9 -44 -12 -6 -3 -19 -7 -30 -8
-12 -1 -34 -5 -51 -8 -49 -10 -68 -13 -115 -21 -51 -8 -75 -13 -75 -15 0 -1
-16 -3 -35 -5 -19 -2 -55 -7 -80 -10 -119 -15 -173 -21 -275 -29 -33 -3 -75
-6 -93 -9 -18 -2 -41 3 -50 10 -16 12 -15 13 6 19 12 3 22 10 22 13 0 4 6 8
13 8 6 0 98 35 202 77 105 42 215 86 245 97 30 12 77 29 104 40 27 10 55 19
62 19 8 0 14 5 14 10 0 6 6 10 14 10 13 0 122 45 326 136 69 30 525 257 550
274 8 5 58 33 110 61 52 29 102 58 110 65 8 7 20 14 25 15 6 1 27 13 48 26 21
13 49 29 63 35 13 6 24 14 24 18 0 4 8 10 17 12 30 8 438 286 603 410 346 261
633 511 960 838 679 679 1308 1517 2012 2680 169 279 544 927 662 1143 22 40
43 74 48 75 4 2 8 8 8 13 0 8 247 444 295 519 12 19 69 114 125 210 280 476
603 963 850 1285 42 55 109 147 148 205 241 357 422 601 671 904 385 470 850
918 1170 1128 77 50 86 54 96 38z m-4009 -1520 c125 -145 377 -420 552 -603
153 -159 262 -281 423 -477 72 -87 94 -120 89 -135 -8 -27 -33 -79 -41 -85 -3
-3 -17 -25 -29 -50 -32 -64 -99 -157 -118 -165 -10 -4 -30 8 -55 32 -68 67
-287 310 -517 578 -243 282 -349 401 -532 598 -76 81 -118 133 -114 142 9 25
230 272 242 270 6 0 51 -48 100 -105z m-398 -835 c52 -55 153 -170 225 -255
141 -169 685 -889 704 -931 9 -20 8 -29 -1 -40 -7 -8 -60 -88 -116 -179 -84
-134 -409 -647 -639 -1007 -119 -188 -165 -258 -251 -393 -51 -80 -98 -154
-104 -165 -12 -21 -77 -123 -159 -247 -58 -89 -46 -95 -129 57 -30 55 -75 136
-99 180 -24 44 -44 82 -44 85 0 3 -12 25 -27 50 -14 25 -151 279 -303 565
-153 286 -331 618 -397 738 -66 120 -118 222 -116 226 2 5 132 182 291 392
158 211 417 558 577 771 159 212 297 391 307 396 14 8 33 -4 101 -66 46 -42
127 -122 180 -177z m-5338 96 c0 -4 -5 -33 -10 -62 -6 -30 -13 -67 -16 -84 -2
-16 -7 -37 -9 -45 -2 -8 -7 -35 -10 -60 -4 -25 -9 -61 -12 -80 -2 -19 -7 -53
-9 -75 -3 -22 -7 -56 -9 -75 -6 -40 -12 -104 -22 -235 -8 -111 -8 -598 1 -720
12 -183 20 -271 31 -355 3 -25 7 -63 10 -85 2 -22 7 -56 10 -75 3 -19 8 -53
11 -75 5 -50 11 -80 14 -80 1 0 4 -13 5 -30 5 -44 12 -91 30 -183 3 -15 7 -40
9 -57 3 -16 8 -41 11 -55 3 -14 8 -38 10 -54 2 -15 8 -38 12 -50 4 -11 7 -25
8 -31 5 -47 19 -106 26 -111 5 -3 7 -9 5 -13 -3 -4 4 -43 15 -87 11 -43 22
-90 25 -104 3 -14 7 -32 9 -40 2 -8 4 -16 4 -17 1 -2 2 -6 2 -10 1 -5 12 -46
26 -93 13 -47 25 -93 28 -104 2 -10 12 -44 20 -74 l16 -55 -123 -124 c-383
-385 -763 -692 -1113 -897 -95 -57 -333 -178 -338 -174 -2 2 -11 -3 -20 -11
-10 -7 -17 -10 -17 -7 0 4 -12 -1 -27 -12 -16 -10 -34 -17 -40 -15 -7 3 -13 0
-13 -6 0 -6 -11 -11 -25 -11 -14 0 -25 -4 -25 -10 0 -5 -11 -10 -25 -10 -14 0
-25 -5 -25 -12 0 -6 -3 -9 -6 -6 -3 3 -33 -5 -67 -19 -34 -13 -74 -26 -90 -28
-15 -2 -32 -7 -37 -10 -6 -4 -23 -9 -38 -11 -15 -3 -54 -12 -87 -21 -33 -8
-71 -17 -85 -20 -41 -8 -55 -11 -55 -13 0 -2 -9 -3 -115 -15 -30 -3 -68 -8
-85 -11 -16 -2 -75 -6 -130 -9 -55 -2 -107 -5 -115 -5 -48 -4 -67 18 -133 152
-74 151 -138 304 -129 312 3 3 -1 6 -8 6 -7 0 -11 2 -8 5 3 3 -6 41 -19 83
-14 42 -27 86 -29 97 -11 59 -17 81 -22 90 -4 6 -7 19 -8 30 0 11 -5 36 -9 55
-5 19 -8 41 -6 49 1 7 -1 20 -5 30 -6 16 -8 33 -19 161 -9 113 -4 377 7 396 4
5 5 24 4 42 -1 17 1 32 5 32 4 0 7 15 8 33 0 17 3 43 6 57 4 14 8 37 9 51 2
14 6 31 10 37 4 6 8 26 10 44 2 18 9 46 15 61 6 15 10 31 9 35 -2 4 2 21 8 37
6 17 17 48 24 70 7 22 17 51 23 65 6 14 11 27 12 30 7 28 20 63 37 100 12 25
21 51 21 58 0 6 3 12 6 12 3 0 17 27 31 60 14 33 28 60 33 60 4 0 7 6 7 13 0
20 126 242 205 361 387 586 1022 1184 1790 1688 99 65 185 121 190 125 6 5 26
17 45 28 19 11 96 54 170 97 125 73 170 91 170 69z m10472 -158 c328 -198 769
-510 1043 -737 563 -466 970 -929 1238 -1406 66 -117 176 -351 181 -384 1 -6
6 -18 11 -26 5 -8 10 -17 10 -20 1 -8 45 -153 52 -170 7 -18 9 -27 17 -65 12
-62 19 -90 24 -99 3 -5 7 -23 9 -40 2 -17 5 -42 7 -56 21 -141 25 -181 26
-345 2 -122 -1 -159 -16 -267 -17 -125 -20 -145 -34 -198 -6 -25 -13 -54 -14
-65 -2 -11 -6 -27 -9 -35 -5 -12 -68 -204 -72 -220 -19 -72 -220 -459 -247
-476 -25 -16 -307 -22 -393 -9 -27 4 -66 9 -86 10 -19 1 -41 5 -48 9 -6 4 -18
5 -26 2 -8 -3 -17 -1 -20 4 -3 5 -13 9 -23 9 -27 1 -56 6 -67 13 -6 3 -28 9
-50 13 -22 4 -52 14 -67 22 -15 7 -31 13 -35 13 -16 -1 -148 45 -151 52 -2 5
-10 8 -18 8 -19 0 -206 80 -225 96 -8 8 -22 14 -30 14 -8 0 -23 6 -34 14 -11
7 -58 34 -105 58 -382 200 -854 556 -1242 936 -198 194 -207 208 -179 266 8
16 15 39 16 50 1 12 5 28 8 36 9 21 76 254 81 285 3 13 7 29 11 35 3 5 8 22
10 37 2 16 10 47 19 71 8 23 15 43 15 45 -1 1 4 21 10 45 7 24 14 55 16 70 2
15 8 40 14 55 6 16 9 32 6 37 -3 5 0 12 6 15 5 4 8 13 5 21 -3 8 -1 14 4 14 5
0 9 9 9 20 1 11 1 29 2 40 0 11 4 20 10 20 5 0 9 10 8 23 0 12 7 49 15 82 17
67 28 121 29 148 1 9 5 17 10 17 5 0 8 10 7 23 -1 12 -1 24 0 27 3 5 9 39 14
75 1 11 6 29 9 40 4 11 9 40 13 65 13 90 19 127 27 165 6 27 18 110 24 165 2
25 6 63 9 85 3 22 7 58 9 80 3 22 7 63 10 90 20 194 26 896 7 929 -3 5 -6 34
-8 65 -5 87 -11 142 -18 148 -5 6 11 43 19 43 3 0 69 -39 147 -87z m-10222
-1194 c0 -5 11 -32 25 -61 14 -28 25 -56 25 -62 0 -5 16 -42 35 -83 19 -41 35
-80 35 -87 0 -8 7 -19 15 -26 8 -7 15 -18 15 -25 0 -12 218 -504 310 -700 28
-60 52 -112 52 -115 0 -3 9 -16 19 -29 11 -13 19 -30 19 -38 0 -17 -209 -293
-222 -293 -15 0 -47 63 -74 145 -14 44 -28 87 -31 95 -3 8 -7 21 -9 29 -1 8
-6 26 -10 40 -4 14 -8 29 -9 34 -2 4 -3 8 -5 10 -1 1 -3 11 -5 22 -2 17 -11
54 -31 130 -3 11 -7 31 -10 45 -3 14 -10 43 -16 65 -6 22 -13 53 -15 69 -2 16
-8 34 -13 41 -5 7 -8 14 -5 16 2 3 -2 33 -10 66 -8 34 -17 75 -20 90 -2 15 -7
39 -10 53 -3 14 -8 36 -10 50 -2 14 -7 36 -10 50 -3 14 -7 36 -10 50 -17 96
-23 125 -25 125 0 0 -3 18 -5 40 -2 22 -7 51 -10 65 -8 34 -16 100 -15 128 0
13 -4 31 -9 40 -14 25 6 57 25 41 8 -6 14 -15 14 -20z m9613 -281 c-2 -59 -9
-146 -18 -213 -17 -122 -20 -138 -33 -190 -12 -45 -23 -100 -25 -130 -1 -11
-5 -22 -8 -25 -4 -3 -9 -21 -12 -40 -3 -19 -7 -42 -11 -50 -3 -8 -8 -26 -10
-40 -3 -14 -15 -59 -27 -100 -12 -41 -22 -82 -23 -90 -1 -9 -5 -20 -8 -25 -7
-13 -22 -78 -20 -87 1 -5 -2 -8 -6 -8 -5 0 -15 -26 -22 -57 -17 -71 -14 -62
-29 -97 -6 -16 -13 -36 -15 -45 -2 -9 -6 -23 -9 -31 -9 -21 -69 -193 -72 -205
-1 -5 -8 -23 -15 -40 -6 -16 -29 -75 -50 -130 -55 -147 -71 -187 -85 -220 -21
-49 -86 -209 -89 -220 -2 -5 -13 -32 -26 -60 -12 -27 -65 -147 -117 -265 -93
-209 -214 -470 -232 -500 -11 -17 -97 -192 -99 -200 -1 -3 -22 -43 -47 -90
-25 -47 -48 -95 -51 -107 -3 -12 -12 -27 -20 -34 -8 -6 -14 -16 -14 -21 0 -5
-26 -57 -57 -116 -32 -59 -58 -109 -58 -112 0 -3 -8 -16 -16 -30 -34 -53 -239
-432 -239 -441 0 -5 -4 -9 -8 -9 -5 0 -16 -16 -25 -35 -9 -19 -67 -119 -128
-222 -1074 -1801 -2226 -3170 -3415 -4059 -128 -95 -495 -340 -524 -349 -11
-4 -20 -11 -20 -16 0 -5 -4 -9 -9 -9 -4 0 -48 -23 -97 -51 -81 -47 -359 -186
-444 -222 -156 -67 -305 -123 -401 -151 -78 -24 -62 3 34 53 888 470 2044
1659 3328 3426 774 1064 1614 2387 2213 3485 58 107 110 202 115 210 5 8 37
69 72 135 34 66 73 137 86 158 13 20 20 37 17 37 -4 0 -1 6 5 14 12 15 70 131
72 144 0 4 6 14 14 22 7 8 16 26 20 40 4 14 11 27 14 30 9 7 287 584 291 605
2 11 53 123 71 158 11 20 17 37 13 37 -3 0 -2 6 4 13 9 11 101 237 107 262 1
5 8 24 14 40 7 17 14 35 15 40 2 6 6 17 9 25 18 42 35 100 30 100 -3 0 0 6 6
14 6 8 11 18 10 22 -1 5 1 18 5 29 4 11 12 31 17 45 28 79 29 82 42 72 8 -7
12 -33 10 -74z m-1961 -80 c100 -137 246 -303 374 -428 111 -108 414 -385 535
-488 21 -19 39 -40 39 -48 0 -8 -12 -38 -27 -67 -14 -29 -43 -101 -64 -160
-37 -107 -79 -187 -99 -187 -14 0 -276 252 -421 404 -223 233 -647 701 -640
706 4 3 41 59 83 125 43 66 81 125 85 130 5 6 19 27 32 48 12 20 29 37 36 37
7 0 37 -33 67 -72z m-4337 -156 c6 -4 16 -18 23 -31 18 -32 34 -59 139 -242
50 -86 134 -237 188 -335 54 -98 107 -191 117 -206 11 -16 17 -28 14 -28 -3 0
7 -21 22 -47 16 -27 57 -102 92 -168 34 -66 69 -127 76 -135 7 -8 12 -17 11
-20 -1 -6 65 -128 127 -235 22 -38 41 -72 41 -75 0 -3 8 -16 16 -30 54 -86
238 -408 240 -420 2 -8 -14 -42 -36 -75 -21 -33 -39 -62 -40 -65 0 -9 -112
-164 -134 -187 -12 -13 -26 -23 -32 -23 -15 0 -600 896 -709 1085 -10 17 -50
86 -89 155 -40 69 -76 132 -81 140 -42 69 -100 178 -197 368 l-114 223 49 57
c27 31 93 112 146 180 95 118 109 130 131 114z m3891 -796 c325 -261 732 -647
865 -820 22 -28 44 -57 49 -63 28 -33 22 -70 -20 -149 -70 -128 -305 -546
-406 -721 -52 -89 -94 -165 -94 -168 0 -3 -5 -11 -11 -18 -5 -7 -67 -109 -136
-227 -350 -598 -632 -1020 -682 -1020 -10 0 -75 45 -144 99 -264 210 -539 466
-699 651 -110 128 -238 310 -238 341 0 10 56 108 124 216 68 109 197 317 288
463 90 146 186 299 212 340 26 41 52 84 59 95 18 31 294 476 337 545 5 8 55
89 111 180 56 91 113 183 128 205 14 22 26 42 26 45 4 23 72 110 85 110 9 0
75 -47 146 -104z m-4235 -476 c188 -311 420 -693 515 -850 329 -542 364 -602
364 -624 0 -54 -261 -399 -574 -761 -225 -259 -496 -545 -517 -545 -22 0 -83
74 -183 225 -98 147 -206 323 -206 335 0 6 -4 10 -8 10 -4 0 -18 19 -30 43
-12 23 -26 49 -32 57 -5 8 -44 76 -86 150 -42 74 -88 155 -102 180 -15 25 -27
47 -27 50 0 3 -26 50 -57 105 -151 269 -498 943 -517 1006 -15 49 -6 64 109
170 162 150 652 661 899 937 50 55 81 82 93 80 12 -2 134 -195 359 -568z
m6619 -576 c248 -254 750 -628 1161 -864 111 -64 378 -199 404 -205 5 -1 33
-12 60 -24 86 -39 203 -80 209 -74 3 4 6 2 6 -4 0 -5 6 -10 13 -11 6 0 53 -12
103 -26 88 -23 145 -36 189 -41 145 -17 174 -54 69 -90 -61 -21 -159 -25 -259
-10 -27 4 -66 9 -85 12 -43 5 -57 8 -95 16 -16 4 -41 9 -55 11 -14 3 -59 14
-100 26 -41 11 -84 22 -95 25 -12 2 -47 14 -80 25 -32 11 -61 18 -63 15 -3 -3
-10 -1 -16 4 -6 5 -47 21 -91 36 -209 73 -563 234 -750 340 -44 25 -80 45 -80
44 0 -5 -114 66 -244 152 -189 125 -365 267 -369 298 -4 23 8 76 33 156 7 22
15 54 18 70 3 17 12 51 20 78 8 26 13 47 9 47 -3 0 3 9 13 20 10 11 21 20 24
20 4 0 27 -21 51 -46z m-8466 -300 c9 -3 16 -13 16 -21 0 -32 282 -577 358
-693 9 -14 17 -27 17 -30 1 -6 157 -273 216 -368 22 -35 39 -65 39 -67 0 -7
123 -210 138 -227 8 -10 11 -18 7 -18 -4 0 -1 -8 7 -17 8 -10 59 -92 113 -183
54 -91 105 -173 113 -182 8 -10 12 -18 9 -18 -4 0 8 -24 27 -52 84 -133 191
-334 188 -356 -2 -14 -48 -61 -124 -128 -160 -140 -163 -142 -189 -118 -52 47
-352 581 -610 1084 -23 47 -46 87 -49 90 -4 5 -82 158 -85 170 -1 3 -83 169
-182 370 -210 425 -263 541 -263 575 0 19 21 41 102 102 86 65 110 82 135 92
1 1 8 -2 17 -5z m8211 -522 c105 -99 282 -205 528 -318 110 -51 307 -133 332
-139 6 -1 24 -7 40 -14 65 -27 195 -70 195 -64 0 3 6 1 13 -4 13 -11 143 -56
167 -58 9 0 20 -4 25 -7 9 -5 69 -23 115 -34 8 -2 35 -10 60 -17 25 -8 50 -16
55 -17 6 -1 15 -4 20 -6 6 -1 24 -5 40 -8 17 -2 53 -10 80 -17 28 -6 59 -12
71 -13 11 -1 25 -5 31 -9 6 -4 28 -10 49 -13 74 -12 99 -15 124 -18 14 -1 30
-5 36 -8 5 -4 35 -9 65 -12 29 -4 74 -9 99 -13 25 -3 69 -6 98 -7 28 -1 52 -4
52 -7 0 -7 297 -4 360 4 81 11 109 16 150 28 99 30 63 -51 -94 -207 -195 -195
-508 -410 -724 -498 l-63 -25 -182 186 c-259 264 -409 387 -620 508 -107 61
-285 142 -328 148 -10 2 -21 6 -25 9 -3 4 -12 4 -20 1 -8 -3 -14 -1 -14 4 0 5
-6 10 -12 10 -7 0 -36 5 -63 11 -155 33 -390 37 -515 7 -14 -3 -38 -9 -55 -12
-16 -3 -32 -8 -35 -11 -3 -4 -12 -8 -20 -10 -32 -6 -141 -62 -197 -100 -112
-76 -235 -222 -250 -294 -3 -16 -10 -28 -15 -28 -6 0 -8 -6 -5 -14 3 -7 1 -18
-4 -23 -6 -6 -12 -33 -13 -61 -2 -28 -6 -54 -9 -59 -9 -14 7 -136 24 -193 37
-117 164 -272 297 -361 114 -76 297 -157 416 -184 12 -3 57 -14 101 -25 44
-11 88 -17 98 -14 9 3 17 1 17 -4 0 -5 12 -9 28 -10 15 0 29 -1 32 -2 24 -8
114 -19 217 -24 33 -2 65 -6 70 -9 10 -6 513 0 613 7 108 8 155 13 155 15 0 1
19 3 43 5 29 1 47 -3 57 -14 19 -21 100 -195 104 -223 0 -4 7 -20 15 -36 9
-16 12 -31 9 -35 -4 -3 0 -6 7 -6 7 0 11 -3 7 -6 -5 -5 20 -88 40 -134 3 -8 7
-18 8 -22 2 -5 4 -11 5 -15 1 -5 2 -12 1 -17 -2 -8 1 -19 25 -81 4 -11 6 -24
5 -28 -1 -5 4 -27 10 -50 6 -23 13 -53 14 -67 2 -14 7 -41 10 -60 4 -19 7 -50
7 -68 0 -17 3 -34 7 -36 14 -9 -4 -311 -19 -311 -1 0 -4 -9 -6 -20 -3 -11 -6
-24 -7 -30 -7 -30 -41 -52 -92 -61 -11 -2 -33 -6 -50 -9 -16 -3 -37 -6 -45 -6
-8 0 -22 -3 -30 -6 -8 -3 -27 -5 -42 -4 -16 2 -28 -1 -28 -6 0 -9 -23 -11
-155 -14 -47 -1 -87 -4 -89 -8 -2 -3 -30 -5 -63 -3 -32 2 -94 5 -138 7 -44 2
-105 7 -135 10 -30 4 -73 8 -95 10 -22 2 -40 4 -40 5 0 2 -9 4 -20 5 -74 10
-150 23 -150 25 0 2 -9 4 -20 6 -11 1 -36 6 -55 9 -19 4 -42 7 -50 9 -9 1 -20
5 -26 9 -6 3 -27 8 -47 11 -20 2 -41 7 -47 11 -9 6 -42 14 -80 20 -8 1 -28 7
-43 14 -16 6 -32 11 -35 11 -4 0 -43 12 -87 26 -44 15 -84 27 -90 29 -5 1 -19
6 -30 10 -11 4 -60 23 -110 42 -49 19 -110 44 -135 55 -25 11 -79 35 -120 53
-383 165 -951 510 -1142 693 -53 51 -54 64 -10 120 61 78 305 461 307 482 0 3
12 23 26 45 14 22 77 132 141 245 169 302 192 344 193 350 0 3 12 25 27 50 34
60 372 700 373 710 2 10 30 65 35 70 3 3 36 70 74 150 72 153 82 170 98 170 6
0 38 -26 73 -58z m-8861 32 c9 -3 16 -10 16 -14 0 -4 35 -79 77 -166 42 -88
77 -160 76 -161 0 -1 21 -44 47 -95 76 -148 222 -443 223 -448 1 -9 90 -185
100 -198 5 -7 24 -45 41 -85 18 -40 46 -97 63 -127 18 -30 32 -58 33 -62 1 -4
17 -35 35 -70 18 -35 54 -106 80 -158 27 -52 52 -96 56 -98 5 -2 9 -8 9 -14 0
-23 217 -403 302 -530 21 -31 38 -64 38 -72 0 -30 -252 -227 -450 -350 -52
-33 -113 -71 -135 -85 -22 -14 -42 -26 -45 -26 -3 -1 -27 -15 -55 -32 -27 -18
-54 -32 -60 -33 -5 -1 -21 -10 -35 -20 -55 -39 -526 -265 -544 -261 -5 1 -12
-2 -15 -6 -6 -8 -49 -25 -161 -64 -30 -11 -64 -24 -75 -29 -11 -5 -38 -14 -60
-21 -22 -6 -44 -14 -50 -18 -5 -3 -19 -7 -30 -8 -11 -2 -27 -6 -35 -10 -20 -8
-39 -13 -82 -20 -21 -3 -38 -10 -38 -15 0 -5 -4 -7 -10 -3 -5 3 -25 -1 -44 -9
-19 -8 -37 -12 -40 -9 -3 3 -12 1 -19 -5 -8 -7 -16 -10 -18 -7 -3 2 -22 0 -44
-6 -22 -5 -51 -12 -65 -14 -14 -2 -36 -7 -50 -10 -14 -3 -41 -8 -60 -10 -19
-3 -51 -7 -70 -10 -189 -31 -538 -35 -675 -9 -16 3 -48 7 -70 9 -22 2 -40 4
-40 5 0 1 -7 3 -15 5 -74 19 -95 23 -102 19 -4 -3 -8 0 -8 6 0 6 -8 10 -17 7
-30 -6 -119 45 -108 63 2 4 0 22 -6 41 -5 19 -12 52 -15 74 -8 60 -10 256 -3
261 4 2 7 23 8 46 2 48 5 66 15 118 4 19 9 46 11 60 2 14 8 43 14 65 10 40 20
87 25 115 2 8 8 26 13 40 13 31 28 92 25 103 -1 4 2 7 7 7 5 0 11 15 15 33 6
31 61 181 74 202 4 6 8 19 9 29 2 11 9 26 15 34 7 8 17 23 23 35 10 21 58 40
70 28 4 -3 16 -6 28 -6 12 -1 27 -4 32 -7 6 -3 37 -9 70 -13 33 -3 74 -8 90
-11 302 -45 738 -49 995 -9 19 3 47 8 62 10 41 6 232 58 238 64 3 3 13 7 23 9
34 6 149 62 219 108 210 136 324 318 322 519 0 50 -3 101 -6 115 -3 14 -9 39
-13 55 -13 53 -83 179 -131 233 -25 28 -73 73 -106 99 -62 47 -211 129 -238
129 -8 1 -28 6 -45 13 -16 7 -45 14 -65 15 -19 2 -42 6 -50 9 -17 7 -27 8
-180 9 -109 1 -185 -5 -240 -17 -14 -3 -40 -8 -59 -11 -18 -2 -41 -8 -50 -13
-9 -5 -29 -11 -46 -15 -36 -6 -102 -30 -111 -39 -4 -4 -15 -7 -24 -7 -30 0
-193 -86 -300 -158 -164 -110 -259 -191 -485 -413 -234 -230 -217 -221 -314
-168 -250 137 -663 533 -749 717 -33 73 -25 80 78 66 111 -15 605 -2 605 15 0
1 25 4 55 7 58 5 95 10 95 13 0 2 16 4 35 6 19 3 49 7 65 10 17 3 41 7 55 9
24 4 53 10 103 20 12 3 37 7 56 10 18 3 43 9 55 13 11 4 26 7 31 8 19 2 130
26 145 32 8 3 24 7 35 9 11 1 47 10 80 19 63 17 85 22 122 29 12 3 31 9 42 16
12 6 21 8 21 5 0 -3 16 1 35 9 20 9 38 15 40 15 16 -1 72 15 83 23 6 6 12 7
12 4 0 -4 6 -4 12 0 7 5 20 9 28 9 9 1 45 11 80 23 36 12 99 33 140 46 41 13
120 41 175 61 55 20 110 39 123 42 12 3 22 10 22 16 0 6 3 8 6 4 3 -3 30 5 60
18 30 13 54 22 54 20 0 -5 312 151 345 174 33 21 45 24 69 15z m5113 -821
c156 -196 310 -353 583 -597 266 -237 350 -316 350 -329 0 -15 -109 -178 -156
-234 -24 -28 -51 -50 -60 -49 -18 3 -240 172 -419 320 -66 55 -184 163 -263
240 -159 156 -417 440 -417 459 0 13 250 337 260 337 2 0 57 -66 122 -147z
m-5642 -68 c33 -2 74 -7 90 -11 17 -4 37 -8 45 -9 8 -1 28 -7 44 -14 16 -6 36
-13 45 -14 27 -4 112 -57 168 -104 51 -42 97 -118 107 -173 3 -14 5 -27 6 -30
2 -3 2 -9 1 -13 -1 -4 -4 -24 -7 -45 -3 -20 -9 -39 -13 -42 -4 -3 -13 -19 -20
-37 -15 -37 -87 -108 -151 -148 -38 -24 -164 -82 -195 -89 -23 -6 -131 -38
-145 -43 -8 -3 -22 -7 -30 -8 -8 -1 -33 -5 -55 -9 -91 -17 -102 -18 -220 -31
-174 -19 -605 -20 -833 -2 -61 5 -69 17 -43 69 67 139 315 413 476 527 141 99
322 182 455 207 8 2 31 6 50 10 19 4 52 7 72 8 20 1 40 4 43 8 4 4 17 5 28 2
12 -2 49 -6 82 -9z m9930 -59 c57 -5 155 -21 163 -26 5 -5 82 -21 97 -21 6 0
17 -6 25 -13 12 -10 65 -29 77 -27 9 1 180 -100 233 -137 157 -112 310 -273
439 -461 65 -97 84 -141 67 -156 -26 -23 -662 -17 -836 9 -19 3 -53 8 -75 10
-58 8 -108 16 -125 19 -8 2 -37 7 -65 11 -54 8 -68 12 -193 52 -45 14 -88 27
-95 28 -7 1 -37 15 -67 31 -30 16 -71 37 -92 48 -55 28 -133 108 -163 168 -33
64 -37 136 -10 194 10 22 18 43 17 46 -2 10 140 139 152 139 3 0 33 13 66 29
33 16 60 28 60 26 0 -2 15 1 33 6 44 14 85 20 130 21 20 1 37 4 37 8 0 3 17 5
38 3 20 -2 60 -5 87 -7z m-4763 -731 c315 -311 516 -497 723 -670 72 -60 133
-113 136 -118 23 -34 -453 -733 -808 -1184 -275 -351 -479 -581 -520 -588 -52
-9 -609 645 -914 1072 -126 177 -280 411 -292 445 -11 30 1333 1339 1369 1334
7 -1 145 -132 306 -291z m2744 -1100 c130 -86 206 -132 214 -131 3 1 19 -8 35
-20 57 -39 300 -162 470 -237 154 -67 473 -194 507 -201 7 -2 21 -6 30 -10 9
-4 22 -9 30 -10 7 -2 27 -9 43 -15 17 -7 35 -14 40 -15 6 -2 17 -6 25 -9 54
-23 310 -104 314 -99 3 3 6 0 6 -7 0 -7 7 -11 15 -8 8 4 17 2 20 -2 2 -5 22
-12 42 -16 51 -11 50 -11 116 -34 32 -11 62 -20 65 -19 15 4 82 -27 79 -37 -8
-25 -61 -37 -165 -36 -59 0 -120 3 -137 5 -16 3 -50 8 -75 10 -58 7 -91 13
-127 20 -15 4 -44 9 -63 12 -57 9 -108 19 -138 28 -9 3 -28 7 -42 10 -30 6
-40 9 -145 37 -44 12 -87 23 -95 24 -8 1 -28 7 -44 14 -16 6 -31 9 -34 6 -3
-2 -10 0 -17 5 -6 5 -20 11 -31 13 -10 2 -26 7 -34 10 -18 7 -171 58 -185 62
-5 1 -19 6 -30 10 -11 4 -78 31 -150 58 -259 101 -706 345 -783 427 -21 22
-21 24 -3 49 10 14 29 46 41 71 34 67 70 122 78 118 4 -2 62 -39 128 -83z
m-4642 -335 c489 -671 777 -1039 1029 -1310 l125 -134 -39 -61 c-48 -76 -86
-115 -113 -115 -29 0 -202 155 -326 292 -131 145 -348 415 -635 793 -125 165
-267 346 -314 403 -47 57 -86 112 -86 123 0 25 192 179 219 176 12 -1 64 -63
140 -167z m4188 -286 c119 -68 373 -180 398 -176 3 0 10 -4 17 -9 10 -9 108
-45 245 -88 31 -11 59 -16 62 -13 3 3 6 0 6 -7 0 -6 6 -11 13 -10 6 1 26 -3
42 -10 17 -7 39 -14 50 -16 11 -2 42 -10 68 -19 27 -9 52 -15 55 -15 4 1 9 0
12 -1 3 -1 12 -3 20 -5 8 -2 69 -17 135 -34 66 -16 132 -32 147 -35 15 -2 31
-7 36 -10 4 -2 28 -7 52 -11 25 -3 54 -8 65 -11 42 -9 92 -18 150 -28 28 -5
41 -7 105 -21 14 -3 43 -8 65 -11 22 -3 54 -7 70 -10 17 -3 44 -7 60 -9 17 -2
48 -7 70 -10 22 -4 63 -8 90 -10 28 -2 50 -5 50 -6 0 -6 298 -33 495 -45 111
-7 740 -8 805 -1 28 3 75 8 105 12 30 3 65 6 78 5 12 0 22 4 22 10 0 5 9 7 19
5 17 -3 86 9 121 22 8 3 24 8 34 10 11 2 32 10 48 17 20 11 29 11 36 3 41 -52
42 -345 2 -566 -5 -30 -7 -57 -5 -60 3 -2 0 -10 -5 -17 -6 -6 -10 -16 -9 -20
1 -5 -1 -21 -5 -35 -4 -14 -8 -32 -10 -40 -6 -32 -18 -75 -27 -99 -5 -14 -11
-34 -14 -45 -15 -72 -126 -327 -209 -480 -93 -172 -274 -428 -431 -610 -289
-335 -721 -691 -1145 -945 -58 -34 -116 -69 -130 -78 -14 -9 -27 -15 -30 -15
-3 0 -16 -7 -30 -17 -23 -16 -108 -62 -120 -65 -6 -2 -188 -92 -210 -105 -8
-5 -60 -27 -115 -51 -55 -23 -109 -47 -120 -52 -11 -6 -22 -12 -25 -12 -12 -2
-88 -29 -120 -43 -19 -9 -37 -16 -40 -17 -3 0 -30 -9 -60 -20 -30 -11 -58 -18
-62 -17 -5 1 -8 -2 -8 -6 0 -5 -6 -9 -12 -9 -13 0 -168 -47 -198 -60 -8 -3
-18 -6 -22 -5 -4 1 -20 -3 -35 -9 -15 -6 -41 -13 -57 -16 -16 -3 -41 -9 -55
-15 -14 -6 -39 -12 -55 -14 -17 -3 -48 -9 -70 -16 -23 -6 -50 -12 -61 -14 -27
-5 -60 -12 -60 -14 0 -1 -16 -3 -35 -5 -19 -3 -46 -7 -60 -10 -14 -4 -32 -7
-40 -7 -8 0 -22 -2 -30 -5 -8 -3 -33 -7 -55 -9 -22 -2 -56 -6 -75 -9 -107 -17
-256 -25 -475 -26 -239 -1 -362 7 -540 36 -70 11 -79 13 -149 29 -38 9 -71 15
-73 12 -2 -2 -26 5 -54 15 -27 10 -49 17 -49 14 0 -3 -13 1 -30 10 -16 9 -30
13 -30 10 0 -2 -44 11 -97 31 -54 19 -102 36 -108 38 -5 1 -19 7 -30 13 -11 6
-54 25 -95 43 -130 56 -385 209 -479 287 -39 34 -42 60 -14 124 60 133 261
325 538 513 68 46 99 61 128 62 20 0 37 -4 37 -9 0 -5 6 -7 14 -4 7 3 18 1 23
-4 5 -5 22 -10 38 -13 17 -2 43 -9 59 -15 16 -6 31 -9 34 -6 3 2 10 1 16 -4 7
-6 23 -12 36 -15 14 -3 67 -17 118 -31 52 -14 106 -28 120 -30 15 -1 47 -8 72
-15 25 -7 54 -14 65 -16 11 -3 43 -10 70 -15 57 -13 100 -20 133 -22 12 -1 22
-4 22 -7 0 -3 12 -5 28 -5 15 1 32 -2 37 -6 6 -3 17 -7 25 -7 36 -3 95 -11 95
-13 0 -1 9 -3 20 -4 66 -10 136 -17 180 -20 28 -2 50 -5 50 -6 0 -1 27 -3 61
-4 33 -1 65 -4 70 -7 16 -9 530 1 554 11 3 1 33 4 68 6 34 3 71 9 81 14 10 6
21 8 24 4 4 -3 13 -1 20 5 8 7 16 9 19 7 3 -3 39 3 79 15 41 11 81 22 89 24 8
2 29 10 45 17 17 7 32 13 35 14 3 1 20 6 38 10 17 4 32 11 32 15 0 4 12 11 28
15 15 3 35 14 46 23 10 9 20 15 22 12 10 -13 194 123 259 191 61 64 142 179
150 214 1 6 10 28 20 50 10 22 19 52 20 66 1 14 4 30 7 35 11 22 15 163 5 224
-13 81 -20 108 -47 172 -42 99 -94 174 -179 259 -93 93 -255 200 -326 215 -5
1 -27 9 -48 18 -21 9 -42 14 -47 11 -5 -3 -11 -1 -14 4 -3 5 -20 12 -38 15
-18 3 -44 9 -58 12 -14 3 -43 8 -65 11 -48 8 -313 7 -370 0 -90 -12 -121 -17
-145 -23 -14 -4 -32 -8 -40 -9 -33 -5 -109 -25 -136 -36 -16 -6 -36 -12 -44
-14 -52 -11 -278 -109 -360 -155 -14 -8 -27 -14 -30 -15 -3 0 -23 -11 -45 -24
-22 -14 -42 -25 -45 -26 -6 -1 -17 -7 -214 -135 -87 -56 -181 -111 -210 -122
-28 -10 -58 -21 -66 -25 -25 -9 -123 -9 -155 1 -16 5 -69 35 -116 66 -47 31
-128 80 -179 109 -175 99 -256 165 -294 240 -24 46 -20 55 37 99 211 159 442
391 1067 1072 403 439 548 590 567 590 7 0 50 -21 95 -46z m-4961 -31 c74 -77
180 -201 510 -598 150 -181 332 -397 404 -480 157 -181 406 -438 481 -496 30
-23 54 -49 54 -59 0 -24 -113 -153 -198 -227 -71 -61 -355 -268 -402 -293 -60
-32 -222 -6 -305 50 -16 11 -39 25 -50 32 -11 7 -69 54 -130 104 -60 50 -137
111 -170 135 -84 63 -292 189 -299 182 -3 -4 -6 -1 -6 5 0 7 -3 11 -7 10 -5
-1 -47 17 -95 40 -48 24 -101 45 -118 48 -16 4 -30 11 -30 16 0 6 -7 8 -15 5
-8 -4 -17 -2 -20 2 -2 5 -22 12 -42 16 -21 5 -42 9 -48 11 -25 7 -97 22 -145
31 -14 2 -48 5 -76 7 -29 2 -56 6 -60 9 -10 6 -153 1 -229 -8 -27 -3 -60 -6
-72 -7 -13 -1 -23 -5 -23 -9 0 -4 -6 -6 -12 -6 -23 2 -98 -15 -98 -22 0 -4
-12 -8 -27 -9 -16 -1 -29 -7 -31 -12 -2 -6 -15 -10 -28 -10 -13 0 -24 -4 -24
-10 0 -5 -9 -10 -20 -10 -11 0 -20 -4 -20 -10 0 -5 -6 -10 -13 -10 -21 0 -143
-87 -212 -151 -74 -69 -145 -160 -183 -234 -14 -27 -27 -52 -27 -55 -1 -3 -8
-21 -17 -41 -18 -42 -25 -63 -33 -104 -16 -78 -27 -224 -17 -239 3 -5 6 -23 7
-40 1 -17 5 -42 9 -56 4 -14 9 -35 12 -48 26 -126 181 -322 339 -429 86 -58
252 -137 311 -148 11 -2 20 -4 22 -4 1 -1 4 -1 7 -1 2 -1 21 -8 41 -16 20 -8
39 -13 42 -10 3 3 10 2 17 -4 6 -5 28 -11 48 -14 20 -2 40 -7 45 -10 11 -7
167 -28 220 -30 17 -1 32 -3 32 -6 0 -12 358 -16 530 -6 101 5 144 9 240 21
127 15 181 23 215 30 17 3 44 7 60 9 38 5 92 14 130 23 17 4 34 6 39 5 4 -2
13 1 20 6 6 4 21 7 34 6 12 0 22 3 22 8 0 5 4 6 10 3 5 -3 29 0 52 6 24 7 53
14 64 15 12 2 41 8 65 15 24 7 47 12 50 11 4 -1 47 10 95 24 93 26 114 31 151
38 13 3 28 8 35 13 7 4 18 8 23 8 17 1 79 17 90 23 5 3 20 7 33 8 13 2 29 8
36 14 36 29 393 -271 491 -414 42 -62 86 -177 78 -206 -6 -22 -240 -178 -363
-241 -47 -24 -87 -47 -90 -50 -8 -10 -332 -145 -370 -154 -3 -1 -12 -4 -20 -8
-18 -7 -149 -47 -170 -52 -8 -2 -44 -11 -80 -20 -73 -19 -90 -23 -140 -31 -19
-3 -39 -9 -44 -12 -5 -3 -21 -6 -35 -8 -14 -1 -46 -5 -71 -9 -93 -13 -116 -16
-157 -18 -24 0 -43 -4 -43 -7 0 -5 -46 -7 -308 -12 -89 -2 -162 0 -162 3 0 3
-30 6 -67 7 -72 1 -160 10 -253 26 -14 3 -41 7 -60 10 -19 3 -46 8 -60 11 -14
3 -38 7 -55 10 -38 5 -61 10 -135 29 -34 9 -64 15 -68 14 -4 -1 -20 4 -36 11
-16 6 -31 9 -34 6 -3 -2 -11 0 -18 5 -6 6 -16 10 -20 9 -5 -1 -22 3 -37 9 -16
7 -33 12 -38 12 -44 0 -442 158 -645 256 -65 31 -121 58 -124 58 -13 3 -197
110 -212 124 -10 8 -18 12 -18 9 0 -5 -118 68 -145 90 -6 4 -44 30 -85 57 -41
27 -129 90 -195 139 -487 365 -870 783 -1171 1279 -60 98 -217 408 -207 408 3
0 1 6 -4 13 -6 6 -25 50 -43 97 -18 47 -37 96 -43 110 -6 14 -10 28 -9 32 1 4
-3 20 -10 35 -6 15 -10 34 -9 41 1 6 -3 12 -9 12 -6 0 -9 4 -6 9 4 5 1 22 -6
38 -6 15 -10 32 -9 37 1 4 -3 14 -9 20 -5 7 -7 15 -4 18 3 3 0 26 -6 49 -13
47 -15 55 -26 134 -8 57 -12 80 -14 80 -1 0 -2 24 -3 53 0 28 -3 52 -6 52 -15
0 1 356 16 371 5 5 39 -3 76 -16 37 -14 67 -22 67 -19 0 4 6 2 13 -4 11 -9 94
-29 127 -30 8 -1 35 -6 59 -12 24 -6 50 -9 57 -6 8 3 16 1 19 -4 3 -6 20 -10
38 -10 18 0 61 -2 97 -5 144 -14 237 -17 505 -16 369 0 485 3 485 11 0 3 28 6
63 6 65 0 292 18 292 23 0 1 23 4 50 6 28 3 73 7 100 10 28 3 64 7 80 9 17 2
32 4 35 5 6 3 87 11 110 12 8 0 22 3 30 6 8 3 33 6 55 8 22 2 56 6 75 10 38 7
55 10 115 19 22 3 51 8 65 11 14 3 41 8 60 11 19 3 39 9 44 12 6 3 19 7 30 8
12 1 32 5 46 8 14 2 42 7 64 11 21 3 43 8 48 12 6 3 27 8 47 10 20 3 42 10 49
15 7 6 15 8 18 5 3 -3 47 6 97 19 50 14 98 26 107 28 29 5 105 28 115 34 6 4
15 7 20 7 29 1 115 30 115 39 0 5 3 7 6 3 3 -3 31 4 62 15 32 11 62 21 67 22
6 1 28 10 50 20 22 10 45 19 50 20 6 1 33 13 62 25 29 13 54 23 57 23 3 0 42
20 88 44 46 24 88 44 93 44 6 0 36 -26 66 -57z m-836 -1805 c6 -3 28 -6 50 -7
22 0 55 -5 74 -10 19 -6 38 -8 42 -5 5 3 9 1 9 -3 0 -5 11 -10 24 -11 32 -2
187 -58 266 -95 36 -16 67 -31 70 -32 65 -18 803 -458 806 -480 3 -20 -100
-112 -206 -184 -166 -114 -388 -209 -530 -228 -25 -3 -52 -8 -60 -12 -8 -4
-27 -7 -42 -6 -16 0 -28 -2 -28 -5 0 -7 -221 -3 -285 5 -27 4 -59 8 -70 9 -11
2 -29 5 -40 9 -11 3 -31 8 -45 11 -68 13 -147 41 -235 81 -33 16 -63 29 -66
29 -4 1 -48 28 -99 61 -125 81 -229 191 -278 294 -44 92 -42 87 -46 167 -5
132 79 252 228 324 90 43 247 90 275 83 10 -3 21 -1 24 4 6 9 147 10 162 1z
m6455 -35 c61 -2 89 -5 128 -17 9 -3 28 -7 42 -10 43 -8 163 -52 218 -80 84
-43 178 -140 190 -196 6 -34 7 -130 1 -130 -4 0 -10 -16 -13 -35 -15 -78 -118
-194 -243 -275 -43 -27 -82 -53 -88 -58 -14 -11 -149 -67 -153 -63 -2 1 -14
-5 -28 -13 -13 -9 -24 -14 -24 -11 0 3 -16 -2 -37 -10 -20 -8 -49 -18 -65 -20
-15 -3 -61 -12 -101 -21 -39 -9 -88 -17 -107 -19 -52 -6 -390 -7 -430 -1 -117
16 -149 21 -204 35 -22 5 -44 8 -48 5 -4 -3 -8 0 -8 7 0 7 -3 10 -6 6 -3 -3
-31 3 -62 14 -32 11 -59 20 -62 21 -3 0 -16 5 -30 10 -118 43 -173 66 -253
106 -77 40 -95 53 -111 85 -17 35 -17 39 -2 56 9 10 16 22 16 27 0 12 53 63
95 91 84 57 516 282 670 350 71 31 285 104 320 109 17 3 37 8 45 11 8 3 24 7
35 8 11 1 45 6 75 10 30 4 74 7 97 7 23 -1 45 3 48 9 4 5 12 6 18 2 7 -4 41
-8 77 -10z m-2673 -141 c43 -32 240 -177 438 -321 198 -145 375 -275 393 -288
44 -33 56 -64 30 -79 -11 -6 -27 -10 -36 -9 -70 8 -122 19 -122 25 0 3 -6 7
-12 7 -41 3 -238 94 -358 165 -174 104 -589 380 -595 396 -5 13 15 36 72 89
43 40 85 73 95 73 9 0 52 -26 95 -58z m-322 -532 c178 -119 285 -197 283 -206
-5 -22 -580 -474 -604 -474 -11 0 -24 3 -28 8 -4 4 -11 7 -14 7 -13 1 -118 58
-204 112 -177 109 -328 235 -362 301 l-17 32 32 18 c54 29 298 194 424 287
123 90 171 117 192 110 7 -2 141 -90 298 -195z"/>
</g>
</svg>
